<?xml version="1.0" encoding="utf-8"?>
<!-- Generator: Adobe Illustrator 22.0.1, SVG Export Plug-In . SVG Version: 6.00 Build 0)  -->
<svg version="1.1" id="Layer_1" xmlns="http://www.w3.org/2000/svg" xmlns:xlink="http://www.w3.org/1999/xlink" x="0px" y="0px"
	 viewBox="0 0 80 80" style="enable-background:new 0 0 80 80;" xml:space="preserve">
<path d="M12,45c-2.8,0-5-2.2-5-5s2.2-5,5-5h56c2.8,0,5,2.2,5,5s-2.2,5-5,5H12z M12,23c-2.8,0-5-2.2-5-5s2.2-5,5-5h56
	c2.8,0,5,2.2,5,5s-2.2,5-5,5H12z M12,67c-2.8,0-5-2.2-5-5c0-2.8,2.2-5,5-5h56c2.8,0,5,2.2,5,5c0,2.8-2.2,5-5,5H12z"/>
</svg>
