<?xml version="1.0" encoding="utf-8"?>
<!-- Generator: Adobe Illustrator 22.0.1, SVG Export Plug-In . SVG Version: 6.00 Build 0)  -->
<svg version="1.1" id="Layer_1" xmlns="http://www.w3.org/2000/svg" xmlns:xlink="http://www.w3.org/1999/xlink" x="0px" y="0px"
	 viewBox="0 0 80 80" style="enable-background:new 0 0 80 80;" xml:space="preserve">
<path d="M30.9,40L15,24.2c-2.4-2.4-2.4-6.3,0-8.7s6.3-2.4,8.7,0L40,31.7l16.3-16.3c2.4-2.4,6.3-2.4,8.7,0
	s2.4,6.3,0,8.7L49.1,40L65,55.8c2.4,2.4,2.4,6.3,0,8.7s-6.3,2.4-8.7,0L40,48.3L23.7,64.5c-2.4,2.4-6.3,2.4-8.7,0s-2.4-6.3,0-8.7
	L30.9,40z"/>
</svg>
