<?xml version="1.0" encoding="utf-8"?>
<!-- Generator: Adobe Illustrator 22.0.1, SVG Export Plug-In . SVG Version: 6.00 Build 0)  -->
<svg version="1.1" id="Layer_1" xmlns="http://www.w3.org/2000/svg" xmlns:xlink="http://www.w3.org/1999/xlink" x="0px" y="0px"
	 viewBox="0 0 80 80" style="enable-background:new 0 0 80 80;" xml:space="preserve">
<path d="M41.7,62.9c4.3-2.5,8.7-5.4,12.7-8.5C65,46.1,71,37.6,71,30.1c0-8.9-3.5-13.2-9.8-14.6
	c-5.6-1.3-11,0.5-14.7,2.7c-2.4,1.4-4.6,3.5-6.6,6.2c-2.1-2.7-4.3-4.8-6.6-6.2c-3.5-2.1-9-4-14.7-2.7C12.5,16.9,9,21.2,9,30.1
	c0,7.5,6,16,16.6,24.3c4,3.2,8.4,6,12.7,8.5c0.6,0.3,1.2,0.7,1.7,1C40.6,63.6,41.1,63.3,41.7,62.9z M40,12c8.7-9.2,40-10.9,40,18.1
	c0,25-40,44-40,44s-40-19-40-44C0,1.1,31.3,2.7,40,12z"/>
</svg>
