<?xml version="1.0" encoding="utf-8"?>
<!-- Generator: Adobe Illustrator 22.0.1, SVG Export Plug-In . SVG Version: 6.00 Build 0)  -->
<svg version="1.1" id="Layer_1" xmlns="http://www.w3.org/2000/svg" xmlns:xlink="http://www.w3.org/1999/xlink" x="0px" y="0px"
	 viewBox="0 0 48 48" style="enable-background:new 0 0 48 48;" xml:space="preserve">
<path d="M42,5.9c3.5,1.2,6,4.6,6,8.5s-2.5,7.3-6,8.5V45c0,1.7-1.3,3-3,3s-3-1.3-3-3V22.9c-3.5-1.2-6-4.6-6-8.5
	s2.5-7.3,6-8.5V3c0-1.7,1.3-3,3-3s3,1.3,3,3V5.9z M27,25.1c3.5,1.2,6,4.6,6,8.5s-2.5,7.3-6,8.5V45c0,1.7-1.3,3-3,3s-3-1.3-3-3v-2.9
	c-3.5-1.2-6-4.6-6-8.5s2.5-7.3,6-8.5V3c0-1.7,1.3-3,3-3s3,1.3,3,3V25.1z M12,5.9c3.5,1.2,6,4.6,6,8.5s-2.5,7.3-6,8.5V45
	c0,1.7-1.3,3-3,3s-3-1.3-3-3V22.9c-3.5-1.2-6-4.6-6-8.5s2.5-7.3,6-8.5V3c0-1.7,1.3-3,3-3s3,1.3,3,3V5.9z M9,17.4c1.7,0,3-1.3,3-3
	s-1.3-3-3-3s-3,1.3-3,3S7.3,17.4,9,17.4z M24,36.6c1.7,0,3-1.3,3-3c0-1.7-1.3-3-3-3s-3,1.3-3,3C21,35.3,22.3,36.6,24,36.6z M39,17.4
	c1.7,0,3-1.3,3-3s-1.3-3-3-3s-3,1.3-3,3S37.3,17.4,39,17.4z"/>
</svg>
