<?xml version="1.0" encoding="utf-8"?>
<!-- Generator: Adobe Illustrator 22.0.1, SVG Export Plug-In . SVG Version: 6.00 Build 0)  -->
<svg version="1.1" id="Layer_1" xmlns="http://www.w3.org/2000/svg" xmlns:xlink="http://www.w3.org/1999/xlink" x="0px" y="0px"
	 viewBox="0 0 48 56" style="enable-background:new 0 0 48 56;" xml:space="preserve">
<path d="M12,12c0-6.6,5.4-12,12-12s12,5.4,12,12h12v34c0,5.5-4.5,10-10,10H10C4.5,56,0,51.5,0,46V12H12z M16,12h16
	c0-4.4-3.6-8-8-8S16,7.6,16,12z M4.4,16.4V46c0,3.1,2.5,5.6,5.6,5.6h28c3.1,0,5.6-2.5,5.6-5.6V16.4H4.4z M30.8,25.8
	c0.9,0.5,1.2,0.9,1.2,1.9c0,0-0.1,7.6-1.6,12c-0.3,0.8-0.2,1-1.3,1.1c-0.7,0.1-2.9,0.2-2.9,0.2c-1,0-1.1-0.4-1-1.5
	c0.1-0.4,0.2-2.3,0.2-2.3c0.1-2-0.8-1.9-1.5-0.7c-1.3,2.3-2.4,3.7-3,4.2c-0.9,0.8-1.2,0.9-2.4,0.4c-1-0.4-2.3-1.9-2.3-1.9
	c-0.6-0.7-0.1-1,0.6-1.5c1.2-1,1.9-2.3,2.3-3c0.3-0.5,0.5-0.9,0.2-1c-4-2.7-2.6-8.1,1.6-9.4C23.3,23.7,27.1,23.9,30.8,25.8z
	 M28.1,29.9c0.6-0.5,0-0.7,0-0.7l-1.5-0.5c-0.5-0.2-0.5-0.3-0.6-0.6c-0.1-0.4-0.4-1.3-0.4-1.3c-0.2-0.7-0.5-0.3-0.7-0.1
	c0.2-0.2-0.6,0.8-0.9,1.2c-0.2,0.3-0.5,0.3-0.5,0.3c0,0-1.6,0-1.6,0c-0.9,0-0.4,0.6-0.4,0.6c0.2,0.2,0.8,1.1,0.9,1.2
	c0.2,0.2,0.2,0.5,0.1,0.7c-0.1,0.2-0.3,0.8-0.6,1.6c-0.3,0.8,0.5,0.4,0.5,0.4l1.4-0.6c0.5-0.2,0.8,0.1,0.8,0.2c0.1,0.1,1,0.9,1,0.9
	c0.5,0.5,0.6,0,0.6-0.2c0-0.2,0.1-1.4,0.1-1.6c0-0.4,0.2-0.5,0.3-0.6C26.7,30.8,28.1,29.9,28.1,29.9z"/>
</svg>
