<?xml version="1.0" encoding="utf-8"?>
<!-- Generator: Adobe Illustrator 22.0.1, SVG Export Plug-In . SVG Version: 6.00 Build 0)  -->
<svg version="1.1" id="Layer_1" xmlns="http://www.w3.org/2000/svg" xmlns:xlink="http://www.w3.org/1999/xlink" x="0px" y="0px"
	 viewBox="0 0 48 48" style="enable-background:new 0 0 48 48;" xml:space="preserve">
<path d="M33.6,37.8C30.1,40.4,25.7,42,21,42C9.4,42,0,32.6,0,21S9.4,0,21,0s21,9.4,21,21c0,4.7-1.6,9.1-4.2,12.6
	c0.1,0.1,0.2,0.2,0.3,0.3l9,9c1.2,1.2,1.2,3.1,0,4.2c-1.2,1.2-3.1,1.2-4.2,0l-9-9C33.8,38,33.7,37.9,33.6,37.8z M36,21
	c0-8.3-6.7-15-15-15S6,12.7,6,21s6.7,15,15,15S36,29.3,36,21z"/>
</svg>
