<?xml version="1.0" encoding="utf-8"?>
<!-- Generator: Adobe Illustrator 22.0.1, SVG Export Plug-In . SVG Version: 6.00 Build 0)  -->
<svg version="1.1" id="Layer_1" xmlns="http://www.w3.org/2000/svg" xmlns:xlink="http://www.w3.org/1999/xlink" x="0px" y="0px"
	 viewBox="0 0 80 80" style="enable-background:new 0 0 80 80;" xml:space="preserve">
<path d="M9,33.9C9,14.5,22.5,0,40.3,0s31.3,14.5,31.3,33.9c0,16.9-11.4,32.1-26.8,42.9L40.3,80l-4.5-3.1
	C20.4,66.1,9,50.8,9,33.9z M16.8,33.9c0,16.3,13.8,29.8,23.5,36.5c9.6-6.7,23.5-20.2,23.5-36.5c0-15.6-10.5-26.1-23.5-26.1
	S16.8,18.3,16.8,33.9z M31.9,30.9c0-4.4,3.6-8.1,8.1-8.1s8.1,3.6,8.1,8.1S44.4,39,40,39S31.9,35.4,31.9,30.9z"/>
</svg>
