<?xml version="1.0" encoding="utf-8"?>
<!-- Generator: Adobe Illustrator 22.0.1, SVG Export Plug-In . SVG Version: 6.00 Build 0)  -->
<svg version="1.1" id="Layer_1" xmlns="http://www.w3.org/2000/svg" xmlns:xlink="http://www.w3.org/1999/xlink" x="0px" y="0px"
	 viewBox="0 0 48 48" style="enable-background:new 0 0 48 48;" xml:space="preserve">
<path d="M3,42h30c1.7,0,3,1.3,3,3s-1.3,3-3,3H3c-1.7,0-3-1.3-3-3S1.3,42,3,42z M3,21h42c1.7,0,3,1.3,3,3s-1.3,3-3,3H3
	c-1.7,0-3-1.3-3-3S1.3,21,3,21z M3,0h30c1.7,0,3,1.3,3,3s-1.3,3-3,3H3C1.3,6,0,4.7,0,3S1.3,0,3,0z"/>
</svg>
