<?xml version="1.0" encoding="utf-8"?>
<!-- Generator: Adobe Illustrator 22.0.1, SVG Export Plug-In . SVG Version: 6.00 Build 0)  -->
<svg version="1.1" id="Layer_1" xmlns="http://www.w3.org/2000/svg" xmlns:xlink="http://www.w3.org/1999/xlink" x="0px" y="0px"
	 viewBox="0 0 80 80" style="enable-background:new 0 0 80 80;" xml:space="preserve">
<path d="M63.1,24.4c0-6.2-6.2-6.2-23.1-6.2s-23.1,0-23.1,6.2l0,1.6c0,1.5,0,3.1-3.1,3.1H3.1C0,29.1,0,27.5,0,26v-1.6
	C0,9,15.4,9,40,9c23.1,0,40,0,40,15.4l0,1.6c0,1.5,0,3.1-3.1,3.1H66.2c-3.1,0-3.1-1.5-3.1-3.1L63.1,24.4L63.1,24.4z M53.8,22.3
	c1.5,0,3.1,0,4.6,3.1c10.8,27.7,10.8,27.7,10.8,33.8v6.2c0,4.6-1.5,6.2-4.6,6.2H15.4c-3.1,0-4.6-1.5-4.6-6.2v-6.2
	c0-6.2,0-6.2,10.8-33.8c1.5-3.1,3.1-3.1,4.6-3.1H53.8z M40,50c7.7,0,13.8-4.6,13.8-10.8S47.7,28.5,40,28.5s-13.8,4.6-13.8,10.8
	S32.3,50,40,50z M40,33.1c6.2,0,9.2,3.1,9.2,6.2s-3.1,6.2-9.2,6.2s-9.2-3.1-9.2-6.2C30.8,36.2,33.8,33.1,40,33.1z"/>
</svg>
