<?xml version="1.0" encoding="utf-8"?>
<!-- Generator: Adobe Illustrator 22.0.1, SVG Export Plug-In . SVG Version: 6.00 Build 0)  -->
<svg version="1.1" id="Layer_1" xmlns="http://www.w3.org/2000/svg" xmlns:xlink="http://www.w3.org/1999/xlink" x="0px" y="0px"
	 viewBox="0 0 80 80" style="enable-background:new 0 0 80 80;" xml:space="preserve">
<path d="M16,54.1V14c0-2.8,2.2-5,5-5s5,2.2,5,5v40.1l4.7-4.7c1.9-1.9,5-1.9,6.9,0c1.9,1.9,1.9,5,0,6.9L24.4,69.4
	c-1.9,1.9-5,1.9-6.9,0L4.4,56.3c-1.9-1.9-1.9-5,0-6.9c1.9-1.9,5-1.9,6.9,0L16,54.1z M52,45c-2.8,0-5-2.2-5-5s2.2-5,5-5h20
	c2.8,0,5,2.2,5,5s-2.2,5-5,5H52z M52,71c-2.8,0-5-2.2-5-5c0-2.8,2.2-5,5-5h20c2.8,0,5,2.2,5,5c0,2.8-2.2,5-5,5H52z M40,19
	c-2.8,0-5-2.2-5-5s2.2-5,5-5h32c2.8,0,5,2.2,5,5s-2.2,5-5,5H40z"/>
</svg>
