<?xml version="1.0" encoding="utf-8"?>
<!-- Generator: Adobe Illustrator 22.0.1, SVG Export Plug-In . SVG Version: 6.00 Build 0)  -->
<svg version="1.1" id="Layer_1" xmlns="http://www.w3.org/2000/svg" xmlns:xlink="http://www.w3.org/1999/xlink" x="0px" y="0px"
	 viewBox="0 0 80 80" style="enable-background:new 0 0 80 80;" xml:space="preserve">
<path d="M40,14c18.1,0,31.3,12.6,37.8,20.4c2.9,3.5,2.9,8.6,0,12.1C71.3,54.3,58.1,66.8,40,66.8c-18.1,0-31.3-12.6-37.8-20.4
	c-2.9-3.5-2.9-8.6,0-12.1C8.7,26.6,21.9,14,40,14z M40,58.3c9.9,0,17.8-8,17.8-17.8c0-9.9-8-17.8-17.8-17.8c-9.9,0-17.8,8-17.8,17.8
	C22.2,50.3,30.1,58.3,40,58.3z M40,31.5c4.9,0,8.9,4,8.9,8.9c0,4.9-4,8.9-8.9,8.9c-4.9,0-8.9-4-8.9-8.9C31.1,35.5,35.1,31.5,40,31.5
	z"/>
</svg>
