<?xml version="1.0" encoding="utf-8"?>
<!-- Generator: Adobe Illustrator 22.0.1, SVG Export Plug-In . SVG Version: 6.00 Build 0)  -->
<svg version="1.1" id="Layer_1" xmlns="http://www.w3.org/2000/svg" xmlns:xlink="http://www.w3.org/1999/xlink" x="0px" y="0px"
	 viewBox="0 0 80 80" style="enable-background:new 0 0 80 80;" xml:space="preserve">
<path d="M12.8,72.4h54.8C67.6,57.8,55.3,46,40.2,46S12.8,57.8,12.8,72.4z M27.3,40.7c-5.8-4.1-9.5-10.8-9.5-18.3
	C17.8,10,27.8,0,40.2,0s22.4,10,22.4,22.4c0,7.6-3.8,14.3-9.5,18.3c13.1,5,22.3,17.3,22.3,31.7V80H5v-7.6C5,58,14.3,45.7,27.3,40.7z
	 M40.2,36.7c7.9,0,14.3-6.4,14.3-14.3S48.1,8.1,40.2,8.1s-14.3,6.4-14.3,14.3S32.3,36.7,40.2,36.7z"/>
</svg>
