<?xml version="1.0" encoding="utf-8"?>
<!-- Generator: Adobe Illustrator 22.0.1, SVG Export Plug-In . SVG Version: 6.00 Build 0)  -->
<svg version="1.1" id="Layer_1" xmlns="http://www.w3.org/2000/svg" xmlns:xlink="http://www.w3.org/1999/xlink" x="0px" y="0px"
	 viewBox="0 0 80 80" style="enable-background:new 0 0 80 80;" xml:space="preserve">
<path d="M60,30h6c2.2,0,4,1.8,4,4v37c0,2.2-1.8,4-4,4H14c-2.2,0-4-1.8-4-4V34c0-2.2,1.8-4,4-4h6v-5c0-11,9-20,20-20s20,9,20,20V30z
	 M50,30v-5c0-5.5-4.5-10-10-10s-10,4.5-10,10v5H50z"/>
</svg>
