<?xml version="1.0" encoding="utf-8"?>
<!-- Generator: Adobe Illustrator 22.0.0, SVG Export Plug-In . SVG Version: 6.00 Build 0)  -->
<svg version="1.1" id="Layer_1" xmlns="http://www.w3.org/2000/svg" xmlns:xlink="http://www.w3.org/1999/xlink" x="0px" y="0px"
	 viewBox="0 0 64 64" style="enable-background:new 0 0 64 64;" xml:space="preserve">
<path d="M56.2,7.8C46.1-2.4,18-2.8,7.6,7.8C-2.5,18.2-2.6,46,7.6,56.3c10.2,10.3,38.2,10.1,48.6,0C66.9,46,66.3,17.9,56.2,7.8z
	 M43.5,34.4h-9.2v9.2c0,1.4-1.1,2.5-2.5,2.5c-1.4,0-2.5-1.1-2.5-2.5v-8.9h-8.9c-1.4,0-2.5-1.1-2.5-2.5c0-1.4,1.1-2.5,2.5-2.5h9.2
	v-9.2c0-1.4,1.1-2.5,2.5-2.5c1.4,0,2.5,1.1,2.5,2.5v8.9h8.9c1.4,0,2.5,1.1,2.5,2.5C46,33.2,44.9,34.4,43.5,34.4z"/>
</svg>
