<?xml version="1.0" encoding="utf-8"?>
<!-- Generator: Adobe Illustrator 22.0.0, SVG Export Plug-In . SVG Version: 6.00 Build 0)  -->
<svg version="1.1" id="Layer_1" xmlns="http://www.w3.org/2000/svg" xmlns:xlink="http://www.w3.org/1999/xlink" x="0px" y="0px"
	 viewBox="0 0 104 103" style="enable-background:new 0 0 104 103;" xml:space="preserve">
<path d="M99.9,51.3c0,0-19.6,13.4-20.1,13.8c-1.7,1.3-4,2.8-4.3,9c-0.1,2.6-0.9,20.9-0.9,23.2c0,2.5-1.1,9.4-9.1,2.4
	c0,0-13.4-11.7-15.3-13.4c-0.5-0.4-5-5.6-12.2-2.5l-20.9,8.4c0,0-12.6,5.1-7.9-6.2c4.5-11,7.6-20.1,8.6-23c1-3.1,0.7-7.4-1.9-10.4
	C14.8,51.1,4.7,37.9,2.5,34.6c0,0-8.3-9.8,5.5-9.1c0,0,23.5,0.5,23.8,0.6c0.4,0,4.8,0.3,7.9-4.6c3.9-6.1,15.2-20.3,12.8-17.3
	c2-2.5,6.6-8.7,9.6,1.6c0,0,4.3,13.5,6.4,19.2c1.4,3.9,2.3,6.5,9.2,8.7l21.6,7.8C99.4,41.5,109.4,44.6,99.9,51.3"/>
</svg>
