<?xml version="1.0" encoding="utf-8"?>
<!-- Generator: Adobe Illustrator 22.0.0, SVG Export Plug-In . SVG Version: 6.00 Build 0)  -->
<svg version="1.1" id="Layer_1" xmlns="http://www.w3.org/2000/svg" xmlns:xlink="http://www.w3.org/1999/xlink" x="0px" y="0px"
	 viewBox="0 0 48 48" enable-background="new 0 0 48 48" xml:space="preserve">
<path d="M38.3,28.6c-2.8,0-5.4,1.2-7.2,3.2L19.4,25c0-0.3,0.1-0.7,0.1-1c0-0.4,0-0.9-0.1-1.3l12-6.2c1.8,1.8,4.2,3,7,3
	c5.4,0,9.7-4.3,9.7-9.7S43.7,0,38.3,0s-9.7,4.3-9.7,9.7c0,0.4,0,0.8,0.1,1.2l-12.1,6.2c-1.8-1.8-4.2-2.9-6.9-2.9
	c-5.4,0-9.7,4.3-9.7,9.7s4.3,9.7,9.7,9.7c2.8,0,5.3-1.2,7.1-3.1l11.8,6.8c0,0.3,0,0.6,0,0.9c0,5.4,4.3,9.7,9.7,9.7s9.7-4.3,9.7-9.7
	S43.7,28.6,38.3,28.6z"/>
</svg>
