<?xml version="1.0" encoding="utf-8"?>
<!-- Generator: Adobe Illustrator 22.0.0, SVG Export Plug-In . SVG Version: 6.00 Build 0)  -->
<svg version="1.1" id="Layer_1" xmlns="http://www.w3.org/2000/svg" xmlns:xlink="http://www.w3.org/1999/xlink" x="0px" y="0px"
	 viewBox="0 0 80 80" style="enable-background:new 0 0 80 80;" xml:space="preserve">
<path d="M48,68.9c0.1,4.4-3.4,8-7.8,8.1c-4.4,0.1-8-3.4-8.1-7.8c0-0.1,0-0.2,0-0.3c0.1-4.4,3.7-7.9,8.1-7.8
	C44.4,61.2,47.9,64.7,48,68.9z M40.3,56c-4,0-7.2-3.2-7.4-7.2l-0.2-8c0-3.4,2.7-6.5,5.3-7.4c7.2-2.3,14.2-7.1,11.3-12.3
	c-2.9-5.2-9.5-3.9-16.5,1.2c-3.3,2.4-7.9,1.8-10.3-1.5c-2.4-3.3-1.4-7.4,1.5-10.3c5.2-5.2,13.1-9.3,24.9-7
	c6.4,1.2,15.5,6.2,15.5,19.6c0,11.8-9.5,18.9-16.8,21.1l0.1,4.1c0.1,4.1-3.1,7.5-7.1,7.6C40.4,56,40.4,56,40.3,56L40.3,56z"/>
</svg>
