<?xml version="1.0" encoding="utf-8"?>
<!-- Generator: Adobe Illustrator 22.0.1, SVG Export Plug-In . SVG Version: 6.00 Build 0)  -->
<svg version="1.1" id="Layer_1" xmlns="http://www.w3.org/2000/svg" xmlns:xlink="http://www.w3.org/1999/xlink" x="0px" y="0px" viewBox="0 0 80 80" style="enable-background:new 0 0 80 80;" xml:space="preserve">
    <path d="M 10,33.3 C 10,54.1 27.7,71.4 40,80 52.3,71.4 70,54.1 70,33.3 70,13.4 56.6,0 40,0 23.4,0 10,13.4 10,33.3 Z" id="path2" />
    <path id="path5037" d="m 37.138378,40.226362 -9.261005,1.969689 C 26.819955,42.434403 25.97593,41.330057 26.4197,40.341112 l 4.060635,-8.551626 -4.737125,-8.225554 c -0.559782,-0.941712 0.216192,-2.084587 1.291322,-1.946607 l 9.387063,1.24286 6.367931,-7.076126 c 0.728013,-0.826313 2.06584,-0.449253 2.255195,0.635616 l 1.74625,9.32181 8.654489,3.842066 c 0.988945,0.443769 1.053891,1.823654 0.08473,2.33444 l -8.307906,4.590134 -1.002745,9.413478 c -0.09976,1.085903 -1.434478,1.57618 -2.211794,0.820717 z" style="fill:#ffffff;fill-opacity:1;stroke-width:0.39712799" />
</svg>