<?xml version="1.0" encoding="utf-8"?>
<!-- Generator: Adobe Illustrator 22.0.0, SVG Export Plug-In . SVG Version: 6.00 Build 0)  -->
<svg version="1.1" id="Layer_1" xmlns="http://www.w3.org/2000/svg" xmlns:xlink="http://www.w3.org/1999/xlink" x="0px" y="0px"
	 viewBox="0 0 64 64" enable-background="new 0 0 64 64" xml:space="preserve">
<path fill="#000000" d="M29.4,5.9l-29,50.2c-1.2,2,0.3,4.5,2.6,4.5h58c2.3,0,3.8-2.5,2.6-4.5l-29-50.2C33.4,3.9,30.6,3.9,29.4,5.9z"
	/>
<path fill="#FFFFFF" d="M29.2,38.6c0-1.6,1.2-2.6,2.8-2.6s2.8,1,2.8,2.6V48c0,1.5-1.3,2.6-2.8,2.6s-3-1-3-2.6L29.2,38.6z"/>
<path fill="#FFFFFF" d="M29,31c0-1.6,1.4-3,3-3c1.6,0,3,1.3,3,3s-1.4,3-3,3S29,32.7,29,31"/>
</svg>
