<svg xmlns="http://www.w3.org/2000/svg" xmlns:xlink="http://www.w3.org/1999/xlink" width="906" height="465" viewBox="0 0 906 465"><svg width="302" height="155" viewBox="0 0 302 155" id="large" x="0" y="0"><path fill="#5F3E04" d="M54.5 0h196c2.2 0 4 1.8 4 4v68c0 2.2-1.8 4-4 4h-196c-2.2 0-4-1.8-4-4V4c0-2.2 1.8-4 4-4z"></path><path fill="none" stroke="#865D15" stroke-width="8" d="M55.5 4h194c.6 0 1 .4 1 1v66c0 .6-.4 1-1 1h-194c-.6 0-1-.4-1-1V5c0-.6.4-1 1-1z"></path><g transform="translate(43 37)"><path fill="#FED204" d="M49.5 36h30c.6 0 1 .4 1 1v6c0 .6-.4 1-1 1h-30c-.6 0-1-.4-1-1v-6c0-.6.4-1 1-1zM46.5 26h30c.6 0 1 .4 1 1v6c0 .6-.4 1-1 1h-30c-.6 0-1-.4-1-1v-6c0-.6.4-1 1-1zM7.5 36h30c.6 0 1 .4 1 1v6c0 .6-.4 1-1 1h-30c-.6 0-1-.4-1-1v-6c0-.6.4-1 1-1zM105.5 23h30c.6 0 1 .4 1 1v6c0 .6-.4 1-1 1h-30c-.6 0-1-.4-1-1v-6c0-.6.4-1 1-1zM113.5 15h30c.6 0 1 .4 1 1v4c0 .6-.4 1-1 1h-30c-.6 0-1-.4-1-1v-4c0-.6.4-1 1-1z"></path><path fill="#DDD" d="M49.5 18h30c.6 0 1 .4 1 1v4c0 .6-.4 1-1 1h-30c-.6 0-1-.4-1-1v-4c0-.6.4-1 1-1z"></path><path fill="#FED204" d="M45.5 8h30c.6 0 1 .4 1 1v6c0 .6-.4 1-1 1h-30c-.6 0-1-.4-1-1V9c0-.6.4-1 1-1zM53.5 0h30c.6 0 1 .4 1 1v4c0 .6-.4 1-1 1h-30c-.6 0-1-.4-1-1V1c0-.6.4-1 1-1z"></path><path fill="#DDD" d="M10.5 28h30c.6 0 1 .4 1 1v4c0 .6-.4 1-1 1h-30c-.6 0-1-.4-1-1v-4c0-.6.4-1 1-1z"></path></g><g transform="translate(35 136)"><path fill="#FED204" d="M10.5 10h30c.6 0 1 .4 1 1v6c0 .6-.4 1-1 1h-30c-.6 0-1-.4-1-1v-6c0-.6.4-1 1-1z"></path><path fill="#DDD" d="M7.5 0h30c.6 0 1 .4 1 1v6c0 .6-.4 1-1 1h-30c-.6 0-1-.4-1-1V1c0-.6.4-1 1-1z"></path></g><g transform="matrix(-1 0 0 1 222 46)"><path fill="#FED204" d="M-2.5 27h30c.6 0 1 .4 1 1v6c0 .6-.4 1-1 1h-30c-.6 0-1-.4-1-1v-6c0-.6.4-1 1-1z"></path><path fill="#DDD" d="M-5.5 17h30c.6 0 1 .4 1 1v6c0 .6-.4 1-1 1h-30c-.6 0-1-.4-1-1v-6c0-.6.4-1 1-1zM-5.5 0h30c.6 0 1 .4 1 1v3c0 .6-.4 1-1 1h-30c-.6 0-1-.4-1-1V1c0-.6.4-1 1-1z"></path><path fill="#FED204" d="M-2.5 7h30c.6 0 1 .4 1 1v6c0 .6-.4 1-1 1h-30c-.6 0-1-.4-1-1V8c0-.6.4-1 1-1z"></path><path fill="#45CAB9" d="M23.5 34.4l-7.8-17.5 5.8-2.5 14.8 4.5 3.4 5.3z"></path><path fill="#FED204" d="M38.5 24h30c.6 0 1 .4 1 1v6c0 .6-.4 1-1 1h-30c-.6 0-1-.4-1-1v-6c0-.6.4-1 1-1z"></path><circle fill="#D8D8D8" cx="40.5" cy="23" r="12"></circle><path fill="#DE004D" d="M113.4 36.9L87.5 35l.7-8.5 14.9-14.9 8.5-.7z"></path><circle fill="#FED204" cx="95.5" cy="23" r="12"></circle></g><path fill="#2AACE2" d="M264.1 154.6l18.8-3.3-1.1-6.2-12.1-9.8-6.3.2z"></path><g transform="translate(44 76)"><path fill="#9E6E1B" d="M6.5 0h204v78H6.5z"></path><path fill="#DEAA00" d="M54.5 0h9v78h-9zM153.5 0h9v78h-9zM210.5 66c-6.6 0-12 5.4-12 12h12V66zM210.5 12V0h-12c0 6.6 5.4 12 12 12zM6.5 66v12h12c0-6.6-5.4-12-12-12zM18.5 0h-12v12c6.6 0 12-5.4 12-12z"></path></g><g transform="translate(0 108)"><path fill="#DDD" d="M264.5 32h30c.6 0 1 .4 1 1v6c0 .6-.4 1-1 1h-30c-.6 0-1-.4-1-1v-6c0-.6.4-1 1-1z"></path><path fill="#FED204" d="M294.5 41h-30c-.6 0-1 .4-1 1v4c0 .6.4 1 1 1h30c.6 0 1-.4 1-1v-4c0-.6-.4-1-1-1z"></path><path fill="#DDD" d="M166.5 38h30c.6 0 1 .4 1 1v6c0 .6-.4 1-1 1h-30c-.6 0-1-.4-1-1v-6c0-.6.4-1 1-1zM7.5 38h30c.6 0 1 .4 1 1v6c0 .6-.4 1-1 1h-30c-.6 0-1-.4-1-1v-6c0-.6.4-1 1-1zM210.5 38h30c.6 0 1 .4 1 1v6c0 .6-.4 1-1 1h-30c-.6 0-1-.4-1-1v-6c0-.6.4-1 1-1z"></path><path fill="#FED204" d="M7.5 28h30c.6 0 1 .4 1 1v6c0 .6-.4 1-1 1h-30c-.6 0-1-.4-1-1v-6c0-.6.4-1 1-1zM210.5 28h30c.6 0 1 .4 1 1v6c0 .6-.4 1-1 1h-30c-.6 0-1-.4-1-1v-6c0-.6.4-1 1-1z"></path><path fill="#DDD" d="M10.5 20h30c.6 0 1 .4 1 1v4c0 .6-.4 1-1 1h-30c-.6 0-1-.4-1-1v-4c0-.6.4-1 1-1zM213.5 20h30c.6 0 1 .4 1 1v4c0 .6-.4 1-1 1h-30c-.6 0-1-.4-1-1v-4c0-.6.4-1 1-1zM216.5 10h30c.6 0 1 .4 1 1v6c0 .6-.4 1-1 1h-30c-.6 0-1-.4-1-1v-6c0-.6.4-1 1-1z"></path><path fill="#FED204" d="M213.5 0h30c.6 0 1 .4 1 1v6c0 .6-.4 1-1 1h-30c-.6 0-1-.4-1-1V1c0-.6.4-1 1-1zM163.5 28h30c.6 0 1 .4 1 1v6c0 .6-.4 1-1 1h-30c-.6 0-1-.4-1-1v-6c0-.6.4-1 1-1z"></path><path fill="#DDD" d="M172.5 18h30c.6 0 1 .4 1 1v6c0 .6-.4 1-1 1h-30c-.6 0-1-.4-1-1v-6c0-.6.4-1 1-1z"></path></g><path fill="#FED204" d="M104.5 146h30c.6 0 1 .4 1 1v6c0 .6-.4 1-1 1h-30c-.6 0-1-.4-1-1v-6c0-.6.4-1 1-1z"></path><path fill="#DDD" d="M107.5 138h30c.6 0 1 .4 1 1v4c0 .6-.4 1-1 1h-30c-.6 0-1-.4-1-1v-4c0-.6.4-1 1-1zM110.5 128h30c.6 0 1 .4 1 1v6c0 .6-.4 1-1 1h-30c-.6 0-1-.4-1-1v-6c0-.6.4-1 1-1z"></path><path fill="#FED204" d="M107.5 118h30c.6 0 1 .4 1 1v6c0 .6-.4 1-1 1h-30c-.6 0-1-.4-1-1v-6c0-.6.4-1 1-1z"></path><g transform="translate(136 105)"><circle fill="#DEAA00" cx="16.5" cy="10" r="10"></circle><circle fill="#5F3E04" cx="16.5" cy="8" r="3"></circle><path fill="#5F3E04" d="M15.5 8h2v7c0 .6-.4 1-1 1s-1-.4-1-1V8z"></path></g></svg><svg width="302" height="155" viewBox="0 0 302 155" id="medium" x="302" y="155"><g transform="translate(65)"><path fill="#5F3E04" d="M4 0h164c2.2 0 4 1.8 4 4v68c0 2.2-1.8 4-4 4H4c-2.2 0-4-1.8-4-4V4c0-2.2 1.8-4 4-4z"></path><path fill="none" stroke="#865D15" stroke-width="8" d="M5 4h162c.6 0 1 .4 1 1v66c0 .6-.4 1-1 1H5c-.6 0-1-.4-1-1V5c0-.6.4-1 1-1z"></path></g><g transform="translate(87 52)"><path fill="#FED204" d="M4 21h30c.6 0 1 .4 1 1v6c0 .6-.4 1-1 1H4c-.6 0-1-.4-1-1v-6c0-.6.4-1 1-1zM1 11h30c.6 0 1 .4 1 1v6c0 .6-.4 1-1 1H1c-.6 0-1-.4-1-1v-6c0-.6.4-1 1-1zM60 8h30c.6 0 1 .4 1 1v6c0 .6-.4 1-1 1H60c-.6 0-1-.4-1-1V9c0-.6.4-1 1-1zM68 0h30c.6 0 1 .4 1 1v4c0 .6-.4 1-1 1H68c-.6 0-1-.4-1-1V1c0-.6.4-1 1-1z"></path><path fill="#DDD" d="M4 3h30c.6 0 1 .4 1 1v4c0 .6-.4 1-1 1H4c-.6 0-1-.4-1-1V4c0-.6.4-1 1-1z"></path></g><g transform="translate(40 136)"><path fill="#FED204" d="M4 10h30c.6 0 1 .4 1 1v6c0 .6-.4 1-1 1H4c-.6 0-1-.4-1-1v-6c0-.6.4-1 1-1z"></path><path fill="#DDD" d="M1 0h30c.6 0 1 .4 1 1v6c0 .6-.4 1-1 1H1c-.6 0-1-.4-1-1V1c0-.6.4-1 1-1z"></path></g><g transform="matrix(-1 0 0 1 284 53)"><path fill="#FED204" d="M61 20h30c.6 0 1 .4 1 1v6c0 .6-.4 1-1 1H61c-.6 0-1-.4-1-1v-6c0-.6.4-1 1-1zM58 10h30c.6 0 1 .4 1 1v6c0 .6-.4 1-1 1H58c-.6 0-1-.4-1-1v-6c0-.6.4-1 1-1z"></path><path fill="#45CAB9" d="M87 27.4L79.2 9.9 85 7.4l14.8 4.5 3.4 5.3z"></path><path fill="#FED204" d="M102 17h30c.6 0 1 .4 1 1v6c0 .6-.4 1-1 1h-30c-.6 0-1-.4-1-1v-6c0-.6.4-1 1-1z"></path><circle fill="#D8D8D8" cx="104" cy="16" r="12"></circle><path fill="#DE004D" d="M176.9 29.9L151 28l.7-8.5 14.9-14.9 8.5-.7z"></path><circle fill="#FED204" cx="159" cy="16" r="12"></circle><path fill="#2AACE2" d="M21.4 101.6L2.6 98.3l1.1-6.2 12.1-9.8 6.3.2z"></path></g><g transform="matrix(-1 0 0 1 302 136)" fill="#FED204"><path d="M52 10h30c.6 0 1 .4 1 1v6c0 .6-.4 1-1 1H52c-.6 0-1-.4-1-1v-6c0-.6.4-1 1-1zM1 13h30c.6 0 1 .4 1 1v4c0 .6-.4 1-1 1H1c-.6 0-1-.4-1-1v-4c0-.6.4-1 1-1zM49 0h30c.6 0 1 .4 1 1v6c0 .6-.4 1-1 1H49c-.6 0-1-.4-1-1V1c0-.6.4-1 1-1z"></path></g><g transform="translate(65 76)"><path fill="#9E6E1B" d="M0 0h172v78H0z"></path><path fill="#DEAA00" d="M172 66c-6.6 0-12 5.4-12 12h12V66zM172 12V0h-12c0 6.6 5.4 12 12 12zM0 66v12h12c0-6.6-5.4-12-12-12zM12 0H0v12c6.6 0 12-5.4 12-12z"></path></g><g transform="translate(0 126)"><path fill="#DDD" d="M165 20h30c.6 0 1 .4 1 1v6c0 .6-.4 1-1 1h-30c-.6 0-1-.4-1-1v-6c0-.6.4-1 1-1zM1 20h30c.6 0 1 .4 1 1v6c0 .6-.4 1-1 1H1c-.6 0-1-.4-1-1v-6c0-.6.4-1 1-1z"></path><path fill="#FED204" d="M162 10h30c.6 0 1 .4 1 1v6c0 .6-.4 1-1 1h-30c-.6 0-1-.4-1-1v-6c0-.6.4-1 1-1z"></path><path fill="#DDD" d="M171 0h30c.6 0 1 .4 1 1v6c0 .6-.4 1-1 1h-30c-.6 0-1-.4-1-1V1c0-.6.4-1 1-1z"></path></g><g transform="translate(141 105)"><circle fill="#DEAA00" cx="10" cy="10" r="10"></circle><circle fill="#5F3E04" cx="10" cy="8" r="3"></circle><path fill="#5F3E04" d="M9 8h2v7c0 .6-.4 1-1 1s-1-.4-1-1V8z"></path></g></svg><svg width="302" height="155" viewBox="0 0 302 155" id="small" x="604" y="310"><path fill="#5F3E04" d="M101 64h100c2.2 0 4 1.8 4 4v36c0 2.2-1.8 4-4 4H101c-2.2 0-4-1.8-4-4V68c0-2.2 1.8-4 4-4z"></path><path fill="none" stroke="#865D15" stroke-width="5" d="M100.5 66.5h101c.6 0 1 .4 1 1v37c0 .6-.4 1-1 1h-101c-.6 0-1-.4-1-1v-37c0-.6.4-1 1-1z"></path><g transform="translate(32 24)"><path fill="#FED204" d="M75 82h30c.6 0 1 .4 1 1v6c0 .6-.4 1-1 1H75c-.6 0-1-.4-1-1v-6c0-.6.4-1 1-1zM72 72h30c.6 0 1 .4 1 1v6c0 .6-.4 1-1 1H72c-.6 0-1-.4-1-1v-6c0-.6.4-1 1-1z"></path><path fill="#DDD" d="M75 64h30c.6 0 1 .4 1 1v4c0 .6-.4 1-1 1H75c-.6 0-1-.4-1-1v-4c0-.6.4-1 1-1z"></path></g><path fill="#FED204" d="M182 102h-30c-.6 0-1 .4-1 1v6c0 .6.4 1 1 1h30c.6 0 1-.4 1-1v-6c0-.6-.4-1-1-1z"></path><circle fill="#D8D8D8" cx="180" cy="101" r="12"></circle><path fill="#FED204" d="M242 149h-30c-.6 0-1 .4-1 1v4c0 .6.4 1 1 1h30c.6 0 1-.4 1-1v-4c0-.6-.4-1-1-1z"></path><path fill="#9E6E1B" d="M97 108h108v46H97z"></path><path fill="#DDD" d="M165 146h30c.6 0 1 .4 1 1v6c0 .6-.4 1-1 1h-30c-.6 0-1-.4-1-1v-6c0-.6.4-1 1-1zM72 146h30c.6 0 1 .4 1 1v6c0 .6-.4 1-1 1H72c-.6 0-1-.4-1-1v-6c0-.6.4-1 1-1z"></path><path fill="#FED204" d="M162 136h30c.6 0 1 .4 1 1v6c0 .6-.4 1-1 1h-30c-.6 0-1-.4-1-1v-6c0-.6.4-1 1-1z"></path><path fill="#DDD" d="M171 126h30c.6 0 1 .4 1 1v6c0 .6-.4 1-1 1h-30c-.6 0-1-.4-1-1v-6c0-.6.4-1 1-1z"></path><g transform="translate(70 57)"><circle fill="#DEAA00" cx="81" cy="74" r="10"></circle><circle fill="#5F3E04" cx="81" cy="72" r="3"></circle><path fill="#5F3E04" d="M80 72h2v7c0 .6-.4 1-1 1s-1-.4-1-1v-7z"></path></g></svg></svg>