<svg xmlns="http://www.w3.org/2000/svg" xmlns:xlink="http://www.w3.org/1999/xlink" width="4144" height="2701" viewBox="0 0 4144 2701"><svg width="112" height="73" viewBox="0 0 112 73" id="art" x="0" y="0"><g fill="none" fill-rule="evenodd"><path fill="#FED204" d="M84.292 38.614c-3.277 0-5.936-1.772-5.936-3.955 0-2.186 2.659-3.957 5.936-3.957 3.275 0 5.934 1.77 5.934 3.957 0 2.183-2.659 3.955-5.934 3.955m-5.936 15.825c-4.369 0-7.912-2.656-7.912-5.934 0-3.277 3.543-5.935 7.912-5.935 4.372 0 7.913 2.658 7.913 5.935 0 3.278-3.541 5.934-7.913 5.934m-21.759 5.935c-4.369 0-7.912-2.658-7.912-5.935 0-3.278 3.543-5.934 7.912-5.934 4.371 0 7.914 2.656 7.914 5.934 0 3.277-3.543 5.935-7.914 5.935m-19.782-43.52c0-3.277 3.543-5.933 7.913-5.933 4.373 0 7.914 2.656 7.914 5.934 0 3.277-3.541 5.935-7.914 5.935-4.37 0-7.913-2.658-7.913-5.935m-1.976 37.584c-4.371 0-7.914-2.656-7.914-5.934 0-3.277 3.543-5.935 7.914-5.935 4.369 0 7.912 2.658 7.912 5.935 0 3.278-3.543 5.934-7.912 5.934M22.97 30.702c0-3.276 3.543-5.935 7.912-5.935s7.912 2.659 7.912 5.935-3.543 5.934-7.912 5.934-7.912-2.658-7.912-5.934m70.443-5.056c-.941-1.964-3.187-2.856-5.336-1.982 0 0-3.277 1.433-7.742 1.433-8.74 0-15.824-4.43-15.824-9.89 0-3.296 3.344-5.697 3.344-5.697 1.765-1.27 1.478-2.718-.637-3.22 0 0-4.688-1.303-10.621-1.303-21.85 0-39.561 14.169-39.561 31.649s17.711 31.65 39.561 31.65c21.849 0 39.562-14.17 39.562-31.65 0-5.254-2.746-10.99-2.746-10.99"></path><path fill="#EC2127" d="M38.794 30.701c0-3.276-3.543-5.934-7.912-5.934-4.37 0-7.912 2.659-7.912 5.934 0 3.276 3.543 5.935 7.912 5.935s7.912-2.659 7.912-5.935"></path><path fill="#E67700" d="M34.839 42.57c-4.371 0-7.914 2.658-7.914 5.935 0 3.278 3.543 5.934 7.914 5.934 4.369 0 7.912-2.656 7.912-5.934 0-3.277-3.543-5.935-7.912-5.935"></path><path fill="#6DA10C" d="M52.642 16.855c0-3.278-3.541-5.935-7.914-5.935-4.37 0-7.912 2.657-7.912 5.935 0 3.276 3.543 5.935 7.912 5.935 4.373 0 7.914-2.66 7.914-5.935"></path><path fill="#1450A0" d="M56.597 48.504c-4.37 0-7.912 2.656-7.912 5.935 0 3.276 3.543 5.934 7.912 5.934 4.37 0 7.914-2.658 7.914-5.934 0-3.279-3.543-5.935-7.914-5.935"></path><path fill="#9655A2" d="M78.356 42.57c-4.369 0-7.912 2.658-7.912 5.935 0 3.278 3.543 5.934 7.912 5.934 4.371 0 7.912-2.656 7.912-5.934 0-3.277-3.54-5.935-7.912-5.935"></path></g></svg><svg width="112" height="73" viewBox="0 0 112 73" id="balls" x="112" y="73"><g fill="none" fill-rule="evenodd"><path fill="#E67700" d="M67.793 1.208c-1.621 0-6.513 2.031-11.416 8.964h22.792c-4.89-6.933-9.761-8.964-11.376-8.964m7.002 29.769h-4.622v4.622h4.622v2.31h-4.622v4.626h4.622v2.31h-4.622v4.624H65.55v-4.623h-4.623v-2.311h4.623V37.91h-4.623v-2.311h4.623v-4.622h-4.623v-2.312h4.623v-4.622h4.623v4.622h4.622v2.312zm8.009-16.182H52.74c-4.284 4.625-7.852 12.828-8.307 20.434 8.87 2.12 15.475 9.78 15.475 19.303 0 1.542-.19 1.87-.517 4.183h23.412c4.625-6.934 8.487-13.788 8.487-21.96 0-8.171-3.862-17.335-8.487-21.96zM57.237 64.45c4.603 4.894 9.03 7.891 10.556 7.891 1.615 0 6.486-4.38 11.376-9.002H57.787c-.176 0-.354.773-.55 1.11"></path><path fill="#BED731" d="M25.389 43.564a17.833 17.833 0 0 0-3.758 10.958c0 4.13 1.41 7.925 3.758 10.956 2.539-2.947 4.088-6.772 4.088-10.956 0-4.187-1.55-8.012-4.088-10.958m28.348 0c-2.539 2.946-4.087 6.77-4.087 10.956s1.548 8.01 4.087 10.958a17.832 17.832 0 0 0 3.757-10.958c0-4.13-1.41-7.924-3.757-10.956"></path><path fill="#BED731" d="M52.26 41.863a17.872 17.872 0 0 0-12.697-5.274 17.88 17.88 0 0 0-12.698 5.274c3.008 3.37 4.853 7.798 4.853 12.657 0 4.864-1.845 9.289-4.853 12.66a17.882 17.882 0 0 0 12.698 5.273c4.963 0 9.453-2.017 12.698-5.272-3.007-3.372-4.853-7.797-4.853-12.661 0-4.86 1.846-9.287 4.853-12.657"></path></g></svg><svg width="112" height="73" viewBox="0 0 112 73" id="bath" x="224" y="146"><g fill="none" fill-rule="evenodd"><path fill="#6DCFF6" d="M71.634 16.823a3.566 3.566 0 1 1-7.134 0 3.566 3.566 0 0 1 7.134 0m-20.242 4.459a9.178 9.178 0 1 1-18.352 0 9.178 9.178 0 0 1 18.352 0m10.203-10.49a4.41 4.41 0 1 1-8.82 0 4.41 4.41 0 0 1 8.82 0m3.777 15.248a6.033 6.033 0 1 1-12.066 0 6.032 6.032 0 1 1 12.066 0m8.127-19.965a3.163 3.163 0 1 1-6.328 0 3.163 3.163 0 1 1 6.328 0"></path><path fill="#6ABD45" d="M103.876 38.76c0 1.216-.922 2.2-2.061 2.2l-92.031.246c-1.138 0-2.06-.982-2.06-2.197l-3.127-7.385c0-1.215.924-2.2 2.06-2.2 0 0 23.186 5.07 47.43 5.07 24.246 0 50.855-5.07 50.855-5.07 1.137 0 2.06.985 2.06 2.2l-3.126 7.137z"></path><path fill="#6DCFF6" d="M85.095 26.958a7.245 7.245 0 0 0-14.488 0c0 1.842.697 3.518 1.83 4.795 4.203-.358 8.166-.809 11.728-1.277a7.157 7.157 0 0 0 .93-3.518"></path><path fill="#BED731" d="M13.987 43.403l5.162 22.121c.717 2.695 3.111 5.565 5.842 5.565H86.47c2.73 0 5.125-2.87 5.842-5.565l5.16-22.367c.32-.025-83.648.19-83.484.246"></path></g></svg><svg width="112" height="73" viewBox="0 0 112 73" id="bike" x="336" y="219"><g fill="none" fill-rule="evenodd"><path fill="#1450A0" d="M85.048 33.285c-.781 0-1.547.062-2.304.153l1.766 5.064c.18-.007.356-.028.538-.028 7.645 0 13.842 6.199 13.842 13.846 0 7.645-6.197 13.845-13.842 13.845-7.647 0-13.845-6.2-13.845-13.846 0-5.475 3.185-10.194 7.798-12.439l-1.72-4.922c-6.631 2.979-11.27 9.635-11.27 17.361 0 10.496 8.539 19.035 19.037 19.035 10.494 0 19.034-8.538 19.034-19.035 0-10.495-8.54-19.035-19.034-19.035M41.785 52.32c0 7.646-6.198 13.845-13.843 13.845-7.646 0-13.844-6.2-13.844-13.845 0-7.647 6.198-13.845 13.844-13.845.504 0 1 .03 1.49.083l1.763-4.974a18.947 18.947 0 0 0-3.253-.3c-10.496 0-19.036 8.54-19.036 19.036 0 10.496 8.54 19.035 19.036 19.035 10.496 0 19.035-8.54 19.035-19.035 0-7.527-4.403-14.03-10.759-17.116l-1.73 4.917c4.342 2.335 7.297 6.92 7.297 12.199"></path><path fill="#BED731" d="M62.782 16.97v.693c0-.237.03-.463.048-.694h-.048z"></path><path fill="#EC2127" d="M83.47 52.673a2.719 2.719 0 0 0 3.357 1.705l.429-.13c1.472-.446 2.025-2.02 1.529-3.477L84.51 38.502l-1.766-5.064-3.645-10.46v-3.289h-5.44v2.718H40.738l5.927-16.316h3.032a2.718 2.718 0 0 0 0-5.438h-6.832l-11.67 32.93-1.763 4.975-4.36 12.303a2.599 2.599 0 0 0 1.703 3.36 2.717 2.717 0 0 0 3.346-1.7l4.367-12.4 1.73-4.918 1.632-4.636h37.897l1.535 4.39L79 39.88l4.469 12.793z"></path><path fill="#BED731" d="M84.615 17.501H62.751c.27-2.89 1.806-5.4 4.541-5.81l11.053-1.64c3.264-.488 6.27 2.562 6.27 6.508v.942z"></path></g></svg><svg width="112" height="73" viewBox="0 0 112 73" id="blaster" x="448" y="292"><g fill="none" fill-rule="evenodd"><path fill="#1450A0" d="M87.808 19.14l-2.413 7.308h12.37V18.49h-9.808c-.04.213-.076.426-.15.649"></path><path fill="#EC2127" d="M99.98 18.407v8.122a4.063 4.063 0 0 0 4.063-4.06 4.063 4.063 0 0 0-4.063-4.062"></path><path fill="#1450A0" d="M81.903 36.746h8.57v-7.958h-5.85l-2.332 7.06a5.728 5.728 0 0 1-.388.898"></path><path fill="#EC2127" d="M92.69 28.706v8.122a4.062 4.062 0 0 0 0-8.122"></path><path fill="#E67700" d="M39.762 52.06a4.449 4.449 0 0 0 6.035 1.777l2.147-.877a4.449 4.449 0 0 0 1.779-6.034l-7.411-13.605-5.043 14.16 2.493 4.578z"></path><path fill="#1450A0" d="M42.15 33.022l.161.298.347-.974c.05-.134.068-.27.104-.405h-1.467c.328.312.626.662.854 1.081"></path><path fill="#1450A0" d="M42.15 33.022a4.396 4.396 0 0 0-.855-1.08h-22.59l-8.653 24.293a4.449 4.449 0 0 0 2.64 5.711l12.911 4.894a4.446 4.446 0 0 0 5.71-2.637l5.955-16.723 5.043-14.16-.162-.298z"></path><path fill="#EC2127" d="M84.827 14.691H21.45c-2.457 0-5.106 1.991-5.917 4.448l-5.517 8.354c-.81 2.457.525 4.448 2.981 4.448h36.07l7.033 8.354h20.276c2.148 0 4.443-1.522 5.528-3.549.155-.29.286-.59.388-.899l2.331-7.059.772-2.34 2.413-7.309c.074-.222.111-.435.15-.649.391-2.147-.896-3.799-3.13-3.799"></path></g></svg><svg width="112" height="73" viewBox="0 0 112 73" id="blocks" x="560" y="365"><g fill="none" fill-rule="evenodd"><path fill="#1450A0" d="M76.418 51.867a4.428 4.428 0 1 1 0-8.856 4.428 4.428 0 0 1 0 8.856m0 13.283a4.428 4.428 0 1 1 0-8.856 4.428 4.428 0 0 1 0 8.856M56.494 51.867a4.428 4.428 0 1 1 0-8.855 4.428 4.428 0 1 1 0 8.856m0 13.282a4.427 4.427 0 1 1 0-8.855 4.427 4.427 0 1 1 0 8.855M36.57 51.867a4.426 4.426 0 0 1-4.428-4.428 4.425 4.425 0 0 1 4.428-4.428 4.428 4.428 0 1 1 0 8.856m0 13.283a4.426 4.426 0 0 1-4.428-4.428 4.425 4.425 0 0 1 4.428-4.427 4.427 4.427 0 1 1 0 8.855m50.918-28.78H25.5a4.428 4.428 0 0 0-4.428 4.428v26.566A4.43 4.43 0 0 0 25.5 71.79h61.988a4.429 4.429 0 0 0 4.428-4.427V40.797a4.427 4.427 0 0 0-4.428-4.427"></path><path fill="#2AACE2" d="M36.57 43.011a4.426 4.426 0 0 0-4.429 4.428 4.428 4.428 0 1 0 4.429-4.428m0 13.284a4.426 4.426 0 0 0-4.429 4.428 4.427 4.427 0 0 0 4.43 4.427 4.428 4.428 0 1 0 0-8.855m19.923-13.284a4.427 4.427 0 1 0 4.428 4.428 4.427 4.427 0 0 0-4.428-4.428m0 13.284a4.427 4.427 0 1 0 0 8.855 4.427 4.427 0 1 0 0-8.855m19.924-13.284a4.427 4.427 0 1 0 0 8.856 4.426 4.426 0 0 0 4.428-4.428 4.425 4.425 0 0 0-4.428-4.428m0 13.284a4.427 4.427 0 1 0 0 8.855 4.426 4.426 0 0 0 4.428-4.427 4.425 4.425 0 0 0-4.428-4.428"></path><path fill="#E67700" d="M87.488.948H63.135a4.427 4.427 0 0 0-4.427 4.428v24.352a4.426 4.426 0 0 0 4.427 4.427h24.353a4.427 4.427 0 0 0 4.428-4.427V5.376A4.428 4.428 0 0 0 87.488.948"></path><path fill="#BED731" d="M25.5 34.155h26.566a4.427 4.427 0 0 0 4.428-4.427v-11.07a4.429 4.429 0 0 0-4.428-4.427h-2.214V9.803h-8.854v4.428H36.57V9.803h-8.856v4.428H25.5a4.429 4.429 0 0 0-4.428 4.428v11.069a4.427 4.427 0 0 0 4.428 4.427"></path></g></svg><svg width="112" height="73" viewBox="0 0 112 73" id="bottle" x="672" y="438"><g fill="none" fill-rule="evenodd"><path fill="#EF5094" d="M61.335 15.134V6.833A5.535 5.535 0 0 0 55.8 1.3h-.111a5.423 5.423 0 0 0-5.424 5.423v8.41l-12.151 1.878a5.526 5.526 0 0 0-4.447 5.425v6.53h44.266v-6.53a5.53 5.53 0 0 0-4.448-5.425l-12.15-1.877z"></path><path fill="#6DCFF6" d="M77.933 42.217V31.15H33.667v36.017a5.532 5.532 0 0 0 5.53 5.533h33.204a5.533 5.533 0 0 0 5.532-5.533v-5.584H64.1v-2.764h13.833v-5.534H64.1v-2.77h13.833v-5.533H64.1v-2.765h13.833z"></path><path fill="#2AACE2" d="M64.1 44.981h13.833v-2.765H64.1zm0 8.304h13.833v-2.77H64.1zm0 8.298h13.833v-2.765H64.1z"></path></g></svg><svg width="112" height="73" viewBox="0 0 112 73" id="bouncy-castle" x="784" y="511"><g fill="none" fill-rule="evenodd"><path fill="#DEE0E0" d="M80.459 41.858V18.867c-7.498-2.451-15.008-3.751-22.518-3.9v26.89h22.518zM54.736 14.973c-7.406.177-14.813 1.478-22.207 3.895v22.99h22.207V14.973z"></path><path fill="#FED204" d="M32.529 53.471h22.207V41.858H32.529zm25.412 0h22.518V41.858H57.941z"></path><path fill="#EC2127" d="M57.941 14.968a72.86 72.86 0 0 0-3.205.005v38.498h3.205V14.968z"></path><path fill="#FED204" d="M16.732 13.381c.197.291.373.555.557.824V13.13c-.186.085-.37.165-.557.251m79.526 0c-.186-.087-.373-.166-.56-.252v1.08c.185-.27.363-.535.56-.828M32.53 18.867c7.394-2.416 14.8-3.718 22.206-3.895a72.86 72.86 0 0 1 3.205-.003c7.51.147 15.02 1.447 22.518 3.897V7.532c-15.909-4.4-32.024-4.402-47.93 0v11.335z"></path><path fill="#EC2127" d="M17.29 48.613a4.857 4.857 0 0 0 4.857 4.858h5.524a4.857 4.857 0 0 0 4.858-4.858V11.078a4.858 4.858 0 0 0-4.858-4.86h-5.524a4.858 4.858 0 0 0-4.858 4.86v37.535zm63.169 0a4.857 4.857 0 0 0 4.858 4.858h5.524a4.857 4.857 0 0 0 4.858-4.858V11.078a4.858 4.858 0 0 0-4.858-4.86h-5.524a4.858 4.858 0 0 0-4.858 4.86v37.535z"></path><path fill="#2AACE2" d="M11.842 61.296a7.414 7.414 0 0 0 7.415 7.415h74.475a7.415 7.415 0 0 0 7.415-7.415v-.41a7.415 7.415 0 0 0-7.415-7.415H19.257a7.414 7.414 0 0 0-7.415 7.415v.41z"></path></g></svg><svg width="112" height="73" viewBox="0 0 112 73" id="bubbles" x="896" y="584"><g fill="none" fill-rule="evenodd"><path fill="#2AACE2" d="M64.91 36.709c0-5.62 3.617-10.383 8.646-12.121C70.552 13.75 60.622 5.792 48.827 5.792c-14.175 0-25.666 11.492-25.666 25.667s11.491 25.667 25.666 25.667c8.517 0 16.06-4.151 20.73-10.537a12.806 12.806 0 0 1-4.647-9.88"></path><path fill="#6DCFF6" d="M77.744 23.875c-1.469 0-2.873.26-4.187.713-5.03 1.738-8.647 6.502-8.647 12.12a12.81 12.81 0 0 0 4.646 9.882 12.782 12.782 0 0 0 8.188 2.952c7.088 0 12.833-5.745 12.833-12.834 0-7.086-5.745-12.832-12.833-12.832"></path><path fill="#FFF" d="M68.996 35.71a1.501 1.501 0 0 1-1.478-1.772c1.103-5.982 6.572-7.563 9.31-7.563a1.5 1.5 0 0 1 .005 3c-.234.002-5.443.113-6.363 5.105a1.502 1.502 0 0 1-1.474 1.23"></path><path fill="#6DCFF6" d="M77.292 61.89a7.13 7.13 0 1 1-14.262.001 7.13 7.13 0 0 1 14.262 0"></path><path fill="#FFF" d="M31.496 28.46a2 2 0 0 1-1.969-2.363c2.085-11.315 12.446-14.305 17.633-14.305a2 2 0 0 1 .006 4c-.482.002-11.709.195-13.705 11.03a2.001 2.001 0 0 1-1.965 1.637"></path></g></svg><svg width="112" height="73" viewBox="0 0 112 73" id="bucket" x="1008" y="657"><g fill="none" fill-rule="evenodd"><path fill="#2AACE2" d="M44.62 10.892l-11.152 4.032a.929.929 0 0 1-1.188-.555l-1.46-4.042a.928.928 0 0 1 .556-1.19l11.152-4.032a.93.93 0 0 1 1.19.557l1.461 4.042a.93.93 0 0 1-.559 1.188m4.914-2.578l-1.58-4.37a5.013 5.013 0 0 0-6.422-3.01L29.475 5.29a5.018 5.018 0 0 0-3.01 6.425l1.58 4.369a5.016 5.016 0 0 0 6.421 3.012l4.311-1.56 1.384 4.258h5.73l-1.988-6.11 2.621-.947a5.017 5.017 0 0 0 3.01-6.424"></path><path fill="#EC2127" d="M84.032 21.795H28.956a3.003 3.003 0 0 0-3.002 3.003v2.592a3.004 3.004 0 0 0 3.002 3.004h55.076a3.004 3.004 0 0 0 3.002-3.004v-2.592a3.003 3.003 0 0 0-3.002-3.003M52.72 35.52c.957-1.107 2.213-1.77 3.357-1.77.62 0 1.174.199 1.606.57l21.596 18.653 2.952-20.397H31.045l5.562 34.896a4.899 4.899 0 0 0 4.832 4.096h30.908a4.9 4.9 0 0 0 4.834-4.096l.686-4.744-25.614-22.122c-1.258-1.091-1.054-3.323.467-5.085"></path><path fill="#E67700" d="M79.278 52.973L57.682 34.32c-.43-.371-.986-.569-1.605-.569-1.145 0-2.4.661-3.358 1.77-1.52 1.762-1.724 3.994-.466 5.085l25.614 22.122.522.451c.43.37.985.567 1.604.567 1.144 0 2.4-.662 3.357-1.769.674-.78 1.117-1.694 1.252-2.576.155-1.029-.13-1.942-.787-2.509l-4.537-3.919z"></path></g></svg><svg width="112" height="73" viewBox="0 0 112 73" id="car" x="1120" y="730"><g fill="none" fill-rule="evenodd"><path fill="#2AACE2" d="M87.179 17.267l4.048 5.53 6.54.116L87.346 8.675c-.051-.07-.11-.126-.166-.187V4.59a2.604 2.604 0 1 0-5.21 0v18.043l5.21.093v-5.459z"></path><path fill="#1450A0" d="M29.596 63.971c-3.687 0-6.688-3.004-6.688-6.693 0-3.69 3-6.692 6.688-6.692a6.7 6.7 0 0 1 6.693 6.692 6.7 6.7 0 0 1-6.693 6.693m0-22.174c-8.535 0-15.476 6.943-15.476 15.481 0 8.536 6.94 15.48 15.476 15.48 8.539 0 15.479-6.944 15.479-15.48 0-8.538-6.94-15.48-15.48-15.48m55.079 22.173c-3.687 0-6.687-3.004-6.687-6.693 0-3.69 3-6.692 6.687-6.692a6.698 6.698 0 0 1 6.693 6.692 6.7 6.7 0 0 1-6.693 6.693m0-22.174c-8.534 0-15.476 6.943-15.476 15.481 0 8.536 6.942 15.48 15.476 15.48 8.539 0 15.479-6.944 15.479-15.48 0-8.538-6.94-15.48-15.48-15.48"></path><path fill="#EC2127" d="M106.712 27.198a4.2 4.2 0 0 0-4.2-4.2l-4.744-.084-6.541-.117-4.048-.072-5.21-.092-.11-.002c-15.472-.13-17.53 16.26-17.53 16.26H48.864L39.96 24.675l-.024-.558c.106.014.172.022.183.022.084 0 8.456-17.828 8.456-17.828l-.081-.13.152-.277a1.92 1.92 0 0 0-1.055-2.498 1.916 1.916 0 0 0-2.497 1.053s-7.175 15.225-8.691 18.538H16.79a4.2 4.2 0 0 0-4.2 4.2v13.755l-2.717-.12a4.198 4.198 0 0 0-4.2 4.198v8.859h6.61c1.667-9 8.789-14.067 17.298-14.067 8.507 0 15.628 5.067 17.294 14.067h20.293c1.619-9 8.769-14.192 17.32-14.192 8.553 0 15.702 5.192 17.319 14.192h4.854v-9.932c.082-.016.05-16.76.05-16.76"></path></g></svg><svg width="112" height="73" viewBox="0 0 112 73" id="crib" x="1232" y="803"><g fill="none" fill-rule="evenodd"><path fill="#5F2E8F" d="M55.218 53.837a6.559 6.559 0 0 1-4.674-1.95c-12.884-4.275-19.012-4.167-32.207.306.397 1.449.778 2.848.774 2.848 1.204 4.348 2.376 10.82 3.517 15.038.114.42.676 1.176 1.308 1.176h48.169c.46 0 .905-.304 1.026-.781.469-1.853 1.537-5.04 2.526-6.552 1.695-2.601 5.245-4.793 7.575-6.83 2.158-1.886 6.876-5.955 10.6-9.697l-33 3.285a6.573 6.573 0 0 1-5.613 3.156"></path><path fill="#BED731" d="M50.544 51.887a6.56 6.56 0 0 1-1.908-4.633c0-1.513.515-2.902 1.374-4.013l-2.106-5.745C36.792 34.15 27.68 34.63 16.872 39.203c-3.303 1.878-4.927 5.7-5.245 9.305-.07.794-.075 1.483-.01 2.072.292 2.655 1.979 3.255 5.256 2.11.507-.176.978-.331 1.464-.496 13.195-4.474 19.323-4.581 32.207-.307m48.829-13.458l.054-.015c-2.813-16.775-15.272-29.37-32.753-33.72-.366-.107-.728-.216-1.098-.315l-.013.058A55.2 55.2 0 0 0 56.48 3.17l-1.12 36.34.435 1.189a6.58 6.58 0 0 1 6.007 6.554 6.546 6.546 0 0 1-.97 3.427l33.002-3.286 6.183-.615a41.089 41.089 0 0 0-.643-8.351"></path><path fill="#F37023" d="M48.636 47.254c0 1.807.729 3.443 1.908 4.633A6.573 6.573 0 0 0 60.83 50.68c.612-1 .97-2.17.97-3.427a6.58 6.58 0 0 0-6.007-6.554l-.435-1.19L42.635 4.798a3.155 3.155 0 0 0-4.056-1.854A3.154 3.154 0 0 0 36.728 7l11.177 30.497 2.105 5.744a6.547 6.547 0 0 0-1.374 4.014"></path></g></svg><svg width="112" height="73" viewBox="0 0 112 73" id="crown" x="1344" y="876"><g fill="none" fill-rule="evenodd"><path fill="#FED204" d="M80.651 11.86c0-1.978-.934-2.274-2.074-.655L64.16 31.675c-1.14 1.62-3.012 1.623-4.158.009l-14.56-20.488c-1.146-1.614-3.004-1.601-4.127.03L27.253 31.654c-1.123 1.63-2.969 1.636-4.1.01l-14.25-20.45c-1.133-1.624-2.059-1.332-2.059.647v33.09a3.611 3.611 0 0 0 3.6 3.599h66.607c1.98 0 3.6-1.62 3.6-3.6V11.86zm-3.599 38.864H10.445a3.61 3.61 0 0 0-3.6 3.6v.962c0 1.98 1.62 3.6 3.6 3.6h66.607c.252 0 .498-.028.738-.078l2.119-6.645a3.586 3.586 0 0 0-2.857-1.44"></path><path fill="#EF5094" d="M90.35 26.696l-2.46.446-7.98 25.022-2.12 6.644-2.496 7.822 4.223 1.328L92.113 28.47z"></path><path fill="#2AACE2" d="M90.536 24.568l-7.77 1.405a.577.577 0 0 1-.62-.834l3.607-7.024a.581.581 0 0 0-.002-.541l-3.742-6.956a.581.581 0 0 1 .603-.85l7.795 1.264a.6.6 0 0 0 .516-.173l5.46-5.706a.58.58 0 0 1 .993.313l1.21 7.804a.574.574 0 0 0 .321.435l7.115 3.428a.58.58 0 0 1 .006 1.042l-7.049 3.56a.582.582 0 0 0-.312.443l-1.063 7.826a.58.58 0 0 1-.986.33L91.05 24.73a.587.587 0 0 0-.514-.162"></path><path fill="#EC2127" d="M50.673 33.591l-6.877 8.88-6.875-8.88 6.875-8.877z"></path></g></svg><svg width="112" height="73" viewBox="0 0 112 73" id="devices" x="1456" y="949"><g fill="none" fill-rule="evenodd"><path fill="#1450A0" d="M51.37 65.428a2.05 2.05 0 1 1-.002-4.099 2.05 2.05 0 0 1 .002 4.099zM31.9 57.23V14.19h38.94v16.396h8.2V8.042a4.1 4.1 0 0 0-4.1-4.1H27.8a4.099 4.099 0 0 0-4.098 4.1v57.386c0 2.265 1.835 4.1 4.098 4.1h36.441c-.982-1.09-1.599-2.52-1.599-4.1V57.23H31.9z"></path><path fill="#FFF" d="M51.37 61.33a2.05 2.05 0 1 0 0 4.1 2.05 2.05 0 0 0 0-4.1"></path><path fill="#2AACE2" d="M31.9 14.19v43.04h30.742V36.735a6.155 6.155 0 0 1 6.15-6.149h2.047V14.19H31.9z"></path><path fill="#E67700" d="M68.791 59.28h16.396V38.784H68.791V59.28zm8.198 6.148a2.05 2.05 0 1 1-.002-4.098 2.05 2.05 0 0 1 .002 4.098zm8.198-32.792H68.791a4.1 4.1 0 0 0-4.1 4.099v28.693a4.1 4.1 0 0 0 4.1 4.099h16.396a4.099 4.099 0 0 0 4.099-4.099V36.735a4.1 4.1 0 0 0-4.099-4.099z"></path><path fill="#FED204" d="M68.791 59.28h16.396V38.784H68.791z"></path><path fill="#FFF" d="M76.99 61.33a2.05 2.05 0 1 0-.002 4.1 2.05 2.05 0 0 0 .001-4.1"></path></g></svg><svg width="112" height="73" viewBox="0 0 112 73" id="doll" x="1568" y="1022"><g fill="none" fill-rule="evenodd"><path fill="#EF5094" d="M78.813 62.495c1.296 0 1.831-.92 1.188-2.045L65.103 34.688c-2.628 1.255-5.571 1.86-8.68 1.86-3.107 0-6.047-.605-8.677-1.86L32.847 60.45c-.644 1.126-.107 2.046 1.19 2.046h44.776z"></path><path fill="#F599B8" d="M38.834 17.895l-.006.504c0 1.603.276 3.346.779 4.803 2.219 6.404 8.938 11.159 16.887 11.159 7.965 0 14.697-4.634 16.901-11.064.494-1.443.763-3.338.763-4.923l-.006-.48H38.834zm6.073 46.74v3.42a4.278 4.278 0 0 0 4.275 4.278h1.875a4.277 4.277 0 0 0 4.276-4.278v-3.42H44.907zm23.033 0v3.42a4.277 4.277 0 0 1-4.277 4.278h-1.871a4.277 4.277 0 0 1-4.276-4.278v-3.42h10.423z"></path><path fill="#5F2E8F" d="M53.582 24.01a2.105 2.105 0 1 1-4.21-.002 2.105 2.105 0 0 1 4.21.002m11.525 0a2.104 2.104 0 1 1-4.208 0 2.104 2.104 0 0 1 4.208 0"></path><path fill="#F599B8" d="M66.953 33.569a2.84 2.84 0 0 1 1.961.302l14.557 7.103a3.715 3.715 0 1 1-3.608 6.496l-7.745-4.976-5.165-8.925z"></path><path fill="#5F2E8F" d="M85.889 25.488c-1.89-2.438-5.775-3.978-7.59-3.722.084-.282.143-.576.143-.886a3.134 3.134 0 0 0-3.135-3.135c-.074 0-.145.016-.22.02-.337-8.756-8.52-16.168-18.593-16.168-10.07 0-18.253 7.408-18.597 16.162-.047-.002-.092-.014-.141-.014a3.135 3.135 0 0 0-3.135 3.135c0 .314.059.61.147.897-1.781-.311-5.754 1.238-7.668 3.71-2.18 2.814-1.557 7.696-1.104 8.129.455.433 5.905.09 8.082-2.724 1.616-2.087 2.227-5.43 1.928-7.412a3.12 3.12 0 0 0 1.75.533c.695 0 1.332-.233 1.852-.617-.504-1.457-.78-3.218-.78-4.823 0-.156.016-.678.028-.678h35.277c.012 0 .026.522.026.678 0 1.586-.27 3.223-.764 4.666.529.412 1.189.722 1.912.722.615 0 1.186-.158 1.668-.464-.283 1.988.33 5.31 1.934 7.382 2.179 2.814 7.628 3.163 8.082 2.73.455-.433 1.078-5.308-1.102-8.121"></path><path fill="#F599B8" d="M45.895 33.569a2.84 2.84 0 0 0-1.96.302l-14.558 7.103a3.715 3.715 0 1 0 3.608 6.496l7.745-4.976 5.166-8.925z"></path></g></svg><svg width="112" height="73" viewBox="0 0 112 73" id="dummy" x="1680" y="1095"><g fill="none" fill-rule="evenodd"><path fill="#7B61AA" d="M66.581 53.596c0 5.845-4.794 10.583-10.706 10.581-5.913 0-10.705-4.74-10.704-10.584 0-3.968 2.213-7.42 5.482-9.23a37.997 37.997 0 0 1-9.795-2.666c-2.654 3.258-4.251 7.387-4.252 11.896 0 10.52 8.626 19.049 19.268 19.05 10.642.002 19.272-8.525 19.273-19.046 0-4.508-1.596-8.637-4.25-11.896a37.954 37.954 0 0 1-9.794 2.663c3.268 1.811 5.48 5.264 5.478 9.232"></path><path fill="#05BAED" d="M87.275 23.563a2.592 2.592 0 0 0-1.182-1.715l-3.694-2.31c-1.133-.71-2.747-.417-3.513.635-5.43 7.437-13.84 11.702-23.082 11.702-9.24-.001-17.65-4.269-23.076-11.71-.769-1.051-2.384-1.343-3.514-.635l-3.695 2.308a2.588 2.588 0 0 0-1.182 1.715 2.71 2.71 0 0 0 .466 2.101c4.172 5.782 9.685 10.137 15.98 12.803a37.957 37.957 0 0 0 9.795 2.665c1.715.229 3.456.359 5.225.359h.006c1.767 0 3.506-.13 5.219-.358a37.914 37.914 0 0 0 9.795-2.662c6.296-2.663 11.812-7.017 15.985-12.797a2.71 2.71 0 0 0 .467-2.1"></path><path fill="#F5ABC3" d="M64.707 3.93c-2.35-2.267-5.47-3.515-8.783-3.515h-.225c-3.507 0-6.298 1.115-8.785 3.512-2.015 1.944-3.394 5.396-3.355 8.401.05 2.033.402 3.9 1.078 5.707 1.047 2.776 4.063 10.85 4.063 10.85l.115.308 13.984.001.114-.308s3.011-8.072 4.06-10.849c.668-1.784 1.031-3.717 1.082-5.75.04-2.981-1.336-6.418-3.348-8.357"></path></g></svg><svg width="112" height="73" viewBox="0 0 112 73" id="exercise-book" x="1792" y="1168"><g fill="none" fill-rule="evenodd"><path fill="#1450A0" d="M31.34 67.664h-5.798a3.866 3.866 0 0 1-3.865-3.867V9.671a3.865 3.865 0 0 1 3.865-3.866h5.799v61.86z"></path><path fill="#2AACE2" d="M35.208 65.73v-2.21h38.66V5.806H31.341v61.86h42.527V65.73z"></path><path fill="#1450A0" d="M37.141 36.734h30.93V19.337h-30.93z"></path><path fill="#EF5094" d="M91.519 13.538H76.052v-5.8c0-1.068.865-1.933 1.934-1.933h11.599c1.067 0 1.934.865 1.934 1.933v5.8z"></path><path fill="#FFEFB7" d="M83.784 67.664l7.734-9.404H76.052z"></path><path fill="#FED204" d="M76.052 58.26h15.467V15.72H76.052z"></path><path fill="#1450A0" d="M79.919 62.962h7.732l-3.867 4.702z"></path></g></svg><svg width="112" height="73" viewBox="0 0 112 73" id="games-controller" x="1904" y="1241"><g fill="none" fill-rule="evenodd"><path fill="#BED731" d="M84.93 36.859a5.344 5.344 0 1 1 .004-10.688 5.344 5.344 0 0 1-.003 10.688zm-9.35 9.35a5.343 5.343 0 1 1 .001-10.687 5.343 5.343 0 0 1 0 10.687zm-9.348-9.35a5.344 5.344 0 0 1 0-10.687 5.343 5.343 0 0 1 5.342 5.344 5.343 5.343 0 0 1-5.342 5.343zM75.58 16.82a5.343 5.343 0 0 1 5.342 5.344 5.342 5.342 0 1 1-10.685 0 5.344 5.344 0 0 1 5.343-5.344zM48.954 31.586a3.367 3.367 0 0 1-3.365 3.366h-5.221v5.22A3.366 3.366 0 0 1 37 43.537h-.068a3.434 3.434 0 0 1-3.436-3.434v-5.151h-5.22a3.366 3.366 0 0 1-3.367-3.366v-.07a3.436 3.436 0 0 1 3.437-3.436h5.15v-5.22a3.367 3.367 0 0 1 3.366-3.367h.07a3.436 3.436 0 0 1 3.435 3.436v5.15h5.153a3.434 3.434 0 0 1 3.433 3.437v.07zm47.922.472C92.742 15.6 81.23 4.31 71.163 6.84c-2.957.743-5.445 2.62-7.4 5.285H49.226C47.269 9.46 44.78 7.583 41.824 6.84 31.757 4.31 20.247 15.6 16.113 32.058c-4.137 16.455.672 31.845 10.738 34.374 7.609 1.912 16.043-4.084 21.492-14.235h16.3c5.452 10.15 13.884 16.147 21.495 14.235 10.064-2.53 14.875-17.92 10.738-34.374z"></path><path fill="#EC2127" d="M75.581 27.508a5.344 5.344 0 1 0-.004-10.688 5.344 5.344 0 0 0 .004 10.688"></path><path fill="#03AE4B" d="M75.581 35.523a5.344 5.344 0 1 0 0 10.688 5.344 5.344 0 0 0 0-10.688"></path><path fill="#E67700" d="M66.231 26.172a5.345 5.345 0 0 0 0 10.687 5.343 5.343 0 0 0 5.342-5.343 5.343 5.343 0 0 0-5.342-5.344"></path><path fill="#1450A0" d="M84.93 26.172a5.344 5.344 0 1 0 .005 10.688 5.344 5.344 0 0 0-.004-10.688M45.52 28.08h-5.152v-5.15a3.436 3.436 0 0 0-3.436-3.438h-.07a3.366 3.366 0 0 0-3.364 3.368v5.22h-5.151a3.437 3.437 0 0 0-3.438 3.436v.07a3.367 3.367 0 0 0 3.367 3.365h5.222v5.151a3.433 3.433 0 0 0 3.434 3.434h.069a3.367 3.367 0 0 0 3.367-3.364v-5.22h5.22a3.368 3.368 0 0 0 3.367-3.367v-.069a3.435 3.435 0 0 0-3.434-3.437"></path></g></svg><svg width="112" height="73" viewBox="0 0 112 73" id="guitar" x="2016" y="1314"><g fill="none" fill-rule="evenodd"><path fill="#E67700" d="M51.493 46.705a8.28 8.28 0 0 1-8.348.303l-3.84 2.436 1.268 1.998a2.366 2.366 0 1 1-3.996 2.535L35.31 51.98l-.002.001-1.267-1.999-1.266-1.997-1.269-1.999-1.268-1.998a2.366 2.366 0 0 1 3.996-2.536l1.268 2 3.426-2.175c-.623-3.243.732-6.682 3.69-8.558a8.254 8.254 0 0 1 6.841-.927l15.178-9.63c-5.893-5.549-14.469-7.242-21.325-3.905a17.076 17.076 0 0 0-7.23 6.624c-1.08 1.798-3.008 2.87-5.125 2.752-4.672-.257-9.363 1.075-13.276 4.246-7.414 6.01-9.445 17.23-4.78 26.512 6.116 12.164 20.44 16.647 30.695 10.141 3.488-2.214 6.011-5.396 7.507-9.053.817-2 2.62-3.304 4.745-3.526a17.092 17.092 0 0 0 7.427-2.569 17.028 17.028 0 0 0 2.676-2.127v-9.032l5.232-1.046a20.579 20.579 0 0 0-.447-8.873L54.903 42.351a8.254 8.254 0 0 1-3.41 4.354"></path><path fill="#E67700" d="M41.12 45.49a8.348 8.348 0 0 1-1.059-1.342 8.77 8.77 0 0 1-.328-.58L36.77 45.45l1.266 1.997 3.084-1.957z"></path><path fill="#FED204" d="M82.728 16.288L53.664 34.73c.131.176.264.354.383.543.314.493.566 1.006.763 1.532l29.186-18.519 1.269 2L55.32 39.282a8.297 8.297 0 0 1-.417 3.068l15.831-10.045 15.797-10.023-4.784-7.54.98 1.546zM51.933 33.024L81.46 14.29l-1.267-1.997-15.557 9.869-15.178 9.63c.88.266 1.719.68 2.475 1.232"></path><path fill="#1450A0" d="M102.519 12.14l-6.34-9.99-3.996 2.535L89.648.689 87.65 1.956l2.535 3.997-3.996 2.536-2.537-3.997-1.998 1.268 2.535 3.996-3.996 2.536 1.267 1.997.288.454 4.785 7.54 3.996-2.535 2.535 3.996 1.998-1.267-2.535-3.997 3.996-2.536 2.535 3.997 1.998-1.268-2.533-3.997zM43.145 47.008a8.28 8.28 0 0 0 8.348-.303 8.25 8.25 0 0 0 3.41-4.354c.33-.984.473-2.026.419-3.069l-12.177 7.726zm-3.412-3.439c.104.195.207.39.328.579.313.492.668.94 1.06 1.342l13.688-8.686a8.245 8.245 0 0 0-.762-1.531 7.79 7.79 0 0 0-.384-.543l-13.93 8.839zm12.2-10.545a8.231 8.231 0 0 0-2.475-1.232 8.255 8.255 0 0 0-6.841.926c-2.957 1.876-4.313 5.316-3.69 8.559l13.006-8.253z"></path><path fill="#6DA10C" d="M31.505 45.986l1.27 1.999-1.27-2zm20.428-12.962l-13.006 8.253L35.5 43.45l1.27 1.999 2.963-1.881 13.929-8.84 29.065-18.44-.981-1.546-.287-.453zM34.04 49.982l1.268 1.999.002-.001zm7.08-4.492l-3.084 1.957 1.27 1.998 3.84-2.436 12.175-7.726 29.944-18.997-1.27-2L54.81 36.804z"></path><path fill="#1450A0" d="M36.77 45.45l-1.27-2-1.267-1.998a2.365 2.365 0 0 0-3.265-.73 2.368 2.368 0 0 0-.73 3.265l1.267 1.998 1.27 2 1.266 1.996 1.269 1.998 1.267 1.998a2.365 2.365 0 1 0 3.997-2.534l-1.268-1.998-1.27-1.998-1.266-1.998z"></path><path fill="#6DA10C" d="M65.95 51.256v4.59c0-.04-.529-.069-.764-.069-2.17 0-3.972 1.76-3.972 3.931 0 2.17 1.822 3.931 3.994 3.931 2.033 0 3.994-1.599 3.994-3.575V48.08l9.758-1.952v6.466c0-.039-.53-.068-.762-.068-2.172 0-3.973 1.758-3.973 3.93 0 2.17 1.823 3.931 3.995 3.931 2.031 0 3.994-1.548 3.994-3.524v-17.89l-11.032 2.206-5.232 1.046v9.032z"></path></g></svg><svg width="112" height="73" viewBox="0 0 112 73" id="hero" x="2128" y="1387"><g fill="none" fill-rule="evenodd"><path fill="#FED204" d="M56.598 1.183c-15.79 0-28.59 15.753-28.59 35.187.118-18.998 12.838-35.047 28.59-35.187m10.996 56.079a1.1 1.1 0 0 1-1.1 1.101H46.7a1.1 1.1 0 0 1 0-2.201h19.793a1.1 1.1 0 0 1 1.1 1.1zM32.697 40.899c1.726 14.851 11.753 26.259 23.9 26.259 12.149 0 22.177-11.408 23.9-26.259l-23.9 10.865-23.9-10.865z"></path><path fill="#1450A0" d="M45.6 57.262c0 .606.494 1.101 1.102 1.101h19.793a1.1 1.1 0 0 0 0-2.201H46.702a1.1 1.1 0 0 0-1.101 1.1"></path><path fill="#1450A0" d="M56.598 67.159c-12.147 0-22.175-11.409-23.901-26.26l23.9 10.864 23.9-10.864c-1.723 14.852-11.751 26.26-23.9 26.26zM52.2 38.566l-6.6 2.2-8.795-8.794L52.2 38.566zm24.192-6.595l-8.798 8.796-6.598-2.2 15.396-6.596zM49.999 14.377l4.4-8.796h8.797l-4.4 8.796h4.4L49.999 27.573l4.4-13.196h-4.4zm6.599-13.194c-15.752.14-28.472 16.19-28.59 35.186-.12 19.434 12.8 35.188 28.59 35.188s28.589-15.754 28.589-35.188c0-19.433-12.8-35.328-28.59-35.187z"></path><path fill="#E67700" d="M21.41 29.772v13.196l5.737 4.302a44.813 44.813 0 0 1-1.339-10.9c0-3.795.474-7.452 1.34-10.901l-5.738 4.303zm64.638-4.302a44.844 44.844 0 0 1 1.34 10.9c0 3.792-.476 7.45-1.34 10.9l5.737-4.302V29.772l-5.737-4.303zM63.195 14.377h-4.399l4.4-8.797h-8.798L50 14.377h4.4L50 27.572z"></path><path fill="#FFF" d="M52.2 38.567l-15.396-6.595 8.796 8.795zm15.394 2.2l8.798-8.795-15.396 6.595z"></path></g></svg><svg width="112" height="73" viewBox="0 0 112 73" id="horse" x="2240" y="1460"><g fill="none" fill-rule="evenodd"><path fill="#E67700" d="M86.526 41.834a4.968 4.968 0 0 0 2.443-.436l.09-.043a5.002 5.002 0 0 0 2.42-6.646l-3.246-6.959c-.975-2.092-3.213-3.172-5.383-2.795a7.594 7.594 0 0 1 1.682 3.738l1.994 13.141zm-4.123-12.761a5.05 5.05 0 0 0-4.994-4.295l-3.053.014c0 .012.004.026.004.039 0 5.973-4.843 10.816-10.814 10.816-5.959 0-10.788-4.82-10.81-10.772h.02c-.005-.094-.02-.192-.02-.284h-.03S45.022 9.156 45.022 8.658V.852c-2.279 0-4.556 1.323-5.475 3.173-1.949-1.143-4.35-1.526-6.127.05L21.75 15.46c-2.016 2.459-3.465 3.077-2.394 5.867l1.531 2.706c1.703 3.188 4.92 1.769 4.92 1.769l4.885-2.21c4.653 2.225 5.107 11.9-2.177 28.368 2.911 2.38 6.031 4.399 9.322 5.989 8.438-15.58 29.634-15.47 37.468-.078a47.393 47.393 0 0 0 10.418-6.925l-3.32-21.874z"></path><path fill="#7B61AA" d="M96.962 48.124a3.785 3.785 0 0 0-5.35.248C82.272 58.622 69.474 64.5 56.494 64.5c-12.978 0-25.78-5.879-35.117-16.128a3.781 3.781 0 0 0-5.351-.248 3.785 3.785 0 0 0-.25 5.35c10.77 11.824 25.613 18.604 40.718 18.604 15.106 0 29.948-6.78 40.718-18.604a3.783 3.783 0 0 0-.25-5.35"></path><path fill="#FED204" d="M74.356 24.791l-21.6.083h-.02c.023 5.953 4.85 10.772 10.81 10.772 5.971 0 10.815-4.842 10.815-10.816 0-.013-.005-.026-.005-.039"></path></g></svg><svg width="112" height="73" viewBox="0 0 112 73" id="house" x="2352" y="1533"><g fill="none" fill-rule="evenodd"><path fill="#EF5094" d="M96.603 30.711L56.488 1.168 16.33 30.711c-1.11.832-1.83 2.14-1.83 3.527v.108c0 3.59 4.146 5.64 7.016 3.484l34.915-25.639 34.96 25.64c2.868 2.155 7.029.105 7.029-3.485v-.108c0-1.388-.708-2.695-1.818-3.527"></path><path fill="#F37023" d="M80.752 54.094h-11.04v-6.652a4.36 4.36 0 0 1 4.37-4.389h2.202c2.434 0 4.468 1.955 4.468 4.39v6.651zM56.462 14.93L25.543 37.571v34.191h11.042v-22.22c0-6.1 4.853-10.907 10.949-10.907h2.248c6.099 0 11.095 4.807 11.095 10.906v22.221h26.502v-34.19L56.462 14.93z"></path><path fill="#9655A2" d="M49.835 40.846h-2.207c-4.878 0-8.835 3.953-8.835 8.832v22.084h19.875V49.678a8.832 8.832 0 0 0-8.833-8.832"></path></g></svg><svg width="112" height="73" viewBox="0 0 112 73" id="lawn-game" x="2464" y="1606"><g fill="none" fill-rule="evenodd"><path fill="#6DCFF6" d="M60.508 21.834a6.737 6.737 0 0 1-6.738 6.738 6.739 6.739 0 1 1 6.738-6.738"></path><path fill="#BED731" d="M37.755 60.068c0 2.544-.683 4.928-1.874 6.979l51.128.025a13.842 13.842 0 0 1-1.89-7.004c0-4.33 1.98-8.196 5.084-10.746l-57.552-.018a13.874 13.874 0 0 1 5.104 10.764"></path><path fill="#FFF" d="M99.185 54.267a5.867 5.867 0 0 0-5.86 5.859 5.868 5.868 0 0 0 5.86 5.862c3.23 0 5.86-2.63 5.86-5.862a5.867 5.867 0 0 0-5.86-5.86"></path><path fill="#1450A0" d="M99.185 65.987a5.868 5.868 0 0 1-5.86-5.86 5.867 5.867 0 0 1 5.86-5.86 5.867 5.867 0 0 1 5.86 5.86 5.868 5.868 0 0 1-5.86 5.86m0-17.48c-6.408 0-11.621 5.212-11.621 11.62 0 6.407 5.213 11.62 11.62 11.62 6.408 0 11.62-5.213 11.62-11.62 0-6.408-5.212-11.62-11.62-11.62"></path><path fill="#FFF" d="M23.92 54.267a5.868 5.868 0 0 0-5.861 5.859 5.869 5.869 0 0 0 5.86 5.862 5.867 5.867 0 0 0 5.86-5.862 5.866 5.866 0 0 0-5.86-5.86"></path><path fill="#1450A0" d="M23.92 65.987a5.869 5.869 0 0 1-5.861-5.86c0-3.232 2.63-5.86 5.86-5.86a5.866 5.866 0 0 1 5.86 5.86 5.867 5.867 0 0 1-5.86 5.86m0-17.48c-6.407 0-11.62 5.212-11.62 11.62 0 6.407 5.213 11.62 11.62 11.62 6.407 0 11.62-5.213 11.62-11.62 0-6.408-5.213-11.62-11.62-11.62"></path><path fill="#EC2127" d="M87.4 47.283v-5.88c0-2.806-.603-5.234-2.506-5.234l-46.05-6.274c-1.903 0-3.284 2.43-3.284 5.235v12.153H87.4z"></path><path fill="#1450A0" d="M31.286 45.904c-.653 0-1.3-.295-1.724-.855L7.034 14.233l-4.873-.718a2.164 2.164 0 0 1-1.556-2.63A2.164 2.164 0 0 1 3.237 9.33l5.932.503L33.007 42.44a2.162 2.162 0 0 1-1.72 3.464"></path><path fill="#6DCFF6" d="M68.848 25.262a3.006 3.006 0 0 1 1.01 4.133 3.007 3.007 0 0 1-4.133 1.012 3.01 3.01 0 0 1 3.123-5.145M75.384 6.3a5.456 5.456 0 0 1 1.832 7.501 5.454 5.454 0 0 1-7.502 1.835 5.465 5.465 0 0 1-1.838-7.505 5.465 5.465 0 0 1 7.508-1.83M63.32 8.384a3.006 3.006 0 0 1 1.01 4.133 3.007 3.007 0 0 1-4.134 1.012 3.009 3.009 0 1 1 3.124-5.145"></path></g></svg><svg width="112" height="73" viewBox="0 0 112 73" id="media" x="2576" y="1679"><g fill="none" fill-rule="evenodd"><path fill="#6DA10C" d="M40.28 63.617c-.85 0-1.687-.044-2.516-.127v3.062c0 2.776 1.991 5.03 4.768 5.03h7.81V61.518a25.058 25.058 0 0 1-10.062 2.099m10.06-48.204V1.157h-7.808c-2.777 0-4.767 2.252-4.767 5.03v7.252a25.498 25.498 0 0 1 2.515-.125c3.579 0 6.979.752 10.06 2.1"></path><path fill="#BED731" d="M70.6 22.944c.245 0 .804.03.804.072V8.649L88.56 5.217v18.872c0 2.084-2.07 3.716-4.213 3.716-2.291 0-4.215-1.856-4.215-4.146s1.9-4.147 4.192-4.147c.244 0 .804.032.804.073v-6.82l-10.293 2.06v12.64c0 2.084-2.07 3.77-4.213 3.77-2.291 0-4.214-1.856-4.214-4.145 0-2.291 1.904-4.146 4.193-4.146zM95.614 66.55V1.158H50.34v14.256c8.88 3.882 15.092 12.739 15.092 23.05 0 10.314-6.211 19.172-15.092 23.054v10.064h45.272v-2.834H55.37V66.55h40.242z"></path><path fill="#FFF" d="M17.31 38.465c0-12.686 10.285-22.97 22.97-22.97 12.688 0 22.97 10.284 22.97 22.97 0 12.687-10.282 22.971-22.97 22.971-12.685 0-22.97-10.284-22.97-22.97"></path><path fill="#1450A0" d="M35.249 48.526V28.405l17.607 10.06-17.607 10.06zm28.002-10.061c0-12.685-10.283-22.97-22.971-22.97-12.685 0-22.97 10.285-22.97 22.97 0 12.687 10.285 22.97 22.97 22.97 12.688 0 22.971-10.283 22.971-22.97z"></path><path fill="#FFF" d="M52.856 38.465L35.25 28.405v20.121z"></path><path fill="#1450A0" d="M70.622 31.236c2.143 0 4.213-1.687 4.213-3.771v-12.64l10.293-2.06v6.82c0-.041-.56-.073-.805-.073-2.29 0-4.19 1.857-4.19 4.147s1.923 4.146 4.214 4.146c2.142 0 4.212-1.631 4.212-3.716V5.217L71.403 8.649v14.367c0-.042-.558-.072-.802-.072-2.29 0-4.194 1.855-4.194 4.146 0 2.289 1.924 4.146 4.215 4.146"></path></g></svg><svg width="112" height="73" viewBox="0 0 112 73" id="necklace" x="2688" y="1752"><g fill="none" fill-rule="evenodd"><path fill="#9655A2" d="M52.009 27.194L19.882.868v9.154l32.127 26.834zm9.179-.002v9.664l32.126-26.834V.868z"></path><path fill="#FED204" d="M56.597 40.367c.715-.595 1.502-1.046 2.297-1.407V28.38a2.273 2.273 0 0 0-2.274-2.271h-.044a2.272 2.272 0 0 0-2.272 2.271v10.58c.793.361 1.58.813 2.293 1.408"></path><path fill="#EF5094" d="M64.696 39.948s-6.074 0-8.1 4.016c-2.023-4.016-8.097-4.016-8.097-4.016s-9.112 0-9.112 11.043c0 10.04 17.21 21.084 17.21 21.084s17.21-11.043 17.21-21.084c0-11.043-9.11-11.043-9.11-11.043"></path></g></svg><svg width="112" height="73" viewBox="0 0 112 73" id="party" x="2800" y="1825"><g fill="none" fill-rule="evenodd"><path fill="#9655A2" d="M46.905 55.054a6.215 6.215 0 1 1 .046 12.43 6.215 6.215 0 0 1-.046-12.43zm8.617-22.072a6.213 6.213 0 0 1 6.238 6.19 6.213 6.213 0 0 1-6.19 6.238 6.214 6.214 0 0 1-6.239-6.192 6.212 6.212 0 0 1 6.191-6.236zm12.496 18.597a4.97 4.97 0 0 1 4.991 4.952 4.97 4.97 0 0 1-4.95 4.992 4.974 4.974 0 0 1-4.992-4.954 4.967 4.967 0 0 1 4.951-4.99zm14.68 19.497L63.31 21.763l-.058.059-4.862-4.824.026 6.848-3.819.012-.023-6.847-4.826 4.86-.182-.18-19.068 49.582 52.201-.197z"></path><path fill="#BED731" d="M68.06 61.523a4.968 4.968 0 0 0 4.949-4.992 4.968 4.968 0 0 0-4.99-4.951 4.965 4.965 0 0 0-4.951 4.989 4.974 4.974 0 0 0 4.992 4.954M55.57 45.41a6.215 6.215 0 1 0-.048-12.429 6.215 6.215 0 0 0 .047 12.43M46.95 67.482a6.216 6.216 0 0 0 6.193-6.237 6.216 6.216 0 0 0-12.43.047 6.213 6.213 0 0 0 6.237 6.19"></path><path fill="#FED204" d="M54.573 17.011l.023 6.847 3.82-.012-.027-6.848 4.862 4.824.058-.059 2.633-2.65-4.863-4.828 6.85-.024-.014-3.819-6.85.025 4.826-4.86-2.713-2.69-4.822 4.861-.027-6.85-3.818.015.025 6.85-4.859-4.826-2.692 2.71 4.86 4.825-6.846.026.013 3.82 6.848-.026-4.824 4.86 2.53 2.51.181.18z"></path></g></svg><svg width="112" height="73" viewBox="0 0 112 73" id="pencil" x="2912" y="1898"><g fill="none" fill-rule="evenodd"><path fill="#FED204" d="M40.625 62.912l-2.955-8.555-8.24-2.64-1.4-6.997-6.907-1.384.033 16.77 11.143 11.142 16.708-.028-1.298-6.823z"></path><path fill="#1450A0" d="M21.154 60.104l.023 11.164L32.3 71.25v-.001L21.155 60.106z"></path><path fill="#E67700" d="M21.033 43.319l.09.018 6.907 1.383 1.4 6.997 8.24 2.64 2.955 8.556 7.084 1.485 1.298 6.822.016.089 33.43-33.182-27.99-27.99z"></path><path fill="#EF5094" d="M90.731 24.163L68.424 1.856a3.951 3.951 0 0 0-5.588 0l-6.79 6.79L83.941 36.54l6.79-6.789a3.951 3.951 0 0 0 0-5.588"></path></g></svg><svg width="112" height="73" viewBox="0 0 112 73" id="pictures" x="3024" y="1971"><g fill="none" fill-rule="evenodd"><path fill="#6DCFF6" d="M26.179 5.793h-.001c-.782 0-1.02-.164-1.03-.164h-.001c-.006-.02-.072-.24.106-.825.367-1.204.906-1.204 1.23-1.204.966 0 2.306.686 3.505 1.495-1.262.37-2.704.698-3.81.698M38.837 3.6c.323 0 .863 0 1.23 1.204.176.58.113.803.119.806-.021.016-.255.183-1.044.183-1.103 0-2.545-.33-3.808-.7C36.53 4.286 37.87 3.6 38.836 3.6M23.152 15.636c2.982-2.714 7.226-6.574 9.019-8.09l.17-.058c2.264 1.602 8.628 6.262 14.342 10.465h5.06a3064.875 3064.875 0 0 0-12.486-9.17c1.54-.023 2.667-.481 3.333-1.38.659-.89.776-2.058.345-3.472C42.053 1.033 39.989.6 38.835.6c-2.207 0-4.657 1.563-6.176 2.724C31.14 2.163 28.69.6 26.483.6c-1.153 0-3.217.433-4.1 3.33-.43 1.415-.313 2.583.346 3.473.683.922 1.844 1.39 3.449 1.39l.05-.001c-1.348 1.215-3.012 2.73-5.096 4.625a713.307 713.307 0 0 1-5.014 4.536h4.485c.72-.653 1.55-1.41 2.549-2.317m53.928-.155c-.783 0-1.02-.164-1.03-.164h-.002c-.006-.019-.072-.24.106-.825.367-1.204.906-1.204 1.23-1.204.966 0 2.306.686 3.505 1.495-1.262.37-2.704.698-3.809.698m12.657-2.193c.323 0 .863 0 1.23 1.204.176.581.113.803.12.806-.022.016-.256.183-1.045.183-1.103 0-2.545-.329-3.808-.699 1.198-.809 2.537-1.494 3.503-1.494M76.86 25.148c2.054-2.55 4.943-6.137 6.368-7.788 2.015 1.857 6.801 6.436 11.121 10.592h4.324a1594.341 1594.341 0 0 0-9.968-9.565c.46.058.91.094 1.337.094 1.605 0 2.766-.467 3.45-1.39.658-.89.775-2.058.344-3.472-.882-2.898-2.946-3.33-4.099-3.33-2.209 0-4.658 1.562-6.177 2.723-1.518-1.16-3.967-2.724-6.176-2.724-1.153 0-3.217.433-4.099 3.331-.43 1.414-.314 2.582.345 3.472.683.922 1.844 1.39 3.45 1.39.444 0 .915-.04 1.393-.102a1024.283 1024.283 0 0 0-3.95 4.888c-1.378 1.711-2.87 3.564-3.799 4.685h3.874c.62-.765 1.358-1.68 2.262-2.804"></path><path fill="#9655A2" d="M56.072 17.953H11.418a3.631 3.631 0 0 0-3.63 3.63v45.298a3.63 3.63 0 0 0 3.63 3.63h44.654a3.63 3.63 0 0 0 3.631-3.63V21.584a3.631 3.631 0 0 0-3.63-3.631m45.999 10H67.418a3.631 3.631 0 0 0-3.63 3.63v35.298a3.63 3.63 0 0 0 3.63 3.63h34.654a3.63 3.63 0 0 0 3.631-3.63V31.584a3.631 3.631 0 0 0-3.63-3.631"></path><path fill="#6DCFF6" d="M95.661 35.827H73.83a2.286 2.286 0 0 0-2.287 2.287V60.35a2.287 2.287 0 0 0 2.287 2.288h21.832a2.287 2.287 0 0 0 2.287-2.288V38.114a2.286 2.286 0 0 0-2.287-2.287m-46.001-10H17.83a2.286 2.286 0 0 0-2.287 2.287V60.35a2.287 2.287 0 0 0 2.287 2.288h31.832a2.287 2.287 0 0 0 2.287-2.288V28.114a2.286 2.286 0 0 0-2.287-2.287"></path></g></svg><svg width="112" height="73" viewBox="0 0 112 73" id="pool" x="3136" y="2044"><g fill="none" fill-rule="evenodd"><path fill="#2AACE2" d="M56.494 57.595c-22.368 0-41.104-6.46-46.08-15.146-.846 1.377-1.307 2.814-1.307 4.292 0 10.178 21.217 18.428 47.387 18.428s47.387-8.25 47.387-18.428c0-1.478-.46-2.915-1.307-4.292-4.976 8.686-23.712 15.146-46.08 15.146"></path><path fill="#FED204" d="M102.898 33.834c-4.452 9.577-23.536 16.778-46.404 16.778-22.868 0-41.952-7.2-46.405-16.778-.642 1.296-.982 2.64-.982 4.015 0 1.584.461 3.123 1.307 4.6 4.975 8.686 23.712 15.146 46.08 15.146s41.104-6.46 46.08-15.147c.845-1.476 1.306-3.015 1.306-4.599 0-1.376-.339-2.719-.982-4.015"></path><path fill="#EC2127" d="M90.713 27.497c-1.913 5.597-16.5 9.945-34.22 9.945-17.718 0-32.304-4.348-34.218-9.945 1.914-5.593 16.5-9.943 34.219-9.943s32.306 4.35 34.219 9.943m-34.22 23.115c22.869 0 41.953-7.2 46.406-16.778.642-1.383.982-2.816.982-4.282 0-11.63-21.217-21.06-47.387-21.06s-47.386 9.43-47.386 21.06c0 1.466.339 2.9.982 4.282 4.452 9.577 23.536 16.778 46.404 16.778"></path><path fill="#6DCFF6" d="M81.978 26.665c-7.907 6.611-14.97 2.418-17.511.441-2.365 2.131-4.947 3.21-7.688 3.21h-.015c-3.728-.005-6.722-2.028-8.144-3.202-9.7 7.31-17.631-.793-17.717-.879a1.312 1.312 0 0 1 .042-1.855 1.313 1.313 0 0 1 1.858.035c.279.281 6.834 6.877 15.02-.03l.938-.796.86.887c.03.033 3.151 3.207 7.157 3.207h.01c2.347-.004 4.59-1.104 6.676-3.268l.94-.977.95.97c.28.286 6.957 6.91 14.936.237a1.317 1.317 0 0 1 1.688 2.02m-59.702.832c1.913 5.597 16.5 9.945 34.219 9.945 17.718 0 32.304-4.348 34.218-9.945-1.913-5.593-16.5-9.943-34.218-9.943-17.72 0-32.306 4.35-34.22 9.943"></path><path fill="#2AACE2" d="M80.291 24.646c-7.98 6.672-14.656.049-14.938-.238l-.95-.97-.939.978c-2.085 2.164-4.329 3.263-6.677 3.267h-.009c-4.006 0-7.127-3.174-7.157-3.207l-.86-.887-.939.795c-8.185 6.908-14.74.313-15.019.032a1.314 1.314 0 0 0-1.859-.036 1.314 1.314 0 0 0-.042 1.856c.086.086 8.018 8.187 17.718.879 1.423 1.174 4.416 3.197 8.145 3.2h.013c2.742 0 5.324-1.077 7.689-3.208 2.542 1.976 9.603 6.17 17.511-.441a1.315 1.315 0 1 0-1.687-2.02"></path></g></svg><svg width="112" height="73" viewBox="0 0 112 73" id="pull-along" x="3248" y="2117"><g fill="none" fill-rule="evenodd"><path fill="#EC2127" d="M107.402 32.365c0-.61-.494-1.102-1.102-1.102H16.965c-.609 0-1.102.493-1.102 1.102v5.508a1.1 1.1 0 0 0 1.102 1.1H106.3c.608 0 1.102-.492 1.102-1.1v-5.508z"></path><path fill="#FFF" d="M86.79 55.674a5.867 5.867 0 0 0-5.86 5.859 5.868 5.868 0 0 0 5.86 5.862c3.231 0 5.86-2.63 5.86-5.862a5.867 5.867 0 0 0-5.86-5.86"></path><path fill="#1450A0" d="M86.79 67.394a5.868 5.868 0 0 1-5.86-5.86 5.867 5.867 0 0 1 5.86-5.86 5.867 5.867 0 0 1 5.86 5.86 5.868 5.868 0 0 1-5.86 5.86m0-17.48c-6.408 0-11.621 5.212-11.621 11.62 0 6.408 5.213 11.62 11.621 11.62 6.407 0 11.62-5.212 11.62-11.62 0-6.407-5.213-11.62-11.62-11.62"></path><path fill="#FFF" d="M36.915 55.674a5.867 5.867 0 0 0-5.86 5.859 5.868 5.868 0 0 0 5.86 5.862c3.231 0 5.86-2.63 5.86-5.862a5.867 5.867 0 0 0-5.86-5.86"></path><path fill="#1450A0" d="M36.915 67.394a5.868 5.868 0 0 1-5.86-5.86 5.867 5.867 0 0 1 5.86-5.86 5.867 5.867 0 0 1 5.86 5.86 5.868 5.868 0 0 1-5.86 5.86m0-17.48c-6.408 0-11.621 5.212-11.621 11.62 0 6.408 5.213 11.62 11.621 11.62 6.407 0 11.62-5.212 11.62-11.62 0-6.407-5.213-11.62-11.62-11.62M9.846 5.667l2.129.102 5.74.274a2285.314 2285.314 0 0 1-4.532 6.692c-.691-1.468-1.53-3.246-2.311-4.897l-1.026-2.17zm8.815 50.978h-6.575l-.543.184c1.213-15.06 2.918-36.007 3.233-39.324.645-.948 2.312-3.399 3.977-5.855 4.928-7.27 4.928-7.27 4.332-8.383a2.016 2.016 0 0 0-1.697-1.055c-.251-.009-5.156-.244-9.222-.439-5.466-.26-5.466-.26-5.532-.26a2 2 0 0 0-1.701.946c-.583.943-.583.943 2.322 7.09 1.226 2.591 3 6.344 3.555 7.567-.053.39-.09.822-.131 1.287-.1 1.14-.237 2.767-.4 4.72a6941.3 6941.3 0 0 0-1.176 14.304C8.255 47.83 7.418 58.23 7.418 58.23c-.06.757.314 1.442.908 1.83.352.306.8.484 1.277.484h10.19c.064 0 .122-.013.183-.019-.836-.844-1.315-2.126-1.315-3.426v-.454z"></path><path fill="#EC2127" d="M105.661 40.89h-87V57.1c0 1.3.48 2.582 1.314 3.426.584.59 1.336.972 2.245.972l.895.036c0-.111.001-.22.003-.33.176-7.456 6.297-13.467 13.796-13.467 7.608 0 13.8 6.189 13.8 13.797H72.99c0-7.608 6.19-13.797 13.8-13.797 7.476 0 13.583 5.977 13.792 13.404l.001.312 1.11-.062c2.206 0 4.176-1.876 4.176-4.083l-.208-16.417z"></path></g></svg><svg width="112" height="73" viewBox="0 0 112 73" id="puzzle" x="3360" y="2190"><g fill="none" fill-rule="evenodd"><path fill="#BED731" d="M90.259 35.54c-1.896-.342-2.66.282-5.33 1.02l2.523-14.044-14.058-2.526c.732 2.666 1.379 3.301 1.037 5.198-.731 4.072-4.611 6.72-8.686 5.988-4.07-.73-6.787-4.584-6.054-8.657.338-1.895 1.162-2.246 2.783-4.49l-14.338-2.577-2.697 15.007 3.775 5.165 4.79-1.44c2.648-.796 5.235-.74 6.032 1.907l2.578 8.556-20.853 6.284-.69 3.84 14.336 2.576c-1.617 2.247-2.437 2.596-2.781 4.493-.734 4.07 1.977 7.964 6.049 8.698a7.496 7.496 0 0 0 8.699-6.049c.338-1.898-.31-2.512-1.047-5.18l14.063 2.525 2.582-14.358c2.242 1.62 2.725 2.466 4.623 2.806 4.07.731 8.014-1.968 8.746-6.04.734-4.069-2.01-7.972-6.082-8.702"></path><path fill="#EC2127" d="M60.036 36.091c-.797-2.647-3.385-2.703-6.03-1.908l-4.792 1.441-3.776-5.165-10.283-14.07c1.938-2.195 2.65-5.639 1.74-8.649-1.392-4.629-6.328-7.422-10.957-6.03-4.629 1.395-7.279 6.193-5.882 10.822.906 3.01 3.49 5.79 6.318 6.55l-1.106 23.76-4.789 1.44c-2.646.796-4.343 2.148-3.545 4.794l2.58 8.56L41.76 50.93l20.853-6.283-2.578-8.557z"></path></g></svg><svg width="112" height="73" viewBox="0 0 112 73" id="remote-control-car" x="3472" y="2263"><g fill="none" fill-rule="evenodd"><path fill="#EC2127" d="M73.91 29.949H52.243V18.817C74.728 17.18 73.91 29.949 73.91 29.949m7.511-.226c-3.77-17.87-28.9-16.111-28.9-16.111-12.046.106-20.138 4.658-25.584 10.845l-4.542-1.82c-1.334-.533-2.854-.617-4.159-.017-3.133 1.435-4.686 5.296-2.847 8.575l3.84 6.9c-3.73 10.589-3.454 20.663-3.454 20.663h8.518c.433-8.433 7.172-14.632 15.416-14.632 8.245 0 14.98 6.199 15.417 14.632h11.326c.432-8.433 7.17-14.632 15.415-14.632 8.243 0 14.982 6.199 15.415 14.632h8.426c0-28.106-24.287-29.035-24.287-29.035"></path><path fill="#1450A0" d="M39.708 63.843a4.384 4.384 0 0 1 0-8.768 4.384 4.384 0 0 1 0 8.768m0-17.532c-7.261 0-13.147 5.887-13.147 13.15 0 7.26 5.886 13.146 13.147 13.146 7.262 0 13.149-5.887 13.149-13.147 0-7.262-5.887-13.149-13.149-13.149M15.982 8.769c4.937 2.13 9.09 5.505 13.105 10.587l2.698-1.781c-4.164-5.66-8.859-9.268-14.849-11.612a4.867 4.867 0 0 1-.954 2.806"></path><path fill="#EC2127" d="M15.982 8.769a4.867 4.867 0 0 0 .954-2.806 4.826 4.826 0 0 0-.21-1.586 4.865 4.865 0 0 0-6.123-3.151 4.866 4.866 0 0 0-3.156 6.12 4.873 4.873 0 0 0 6.126 3.156 4.838 4.838 0 0 0 2.41-1.733"></path><path fill="#1450A0" d="M81.865 63.843a4.384 4.384 0 0 1 0-8.768 4.384 4.384 0 0 1 0 8.768m0-17.532c-7.26 0-13.147 5.887-13.147 13.15 0 7.26 5.886 13.146 13.147 13.146 7.262 0 13.15-5.887 13.15-13.147 0-7.262-5.888-13.149-13.15-13.149"></path></g></svg><svg width="112" height="73" viewBox="0 0 112 73" id="scooter" x="3584" y="2336"><g fill="none" fill-rule="evenodd"><path fill="#2AACE2" d="M23.373 65.686a3.242 3.242 0 0 1-3.198-3.782l1.613-9.504c-4.908.713-8.695 4.936-8.695 10.039 0 5.601 4.557 10.158 10.158 10.158 5.601 0 10.157-4.557 10.157-10.158 0-3.818-2.12-7.148-5.243-8.882l-1.602 9.402c-.267 1.58-1.638 2.727-3.19 2.727m68.944-8.274c2.5 0 4.53 2.228 4.536 4.73.007 2.504-2.015 4.645-4.52 4.653l-8.966.05c1.644 3.397 5.117 5.752 9.138 5.752 5.601 0 10.158-4.558 10.158-10.158s-4.557-10.157-10.158-10.157c-3.796 0-7.11 2.098-8.853 5.193l8.652-.063h.013z"></path><path fill="#EC2127" d="M104.48 51.26a15.985 15.985 0 0 0-12.409-4.945c-6.858.353-12.481 5.006-14.428 11.204l-38.989.283a15.936 15.936 0 0 0-5.978-8.406l-.425-.309c-.86-.629-1.832-1.317-3.014-1.817l6.582-38.639 6.354-.08c1.79-.007 3.236-1.578 3.23-3.368-.008-1.785-1.456-3.46-3.24-3.46h-.011l-11.81.273L21.788 52.4l-1.615 9.504a3.241 3.241 0 0 0 3.2 3.782c1.55 0 2.922-1.147 3.19-2.727l1.602-9.403.37-2.172c.441.27.88.586 1.354.932l.447.326c4.298 3.096 6.043 8.553 4.347 13.578 0 0-.398.89-.304.89.072 0 1.69-.038 2.453-.04l-.005.028 46.54-.254 8.965-.049c2.505-.008 4.528-2.149 4.52-4.654-.006-2.5-2.036-4.729-4.535-4.729h-.013l-8.653.063-1.739.013c1.77-4.024 5.683-6.937 10.364-7.178a11.993 11.993 0 0 1 9.308 3.71 2 2 0 1 0 2.895-2.76"></path></g></svg><svg width="112" height="73" viewBox="0 0 112 73" id="skateboard" x="3696" y="2409"><g fill="none" fill-rule="evenodd"><path fill="#BED731" d="M35.615 55.934c0 5.588-4.53 10.117-10.118 10.117S15.38 61.522 15.38 55.934c0-5.588 4.53-10.118 10.117-10.118 5.588 0 10.118 4.53 10.118 10.118"></path><path fill="#FFF" d="M28.533 55.934a3.035 3.035 0 1 1-6.07 0 3.035 3.035 0 0 1 6.07 0"></path><path fill="#BED731" d="M75.394 55.934c0 5.588 4.53 10.117 10.118 10.117S95.63 61.522 95.63 55.934c0-5.588-4.529-10.118-10.117-10.118-5.588 0-10.118 4.53-10.118 10.118"></path><path fill="#FFF" d="M82.477 55.934a3.035 3.035 0 1 0 6.07 0 3.035 3.035 0 0 0-6.07 0"></path><path fill="#A6A6A6" d="M16.65 40.835c.692 1.44 2.212 4.582 3.296 4.043a12.235 12.235 0 0 1 5.466-1.279c2.02 0 3.925.487 5.608 1.35 1.295.665 3.173-3.767 3.243-3.934H19.368c-.93 0-1.832-.075-2.719-.18m60.012.18s2.008 4.612 3.328 3.935a12.24 12.24 0 0 1 5.61-1.35c1.962 0 3.818.46 5.464 1.278 1.107.551 2.671-2.742 3.342-4.135a23.222 23.222 0 0 1-3.45.272H76.66z"></path><path fill="#1450A0" d="M110.04 28.54a3.252 3.252 0 0 0-4.596-.088c-.062.06-6.393 6.063-14.49 6.063H19.368c-8.02 0-14.433-6.009-14.49-6.063A3.25 3.25 0 0 0 .37 33.135c.306.294 6.988 6.601 16.279 7.7.887.105 1.788.18 2.719.18h71.586c1.189 0 2.336-.105 3.451-.272 8.908-1.331 15.249-7.322 15.547-7.608a3.25 3.25 0 0 0 .088-4.595"></path></g></svg><svg width="112" height="73" viewBox="0 0 112 73" id="swings" x="3808" y="2482"><g fill="none" fill-rule="evenodd"><path fill="#2AACE2" d="M37.202 44.439c.648 0 1.18-.531 1.18-1.18v-27.05c0-.647-.532-1.178-1.18-1.178h-1.099c-.648 0-1.179.53-1.179 1.179v27.049c0 .649.531 1.18 1.18 1.18h1.098zm12.684 0c.648 0 1.18-.531 1.18-1.18v-27.05c0-.647-.532-1.178-1.18-1.178h-1.1c-.647 0-1.178.53-1.178 1.179v27.049c0 .649.53 1.18 1.179 1.18h1.099z"></path><path fill="#E67700" d="M51.65 46.62H33.671c-.648 0-1.179.531-1.179 1.18v4.076c0 .648.531 1.18 1.18 1.18H51.65c.648 0 1.18-.532 1.18-1.18V47.8c0-.649-.532-1.18-1.18-1.18"></path><path fill="#2AACE2" d="M64.311 44.439c.648 0 1.18-.531 1.18-1.18v-27.05c0-.647-.531-1.178-1.18-1.178h-1.1c-.648 0-1.178.53-1.178 1.179v27.049c0 .649.53 1.18 1.178 1.18h1.1zm12.686 0c.648 0 1.18-.531 1.18-1.18v-27.05c0-.647-.532-1.178-1.18-1.178h-1.1c-.649 0-1.18.53-1.18 1.179v27.049c0 .649.531 1.18 1.18 1.18h1.1z"></path><path fill="#E67700" d="M79.031 46.62h-17.98c-.649 0-1.18.531-1.18 1.18v4.076c0 .648.531 1.18 1.18 1.18h17.98c.648 0 1.18-.532 1.18-1.18V47.8c0-.649-.532-1.18-1.18-1.18"></path><path fill="#03AE4B" d="M84.51 7.132H28.366c.55.132.919.563.858 1.084l-.531 4.633h55.49l-.53-4.633c-.06-.52.306-.952.857-1.084"></path><path fill="#BED731" d="M28.366 7.132a1.508 1.508 0 0 0-.349-.045h-5.639c-.739 0-1.415.504-1.507 1.13l-7.817 52.126c-.005.036 0 .07-.005.106H23.22c.006-.036.02-.07.023-.107l5.45-47.493.53-4.633c.062-.52-.306-.952-.857-1.084m71.457 53.211L92.006 8.216c-.094-.625-.768-1.129-1.507-1.129h-5.64c-.124 0-.238.02-.349.045-.55.132-.917.564-.858 1.084l.531 4.633 5.45 47.494c.003.036.016.07.022.106H99.83c-.004-.036 0-.07-.006-.106"></path><path fill="#03AE4B" d="M26.549 61.229a.937.937 0 0 0-.92-.78H10.915a.936.936 0 0 0-.92.78h-.011v4.566h.01a.936.936 0 0 0 .92.779H25.63a.937.937 0 0 0 .92-.78h.013V61.23h-.013zm76.651 0a.937.937 0 0 0-.92-.78H87.564a.935.935 0 0 0-.919.78h-.013v4.566h.013a.935.935 0 0 0 .92.779h14.713a.937.937 0 0 0 .921-.78h.012V61.23h-.012z"></path></g></svg><svg width="112" height="73" viewBox="0 0 112 73" id="teddy" x="3920" y="2555"><g fill="none" fill-rule="evenodd"><path fill="#E67700" d="M94.608 17.662c0 5.766-3.419 10.723-8.334 12.986a30.754 30.754 0 0 0-1.658-4.488c3.096-1.576 5.222-4.785 5.222-8.498 0-5.268-4.269-9.537-9.535-9.537-3.355 0-6.299 1.736-8 4.355a30.878 30.878 0 0 0-4.286-2.12c2.495-4.188 7.057-7.005 12.286-7.005 7.901 0 14.305 6.407 14.305 14.307zm-71.525 0a9.537 9.537 0 0 1 9.537-9.537 9.525 9.525 0 0 1 7.999 4.353 31.092 31.092 0 0 1 4.286-2.119C42.41 6.172 37.85 3.355 32.62 3.355c-7.902 0-14.307 6.407-14.307 14.307 0 5.766 3.419 10.721 8.334 12.986.44-1.548.996-3.048 1.659-4.488-3.097-1.576-5.223-4.785-5.223-8.498"></path><path fill="#FED204" d="M32.62 8.125a9.537 9.537 0 0 0-9.537 9.537c0 3.713 2.126 6.922 5.223 8.498A31.12 31.12 0 0 1 40.62 12.48a9.524 9.524 0 0 0-7.999-4.355M84.616 26.16c3.097-1.576 5.223-4.785 5.223-8.497 0-5.268-4.27-9.537-9.535-9.537a9.525 9.525 0 0 0-8 4.354 31.111 31.111 0 0 1 12.312 13.68"></path><path fill="#E67700" d="M56.462 65.346c-11.852 0-21.46-6.939-21.46-15.498 0-8.557 9.608-15.496 21.46-15.496 11.85 0 21.457 6.939 21.457 15.496 0 8.559-9.607 15.498-21.457 15.498M44.54 24.815c1.975 0 3.576 2.135 3.576 4.767 0 2.633-1.601 4.77-3.576 4.77-1.976 0-3.576-2.137-3.576-4.77 0-2.632 1.6-4.767 3.576-4.767m23.842 0c1.976 0 3.576 2.135 3.576 4.767 0 2.633-1.6 4.77-3.576 4.77-1.977 0-3.576-2.137-3.576-4.77 0-2.632 1.599-4.767 3.576-4.767m3.922-12.334a30.656 30.656 0 0 0-4.286-2.121 30.913 30.913 0 0 0-11.556-2.235c-4.087 0-7.984.799-11.557 2.235a30.867 30.867 0 0 0-4.286 2.119A31.13 31.13 0 0 0 28.306 26.16a30.84 30.84 0 0 0-1.658 4.489 30.978 30.978 0 0 0-1.182 8.47c0 17.12 13.877 30.995 30.996 30.995 17.117 0 30.994-13.875 30.994-30.995 0-2.939-.418-5.777-1.182-8.47a30.723 30.723 0 0 0-1.658-4.489 31.113 31.113 0 0 0-12.312-13.679"></path><path fill="#1450A0" d="M40.964 29.582c0 2.633 1.6 4.77 3.576 4.77 1.975 0 3.576-2.137 3.576-4.77 0-2.633-1.601-4.768-3.576-4.768-1.976 0-3.576 2.135-3.576 4.768m27.418 4.77c1.977 0 3.576-2.137 3.576-4.77 0-2.632-1.6-4.767-3.576-4.767-1.977 0-3.576 2.135-3.576 4.767 0 2.633 1.599 4.77 3.576 4.77"></path><path fill="#FED204" d="M73.044 47.955a16.71 16.71 0 0 1-3.88 5.344 18.088 18.088 0 0 1-5.72 3.584 19.03 19.03 0 0 1-6.982 1.308c-2.418 0-4.766-.439-6.98-1.308a18 18 0 0 1-5.723-3.584 16.79 16.79 0 0 1-3.881-5.342c-.27-.6-.008-1.305.59-1.58a1.2 1.2 0 0 1 1.582.588 14.403 14.403 0 0 0 3.33 4.588 15.6 15.6 0 0 0 4.973 3.107 16.52 16.52 0 0 0 4.916 1.088v-9.602c-2.053-.4-3.577-1.787-3.577-3.45 0-1.975 2.137-3.577 4.77-3.577 2.633 0 4.768 1.602 4.768 3.576 0 1.664-1.524 3.051-3.577 3.451v9.602a16.558 16.558 0 0 0 4.92-1.088 15.598 15.598 0 0 0 4.969-3.107 14.355 14.355 0 0 0 3.332-4.584c.274-.6.983-.86 1.578-.592.6.273.863.98.592 1.578M56.462 34.351c-11.852 0-21.46 6.94-21.46 15.497 0 8.558 9.608 15.498 21.46 15.498 11.85 0 21.457-6.94 21.457-15.498 0-8.557-9.607-15.497-21.457-15.497"></path><path fill="#1450A0" d="M72.452 46.377a1.196 1.196 0 0 0-1.578.592 14.344 14.344 0 0 1-3.332 4.584 15.609 15.609 0 0 1-4.969 3.107 16.558 16.558 0 0 1-4.92 1.088v-9.6c2.053-.402 3.576-1.789 3.576-3.453 0-1.974-2.134-3.576-4.767-3.576-2.633 0-4.77 1.602-4.77 3.576 0 1.664 1.524 3.051 3.576 3.452v9.601a16.533 16.533 0 0 1-4.916-1.088 15.607 15.607 0 0 1-4.972-3.107 14.392 14.392 0 0 1-3.33-4.588 1.2 1.2 0 0 0-1.582-.588c-.598.275-.86.98-.59 1.58A16.775 16.775 0 0 0 43.76 53.3a18.006 18.006 0 0 0 5.722 3.584 19.028 19.028 0 0 0 6.981 1.308c2.418 0 4.767-.439 6.982-1.308a18.088 18.088 0 0 0 5.721-3.584 16.71 16.71 0 0 0 3.88-5.344 1.193 1.193 0 0 0-.593-1.578"></path></g></svg><svg width="112" height="73" viewBox="0 0 112 73" id="trampoline" x="4032" y="2628"><g fill="none" fill-rule="evenodd"><path fill="#2AACE2" d="M53.997 54.576V70.18a3.196 3.196 0 0 0 6.393 0V54.547c-1.266.03-2.538.05-3.818.05-.86 0-1.72-.007-2.575-.021M7.74 63.187a3.197 3.197 0 0 0 6.393 0v-15.92c-2.666-1.262-4.765-2.597-6.393-3.957v19.877zm91.25 0a3.197 3.197 0 0 0 6.393 0v-19.86c-1.63 1.358-3.728 2.692-6.393 3.95v15.91z"></path><path fill="#1450A0" d="M92.1 16.612c-8.405-2.638-19.132-4.237-30.614-4.593v5.586c24.523.783 43.085 7.382 43.085 15.665 0 8.828-21.083 15.743-47.998 15.743S8.575 42.098 8.575 33.27c0-8.283 18.56-14.882 43.086-15.665V12.02c-11.483.356-22.21 1.955-30.617 4.593C5.667 21.435 2.44 28.333 2.44 33.27c0 2.936 1.14 6.565 5.3 10.04 1.629 1.36 3.727 2.695 6.393 3.957 1.976.935 4.259 1.83 6.91 2.661 8.976 2.816 20.595 4.448 32.954 4.647.856.014 1.714.022 2.576.022 1.28 0 2.55-.02 3.817-.05 11.894-.286 23.038-1.897 31.71-4.619 2.644-.828 4.92-1.72 6.89-2.65 2.666-1.26 4.763-2.593 6.393-3.95 4.176-3.48 5.322-7.117 5.322-10.058 0-4.937-3.227-11.835-18.604-16.658"></path><path fill="#6DA10C" d="M10.574 33.27c0 6.637 18.483 13.743 45.998 13.743 27.515 0 45.998-7.105 45.998-13.742 0-6.235-16.307-12.88-41.085-13.666v5.567h-.087v.035h4.463l-9.328 8.285-9.332-8.284h4.46v-5.603c-24.78.785-41.087 7.431-41.087 13.665"></path><path fill="#FFF" d="M102.57 33.27c0 6.637-18.483 13.743-45.998 13.743-27.515 0-45.998-7.105-45.998-13.742 0-6.235 16.307-12.88 41.086-13.666v-2c-24.525.784-43.086 7.383-43.086 15.665 0 8.828 21.083 15.743 47.998 15.743S104.57 42.1 104.57 33.272c0-8.284-18.562-14.883-43.085-15.666v2c24.778.785 41.085 7.431 41.085 13.665"></path><path fill="#E67700" d="M61.398 25.172h.087V9.624h4.46l-9.333-8.285-9.328 8.285h4.463v.036h-.087v15.548h-4.459l9.332 8.285 9.328-8.285h-4.463z"></path></g></svg></svg>