<svg xmlns="http://www.w3.org/2000/svg" xmlns:xlink="http://www.w3.org/1999/xlink" width="490" height="1174" viewBox="0 0 490 1174"><svg viewBox="0 0 110 232" width="110" height="232" id="presenting" x="0" y="0"><path fill="#7B2F09" d="M67.9 214.5c3.1 7.8 7.9 9.6 6.3 11.9-1 2-5.5 3.7-7.5 3.7-3.3-.2-8.4-3.3-8-4.9.2-1.1.8-1.6 1.9-3.1-3.9 1.6-11.3 3.3-17.3 1.7-2.8-1.3 5.6-3.2 12.8-12.2 2.2 1.1 3.3-.7 3.3-.7l.1.1c.3.7 2.3 4.8 3.3 7.4.7-1.7 1.1-3.1 1.5-4.3v-.1c.8.2 2.4.8 3.6.5m-50.7-86c-.3.8-.7 1.6-1 2.4-1.4 3.3-3.8 9-4.7 10-1.3 1.3-11.1 1.8-11.5.6-.4-1.3 11.4-10 11.4-10s-3.2 0-6.2.7c-2-1.1 4-5.7 4-5.7l8 2zm6.3-33.8l-2.4 1.2c-3.2 1.7-8.7 4.4-10 4.5-1.8.2-9.7-5.8-9.2-7 .5-1.3 15.1-.3 15.1-.3s-2.4-2-5.2-3.5c-.8-2.1 6.7-1.8 6.7-1.8l5 6.9m71-94c1.5 1 2 3 1 4.3-.6.7-1.5 1.1-2.5 1.1-.7 0-1.3-.3-1.9-.7-.2-.1-.4-.3-.5-.5-1.1-1.1-1.3-2.7-.5-3.8C91-.2 93-.4 94.5.7m10.1 7.9c1.2 1.4 1.2 3.4-.1 4.4-.8.7-2 .8-3 .4s-1.7-1.2-2.1-2.1c-.4-1.2-.2-2.5.7-3.2 1.3-1.2 3.3-.9 4.5.5"></path><path fill="#FAAE17" d="M90.1 11.3c-.3-.6-.7-1.1-1.1-1.7L90.5 5l.5.5c.6.3 1.3.5 2 .6l-2.9 5.2zm10 1.1c.4.4.9.8 1.4 1l-8.7 6.5c-.9 4.2-4.7 15.8-6.4 19.4-4.6 10.2-20.5 54.5-19.8 92.8 0 .1 0 .8.2 2.4.7 8.3 2.5 19.3 4.8 28.7 1.2 5 1.5 9.5 1.2 12.3 3.8 1 6.7 7 6.5 11.2-.1 2.2-1.6 1.6-1.6-.6 0-1.2-.6-5.6-5.2-8 .1 6.6-3.5 26-4.6 36.4-1.2.3-2.8-.3-3.5-.7v.1c.1-13.1.7-24.7 1-29.9-.8.2-1.6.4-2.5.5-2.4.4-4.8.7-6.9.6 0 3.5.5 11.6 3.5 25.8l-.1-.1s-1.1 1.9-3.3.7c-1.4-5.4-7.2-23.6-9.1-33.7-1-3.1-1.4-7.3-1.3-13.2.2-8.4 2.6-17.9 4.9-27.8 0-.2-34.3-6-34.3-6 .6-1.4 1-2.4 1-2.4l34.7 2.4c.2-.7.3-1.4.5-2.1-10.4-10.9-20.8-21.9-31.2-32.8 1.3-.7 2.2-1.2 2.3-1.2l30 26.2c3.9-26.3 10.3-54.6 20.2-80.4-.2 0-.3 0-.4-.1-2.9-.4-10.4-1.5-17.9-2.2-1.1 2.4-3.2 4.2-6.1 4.6-4.2-.1-6.1-2.2-7.8-4.5-2.4-3.1-.6-7.9 5.4-10.4.4-.8 1.4-2.8 2.3-2.9.5-.1 1.9.7 2.7 1.3 5.6-1.9 11.3-3.8 16.9-5.7.5-2.3 1.4-4.9 1.6-5.2 1.1-.5 4.1 1 6.5 2.5 2-.7 3.8-1.2 5.2-1.7-.1.4-.1 1 .2 1.7 1.5-2.5 7.7.1 9.2 1.1.1.1.2.1.3.2l.1-.2c.3-.1.5-.3.5-.6l6.9-7.2c.2.5.4.8.7 1.2"></path><path fill="#E67700" d="M81.8 14.1c-3.5 1.7-9.2-1.2-13.7-10.6 1.1-.6 13.8 6.4 13.7 10.6"></path><path fill="#FEFEFE" d="M68.8 20.7c1.3-2 4-2.6 6-1.4 2.1 1.3 2.7 4 1.4 6v.1c-1.3 2-4 2.6-6.1 1.3-2-1.2-2.6-4-1.3-6"></path><path fill="#7B2F09" d="M71.5 22.5c.5-.8 1.6-1 2.4-.5.8.5 1 1.6.5 2.4s-1.6 1-2.4.5c-.8-.5-1-1.6-.5-2.4"></path><path fill="#FEFEFE" d="M76.2 25.7c1.3-2 4-2.6 6-1.4 2.1 1.3 2.7 4 1.4 6v.1c-1.3 2-4 2.6-6.1 1.3-2.1-1.2-2.7-3.9-1.3-6"></path><path fill="#7B2F09" d="M78.4 27.1c.5-.8 1.6-1 2.4-.5.8.5 1 1.6.5 2.4-.5.8-1.6 1-2.4.5-.7-.5-1-1.5-.5-2.4M41.6 38.3c.1.3 1.4 1.1 1.6 1.2 6.5 4.2 12-1.4 10.1-4.8.7 3.9-4.3 8.3-11.7 3.6m44.5-14.4c-.1-.9-.6-1.5-2.1-3.6-.3.1-.7.7-.5 1.3.5.2 2.1 1.7 2.6 2.3m-13.4-9.3c0-.3 3 .8 4 .8 0 .1-.6.9-.9.9-.5 0-2.2-1-3.1-1.7M91.9 19c2.5-.5-2.5-10.1-4.6-11.3-2.1-1.2-4.7 2.9-5.1 6.2 0 0 2.9-2.5 4.5.5-1.7-.3-5.7.4-4.2 3.4 1.6-2.7 8.6.5 9.4 1.2"></path><path fill="#E67700" d="M93.5 21.726c-.2 4.1 5.2 8.7 16.4 9.7.1-1.3-12.3-11.2-16.4-9.7"></path><path fill="#7B2F09" d="M50.8 28.7c.5-.7 1.2-1.1 1.5-.9.3.2.1 1-.5 1.7s-1.2 1.1-1.5.9c-.3-.2-.1-.9.5-1.7m-2.9-1.5c.5-.7 1.2-1.1 1.5-.9.3.2.1 1-.5 1.7s-1.2 1.1-1.5.9c-.2-.2 0-1 .5-1.7m56.7-18.6c1.2 1.4 1.2 3.4-.1 4.4-.8.7-2 .8-3 .4s-1.7-1.2-2.1-2.1c-.4-1.2-.2-2.5.7-3.2 1.3-1.2 3.3-.9 4.5.5"></path><path fill="#FFD673" d="M60.7 158.5c-1.6-11.9-1.8-20-5.2-19.9-3.8.1-5.3 6.6-6.6 18.1-1.2 10.4.5 23.3 7.3 21.7 7.9-1.9 6-9.5 4.5-19.9"></path><path fill="#7B2F09" d="M77.4 186.3c-.3 1.2-.2 3.2 1.7 5.4 1.7 1.9 3.8 3.3 7.8 3.9 4.2.9 7.5-1.2 7.5-3.3-2.9 2.9-5.4 1.8-7 .4-2.1-1.8-4.1-5.3-4.8-5.9-2.1-2.8-4.8-2.1-5.2-.5"></path><path fill="#E67700" d="M86 37.3c.9-.6.9.1.9.4 0 .1 0 .3-.1.5-.2.4-.3.7-.5 1.1-.8 1.7-1.8 4.3-3.1 7.7-.1-.1-.1-.2-.1-.2.2.3-.7-1.3-1-2-.2-.6-.7-.6-.7-.6l-2.4-.3c-1.4-.2-.4-1-.4-1 .3-.3 1.5-1.5 1.7-1.6.3-.3.4-.7.4-1-.1-.3-.2-1.3-.5-2.5s.9-.5.9-.5l2 1.2c.7.4 1.2 0 1.3-.1.1-.1 1.6-1.1 1.6-1.1M67.1 66.9c-.5-.6-1-.4-1-.4s-.5.1-1.1.2c.7-2.6 1.5-5.1 2.3-7.7l.1-.1 1.7-1.9c.9-1 1.1-.2 1.1.1 0 .3.4 2.5.5 2.8.1.8.4.9.7 1 .1 0 2.7 1.4 2.7 1.4 1.3.7.1 1.2.1 1.2l-2.5 1.3c-.8.4-.9.7-1 1.2-.2.7-.5 2.4-.5 2.4-.2 1.3-.9.6-1.2.3.3.4-1.3-1.2-1.9-1.8m6.4 5.9c.6.4 1.1-.1 1.1-.1.1-.1.4-.2.7-.4-.6 2.3-1.2 4.6-1.8 7-.2-.3-.4-.7-.5-.9-.2-.5-.6-.5-.6-.5l-2.1-.2c-1.2-.1-.4-.9-.4-.9.5-.5.9-1 1.4-1.4.3-.2.3-.6.3-.9-.1-.3-.2-1.1-.5-2.1s.8-.5.8-.5l1.6.9m5.8-18.9c.6.4 1-.1 1.1-.1.1 0 .3-.2.6-.4l-2.1 6.3c-.1-.1-.1-.2-.2-.3-.2-.5-.6-.5-.6-.5l-2.1-.2c-1.2-.1-.4-.9-.4-.9.5-.5.9-1 1.4-1.4.3-.2.3-.6.3-.9-.1-.3-.2-1.1-.5-2.1s.8-.5.8-.5l1.7 1M59.8 88.8V87c.8-3.3 1.5-6.6 2.4-10l.3.3c.2.2 1.6 2 1.8 2.2.5.6.8.6 1.1.6.1 0 3-.1 3-.1 1.4 0 .7 1 .7 1l-1.6 2.3c-.5.7-.4 1-.3 1.5.2.7.7 2.4.7 2.4.4 1.2-.5 1-.8.8.4.1-1.7-.5-2.5-.8-.7-.3-1.1.1-1.1.1l-2.3 1.8c-1.6 1.3-1.4-.3-1.4-.3m8.1 10.6c.4-1.3.9-.6 1.1-.4 0 .1.1.2.3.4-.6 3.6-1.1 7.2-1.5 10.9l-.9.6c-1.4 1-1.2-.6-1.2-.6 0-.5.2-2.5.2-2.8.1-.5-.2-1-.5-1.2-.3-.2-1.2-1-2.4-1.8-1.2-.9.4-1.2.4-1.2l2.7-.5c.9-.2 1.1-1 1.1-1.1.1-.2.7-2.3.7-2.3m-12.7 28c-.7-.2-1.1.1-1.1.2l-1.8 1.5c0-.1 1.2-8.2 1.2-8.2.1-.8.2-1.6.4-2.3l.9 1c.5.6.8.6 1.1.6.1 0 3-.2 3-.2 1.4-.1.7 1 .7 1l-1.5 2.4c-.5.7-.4 1.1-.2 1.5.2.7.8 2.3.8 2.3.5 1.2-.4 1-.8.9.3.2-1.9-.4-2.7-.7m-8.5 31.1c-.2.6-.5.6-.6.4.3-2.6.8-5.3 1.3-8l.5-.3c.8-.5.7.4.7.4l-.2 1.9c-.1.6.1.8.3 1l1.2 1.2c.7.6 0 .7-.2.8.3-.1-1.2.3-1.8.4-.5.1-.6.4-.6.4.2 0-.6 1.8-.6 1.8M71.6 48.6c0-.2 0-.4-.2-.6-.1-.1-.2-.2-.4-.3.2-.4.3-.9.5-1.3h.4c.5 0 .5-.4.6-.5l.4-1.1c.2-.6.5-.3.5-.1.1.1.6 1.1.7 1.2.2.3.4.3.5.3l1.4.1c.7.1.3.5.3.5l-.9 1c-.3.3-.3.5-.2.7.1.4.2 1.2.2 1.2.1.6-.3.4-.5.4.2.1-.8-.3-1.2-.5-.3-.2-.5 0-.5 0l-1.2.7c-.7.4-.6-.3-.6-.3 0-.3.1-1.3.2-1.4M51.1 180.7c.5-.1-1.7.4-2.6.6-.3 0-.5.1-.7.3-.3-1.2-.5-2.5-.8-3.7-.3-1.1-.6-2.4-.8-3.8.8-.5 2-1.2 2-1.2 1.3-.7 1.1.6 1.1.6l-.2 2.9c-.1.9.1 1.1.5 1.5.5.5 1.9 1.7 1.9 1.7.9.8 0 1-.4 1.1m13.2 2c-.1.9.1 1.1.5 1.5-.6.2-1.3.3-1.9.4-2.4.4-4.8.7-6.9.6l.5-.5c.7-.7.4-1.4.3-1.5-.1-.3-.7-2.4-.7-2.4-.4-1.3.5-1 .7-.9.3.1 2.4 1 2.7 1.1.7.3 1 .1 1.3 0 .1 0 2.6-1.6 2.6-1.6 1.3-.7 1.1.6 1.1.6l-.2 2.7M50 144.1c-.5 0-.7.3-.7.3s-.4.5-.7 1c.5-2.2 1-4.5 1.6-6.8l1-.3c1-.3.7.6.7.6l-.6 1.9c-.2.6-.1.8.1 1.1.3.4 1 1.5 1 1.5.6.8-.1.8-.4.8.2 0-1.4 0-2-.1m21.5 22.2c.4-.2.6-.2.7-.1.1.4.1.7.2 1l-.2 2c-.1.8.1 1 .4 1.3l.1.1c.1.9.1 1.8.1 2.6-.4.1-.8.2-1.1.2-.6.1-.8.5-.8.6l-1 2.3c-.5 1.4-1.1.1-1.1.1-.4-.7-.8-1.4-1.1-2.1-.2-.4-.6-.6-.9-.6-.3 0-1.3-.1-2.6-.2-1.3 0-.2-1-.2-1l1.7-1.7c.6-.6.3-1.2.3-1.3-.1-.3-.6-2.1-.6-2.1-.3-1.1.4-.9.6-.8.2.1 2 .8 2.3.9.6.2.9.1 1.1 0-.1.1 2.1-1.2 2.1-1.2m-5.7-48.2c.1-.8.5-.5.7-.3l.5.5c-.2 2.2-.3 4.5-.3 6.7l-.5.5c-.8.7-.8-.3-.8-.3 0-.3-.1-1.6-.1-1.8 0-.3-.2-.6-.4-.7-.2-.1-.9-.5-1.7-1-.9-.4.2-.8.2-.8l1.7-.6c.6-.2.6-.7.6-.8-.1 0 .1-1.4.1-1.4m-9.3-5.6c-.4-.2-.7 0-.7 0l-1.1.7c.4-2.3.8-4.7 1.2-7 .3.4.8 1.2.8 1.3.3.4.5.4.7.4l1.9.1c.9.1.4.7.4.7l-1.1 1.4c-.4.4-.3.6-.3 1 .1.5.4 1.6.4 1.6.2.8-.3.6-.6.5.3.1-1.1-.4-1.6-.7m1.9-15.1c.1-.3-.1-.6-.3-.8l-.3-.3c.1-.6.3-1.2.4-1.9l.5-.1c.6-.1.7-.6.7-.6.1-.2.6-1.5.6-1.5.3-.8.6-.4.7-.2.1.2.8 1.4.9 1.6.3.4.5.4.6.5l1.9.2c.9.1.3.7.3.7l-1.2 1.4c-.4.4-.4.6-.3 1 .1.5.3 1.6.3 1.6.2.8-.4.6-.6.5.3.1-1-.4-1.5-.7-.4-.2-.7 0-.7 0l-1.6.9c-.9.6-.7-.4-.7-.4.1-.5.3-1.8.3-1.9m9.1 61.1l.9-.6c.4-.3.4.2.4.2l-.1 1c0 .3 0 .4.2.5.2.2.7.6.7.6.4.3 0 .4-.1.4-.3.1-.6.2-.9.2-.3 0-.3.2-.3.2l-.4 1c-.2.6-.5.1-.5.1-.1-.2-.4-.8-.5-.9-.1-.1-.2-.2-.4-.3-.1 0-.6-.1-1.1-.1-.6 0-.1-.4-.1-.4l.7-.7c.3-.2.1-.5.1-.5l-.3-.9c-.1-.5.2-.4.3-.3l1 .4c.2.3.3.2.4.1m-21.3 11.2l-.4 1v.1c-.1-1.3-.1-2.5-.1-3.8.2-.1.8-.5.8-.5.5-.3.4.2.4.2l-.1 1c0 .3 0 .4.2.5.2.2.7.6.7.6.4.3 0 .4-.1.4.2 0-.6.2-.9.2-.4.1-.5.2-.5.3M59.8 152c-1.1 0-.2-.9-.2-.9l1.4-1.4c.5-.5.3-1 .2-1.1l-.5-1.7c-.3-.9.3-.7.5-.6.2.1 1.7.7 1.9.8.5.2.7.1.9 0l1.8-1.1c.9-.5.8.4.8.4l-.2 2c-.1.6.1.8.4 1.1.4.4 1.3 1.2 1.3 1.2.7.6 0 .8-.2.8.3-.1-1.2.3-1.8.4-.5.1-.6.4-.7.5l-.8 1.9c-.4 1.1-.9.1-.9.1-.2-.3-.9-1.6-.9-1.7-.1-.3-.5-.5-.8-.5-.3-.1-1.2-.2-2.2-.2m7.1-16.5c.1.7.1 1.3.2 2-.6.1-1.7.4-2.2.5-.7.1-.9.6-.9.6 0 .1-1.2 2.7-1.2 2.7-.6 1.6-1.3.1-1.3.1-.5-.8-.9-1.6-1.3-2.4-.2-.4-.7-.7-1.1-.7-.4 0-1.6-.2-3-.2-.7 0-.8-.3-.7-.5 1.9.3 3.8.6 4.1.7 1.7.3 3.7-1.6 3.8-2.8.1-1.4-.5-3.2-2-3.8-.6-.2-2.1-.4-3.8-.6-.4-1.3.5-1 .7-.9.3.1 2.4 1 2.6 1.1.7.3 1 .1 1.2 0 .1 0 2.6-1.5 2.6-1.5 1.2-.7 1.1.6 1.1.6l-.2 2.8c-.1.9.1 1.1.5 1.5.2.2.5.5.9.8"></path></svg><svg viewBox="0 0 84 234" width="84" height="234" id="proud" x="110" y="232"><path fill="#7B2F09" d="M24.2 19.4c.8-.7 8.5-3.4 10.1-.7 1.4-3-2.6-3.6-4.2-3.3 1.6-3 4.6-.5 4.6-.5-.4-3.2-3.1-7.3-5.2-6.1-2.3 1.1-7.5 9.4-5.3 10.6M20.8 111.6l-3.2-7.8s-7.3-2.1-7 .2c2.3 2.1 4.2 4.6 4.2 4.6s-14-4.4-14.8-3.3 5.5 8.7 7.3 9c1.2.2 7.1-1.2 10.7-2 1.5-.3 2.5-.6 2.8-.7M51.6 217.7c-.7 1.6-1.3 3.4-2.6 5.7-2.3 3.3-3.5 2.9-3.9 4.5s3.6 5 6.9 5.3c2 .2 7.4-1.4 8.6-3.3 1.8-2.2-2.8-3.4-5.4-11.3-1.4.1-2.9-.6-3.6-.9M34.5 215.6c-6.1 3.8-20-.9-19.6 3.2 6.2 6.5 21.8 10 22.3 8.6 0-1.1.9-10.5.9-10.5-.1 0-2.3.8-3.6-1.3"></path><path fill="#FAAE17" d="M65.8 166.1c3.1-1.8 13.4-8 14.8-9.8-5.2-3.6-18.2-11.3-24.2-14.7-.2-1-.4-1.9-.6-2.9-1.8-11.4-3-28.1-5.1-46.4-1.6-14.1-7.2-43.1-9.9-50.3-.1-.2-.2-.7-.5-1.2 6.4-1 13.7-2 17-2.2.2 2.6 1.8 5.3 4.5 6.7 3 1.6 7.6.2 7-.6-7.5.7-11-4.3-9.7-11.4 1.7 4 10.8 8.2 13.5 6.2.2-.2.3-.4.4-.6 2.3-3.1.5-7.9-5.5-10.4-.4-.8-1.4-2.8-2.3-2.9-.5-.1-1.8.7-2.7 1.3-4.4-1.5-9.7-3.2-14.6-4.9-.2-.3-.4-.5-.7-.7-.5-1.9-1.1-3.5-1.5-4.8-.8-.3-2.6.4-4.4 1.4 1.2-.3 2.5-.6 2.6-.4-.9.6-2.7 1.6-3.2 1.5-.3 0-.5-.2-.6-.5-.3.2-.7.4-1 .6-1.7-.6-3.2-1.1-4.5-1.5 0 .4-.1.7-.3 1.2-1.6-2.7-9.3 0-10.1.7-.1 0-.1-.1-.2-.2l-6-9.7c-.2.4-.5.7-.9 1-.5.4-1 .6-1.6.7l7.9 9.2c-.4 1.6 3.1 16.1 5 20.9.5 1.6 1.1 3.2 1.1 3.4 4.2 11.9 7.7 35.4 8.8 49.8 1 12.8 2.3 26.6 2.2 43.2 0 .4 0 .9-.1 1.3-4.2-2.4-9.2-5.6-12.2-7.4-3.5-8.6-6.9-18.6-7.3-19.9-.2.1-1.3.3-2.7.7.8 3.1 3.2 12.7 5.1 20.1 2.2 2.8 12.2 10.8 16.7 14.6-.5 7.6-1.2 16.1-2.5 23.4-1.5 7.9-1.6 13.1 1.2 16.2-1.2 11.7-3.3 24.9-4.1 29 1.3 2.1 3.5 1.3 3.6 1.3 4.3-13 6.2-23.7 6.7-27.1.4.1.8.2 1.2.2 2.5.4 5 .6 7.3.3-.1.2-.1.3-.1.3s-.2 14.1-1.6 27c.7.4 2.2 1.1 3.5.9.9-4.1 4.3-17.9 6.3-33.3 5.3 2.6 5.8 7.1 5.7 8.4-.1 1 1.2 2.3 1.4.1.4-4.2-1.8-8.4-4.8-10.3-.7-.5-1.3-.8-1.8-1 .7-2.5 1-5.8.8-10-.1-1-.2-2.1-.3-3.2-.6-1.4-1-2.7-1.1-3.3 1-.2 2.9-.3 4.4 0m-7.4-15.5l16.4 6.6-13.1 8.4c-.8-4.3-2-9.5-3.3-15"></path><path fill="#7B2F09" d="M27.3 5.7l.6-.3c1.3-.8 1.8-2.3 1.3-3.6C28.6.3 26.7-.3 25 .4s-2.6 2.5-1.9 4c.4.9 1.2 1.5 2.2 1.7.6-.1 1.3-.1 2-.4M17.9 9.5c.7-1.1.7-2.4 0-3.3-1-1.3-3-1.5-4.4-.4-1.5 1.1-1.9 3-.9 4.3.7.9 1.8 1.2 2.9 1 .6-.1 1.1-.3 1.6-.7.3-.1.6-.5.8-.9"></path><path fill="#F37020" d="M34.6 15.6c-.1-4.1 12.6-11.3 13.7-10.7-4.4 9.4-10.2 12.4-13.7 10.7"></path><path fill="#FAAE17" d="M27.9 5.4l-.6.3c-.7.3-1.4.3-2 .2l1.5 5.6c.5-.8 1.1-1.4 1.6-1.9l-.5-4.2z"></path><path fill="#F37020" d="M22.7 23.1C18.6 21.5 6.2 31.7 6.3 33c11.3-1.2 16.6-5.9 16.4-9.9"></path><path fill="#7B2F09" d="M63.8 29.3c.6.7.8 1.5.5 1.7-.3.2-1-.2-1.5-.9-.6-.7-.8-1.5-.5-1.7.2-.2.9.2 1.5.9M66.6 27.7c.6.7.8 1.5.5 1.7s-1-.2-1.5-.9c-.6-.7-.8-1.5-.5-1.7s1 .2 1.5.9M30.5 25.5c.5-.5 2.3-1.7 2.9-2 .5-.2-.1-1.4-.4-1.3-.2.2-2.3 2.4-2.5 3.3M43.8 17.4c-.9.6-2.7 1.6-3.2 1.5-.5 0-.8-.8-.8-.8.6 0 4-1 4-.7M48.5 23c.5 2.3-.8 6.3-5.9 5.4 2 1.7 8.1-.1 7.5-5.1 0-.8-1.6-.3-1.6-.3M34.5 33.2c2.1 1.1 6.9.4 6.7-4.3 2.3 3.7-3 7.5-6.9 6-.8-.2.2-1.7.2-1.7M66.4 194.6c.4-1.1 3.4-1.8 5.1 0 1 1.1 2.6 4.7 4.6 6.5 1.3 1.1 4.4 2.2 6.9.5-.4 1.7-4.2 2.7-7.3 2.1-3.1-.7-5.9-2.6-7.4-3.9-1.6-1.4-2.4-3.6-1.9-5.2"></path><path fill="#F37020" d="M32.6 46.6c.7.1 2.6.2 2.2.1.3 0 1.1.1.5-.8 0 0-.8-1.2-1.1-1.8-.2-.4-.4-.6-.1-1.3l.8-2.2s.4-1-.7-.7c0 0-2.3.6-2.4.6-.2 0-.5.1-1-.3-.2-.2-1.7-1.3-1.9-1.5-.2-.2-.8-.5-.8.5v1.9c.5 1.6 1 3.2 1.1 3.3.4 1.1.8 2.4 1.2 3.7.4-.5 1.1-1.4 1.2-1.4.1.2.4-.2 1-.1M36.2 72.4c.8.3 3 .8 2.5.6.4.1 1.3.3.8-.9 0 0-.6-1.6-.9-2.3-.2-.5-.3-.8.2-1.5l1.4-2.4s.7-1.1-.7-1c0 0-2.9.2-3 .2-.3 0-.6 0-1.1-.5-.2-.2-1.1-1.3-1.6-1.8.6 3.1 1.1 6.3 1.6 9.5.3.1.5.1.8.1M47.9 75.5c-.1-.2-.6-1.7-.7-1.9-.1-.2-.3-.8-.8 0 0 0-.8 1.3-.9 1.5 0 0-.3.6-.9.5l-2-.1s-1.2-.1-.5.7c.7.8 1.2 1.5 1.3 1.7.2.2.3.6.1.9-.1.1-.5 1.5-.7 1.9 0 0-.4 1 .7.6 0 0 1.9-.7 2-.7 0 0 .4-.2.8.2.5.4 1.8 1.3 1.5 1.1.2.2.8.6.8-.4v-1.8c0-.2 0-.4.2-.6-.2-1-.3-2.1-.5-3.1-.2 0-.3-.1-.4-.5M42.7 51.3s-.9 1.3-1 1.5c0 0-.3.6-1 .5l-2-.2s-1.2-.1-.5.7c.6.8 1.1 1.5 1.3 1.7s.2.6.1.9c-.1.1-.6 1.5-.7 1.8 0 0-.5 1 .7.6l2-.6s.4-.1.8.2c.5.4 1.8 1.4 1.5 1.2.2.2.8.6.8-.4 0 0 0-1.2.1-1.8v-.2c-.5-2.3-1-4.4-1.4-6.4-.3 0-.5.1-.7.5M38.7 95.8s1.6-2.3 1.7-2.4c0 0 .3-.5 1-.4.9.1 3.1 0 2.6 0 .4 0 1.3 0 .5-1.1 0 0-1-1.4-1.4-2-.3-.4-.5-.7-.2-1.5l.8-2.7s.4-1.2-.9-.8c0 0-2.7.9-2.8 1-.2.1-.6.2-1.2-.2-.2-.1-1-.7-1.6-1.1.4 3.6.8 7 1 10 0 .6.1 1.2.1 1.8.1-.3.3-.4.4-.6M50.2 103c-.3-.2-2.1-1.4-2.3-1.6s-1-.6-.9.7c0 0 .2 2.2.2 2.5 0 .1.2.9-.6 1.4l-2.3 1.4s-1.4.9 0 1.2c1.4.4 2.5.7 2.9.8.4.1.8.5.9.9.1.2.6 2.2.8 2.6 0 0 .4 1.5 1.3.1 0 0 1.6-2.3 1.7-2.4 0 0 .3-.4.9-.4-.2-2.4-.5-4.8-.7-7.3-.3.1-.5.2-.5.2-.5.2-.8.3-1.4-.1M40.6 132.5s1.8-3 1.8-3.1c0 0 .3-.5 1-.4.9.1 3.1 0 2.6 0 .4 0 1.3 0 .5-1.1 0 0-1-1.4-1.4-2-.3-.4-.5-.7-.2-1.5l.8-2.7s.4-1.2-.9-.8c0 0-2.7.9-2.8 1-.3.1-.6.2-1.2-.2-.1-.1-.5-.3-.9-.6.2 3.8.3 7.8.3 11.9.2-.1.3-.3.4-.5M55 138.1c-.3-.1-2.4-.9-2.6-1.1-.3-.1-1.1-.3-.7.9 0 0 .6 2.1.7 2.4 0 .1.4.8-.3 1.5l-2 1.9s-1.2 1.1.3 1.2c1.4 0 2.6.2 3 .2s.9.3 1.1.7c.1.2 1.1 2 1.3 2.4 0 0 .7 1.4 1.3-.2 0 0 .3-.6.5-1.3l-1.8-8.1c0-.1 0-.3-.1-.4-.2.1-.4 0-.7-.1M34.3 57.2c.2 0 .6 0 .3-.5 0 0-.5-.7-.7-1-.1-.2-.2-.3-.1-.7l.4-1.3s.2-.6-.4-.4c0 0-1.3.4-1.4.4-.1 0-.3.1-.6-.1.3 1.2.6 2.4.8 3.7.1 0 .2-.1.3 0 .6-.1 1.6-.1 1.4-.1M51.5 190.4c1 0 1.8-.1 1.8-.1-.1-.2-.3-.3-.4-.4-.3-.4-.5-.6-.4-1.5l.5-2.7s.3-1.2-1-.6c0 0-2.5 1.3-2.6 1.3-.2.1-.5.3-1.2-.1-.3-.1-2.2-1.1-2.5-1.3-.3-.1-1-.4-.8.8 0 0 .4 2.1.5 2.4 0 .1.3.9-.5 1.4l-.2.1c2.2.4 2.7.5 4 .6 1.1.1 2 .2 2.8.1M60.2 174c-.3-.1-2-.8-2.3-.9-.2-.1-.9-.3-.6.8 0 0 .5 1.8.6 2 0 .1.3.7-.3 1.3l-1.7 1.6s-1 1 .3 1c1.2 0 2.2.1 2.6.2.3 0 .7.3.9.6.1.2.9 1.7 1.1 2.1 0 0 .3.7.7.4.8-2.5 1.2-5.7 1-9.9-.6.4-1.3.8-1.3.8-.1.1-.3.3-1 0M52.3 120.4c-.2-.1-1.4-.9-1.5-1-.2-.1-.6-.4-.6.5 0 0 .1 1.4.1 1.6 0 0 .1.6-.4.9l-1.5.9s-.9.6 0 .8c.9.2 1.6.5 1.8.5.2.1.5.3.6.6 0 .1.4 1.4.5 1.7 0 0 .2 1 .8.1l1.1-1.5s.2-.3.7-.3h.2c-.2-1.5-.3-3.1-.5-4.7-.3.1-.5.2-.6.2-.1-.1-.3 0-.7-.3M40.8 139.6c.1.1.6 1.1.7 1.3 0 0 .4.8.7-.1l.6-1.4s.1-.3.5-.4c.5-.1 1.6-.4 1.4-.3.2-.1.7-.2.2-.6 0 0-.7-.6-1-.9-.2-.2-.3-.3-.3-.8l.1-1.5s.1-.7-.6-.3c0 0-1.3.8-1.4.8-.1.1-.3.2-.7 0-.1 0-.4-.2-.8-.3v2.6c0 .5-.1 1-.1 1.5.4 0 .6.2.7.4M41.2 115.2c.2 0 .9 0 .3-.7 0 0-.7-.9-.9-1.3-.2-.3-.3-.4-.1-1l.5-1.7s.3-.8-.6-.5c0 0-.6.2-1.1.4l.3 4.8c.8.1 1.9 0 1.6 0M39.5 105.2l1.1-1.5s.2-.3.7-.3H43c.2 0 .9 0 .3-.7 0 0-.6-.9-.9-1.3-.2-.3-.3-.4-.1-1l.5-1.7s.3-.8-.6-.5l-1.8.6c-.2 0-.4.1-.8-.2-.1-.1-.7-.5-1.1-.8.2 2.5.4 5 .6 7.6.1.2.2.1.4-.2M61.2 166.4c-.1-.1-.2-.2-.2-.5l.1-1s.1-.5-.4-.2c0 0-.9.5-.9.6-.1 0-.2.1-.4 0-.1 0-.9-.3-1-.4-.1 0-.4-.1-.3.3 0 0 .2.8.3.9 0 0 .1.3-.1.5l-.7.7s-.4.4.1.4.9.1 1.1.1c.1 0 .3.1.4.3 0 .1.4.7.5.9 0 0 .2.5.5-.1l.4-1s.1-.2.3-.2c.3 0 1.1-.2.9-.2.1 0 .2-.1.3-.1v-.1s-.1-.1-.1-.2c-.2-.1-.7-.5-.8-.7M37.3 173.5c.3 0 1.1-.2.9-.2.1 0 .5-.1.1-.4 0 0-.5-.4-.7-.6-.1-.1-.2-.2-.2-.5l.1-1s0-.4-.3-.3c-.3 1.4-.5 2.7-.6 3.9.1-.3.3-.6.3-.7.1 0 .2-.2.4-.2"></path><path fill="#FFD673" d="M40.4 163.8c-1 7.3-4.2 18.2 7 18.2 4.7 0 7.7-9.4 5.9-19.7-2-11.4-5.5-19-9.3-19.1-3.4 0-1.9 8.8-3.6 20.6"></path><path fill="#7B2F09" d="M61.2 166c0 .6.5 1.9 1.1 3.3.9 2.2 2.3 4.7 3.6 5.5 1.5.9 9-1.4 9.2-2.7.2-.7-2.3-2.2-5.2-3.5 1.1-.1 3.5-.7 1.5-3-.3-.3-3.3.3-4.8.7-.2-.1-.5-.2-.8-.2-1.5-.3-3.4-.2-4.6-.1"></path><path fill="#FFF" d="M59.2 33.3C58 39.8 60.8 44.5 67 44.7l3.4-4.7c-3.8-.2-9.8-3.5-11.2-6.7"></path><path fill="#E65D00" d="M70.4 40L67 44.7h.3c.2-.3 3.3-4.8 3.3-4.8-.1.1-.2.1-.2.1"></path><path fill="#F37020" d="M40.2 152.2v-2.1s0-.4.4-.7c.5-.3 1.8-1.3 1.5-1.1.2-.2.8-.6-.1-.8 0 0-1.2-.4-1.7-.6-.2-.1-.3-.1-.4-.2-.1 2-.3 4-.4 6 .2.2.7.5.7-.5M57.6 154.8c-.1-.2-1.2-1.4-1.3-1.5-.1-.2-.6-.6-.7.3 0 0-.3 1.5-.3 1.7 0 .1 0 .7-.7.8l-1.9.6s-1.1.3-.2.8c.9.5 1.6.9 1.8 1.1.2.2.4.5.4.8 0 .2 0 1.6.1 2 0 0 0 1.1.9.3l1.6-1.3s.3-.3.8-.1c.6.2 2.1.6 1.8.5.3.1.9.2.6-.6 0 0-.4-1.2-.6-1.7-.1-.3-.2-.6.2-1.1v-.1c-.2-.7-.3-1.5-.5-2.3-.5 0-1.1.1-1.1.1-.3.1-.6.1-.9-.3M39.2 185.5c.7 0 2.5-.2 2.1-.2.3 0 1.1-.1.4-.9 0 0-.9-1.1-1.3-1.6-.3-.3-.4-.5-.3-1.2l.5-2.3s.3-1-.8-.6l-2.2 1c-.2.1-.4.2-1-.1 0 0-.1-.1-.2-.1 0 2.8.6 5 1.9 6.7.1-.2.2-.3.2-.3-.1 0 .1-.4.7-.4"></path><path fill="#E65D00" d="M39.1 157.3c1.1-.5.7.6.7.6-.1.3-.5 1.7-.5 1.8-.1.3 0 .7.2.9s.7.8 1.4 1.6-.4.7-.4.7h-1.9l.5-5.6z"></path></svg><svg viewBox="0 0 98 238" width="98" height="238" id="singing" x="194" y="466"><path fill="#FAAE17" d="M52.6 149.8s0-.1 0 0c-.2-2.2-.6-6-1.1-9.1 6.1-13.7 23.3-34.4 27.1-38.4-1.1-.9-1.9-1.5-2.1-1.6-1.4 1.3-16.8 16.1-25.9 27.3v-.9c-.3 0-.5 0-.8-.1-.5-.1-.7.2-.7.3l-1.2 1.5c-.7.9-.9-.1-.9-.1-.2-.6-.3-1.2-.5-1.8-.1-.3-.3-.5-.6-.7-.2-.1-1-.4-1.9-.6-1-.3 0-.8 0-.8l1.6-.9c.6-.3.5-.8.5-.9 0-.2-.1-1.7-.1-1.7 0-.9.5-.6.6-.4.2.1 1.3 1 1.5 1.1.4.3.6.2.8.2l1.3-.4c-.1-2.7-.2-5.4-.2-8.3l-.3.4c-1 1.4-1.3-.2-1.3-.2-.2-.9-.5-1.8-.7-2.8-.1-.5-.5-.9-.9-1-.4-.1-1.5-.6-3-1s0-1.3 0-1.3l2.5-1.4c.9-.5.7-1.3.7-1.4 0-.3-.1-2.6-.1-2.6-.1-1.3.7-.9 1-.7.2.1 1 .8 1.7 1.2-.4-8.5-1-17.4-2.2-26.4-.1.2-.1.4-.2.6 0 .5-.1 1.8-.1 1.8 0 1-.6.5-.8.4.3.2-1.1-.8-1.5-1.2-.4-.4-.8-.2-.8-.2l-2.1.6c-1.2.4-.7-.7-.7-.7.1-.3.7-1.7.8-1.9.1-.3.1-.7-.1-1-.2-.2-.6-1-1.3-1.8-.7-.9.5-.7.5-.7l2 .2c.7.1 1-.5 1-.5l1-1.5c.5-.8.8-.2.9 0 .1.2.6 1.8.6 2 .1.2.2.4.2.5-.9-6.1-2-12.2-3.5-18.2-.2-.1-.5-.2-.7-.4-.5-.3-.8-.1-.8-.1l-1.9 1c-1.1.6-.8-.5-.8-.5.1-.4.3-1.8.4-2 .1-.3-.1-.7-.3-.9-.2-.2-.8-.8-1.6-1.5s.4-.8.4-.8l2-.2c.7 0 .9-.6.9-.7l.5-1.2c-.9-2.9-1.8-5.8-2.9-8.6 4.8-5.3 11.6-12.3 15.6-15.7.8.9 3.4 3.3 5.2 4 2.9 1.2 7.4.3 7-.3-7.7.5-10.8-5-13.2-10.9.9.2 1.9.2 2.8.1h.2c6.8-.8 12.6-8.9 6.3-15.4-2.1-1.6-5.8-1.3-9.1 4.1-.9.2-3 .9-3.4 1.7-.2.5.4 2.2.8 3.2-5 1.9-9.9 3.8-14.9 5.7.1 0 .1 0 .2.1 2.3.8 3.6 3.3 2.8 5.7-.8 2.3-3.3 3.6-5.7 2.8-.6-.2-1.2-.6-1.7-1.1l2.6-7.6c.5-.1 1.1 0 1.6.1-1.6-1.3-3.2-2.2-4.4-3-.6.2-1.3 1.2-2 2.6.9-.2 1.8-.4 1.8-.3-.6.4-1.6 1-2.3 1.3-.4.8-.7 1.7-1 2.5-2 .8-3.8 1.5-5.2 2 .4.3.7.7.9 1.5-2.7-1-5.9 4.9-6.5 6.7 0 .1-.1.3-.1.4h-.4L5.8 28c.4 1 .3 2.1-.3 3l10.8-.5c3.8 3.3 6.8 6.8 9.5 9.6l.1.2c.1.2.2.5.3.7v-.4-2.1c0-1.1.6-.7.8-.6.2.2 1.7 1.3 1.9 1.5.5.4.8.3 1 .3.1 0 2.5-.7 2.5-.7 1.2-.3.8.7.8.7l-.8 2.3c-.3.7-.1 1 .1 1.3.3.6 1.1 1.8 1.1 1.8.6.9-.2.9-.5.9.4 0-1.5 0-2.3-.1-.6-.1-.9.3-.9.3s-.5.6-.9 1.1l1.5 3.9c.3.1.6.3.7.3.3.2.5.1.6 0l1.3-.7c.6-.3.5.3.5.3l-.2 1.4c-.1.4 0 .6.2.7.2.3.9.9.9.9.5.5 0 .5-.2.6.2 0-.9.2-1.3.2s-.5.3-.5.3-.3.6-.5.9v-.2c.5 1.5.9 3.1 1.2 4.6-.1-.4-.2-.8-.3-1.3.2 0 .5.2.6.3.6.7 1.3 1.5 1.9 2.2.5.6.9.6 1.1.5.1 0 3.1-.2 3.1-.2 1.5-.1.7 1 .7 1l-1.5 2.5c-.5.8-.4 1.1-.2 1.6.2.7.9 2.4.9 2.4.5 1.3-.4 1-.8.9.5.1-1.8-.4-2.6-.7-.4-.1-.7-.1-.9 0 0-.1 0-.2-.1-.3.8 4.6 1.4 9.2 1.8 13.7 0-.3 0-.6-.1-.8.5.4 1.1.8 1.2.9.6.5 1 .4 1.2.3.1 0 3-.9 3-.9 1.4-.4.9.8.9.8l-.9 2.8c-.3.9-.2 1.2.1 1.6.4.7 1.4 2.2 1.4 2.2.8 1.1-.2 1.1-.6 1.1.5 0-1.8 0-2.7-.1-.7-.1-1.1.4-1.1.4l-1.8 2.4c0 1.1.1 2.2.1 3.3.1 0 .3.1.4.1.2.1 1.3 1 1.5 1.1.4.3.6.2.8.2l1.9-.6c.9-.3.6.5.6.5l-.6 1.8c-.2.6-.1.7.1 1 .3.4.9 1.4.9 1.4.5.7-.1.7-.4.7.3 0-1.2 0-1.7-.1s-.7.2-.7.3l-1.2 1.5c-.7.9-.9-.1-.9-.1-.2-.6-.3-1.2-.5-1.8 0-.2-.1-.3-.3-.5 0 2.8-.1 5.6-.3 8.4v-.5c.4.2.6.2.7.1l1.9-.6c.9-.3.6.5.6.5l-.6 1.8c-.2.6-.1.7.1 1 .3.4.9 1.4.9 1.4.5.7-.1.7-.4.7.3 0-1.2 0-1.7-.1-.5 0-.7.2-.7.3 0 0-.9 1.2-1.1 1.5-.2 2.4-.3 4.7-.5 7.1 0-.5.1-.9.1-1.4.5.3.8.2 1 .1.1 0 3-.9 3-.9 1.4-.4.9.8.9.8l-.9 2.8c-.3.9-.1 1.2.1 1.6.4.7 1.4 2.2 1.4 2.2.8 1.1-.2 1.1-.6 1.1.5 0-1.8 0-2.7-.1-.7-.1-1.1.4-1.1.4s-1.7 2.7-2 3.1c.2-2.2.4-4.6.7-7.2-.2 2.2-.4 4.3-.6 6.2-3.6 2.6-25.6 18.5-25 19.6.5 1 17-2.3 22.5-3.5l.6-3-11 1.8 12-7c-.2 1.6-.5 3.3-.7 5 1.2-1 6.5-4.7 9-5.2.3.1.5.3.8.4 1.7 1 3.7 2.8 3.4 3.2-.3.4-6.7 1.1-6.7 1.1.6.3 9.9 4.5 9.9 4.8 0 .3-2.7 2.4-4.5 3.3v.2c.4 1.7.8 3.7 1.2 5.9l1.8-.5c.7-.2.7-.8.7-.8.1-.2.4-1.8.4-1.8.2-.9.7-.5.8-.3.1.2 1.2 1.5 1.3 1.6.4.4.6.4.8.4h.6c-.3-2.6-.7-5.5-1-8.3"></path><path fill="#FAAE17" d="M32.6 168.4c-1 8.6-1.2 13.9 6.8 14.2 7.2.3 9.7-8.8 8.2-19.5-.1-.7-.2-1.4-.3-2 .6.4 1.1.7 1.3.9.2.2.4.5.4.9v2s-.1 1.2.9.4l1.7-1.3s.3-.3.8-.1c.6.2 2.2.7 1.9.6h.1c.2 1.4.3 2.8.4 4.1-.3.2-.8.4-.8.4-.1 0-.2.1-.5 0l-1-.4c-.1-.1-.4-.1-.3.3 0 0 .2.8.2.9 0 0 .1.3-.1.6l-.8.7s-.5.4.1.4c.5 0 1 .1 1.1.1.1 0 .3.1.4.3 0 .1.4.8.5.9 0 0 .2.5.5 0l.5-1s.1-.2.4-.2h.1c.2 2.3.3 4.3.3 6.1-.6.3-1.3.7-1.4.8-.2.1-.5.2-1.1 0-.3-.1-2.1-.9-2.3-1-.2-.1-1-.4-.7.8l.6 2.1c0 .1.3.8-.3 1.3l-1.8 1.6s-1.1 1 .2 1.1c1.3.1 2.3.2 2.7.3.4 0 .8.3.9.7l1.1 2.2s.1.3.3.4c.4-.8.8-1.8 1-2.8l-.1.4c.5.2 1.2.5 2 .9 3.2 1.8 5.2 6.5 4.6 10.8-.5 0-1.1.5-1.5.7 0-.2.1-.8.1-.9.2-1.3-.1-6.5-5.6-9.3-2 9.9-6 25.5-7.7 34.5-1.1-.3-2.3-.5-3.5-.6l-.1.2c1-9.5 1.9-19 2.7-28.5h.2c-.1-.2-.3-.4-.4-.6-.3-.5-.5-.8-.1-1.6l1-2.8s.5-1.3-.9-.9c0 0-2.9.8-3 .9-.3.1-.6.2-1.2-.3l-2.4-1.8c-.2-.2-1-.7-1 .7l.1 2.6c0 .1.1 1-.7 1.4l-1.7.9c.7.3 1.4.6 2.1.8.6 7.4 1.4 20.2.9 24.8 0-.1-.1-.2-.1-.2s-2 1.5-3.6-.1c-1.3-13.6-3.6-24.2-4.9-31.7 0-.1 0-.1-.1-.2.5 1.6 1.3 3 2.3 4.2.9 0 2-.1 1.7-.1.3 0 1.1-.1.4-.9 0 0-.9-1.2-1.3-1.7-.3-.3-.4-.6-.2-1.3l.6-2.3s.3-1.1-.8-.6c0 0-2.3.9-2.4.9-.2.1-.4.2-.9-.1-.4-1.8-.6-3.9-.5-6 .1.2.3.7.4.8 0 0 .2.5.5 0l.5-1s.1-.2.4-.2c.3 0 1.1-.2 1-.2.1 0 .5-.1.1-.4l-.7-.7c-.1-.1-.2-.2-.2-.6l.1-1s.1-.5-.4-.2l-1 .5c-.1 0-.2.1-.5 0 0 0-.1 0-.1-.1.2-1.8.4-3.6.8-5.5v-.1c.1-.7.2-1.3.4-2 .9-4.2 1.9-8.6 2.7-12.8-.1.3-.1.6-.2.9.3.3.7.6.9.7 0 0 .8.8.9-.4 0 0 .1-2.1.1-2.2 0 0 0-.4.5-.7.2-.1.4-.2.7-.4-.9 2.8-1.6 6.6-2.2 11.3l-.7 5.3zm-3.7 5.8v-.2.2M55.4 177.5v0m-.3-6.2v0m-1.4-12.9l.2 1.3c-.1-.4-.2-.9-.2-1.3m-1.1-8.6c0-.1 0-.1 0 0 0-.1 0 0 0 0m1.2 9.9c.1.4.1.8.2 1.3 0-.4-.1-.9-.2-1.3"></path><path fill="#7B2F09" d="M8.7 17.3c.1-1.5-.7-2.9-2.1-3.3-1.6-.4-3.3.7-3.8 2.5s.4 3.6 2 4c1 .3 2 0 2.7-.7.7-.7 1.1-1.6 1.2-2.5m29.7 199.8l-.1-.2s-2 1.5-3.6-.1c-3.3 5.5-16.5 7.4-14.5 11.1 6.4 2.4 14.8 1.2 18.8-.2.6-1.1 1.3-2.2 1.9-3.2-.6-2.5-2.1-6.5-2.5-7.4M42.8 221.6c-.3.4-1 1.5-1.8 2.9-.7 1.1-1.3 2.1-1.9 3.2-1.1 1.9-2.1 3.8-2.1 4.5-.2 1.8 6.5 4.3 8.7 4.4 2.9-.1 6.7-3.5 6.9-4.8.1-1.3-5.6-4.5-6.2-9.7-1.8-.5-3.5-.6-3.5-.6l-.1.1M82.9 100.354s2.7-1.5 5.6-2.4c1.2-1.9-6.1-3-6.1-3l-6 5.6c.2.1 1 .8 2.1 1.6 2.8 2.2 7.6 5.8 8.8 6.1 1.7.5 10.3-3.8 10.1-5.1-.2-1.1-14.5-2.8-14.5-2.8"></path><path fill="#FAAE17" d="M34.3 64.8c-.1-.3-.1-.7-.2-1 0 .4.1.7.2 1m-2.8-10.5c-.1-.2-.1-.4-.2-.7.1.2.1.4.2.7m5.7 31.8l-.1-.9c.1.3.1.6.1.9M50 109.7v.3-.3m-.2-5.9l.1 1.3-.1-1.3m-12.6 10.5v-.7.7M41.9 49c.2.6.3 1.2.5 1.8-.2-.7-.4-1.3-.5-1.8M8.7 17.3c-.1.9-.5 1.8-1.2 2.5l5.6 2.3c-.1-.7-.2-1.4-.2-2 0-.1-4.2-2.8-4.2-2.8zm41.2 89.3v1.1-1.1m-13.6 20.2c.1-.7.1-1.4.2-2.1-.1.7-.1 1.4-.2 2.1m19.1 51.5v0m-.5-9.7l.1 1.2-.1-1.2m-25.5 15c0-.2-.1-.3-.1-.5 0 .1.1.3.1.5"></path><path fill="#FEFEFE" d="M35.7 15.6h-.2c.1-.1.1 0 .2 0"></path><path fill="#FEFEFE" d="M34 15.4L31.4 23c.5.5 1 .8 1.7 1.1 2.3.8 4.9-.5 5.7-2.8.8-2.3-.5-4.9-2.8-5.7-.1 0-.1 0-.2-.1h-.1l-.1-.1H34m1.2 2.3c.9.3 1.3 1.2 1 2.1s-1.2 1.3-2.1 1-1.3-1.2-1-2.1 1.2-1.3 2.1-1m-1.8 6.6c-.8-.3-1.6-.3-2.4-.1l-2.5 7.2c1.6 1.9 4.4 2.2 6.3.6.6-.5 1.1-1.2 1.4-2 .8-2.4-.4-4.9-2.8-5.7m.1 4.2c-.3.9-1.3 1.3-2.1 1-.8-.3-1.3-1.2-1-2 .3-.9 1.2-1.3 2.1-1 .8.2 1.3 1.2 1 2"></path><path fill="#7B2F09" d="M69.1 205c-2.3-1.9-3.4-5.6-4.1-6.3-1.2-1-2.6-1.5-3.9-1.7-.5 0-1 0-1.4.3-.1.1-.3.2-.4.3-1.2 1.5.2 4.5 1.8 5.9.8.6 3.9 3.4 8.4 4.4 4.1.7 5.5-.9 5.9-2.7-2.2 2.1-4.9 1-6.3-.2"></path><path fill="#FEFEFE" d="M55.1 8.8c.2.3-.4.9-1.2 1.3-.8.4-1.6.5-1.8.1-.2-.3.4-.9 1.2-1.3.8-.4 1.6-.4 1.8-.1m-2.8-3c.8-.4 1.6-.5 1.8-.2.1.4-.4 1-1.2 1.4-.8.4-1.6.5-1.8.2-.2-.4.4-1 1.2-1.4M23.8 24.5c-.2.6-.6 2.8-.5 3.6-.5-.8-.8-3.9-.7-4.2 0-.3 1.4.1 1.2.6M36.2 30c-.8 2.3-3.3 3.6-5.7 2.8-.8-.3-1.5-.7-2-1.4l2.5-7.2c.8-.2 1.6-.1 2.4.1 2.4.8 3.6 3.3 2.8 5.7m3.4 110.8c.3-.1-1 .2-1.4.3-.4 0-.5.3-.5.3l-.7 1.5c-.4.9-.7.1-.7.1-.2-.5-.5-.9-.7-1.4-.1-.2-.3-.4-.6-.4h-.1c.2-1.4.4-2.8.5-4.1.3.1.6.3.7.3.4.2.6.1.7 0l1.5-.8c.7-.4.6.3.6.3l-.2 1.6c-.1.5.1.6.3.8l1 1c.3.3-.2.4-.4.5"></path><path fill="#7B2F09" d="M5.8 28c-.4-1.2-1.5-2.1-2.7-2.1-1.6 0-3 1.5-3.1 3.3-.1 1.9 1.2 3.4 2.9 3.4C4 32.7 5 32 5.5 31c.5-.9.6-2 .3-3"></path><path fill="#E67700" d="M21.4 18.6c3.1-2.4 3.1-9-3.4-17.3-1 .7-.4 15.5 3.4 17.3"></path><path fill="#7B2F09" d="M22.6 23.8c-.1.3.1 3.4.7 4.2 0-.7.3-2.9.5-3.6.2-.4-1.2-.8-1.2-.6m6.5-8.7c-.9.2-1.9.5-2.2.5 0 0 .3.8.8.9.2 0 .5-.1.9-.3.7-.3 1.7-.9 2.3-1.3 0-.2-.9 0-1.8.2m-6.7 5.6c-1.4-.9-3.7.5-4.6 1.5-.7-3.4 3.3-3.3 3.3-3.3-2.4-2.3-7.1-3.8-8-1.5-.2.5-.3 1.5-.2 2.6 0 .6.1 1.3.2 2 .5 3.2 1.8 6.9 3.2 7.2h.4c0-.1.1-.2.1-.4.6-1.8 3.8-7.7 6.5-6.7-.2-.7-.5-1.1-.9-1.4M16.5 29.2h-.2.2"></path><path fill="#E67700" d="M17.2 32.4c-4.4.3-11.6 14.9-11 16.1 10-5.8 12.9-12.4 11-16.1"></path><path fill="#7B2F09" d="M52.1 10.3c.2.3 1 .3 1.8-.1s1.4-1 1.2-1.3c-.2-.3-1-.3-1.8.2-.8.2-1.4.8-1.2 1.2m.8-3.3c.8-.4 1.4-1 1.2-1.3-.2-.3-1-.3-1.8.2-.8.4-1.4 1-1.2 1.3.1.2.9.2 1.8-.2m.1 9.1C55.5 22 58.5 27.5 66.3 27c-.1-.6-4.8-2.5-5.7-3.7-1.2-1.4-3.2-4.7-4.2-7.1H56c-1.1.2-2 .1-3-.1"></path><path fill="#7B2F09" d="M56.1 16.2h-.2c0 .1.1.1.2 0m-3.1-.1C55.5 22 58.5 27.5 66.3 27c-7.8.5-10.8-5-13.3-10.9m-19.9 2.7c-.3.9.2 1.8 1 2.1.9.3 1.8-.2 2.1-1 .3-.9-.2-1.8-1-2.1-.9-.3-1.8.1-2.1 1m-.7 7.6c-.9-.3-1.8.2-2.1 1-.3.9.2 1.8 1 2.1.9.3 1.8-.2 2.1-1 .4-.8-.1-1.8-1-2.1"></path><path fill="#E67700" d="M26.3 41.1c1 2.1 1.9 4.1 2.8 6.3-.9-2.2-1.8-4.3-2.8-6.3"></path><path fill="#E67700" d="M30.8 45.9c.8.1 2.7.1 2.3.1.3 0 1.2.1.5-.9 0 0-.8-1.3-1.1-1.8-.2-.4-.4-.6-.1-1.3l.8-2.3s.4-1-.8-.7c0 0-2.4.7-2.5.7-.2.1-.5.1-1-.3-.2-.2-1.7-1.3-1.9-1.5-.2-.2-.8-.5-.8.6V41c1 2.1 1.9 4.1 2.8 6.3.4-.5.9-1.1.9-1.1s.3-.4.9-.3M36.1 70c.9.3 3.1.8 2.6.7.4.1 1.3.3.8-.9 0 0-.7-1.7-.9-2.4-.2-.5-.3-.8.2-1.6l1.5-2.5s.7-1.1-.7-1c0 0-3 .2-3.1.2-.3 0-.6 0-1.1-.5-.2-.2-1.7-2-1.9-2.2-.1-.1-.3-.4-.6-.3.1.4.2.8.3 1.3.3 1.1.5 2.1.8 3.2.1.3.2.7.2 1 .1.6.3 1.3.4 1.9.2 1 .4 1.9.5 2.9 0 .1 0 .2.1.3.3-.2.6-.2.9-.1m11.4 6.5c-.2-1.1-.3-2.3-.5-3.4.2 1.2.3 2.3.5 3.4"></path><path fill="#E67700" d="M46.1 70.6c-.1-.2-.3-.8-.9 0 0 0-.9 1.3-1 1.5 0 0-.3.6-1 .5l-2-.2s-1.2-.2-.5.7c.7.9 1.1 1.6 1.3 1.8.2.2.2.6.1 1-.3.6-.5 1.3-.8 1.9 0 0-.5 1.1.7.7 0 0 2-.6 2.1-.6 0 0 .4-.1.8.2.5.4 1.8 1.4 1.5 1.2.2.2.8.6.8-.4 0 0 .1-1.3.1-1.8 0-.2 0-.4.2-.6-.2-1.1-.3-2.3-.5-3.4-.1-.1-.2-.3-.2-.5-.2-.6-.5-1.3-.7-2m-2.6-15.7c0-.2-.1-.4-.2-.6l.2.6m-2-7.3c.1.5.3.9.4 1.3-.2-.4-.3-.8-.4-1.3M40.1 49.5l-2 .2s-1.2.1-.4.8c.8.7 1.4 1.3 1.6 1.5.2.2.4.6.3.9 0 .2-.3 1.6-.4 2 0 0-.3 1.1.8.5l1.9-1s.4-.2.8.1c.2.1.4.3.7.4l-.2-.6c-.2-.7-.4-1.5-.6-2.2-.1-.5-.2-.9-.4-1.4-.2-.6-.3-1.2-.5-1.8-.1-.4-.3-.9-.4-1.3l-.3 1.2c0 .1-.2.7-.9.7M37.6 94c-.1-2.6-.2-5.2-.4-7.9.2 2.7.3 5.3.4 7.9"></path><path fill="#E67700" d="M39.4 91.6s.3-.5 1.1-.4c.9.1 3.2.1 2.7.1.4 0 1.4 0 .6-1.1 0 0-1-1.5-1.4-2.2-.3-.4-.5-.7-.1-1.6l.9-2.8s.5-1.2-.9-.8c0 0-2.9.9-3 .9-.3.1-.6.2-1.2-.3-.1-.1-.7-.5-1.2-.9 0 .3 0 .6.1.8.1.6.1 1.2.2 1.9l.1.9c.2 2.7.3 5.3.4 7.9-.1 0 1.7-2.4 1.7-2.4m10.5 16.1c0 .7.1 1.3.1 2l-.1-2m.2 5.9c0-1.2-.1-2.4-.1-3.6 0 1.2.1 2.4.1 3.6m-.3-8.5c0 .5 0 1 .1 1.5 0-.5-.1-1-.1-1.5m-.1-2.2v.8-.8"></path><path fill="#E67700" d="M47.1 102.4s.1 2.2.1 2.6c0 .1.2.9-.7 1.4l-2.5 1.4s-1.5.8 0 1.3c1.4.4 2.6.8 3 1 .4.1.8.5.9 1 0 .2.6 2.3.7 2.8 0 0 .3 1.6 1.3.2l.3-.4c0-1.2-.1-2.4-.1-3.6v-.3c0-.7 0-1.3-.1-2v-1.1c0-.5 0-1-.1-1.5l-.1-1.3v-.8c-.6-.4-1.1-.8-1.7-1.2-.3-.4-1.1-.8-1 .5M36.5 124.7v-.2.2M37.6 131s.3-.5 1.1-.4c.9.1 3.2.1 2.7.1.4 0 1.4 0 .6-1.1 0 0-1-1.5-1.4-2.2-.3-.4-.5-.7-.1-1.6l.9-2.8s.5-1.2-.9-.8c0 0-2.9.9-3 .9-.2.1-.5.1-1-.1 0 .5-.1 1-.1 1.4v.2c-.1.7-.1 1.4-.2 2.1v.1c-.2 2.6-.5 5-.7 7.2.4-.3 2.1-2.9 2.1-3m12.6 7.9c-.3-.1-2.4-1.1-2.7-1.2-.3-.1-1.1-.4-.8.9 0 0 .6 2.2.7 2.5 0 .1.3.8-.4 1.5-.5.4-2.2 2-2.2 2s-1.3 1.1.3 1.2c1.5.1 2.7.3 3.1.3.4.1.9.3 1.1.8.1.1 1.2 2.5 1.3 2.5 0 0 .6 1.5 1.3-.1l.6-1.2c-.2-1.5-.4-2.9-.6-4.3v-.2l-.1-.8-.1-.5c0-.2 0-.3-.1-.5l-.1-.7v-.1c0-.3-.1-.6-.1-.9 0-.4-.1-.8-.1-1.1-.3.1-.6.1-1.1-.1M30.5 51.2c.3.8.5 1.6.8 2.4-.3-.8-.5-1.6-.8-2.4zm1.6 4.9l-.6-1.8.6 1.8M32.6 55.3s.1-.3.5-.3 1.5-.2 1.3-.2c.2 0 .7-.1.2-.6l-.9-.9c-.2-.2-.3-.3-.2-.7l.2-1.4s.1-.6-.5-.3l-1.3.7c-.1.1-.3.1-.6 0-.1 0-.4-.2-.7-.3.3.8.5 1.6.8 2.4.1.2.1.4.2.7l.6 1.8v.2c.1-.5.4-1.1.4-1.1m-2.8 129.6c-.1-.2-.1-.3-.1-.5 0 .2 0 .4.1.5m-.5-1.8"></path><path fill="#E67700" d="M33.9 189c.3 0 1.1-.1.4-.9 0 0-.9-1.2-1.3-1.7-.3-.3-.4-.6-.2-1.3l.6-2.3s.3-1.1-.8-.6c0 0-2.3.9-2.4.9-.2.1-.4.2-.9-.1 0 .2.1.3.1.5 0 .1.1.3.1.4 0 .1.1.3.1.4 0 .2.1.3.1.5.5 1.6 1.3 3 2.3 4.2 1 .1 2.2 0 1.9 0m11.7 4c-2.3.2-4.7-.1-7.3-.6-.3-.1-.5-.1-.8-.2.2.1.5.1.8.2 2.5.6 5 .9 7.3.6"></path><path fill="#E67700" d="M38.3 192.5c2.6.5 5.1.8 7.3.5h.2c-.1-.2-.3-.4-.4-.6-.3-.5-.5-.8-.1-1.6l1-2.8s.5-1.3-.9-.9c0 0-2.9.8-3 .9-.3.1-.6.2-1.2-.3l-2.4-1.8c-.2-.2-1-.7-1 .7l.1 2.6c0 .1.1 1-.7 1.4l-1.7.9c.7.3 1.4.6 2.1.8.1.1.4.1.7.2M54.6 184.9c.4-1.4.6-2.9.8-4.8-.1 1.8-.4 3.4-.8 4.8m.8-6.7v.1-.1z"></path><path fill="#E67700" d="M54.1 178.3c-.2.1-.5.2-1.1 0-.3-.1-2.1-.9-2.3-1-.2-.1-1-.4-.7.8l.6 2.1c0 .1.3.8-.3 1.3l-1.8 1.6s-1.1 1 .2 1.1c1.3.1 2.3.2 2.7.3.4.1.8.3.9.7l1.1 2.2s.1.3.3.4c.4-.8.8-1.8 1-2.8.4-1.4.6-3 .8-4.8 0-.5 0-.9.1-1.4v-.6-.6c-.8.3-1.5.7-1.5.7m-5.9-56.2l-1.5-1.1c-.2-.1-.7-.4-.6.4 0 0 .1 1.4.1 1.7 0 0 .1.6-.5.9l-1.6.9s-1 .5 0 .8c.9.3 1.7.5 1.9.6.3.1.5.4.6.7 0 .1.4 1.5.5 1.8 0 0 .2 1 .9.1l1.2-1.5s.2-.3.7-.3c.2 0 .5 0 .8.1-.1-1.7-.1-3.4-.2-5.2l-1.3.4c-.4-.1-.6 0-1-.3m-9.4 17.1c-.2-.2-.3-.3-.3-.8l.2-1.6s.1-.7-.6-.3c0 0-1.4.8-1.5.8-.1.1-.3.2-.7 0-.1 0-.4-.2-.7-.3-.2 1.4-.3 2.8-.5 4.1h.1c.3 0 .5.2.6.4 0 .1.6 1.1.7 1.4 0 0 .3.8.7-.1 0 0 .7-1.4.7-1.5 0 0 .1-.3.5-.3.5-.1 1.7-.3 1.4-.3.2 0 .7-.1.2-.6.2 0-.5-.6-.8-.9m0-23.5c.6.1 2.1.1 1.7.1.3 0 .9 0 .4-.7 0 0-.6-1-.9-1.4-.2-.3-.3-.5-.1-1l.6-1.8s.3-.8-.6-.5c0 0-1.8.6-1.9.6-.2 0-.4.1-.7-.1v.5c0 .8-.1 1.5-.1 2.3v.7c-.1 1.1-.1 2.1-.2 3.1.2-.3 1.1-1.4 1.1-1.5.1-.1.3-.4.7-.3m-1.2-18.4v5.7c.1-1.9.1-3.8 0-5.7"></path><path fill="#E67700" d="M38.3 105.2s.2 1 .9.1l1.2-1.5s.2-.3.7-.3c.6.1 2.1.1 1.7.1.3 0 .9 0 .4-.7 0 0-.6-1-.9-1.4-.2-.3-.3-.5-.1-1l.6-1.8s.3-.8-.6-.5c0 0-1.8.6-1.9.6-.2 0-.4.1-.8-.2L38 97.4c-.1-.1-.3-.2-.4-.1v5.7c.1.1.2.3.3.5 0 0 .4 1.3.4 1.7M55 169.9v.1-.1m-.2-1.4v.2c.1-.1.1-.2 0-.2"></path><path fill="#E67700" d="M53.6 168.9l-1-.4c-.1-.1-.4-.1-.3.3 0 0 .2.8.2.9 0 0 .1.3-.1.6l-.8.7s-.5.4.1.4c.5 0 1 .1 1.1.1.2 0 .3.1.4.3 0 .1.4.8.5.9 0 0 .2.5.5 0l.5-1s.1-.2.4-.2h.1c0-.5-.1-.9-.1-1.4v-.1l-.1-1.2v-.2c-.3.2-.8.4-.8.4-.2 0-.3 0-.6-.1m-24.9 8.2zm.9.7l.5-1s.1-.2.4-.2c.3 0 1.1-.2 1-.2.1 0 .5-.1.1-.4l-.7-.7c-.1-.1-.2-.2-.2-.6l.1-1s.1-.5-.4-.2l-1 .5c-.1 0-.2.1-.5 0 0 0-.1 0-.1-.1-.1 1-.1 2-.2 3 .1.2.3.7.4.8.1.2.4.7.6.1"></path><path fill="#FFD673" d="M42.9 146.7c-.5-.5-1.1-.9-1.7-1.1l-.4.1c.5.2 1.3.6 2.1 1m-1.6 7.7c-1-.3-3.4-1.9-5.4-3.3-.1.1-.3.2-.5.3-.9 2.8-1.6 6.6-2.2 11.3l-.2 2c-.1.7-.4 3.4-.4 3.8-1 8.6-1.2 13.9 6.8 14.2 7.2.3 9.7-8.8 8.2-19.5-.1-.7-.2-1.4-.3-2-.2-.1-.4-.2-.6-.4-1-.6.2-.9.2-.9h.1c-.4-2.3-.7-4.2-1.2-5.9-1.3.5-2.9.9-4.5.4"></path><path fill="#E67700" d="M35.9 151.1c-.1 0-2-1.4-2.4-1.7 0 0-.5 2.7-.7 4v.1c-.1.3-.1.6-.2.9.3.3.7.6.9.7 0 0 .8.8.9-.4 0 0 .1-2.1.1-2.2 0 0 0-.4.5-.7.2-.1.4-.2.7-.4-.1-.1.2-.2.2-.3"></path><path fill="#7B2F09" d="M40.7 145.6s5.9-.5 6.6-1.2c.4-.4-2.5-2.9-4.2-3.6-2.6.3-9.3 5.4-9.3 5.4l-.6 3s6.8 4.8 7.9 5.2c1.6.5 3.4.1 4.9-.6 1.8-.8 4.6-3.1 4.6-3.4 0-.3-9.2-4.5-9.9-4.8"></path><path fill="#E67700" d="M54.4 164.3c-.2-1.9-.5-3.9-.7-5.9h-.6c-.2 0-.4 0-.8-.4-.4-.5-.9-1.1-1.3-1.6-.1-.2-.6-.6-.8.3 0 0-.3 1.6-.4 1.8 0 .1-.1.7-.7.8l-1.8.5h-.1s-1.2.3-.2.9c.2.1.4.2.6.4.6.4 1.1.7 1.3.9.2.2.4.5.4.9v2s-.1 1.2.9.4l1.7-1.3s.3-.3.8-.1c.4.1 2 .5 1.7.4m-22.8-4.7c1-.4.6.6.6.6-.1.3-.5 1.7-.5 1.8-.1.3 0 .6.2.9.2.2.7.8 1.4 1.6s-.4.7-.4.7H31c-.2 0-.4.1-.6.2l1.2-5.8z"></path></svg><svg viewBox="0 0 80 234" width="80" height="234" id="standing" x="292" y="704"><path fill="#7B2F09" d="M33.3 221.9c0-.4.2-1 .5-1.8-.8-1.6-1.3-3-1.8-4.2v-.1c-.7.4-2.2 1.1-3.5.9-2.6 8-7.3 10-5.6 12.2 1.2 1.9 5.7 3.4 7.7 3.2 3.3-.4 8.1-3.8 7.7-5.4-.3-1.1-.9-1.6-2.1-3-1.8-.6-2.9-1.3-2.9-1.8"></path><path fill="#7B2F09" d="M36.7 212.4v.1c-.3.7-2 4.9-2.8 7.5-.3.8-.4 1.5-.5 1.8-.1.5 1.1 1.1 2.9 1.8 4 1.4 11.5 2.6 17.4.6 2.7-1.5-5.8-2.9-13.5-11.3-2.3 1.3-3.5-.5-3.5-.5m10.1-39.6c.3.6.6 1.1.9 1.4 1.2 1.2 9.1.5 9.6-.6.3-.6-1.8-2.7-4.3-4.5 1.1.1 3.6.1 2.1-2.6-.2-.4-3.3-.4-4.8-.4l-.6-.3c-1.4-.7-3.4-1-4.6-1.1-.2 1.2.5 5.6 1.7 8.1m-28.9-7.4c-.3.1-.5.1-.8.2-1.4-.4-4.5-1-4.8-.7-2 2.3.4 2.9 1.5 3-2.9 1.2-5.4 2.8-5.2 3.5.3 1.2 7.8 3.6 9.2 2.7 1.3-.8 2.6-3.3 3.6-5.5.6-1.4 1-2.7 1.1-3.3-1.2-.1-3.1-.2-4.6.1"></path><path fill="#FAAE17" d="M65.7 8.1c-.7-.1-1.3-.4-1.8-.9l-.5-.5-2 4.5c.3.5.6 1.1.9 1.8l3.4-4.9z"></path><path fill="#7B2F09" d="M67.8 2.85c-1.4-1.2-3.4-1.2-4.4 0-.9 1-.9 2.7.1 3.8.1.2.3.4.5.5.5.6 1.1.9 1.7 1 1 .2 2-.1 2.6-.9 1.2-1.2.9-3.2-.5-4.4"></path><path fill="#E67700" d="M53.8 14.8c.5-4.1-11.3-12.5-12.5-12 3.4 9.8 8.9 13.3 12.5 12"></path><path fill="#7B2F09" d="M44.7 14.4c.8.7 2.4 2 2.9 2 .3 0 .9-.7.9-.8-1-.1-3.8-1.5-3.8-1.2m18.6 6.4c-.7-.8-7.3-4.7-9.2-2.2-1.1-3.1 2.9-3.4 4.5-2.9-1.3-3.2-4.5-1-4.5-1 .8-3.2 3.8-7 5.8-5.6 2 1.4 6 11.6 3.4 11.7"></path><path fill="#E67700" d="M64.6 23.8c4.2-1.1 15.5 10.1 15.3 11.4C68.8 33 64 27.8 64.6 23.8"></path><path fill="#FAAE17" d="M43.4 139.1c0-.7-.1-1.4-.1-2.1-.1-16.7 1.2-30.4 2.2-43.2 1.1-14.9 4.8-39.2 9.2-50.8 2.8-8 7.4-16.7 9.3-21.1l9.4-5.6c-.9-.5-1.6-1.3-1.8-2.4l-8.3 6.9-.2-.2c-1.3-1.1-7.3-4.4-9-2-.3-.7-.2-1.2-.1-1.7-1.5.3-3.3.7-5.4 1.1-2.3-1.7-5.1-3.5-6.2-3.1-.2.2-1.4 2.7-2.2 5-5.8 1.3-11.6 2.5-17.4 3.8-.8-.6-2.1-1.6-2.6-1.6-.9.1-2.1 1.9-2.6 2.7-6.2 1.9-8.5 6.4-6.5 9.8 1.4 2.4 3.1 4.7 7.2 5.3 3-.1 5.3-1.6 6.6-3.9 7.4 1.5 17.9 4.3 18.2 4.4-.2.4-.3.7-.3.9-2.6 7.2-8.2 36.2-9.9 50.3-2.1 18.3-3.3 35-5.1 46.4-.2.9-.4 1.9-.6 2.9-6 3.5-19 11.1-24.2 14.7 1.4 1.9 11.7 8 14.8 9.8 1.5-.3 3.4-.2 4.6-.1 0 .6-.5 1.9-1.1 3.3-.1 1.1-.3 2.2-.3 3.2-.2 3.6 0 6.6.5 8.9 0 .4 0 .7.1 1.1-.5.2-1 .5-1.7.9-3 1.9-5.7 6.1-5.3 10.3.2 2.2 1.5.9 1.4-.1-.1-1.2 1.1-6.6 6.2-8.4 1.2 8.4 4.6 23.2 6.1 32 1.3.2 2.8-.5 3.5-.9v.1c-.6-8.8-1.5-17.6-2.5-26.4 2.6.5 5.4.2 8.2-.2.3 0 .6-.1.9-.2 0 4.3-.3 11.8-2 23.4v-.1s1.2 1.8 3.4.5c1-4.8 5.4-20 6.7-30 .8-2.6.7-5.9.1-10.2-1.2-2.5-1.8-6.8-1.7-8 1.2.2 3.1.3 4.5.9 3.2-1.1 14.7-4.9 16.4-6.5-4.6-5-18.8-16.9-22.4-19.8zM22 165l-13.1-8.4 16.4-6.6c-1.3 5.4-2.5 10.6-3.3 15zm23.5-.3c-.8-5.5-1.2-11.4-1.6-16.9L60.2 159l-14.7 5.7z"></path><path fill="#7B2F09" d="M77 11.9c-1-1.5-3-2-4.3-1.1-1 .7-1.4 1.9-1.1 3.2.2 1 .9 1.9 1.8 2.4 1 .5 2.1.5 3-.1 1.4-.9 1.6-2.9.6-4.4"></path><path fill="#FEFEFE" d="M40.1 20c-1.5 1.9-1.2 4.7.7 6.2s4.7 1.2 6.2-.7 1.2-4.7-.7-6.2-4.7-1.2-6.2.7"></path><path fill="#7B2F09" d="M42.6 22.1c-.6.7-.5 1.8.3 2.4.8.6 1.8.4 2.4-.4.5-.7.4-1.7-.3-2.3-.8-.5-1.8-.4-2.4.3"></path><path fill="#FEFEFE" d="M46.9 25.8c-1.5 1.9-1.1 4.7.8 6.2 1.9 1.4 4.6 1.1 6.1-.7 1.5-1.9 1.2-4.7-.7-6.2s-4.7-1.2-6.2.7"></path><path fill="#7B2F09" d="M49 27.5c-.6.7-.5 1.8.3 2.4.7.6 1.8.5 2.4-.3.6-.7.5-1.8-.3-2.4-.7-.6-1.8-.5-2.4.3m-37.9 7.1c6.8 5.5 12.3 1.6 12-2.4 1.6 3.6-4.5 8.6-10.5 3.7-.2-.1-1.4-1-1.5-1.3M57 25.1c-.4-.6-1.8-2.3-2.4-2.6-.1-.5.4-1.1.7-1.2 1.2 2.2 1.7 2.8 1.7 3.8m-35.7 1c-.6.7-.9 1.4-.7 1.6.3.2 1-.1 1.6-.8.6-.7.9-1.4.7-1.6-.3-.2-1 .1-1.6.8m-2.7-1.9c-.6.7-.9 1.4-.7 1.6.3.2 1-.1 1.6-.8.6-.7.9-1.4.7-1.6-.2-.2-.9.1-1.6.8"></path><path fill="#E67700" d="M54.5 37.8s-1.4 1.1-1.6 1.2c0 0-.5.5-1.2.2l-2-1s-1.2-.6-.8.6c.4 1.1.6 2.1.7 2.4.1.3 0 .7-.3 1-.5.6-1 1.1-1.5 1.7 0 0-.9.9.5 1 0 0 2.3.1 2.4.1 0 0 .5 0 .8.5.3.6 1.4 2.1 1.2 1.8.1.2.4.6.7.4.4-1.6 1-3.1 1.5-4.7 0-.1.3-.8.7-1.9-.1-.1-.1-.3-.1-.6s.1-2.1.1-2.3c-.2-.4-.3-1.1-1.1-.4M38 70.1s.5-.2 1.1.3c.7.6 2.5 1.8 2.1 1.6.3.2 1.1.8 1.1-.5 0 0 0-1.7.1-2.4 0-.5 0-.8.8-1.3l2.2-1.6s1.1-.7-.3-1.2c0 0-2.7-.9-2.8-.9-.2-.1-.6-.2-.8-.9l-.9-2.7c-.1-.3-.5-1.1-1.1 0 0 0-1.1 1.8-1.3 2.1 0 0-.1.3-.4.4-.5 2.5-1 5.1-1.5 7.7.8-.3 1.7-.6 1.7-.6m3.8 9.7s-.7.9.5.8c0 0 2-.1 2.1-.1 0 0 .4 0 .7.4.3.5 1.4 1.7 1.2 1.5.1.1.3.3.4.3.3-2.8.7-5.7 1.2-8.7-.1-.2-.3-.4-.8 0 0 0-1.1 1.1-1.3 1.2 0 0-.4.5-1 .3l-1.8-.7s-1.1-.4-.7.6c.4.9.7 1.7.8 2 .1.3.1.6-.1.9-.2.1-1 1.2-1.2 1.5m9.9-26.6l-1.2 1.3s-.4.5-1 .3l-1.9-.6s-1.1-.4-.6.6c.5.9.8 1.7.9 1.9.1.3.1.6-.1.9-.1.1-.9 1.3-1 1.6 0 0-.6.9.5.7 0 0 2-.2 2.1-.2 0 0 .4-.1.7.3 0 .1.1.1.1.2.4-2.3 1-4.7 1.5-7m-18.1 37v2.7s-.1 1.5 1.2.5l2.2-1.8s.4-.4 1.1-.2c.8.3 2.9.8 2.5.7.4.1 1.3.3.8-.9 0 0-.6-1.6-.8-2.3-.2-.5-.3-.8.2-1.5l1.5-2.3s.7-1-.7-1l-2.9.2c-.3 0-.6 0-1.1-.5-.2-.2-1.6-1.9-1.8-2.1-.2-.2-.8-.8-1 .4 0 0-.4 2.1-.5 2.4 0 .1 0 .6-.5.9-.2 1.3-.4 2.6-.5 3.9.2.2.3.5.3.9m8.4 12.7s-.4 2.1-.5 2.4c0 .1-.1.9-1 1.1l-2.6.8s-1.6.4-.3 1.2c1.2.7 2.2 1.3 2.5 1.6.3.2.6.7.6 1.1v2.7s-.1 1.5 1.2.5l2.1-1.7c.2-2.8.4-5.5.6-8.2-.5-.5-1.5-1.7-1.6-1.9-.1-.3-.7-.9-1 .4m-5.5 18.7s.6-1.1-.8-.9c0 0-2.8.5-2.9.5-.3 0-.6.1-1.1-.4-.2-.2-1-.9-1.6-1.5-.4 4-.8 7.8-1.2 11.3.1.6.3 1.9 1 .7l2.2-2.7s.4-.4 1.1-.3c.8.2 3 .4 2.6.4.4 0 1.3.2.7-1 0 0-.8-1.5-1.1-2.2-.2-.5-.4-.7 0-1.5-.1.1 1.1-2.4 1.1-2.4zm1.8 22.3c1.4.3 2.5.5 2.9.6.4.1.8.4.9.9.1.2.8 2.1.9 2.5 0 0 .4 1 .9.6 0-.1-.6-10.3-.6-10.8-.7-.4-1.8-1.1-2-1.2-.3-.2-1-.5-.8.8 0 0 .3 2.1.4 2.4 0 .1.3.9-.5 1.4l-2.2 1.6s-1.4 1 .1 1.2m3-94.1c.2.1.3.3.3.5 0 .4 0 .9.1 1.3 0 0 0 .7.6.2l1-.9s.2-.2.5-.1c.4.1 1.4.3 1.2.3.2 0 .6.1.4-.4 0 0-.3-.8-.4-1.1-.1-.2-.1-.4.1-.7l.7-1.2s.3-.5-.3-.5l-1.4.1c-.1 0-.3 0-.5-.2-.1-.1-.8-.9-.9-1-.1-.1-.4-.4-.5.2l-.2 1.2s0 .4-.5.6l-.5.2-.3 1.2c.2.1.5.3.6.3M28 184.7c.4-.1 1.3-.2.4-1.1 0 0-1.2-1.3-1.6-1.8-.3-.4-.6-.6-.4-1.5l.5-2.8s.3-1.3-1-.7c0 0-2.6 1.3-2.7 1.3-.2.1-.5.3-1.2-.1-.1-.1-.4-.2-.8-.4.4 4.1 1.4 6.9 2.9 8.7l.4-.7s.3-.5 1-.6c.8 0 3-.3 2.5-.3m14.9-64.9c-.1-.1-.6-.5-.6.4 0 0-.1 1.4-.1 1.6 0 0 0 .6-.5.8l-1.6.7s-1 .4-.1.8c.8.3 1.5.7 1.7.8.2.1.4.4.5.7 0 .1.2 1.4.2 1.7 0 0 .1 1 .8.2l.3-.3c.1-2.2.1-4.4.2-6.6-.4-.3-.8-.7-.8-.8m-10.4 19.1s-.6-.7-.8-1c-.2-.2-.3-.3-.2-.8l.3-1.5s.2-.7-.5-.4c0 0-1.4.6-1.5.6-.1 0-.3.1-.6-.1-.1-.1-.6-.3-.9-.5-.1 1-.3 1.9-.4 2.8l-.3 1.2h.2c.2.1.4.2.5.5 0 .1.4 1.1.5 1.4 0 0 .2.8.7 0l.8-1.3s.1-.3.5-.3c.5 0 1.6-.1 1.4-.1.3 0 .8 0 .3-.5m-1-22.7s.2-.3.7-.2c.5.1 1.9.3 1.6.2.2 0 .8.1.4-.6l-.7-1.4c-.1-.3-.2-.5 0-1l.7-1.6s.4-.7-.5-.6c0 0-1.8.3-1.9.3-.2 0-.4.1-.7-.3l-.3-.3c-.2 2.2-.4 4.4-.6 6.5.4 0 1.3-1 1.3-1m7.4-17.5s.5-.7-.4-.6c0 0-1.8.1-1.9.1-.2 0-.4 0-.7-.3l-1.2-1.4c-.1-.2-.5-.5-.7.3 0 0-.3 1.3-.3 1.6 0 0 0 .6-.6.7l-1 .3c0 .3-.1 1.2-.1 1.3.5.3.8.5.9.6.2.1.4.4.4.7v1.7s0 1 .8.3c0 0 1.4-1.1 1.4-1.2 0 0 .3-.2.7-.1.5.2 1.9.5 1.6.4.2.1.8.2.5-.6 0 0-.4-1-.5-1.5-.1-.3-.2-.5.1-1l1-1.3zm-13.4 74.9s-.4-.5-.6-.7c-.1-.1-.2-.2-.1-.5l.2-1s.1-.4-.4-.2c0 0-.9.5-1 .5-.1 0-.2.1-.4 0-.1-.1-.8-.4-.9-.5-.1-.1-.4-.2-.3.3l.2.9s.1.3-.2.5l-.8.6-.2.2v.1s.1.1.2.1c.5.1.9.1 1.1.2.2 0 .3.1.4.3 0 .1.3.7.4.9 0 0 .2.5.5 0l.5-.9s.1-.2.4-.2c.3 0 1.1-.1.9-.1.1-.1.4-.1.1-.5"></path><path fill="#FFD673" d="M43.1 164.2c.8 10.5 2 17.1-6.8 17.1-7 0-9.1-8.8-7.2-19.1 2-11.4 4.2-17.7 8-17.8 3.4 0 5.1 7.9 6 19.8"></path><path fill="#7B2F09" d="M16.5 193.75c-.5-1.6-3.5-1.4-4.5.1-.8 1.3-1.7 4.7-5.4 6.8-1.6.9-3.8 1.8-6.6-.3.2 1.1 2.8 3.6 6.6 2.7 3.8-.9 6.3-2.3 7.7-3.8 1.5-1.4 2.8-3.8 2.2-5.5"></path><path fill="#E67700" d="M25.1 150.6c.3.1.6.1.6.1.2 0 .4.1.6.6.1.2.7 1.6.8 1.8.1.2.4.7.8-.1 0 0 .7-1.3.8-1.5 0 0 .2-.6.9-.6h1.9s1.2 0 .4-.7c-.7-.7-1.2-1.4-1.4-1.6-.2-.2-.3-.6-.2-.9 0-.1.4-1.5.5-1.8 0 0 .4-1-.7-.6 0 0-1.8.8-1.9.8 0 0-.4.2-.8-.1-.3-.2-1-.6-1.3-.8l-1 5.4zm17.5 9.5c1 .2 1.8.4 2.1.4.1 0 .3.1.4.2l-.6-6c-.2 0-.3.1-.3.7 0 0 .2 1.5.3 1.7 0 0 .2.6-.4 1l-1.6 1.1s-1 .7.1.9m-13.5 1.7s-.7-.9-1-1.3c-.2-.3-.4-.4-.2-1l.4-1.8s.2-.8-.7-.5l-1.8.8c-.2.1-.4.1-.8-.1l-1.3-.8c-.4 1.7-.7 3.4-1.1 5.1.3.1.5.1.6.1.3.1.5.3.6.6 0 .1.5 1.4.6 1.7 0 0 .3 1 .9 0l1-1.7s.2-.3.7-.3c.6 0 2.1-.1 1.8-.1.2 0 .9-.1.3-.7m18 19.8c-.2 1-.3 1.1-.7 4l-.3.3c-.9.9-1-.3-1-.3-.1-.7-.1-1.4-.2-2.2 0-.4-.3-.7-.5-.9-.3-.1-1.1-.6-2.1-1.1-1.1-.5.2-1 .2-1l2-.8c.7-.2.7-.9.7-1l.2-2c.1-1 .6-.6.8-.4.1.1.7.8 1.2 1.2 0 1.7-.1 3-.3 4.2m-13.4 8.1c-1.8.1-3.4 0-4.2-.2l2.5-1.1c.9-.3.8-1.2.8-1.2l.2-2.5c.1-1.3.8-.8 1-.6l2 1.9c.6.5.9.4 1.1.4.1 0 2.9-.5 2.9-.5 1.4-.2.8.9.8.9l-.9 1.8c-.7.6-3.6 1-6.2 1.1"></path></svg><svg viewBox="0 0 118 236" width="118" height="236" id="ta-dah" x="372" y="938"><path fill="#7B2F09" d="M20.1 117.4l-7.1-4.3s-7 2.8-5.4 4.4c3.1.3 6.1 1.1 6.1 1.1S-.1 123.6 0 125c.1 1.3 9.6 3.6 11.2 2.7 1.1-.6 5-5.3 7.3-8.2 1-1.2 1.7-2.1 1.6-2.1zM102.5 109.6s2.8-1.5 5.7-2.5c1.2-1.9-6.3-3-6.3-3l-6.1 5.8c.2.1 1 .8 2.2 1.7 2.9 2.2 7.8 5.9 9 6.3 1.8.5 10.6-3.9 10.3-5.2-.2-1.3-14.8-3.1-14.8-3.1M80.9 218.9c-1.5 2-4 .8-4 .8v.1c-.1.9-.6 7-1.5 10.7.1 1.9 7.4 4.3 9.7 4 2.9-.6 5.6-4 5.6-5.4-.5-.7-8-6.8-9.8-10.2M62.6 216.7c0 .1 0 .1 0 0-3 4.6-16.4 7.9-14.8 11 8.6 3.4 21.1.2 21-1.3-.1-1.7-2.6-9.6-2.7-10 0 0-1.4 1.3-3.5.3"></path><path fill="#FAAE17" d="M74 182.8c-.3 0-.5 0-.7.1.8-2.9 1-6.8.6-11.9-.6-5.9-2.2-11.9-3.5-18.6.3-.5.5-1.2.7-1.9 3.6-13.7 23.1-34.6 27-38.8-1.1-.9-2-1.5-2.2-1.7-1.5 1.3-18.3 16.6-27.4 28.3-.1-1.4-.1-2.8-.1-4.2.2-13.8-1.9-58.9-7.6-90.5 6.4-.3 13.6-.6 16.9-.4 0 2.7 1.3 5.5 3.8 7.2 2.8 1.9 7.6 1 7.1.1-7.6-.3-10.6-5.7-8.5-12.7 1.3 4.2 10 9.4 12.9 7.7.2-.2.3-.4.5-.6 2.7-2.9 1.4-7.9-4.5-11-.3-.9-1.2-2.9-2-3.2-.5-.1-1.9.5-2.9 1-.4-.2-.8-.4-1.2-.5-4.2-1.9-9-4.1-13.5-6.2-.2-2.2-.8-4-1.1-5.5-.8-.4-2.6.1-4.6.9 1.2-.1 2.6-.3 2.6-.2-1 .5-2.8 1.3-3.3 1.2-.3 0-.4-.3-.6-.5-.3.2-.7.3-1 .5-1.7-.8-3.3-1.5-4.6-2.1-.1.3-.2.5-.4.8-.6-1.4-2.8-1.6-5-1.4l-.6.1c-2.2.3-4.2.9-4.6 1.3-.3-.2-.4-.5-.4-.9l-4.7-9.6c-.3.3-.6.7-1 .9-.5.3-1.1.5-1.7.5l6.9 10c-.7 1.4 1.3 13.8 3.3 22.7 6.3 27.4 7 62 5.1 91.5-.1 1.2-.2 2.3-.3 3.4-12-9.7-33.4-21.4-33.4-21.4h.1s-.7.9-1.7 2.1c4.3 2.8 25.5 16.9 33.6 29.1-.9 5.4-1.9 10.6-2.6 16.7-1.3 11.2-2.1 17.7.4 21.4 3.2 7.7 10.6 24.5 12.7 30.1v-.1c2.1 1 3.5-.3 3.5-.3-2-7.3-5.6-18.5-7.8-25.6 3.2.5 6.3.6 9-.5 2.3 6.8 6.3 19 9.7 29.4v-.1s2.5 1.2 3.9-.7c-2.1-10.5-6.2-23.5-8-33.7 6-.5 9 3.5 9.5 4.7.5 1 2.3 1.4 1.3-.6-1.7-3.8-5.9-6.3-9.6-6.3M51.6 10.3l.1-3.7c-.2.1-.4.2-.7.3-.7.2-1.4.2-2.1 0l.8 5.3c.7-.8 1.3-1.4 1.9-1.9"></path><path fill="#7B2F09" d="M41.1 9.7c.8-1 .9-2.3.3-3.3-.8-1.4-2.8-1.8-4.4-.8-1.6.9-2.2 2.8-1.3 4.3.6.9 1.6 1.4 2.8 1.3.6 0 1.1-.2 1.7-.5.3-.3.6-.6.9-1M53.3 3c-.5-1.6-2.3-2.4-4.1-1.9s-2.8 2.2-2.3 3.8c.3.9 1.1 1.6 2 1.9.6.2 1.4.2 2.1 0 .2-.1.5-.2.7-.3 1.3-.6 2-2.1 1.6-3.5"></path><path fill="#F37020" d="M57.2 17.4C57.5 13.2 71 7.3 72 8c-5.4 9-11.5 11.4-14.8 9.4"></path><path fill="#FFF" d="M69.6 25.1c1.1 2.2.2 4.9-2 6s-4.9.2-6-2-.2-4.9 2-6c2.2-1.1 4.9-.2 6 2"></path><path fill="#7B2F09" d="M66.7 26.7c.4.9.1 1.9-.8 2.3s-1.9.1-2.3-.8c-.4-.9-.1-1.9.8-2.3.8-.5 1.9-.1 2.3.8"></path><path fill="#FFF" d="M61.7 29.4c1.1 2.2.2 4.9-2 6-2.2 1.1-4.9.2-6-2s-.2-4.9 2-6c2.2-1.1 4.9-.2 6 2"></path><path fill="#7B2F09" d="M59.3 30.6c.4.9.1 1.9-.8 2.3-.9.4-1.9.1-2.3-.8-.4-.9-.1-1.9.8-2.3.8-.4 1.8 0 2.3.8M46.2 20.2c.9-.7 9-2.8 10.3 0 1.8-2.8-2.2-3.9-3.9-3.8 1.9-2.9 4.6 0 4.6 0-.1-3.3-2.4-7.7-4.6-6.7s-8.4 9-6.4 10.5"></path><path fill="#F37020" d="M44.6 23.8c-3.9-2-17.5 6.9-17.5 8.2 11.4.1 17.2-4.1 17.5-8.2"></path><path fill="#7B2F09" d="M85.1 34.4c.5.8.6 1.6.3 1.8-.3.2-.9-.3-1.4-1.1s-.6-1.6-.3-1.8c.3-.2 1 .3 1.4 1.1M88.2 33.1c.5.8.6 1.6.3 1.8-.3.2-.9-.3-1.4-1.1s-.6-1.6-.3-1.8c.2-.2.9.3 1.4 1.1M52.1 27.1c.6-.5 2.5-1.5 3.2-1.7.5-.1 0-1.5-.2-1.4-.3.1-2.7 2.2-3 3.1M66.3 20.3c-1 .5-2.8 1.3-3.3 1.2-.5-.1-.7-.9-.7-.9.6 0 4-.6 4-.3"></path><path fill="#F37020" d="M48.1 41.2c.2.9.4 1.9.6 2.6.3 1.2.5 2.4.8 3.7.5-.4 1.3-1 1.3-1.1 0 0 .4-.3.9-.1.7.3 2.5.7 2.1.6.3.1 1.1.3.7-.7 0 0-.5-1.4-.7-1.9-.1-.4-.2-.7.2-1.3l1.2-2s.6-.9-.6-.8c0 0-2.4.1-2.5.1-.2 0-.5 0-.9-.5-.2-.2-1.4-1.6-1.5-1.8-.2-.2-.7-.7-.9.4 0 0-.3 1.8-.4 2 .1.1.1.6-.3.8M58.6 65.5s.7-1-.7-1c0 0-2.9.2-3 .2-.3 0-.6 0-1.1-.6-.2-.2-1.6-2-1.8-2.2l-.2-.2c.5 3.4.9 6.8 1.2 10.3l.1-.1s.4-.4 1.1-.1c.8.3 3 .8 2.5.7.4.1 1.3.4.8-.9 0 0-.6-1.6-.8-2.3-.2-.5-.3-.8.2-1.5l1.7-2.3zM64.5 74.7c-.1-.2-.5-1.8-.6-1.9-.1-.2-.3-.8-.8 0 0 0-.9 1.3-1 1.5 0 0-.3.6-1 .5l-2-.3s-1.2-.2-.5.7c.6.8 1.1 1.5 1.2 1.8.2.2.2.6.1.9-.1.1-.6 1.5-.8 1.8 0 0-.5 1 .7.7 0 0 2-.5 2-.6 0 0 .4-.1.8.2.5.4 1.7 1.4 1.5 1.2.2.2.7.6.8-.3 0 0 .1-1.2.1-1.8 0-.3.1-.5.5-.8-.1-.9-.2-1.9-.3-2.8h-.1c-.2-.2-.4-.3-.6-.8M59.4 52.8l-2-.3s-1.2-.2-.5.7c.6.8 1.1 1.5 1.2 1.8.2.2.2.6.1.9-.1.1-.6 1.5-.8 1.8 0 0-.5 1 .7.7 0 0 2-.5 2-.6 0 0 .4-.1.8.2.5.4 1.7 1.4 1.5 1.2.2.2.7.6.8-.3 0 0 0-.4.1-.8-.3-2.6-.7-5.1-1.1-7.6-.1-.1-.3-.2-.7.3 0 0-.9 1.3-1 1.5-.2.1-.5.6-1.1.5M59.7 84.9s.5-1.2-.9-.8c0 0-2.8.8-2.9.8-.3.1-.6.1-1.2-.3-.1-.1-.4-.3-.8-.6.2 3.4.4 6.8.5 10.2.5-.7 1.4-1.7 1.4-1.7s.3-.5 1-.4c.9.1 3.1.2 2.6.2.4 0 1.3.1.6-1 0 0-.9-1.5-1.3-2.1-.3-.4-.4-.7-.1-1.5l1.1-2.8zM66.7 103.2c-.3-.2-2-1.6-2.2-1.7-.2-.2-1-.6-.9.7v2.5c0 .1.1.9-.7 1.3l-2.4 1.3s-1.5.8 0 1.2c1.4.4 2.5.9 2.8 1 .4.1.7.5.8 1 0 .2.5 2.2.6 2.7 0 0 .3 1.5 1.3.2 0 0 1.8-2.2 1.8-2.3l.1-.1c-.1-2.4-.3-4.9-.4-7.4-.3-.1-.5-.2-.8-.4M61.6 127.8s-.9-1.5-1.3-2.1c-.3-.4-.4-.7-.1-1.5l1-2.6s.5-1.2-.9-.8c0 0-2.8.8-2.9.8-.3.1-.6.1-1.2-.3-.2-.1-1.2-.9-1.8-1.4-.1 3.5-.3 7-.4 10.4.1.4.2.7.2.9 0 0 .4 2.4 1.1.9l2-2.9s.3-.5 1.1-.4c.9.1 3.1.2 2.6.2.4-.2 1.4-.1.6-1.2M64.3 145c1.4.1 2.6.3 3 .4.4.1.8.4 1 .8.1.2.9 2 1.2 2.5 0 0 .1.3.3.5-.6-3.5-1-7.1-1.2-11-.7-.3-1.6-.8-1.8-.8-.3-.1-1.1-.4-.8.8 0 0 .5 2.1.6 2.4 0 .1.3.9-.4 1.5l-2.1 1.8c0-.1-1.3.9.2 1.1M53 53.1s.2-.6-.4-.4l-1.4.4c-.1 0-.3.1-.6-.1l-.1-.1c.2 1.3.4 2.6.7 3.9 0-.1.2-.2.5-.2.4.1 1.5.1 1.3.1.2 0 .6 0 .3-.5 0 0-.4-.7-.6-1-.1-.2-.2-.3 0-.7l.3-1.4zM52.8 184.7c.3 0 1.1 0 .4-.9 0 0-.9-1.1-1.2-1.6-.2-.3-.4-.6-.2-1.3l.6-2.2s.3-1-.8-.6c0 0-2.2.8-2.3.9-.2.1-.5.2-1-.2 0 0-.1 0-.1-.1 0 3 .3 5.3 1.1 7.1.2-.4.4-.6.4-.7 0 0 .2-.4.8-.4.9.1 2.7 0 2.3 0M66.8 190.5c-.3-.3-.4-.6-.3-1.3l.3-2.8s.2-1.3-1-.6l-2.6 1.4c-.2.1-.5.3-1.2 0-.3-.1-2.4-1.1-2.6-1.2-.3-.1-1.1-.4-.8.9 0 0 .5 2.1.6 2.4 0 .1.3.9-.4 1.5l-.1.1s1.4.4 3.7.4c1.1 0 2.1-.1 3-.3.8-.2 1.5-.5 1.4-.5zM72.4 174.6c-.2-.1-2-.9-2.2-1s-.9-.4-.7.7c0 0 .4 1.8.5 2.1 0 .1.3.7-.4 1.2l-1.8 1.5s-1.1.9.2 1c1.2.1 2.2.3 2.6.3.3.1.7.3.9.7.1.2.8 1.8 1 2.1 0 0 .2.5.5.5.8-2.4 1.2-5.5 1.1-9.5-.3.2-.6.3-.6.3-.3.3-.5.4-1.1.1M65.3 122.4l-1.5.8s-.9.5 0 .8 1.6.6 1.8.6c.2.1.5.3.5.6 0 .1.3 1.4.4 1.7 0 0 .2 1 .8.1 0 0 1-1.3 1.1-1.4 0-1.5-.1-3.1-.2-4.8-.1 0-.3-.1-.5-.2s-1.3-1-1.4-1.1c-.2-.1-.6-.4-.6.4v1.6c0 .1.1.6-.4.9M59.3 137.8s-.7-.7-.9-1c-.2-.2-.3-.3-.2-.8l.2-1.5s.1-.7-.6-.3l-1.4.7c-.1.1-.3.1-.7 0l-1.4-.7c-.1-.1-.6-.2-.4.5 0 0 .3 1.1.3 1.3 0 0 .2.5-.2.8l-.4.3c0 .4-.1.9-.1 1.3.5.1.9.1 1.1.2.2 0 .5.2.5.4 0 .1.5 1.1.6 1.3 0 0 .3.8.7 0l.7-1.4s.1-.3.5-.3c.5 0 1.6-.3 1.4-.2.3 0 .8-.1.3-.6M57.4 114.1s-.6-.9-.8-1.3c-.2-.3-.3-.5-.1-1l.6-1.7s.3-.8-.6-.5l-1.8.5h-.1c0 1.6 0 3.3-.1 4.9v-.1s.2-.3.7-.2c.6.1 2 .1 1.7.1.4 0 1 0 .5-.7M59.8 102.4s-.6-.9-.8-1.3c-.2-.3-.3-.5-.1-1l.6-1.7s.3-.8-.6-.5l-1.8.5c-.2 0-.4.1-.8-.2-.2-.1-1.3-1-1.4-1.1-.1-.1-.2-.2-.4-.1 0 2 .1 4 .1 5.9.1.2.3 1.4.4 1.7 0 0 .2 1 .8.1 0 0 1.1-1.4 1.2-1.5 0 0 .2-.3.7-.2.6.1 2 .1 1.7.1.2 0 .8 0 .4-.7M70.1 168.1c.5.1.9.1 1.1.1.1 0 .3.1.4.3 0 .1.3.7.4.9 0 0 .2.5.5 0l.5-.9s.1-.2.3-.2h.2c-.1-.9-.3-1.8-.4-2.8-.3.1-.6.3-.6.3-.1 0-.2.1-.4 0-.1-.1-.8-.4-.9-.4-.1-.1-.4-.2-.3.3 0 0 .2.8.2.9 0 0 .1.3-.2.5l-.8.6s-.5.4 0 .4M50.6 172.2l-.6-.6c-.1-.1-.2-.2-.2-.5l.1-1s.1-.5-.4-.2l-.6.3c-.2 1.4-.3 2.8-.4 4 .1 0 .1-.1.2-.2l.5-.9s.1-.2.3-.2c.3 0 1.1-.2.9-.1.2-.3.6-.3.2-.6"></path><path fill="#FFD673" d="M52.1 161.9c-1.4 10.7-.6 20.7 8.2 19.8 6.6-.7 7-10.3 5.7-21-1.4-11.8-2.8-16.2-6.7-16.5-3.5-.2-5.6 5.5-7.2 17.7"></path><path fill="#7B2F09" d="M82.7 189.6c.3-.8 2.1-2.2 4.6-1.6 2 .6 5 3.9 7.8 3.7 1.8-.1 3.8-.4 5-3.7.5.9.4 3.4-2.9 5.5-3.7 1.9-8.1 1.6-10.8.8-2-.5-4.5-2.4-3.7-4.7"></path><path fill="#FFF" d="M80.1 37.8c-2 6.7.9 11.8 7.1 12.4l3.5-4.5c-3.7-.5-9.2-4.2-10.6-7.9"></path><path fill="#F37020" d="M55.8 147.1s-1.1-.5-1.6-.7c-.3-.1-.5-.2-.7-.9l-.5-1.9v-.1c-.4 2.6-.8 5.1-1.2 7.5.4.3 1 .9 1.2 1 0 0 .8.8.8-.4 0 0 .1-2 .1-2.1 0 0 0-.4.5-.7.6-.3 1.9-1.2 1.6-1 .1 0 .7-.4-.2-.7M68.5 162.1s1.6-1.2 1.7-1.2c0 0 .3-.3.8-.1.3.1.8.3 1.3.4-.4-1.9-.8-3.9-1.2-5.9l-.1-.1c-.1-.2-1.1-1.4-1.2-1.6-.1-.2-.6-.6-.8.3 0 0-.4 1.5-.4 1.7 0 .1-.1.7-.7.8l-1.9.5s-1.2.3-.3.8l1.8 1.2c.2.2.4.5.4.8 0 .2-.1 1.6-.1 2-.1 0-.2 1.1.7.4M49.6 164.3h1.9s1.2 0 .4-.7c-.7-.7-1.2-1.4-1.4-1.6-.2-.2-.3-.6-.2-.9 0-.1.4-1.5.5-1.8 0 0 .3-.9-.5-.7 0 0-.3 1.5-.4 2.8 0 1.2-.3 2.9-.3 2.9"></path></svg></svg>