<svg xmlns="http://www.w3.org/2000/svg" xmlns:xlink="http://www.w3.org/1999/xlink" width="640" height="384" viewBox="0 0 640 384"><svg data-name="Layer 1" viewBox="0 0 80 48" width="80" height="48" id="amex" x="0" y="0"><title>amex</title><path d="M0 3.21A3.21 3.21 0 0 1 3.2 0h73.6A3.21 3.21 0 0 1 80 3.21v41.58A3.21 3.21 0 0 1 76.8 48H3.2A3.21 3.21 0 0 1 0 44.79z" fill="#0072ce"></path><g fill="#fff"><path d="M67.53 27.73H64.7a1.06 1.06 0 0 0-.63.12.55.55 0 0 0 .11.95 2 2 0 0 0 .6.07h.84a2.46 2.46 0 0 1 1.76.52c.06.05.1.11.15.16zm0 4.27a2.43 2.43 0 0 1-2.11.83h-3v-1.39h3a.9.9 0 0 0 .63-.16.6.6 0 0 0 .18-.42.55.55 0 0 0-.19-.43.79.79 0 0 0-.55-.15c-1.45 0-3.27 0-3.27-2 0-.94.6-1.92 2.23-1.92h3.09v-1.29h-2.88a3.28 3.28 0 0 0-1.95.53v-.53h-4.24a2.93 2.93 0 0 0-1.85.53v-.53H49v.53a4 4 0 0 0-2.1-.53h-5v.53a3.52 3.52 0 0 0-2.18-.53h-5.6l-1.28 1.38-1.2-1.38h-8.32v9h8.2l1.32-1.41 1.25 1.41h5V32h.5a5.31 5.31 0 0 0 2.16-.32v2.42H46v-2.36h.2c.26 0 .28 0 .28.27v2.09h12.64a3.61 3.61 0 0 0 2.11-.58v.58h4a5.43 5.43 0 0 0 2.28-.42V32zm-6.19-2.59a1.81 1.81 0 0 1 .46 1.37c0 1.4-.87 2-2.43 2h-3v-1.34h3a.92.92 0 0 0 .63-.16.56.56 0 0 0 .18-.42.55.55 0 0 0-.19-.43.8.8 0 0 0-.55-.15c-1.45 0-3.27 0-3.27-2 0-.94.6-1.92 2.22-1.92h3.11v1.37h-2.85a1 1 0 0 0-.63.12.49.49 0 0 0-.23.47.5.5 0 0 0 .34.48 2 2 0 0 0 .6.07h.84a2.53 2.53 0 0 1 1.77.52zm-14-.4a1.44 1.44 0 0 1-.77.14H44.7v-1.46h1.91a1.56 1.56 0 0 1 .74.12.63.63 0 0 1 .32.58.69.69 0 0 1-.32.62zm.93.81a1.65 1.65 0 0 1 .76.54 1.9 1.9 0 0 1 .26 1.18v1.29h-1.55V32c0-.39 0-1-.25-1.27a1.52 1.52 0 0 0-1.14-.29H44.7v2.37h-1.56v-6.45h3.58a3.83 3.83 0 0 1 1.86.3 1.52 1.52 0 0 1 .8 1.44 1.81 1.81 0 0 1-1.1 1.72zm2-3.46h5.18v1.33h-3.66v1.18h3.54v1.32h-3.54v1.29h3.63v1.35h-5.18v-6.47zm-10.46 3h-2v-1.67h2c.56 0 .94.23.94.8s-.37.85-1 .85zm-3.55 2.9l-2.41-2.66 2.38-2.55v5.19zm-6.15-.76h-3.84v-1.31h3.4v-1.32h-3.4v-1.18h3.89l1.69 1.89-1.77 1.9zm12.33-3c0 1.79-1.35 2.17-2.7 2.17h-1.97v2.17h-3l-1.91-2.15-2 2.15h-6.14v-6.48H31l1.91 2.12 2-2.12h5c1.23 0 2.61.34 2.61 2.13zM17.32 18.9l-1.06-2.58-1.05 2.58zm23.39-1a1.46 1.46 0 0 1-.77.14h-1.88v-1.47H40a1.5 1.5 0 0 1 .73.12.59.59 0 0 1 .33.57.65.65 0 0 1-.32.61zm13.44 1l-1.08-2.58L52 18.9zm-25.06 2.79H27.5v-5.07l-2.25 5.07h-1.36l-2.26-5.07v5.07h-3.15l-.6-1.44h-3.23l-.6 1.44h-1.68l2.78-6.47h2.3l2.64 6.13v-6.13h2.53l2 4.39 1.86-4.39h2.58v6.47zm6.34 0h-5.18v-6.47h5.18v1.35H31.8v1.16h3.54v1.33H31.8v1.29h3.63v1.34zM42.74 17a1.81 1.81 0 0 1-1.1 1.73 1.81 1.81 0 0 1 .77.54 1.85 1.85 0 0 1 .26 1.19v1.27H41.1v-.82a2 2 0 0 0-.25-1.26 1.54 1.54 0 0 0-1.13-.27h-1.66v2.35h-1.55v-6.51h3.56a3.64 3.64 0 0 1 1.88.31 1.51 1.51 0 0 1 .79 1.47zm2.48 4.73h-1.59v-6.51h1.59v6.47zm18.36 0h-2.2l-2.94-4.85v4.85h-3.16l-.6-1.44h-3.23l-.58 1.44h-1.82a3.29 3.29 0 0 1-2.24-.73 3.24 3.24 0 0 1-.81-2.49 3.46 3.46 0 0 1 .81-2.51 3.15 3.15 0 0 1 2.36-.76h1.5v1.39H49.2A1.47 1.47 0 0 0 48 17a2.11 2.11 0 0 0-.45 1.47A2.24 2.24 0 0 0 48 20a1.52 1.52 0 0 0 1.08.33h.69L52 15.22h2.32l2.63 6.12v-6.12h2.36L62 19.73v-4.51h1.59v6.47zM12.35 23H15l.6-1.44h1.34l.59 1.44h5.21v-1.1l.47 1.1h2.71l.46-1.12V23h13v-2.4h.25c.18 0 .23 0 .23.31V23h6.7v-.55A5.3 5.3 0 0 0 49 23h2.82l.6-1.44h1.34l.59 1.44h5.43v-1.4l.82 1.4H65v-9h-4.35v1l-.6-1.06h-4.43V15l-.55-1.06h-6a5.36 5.36 0 0 0-2.59.53v-.53h-4.09v.53a2.56 2.56 0 0 0-1.75-.53H25.58l-1 2.33-1-2.33h-4.79V15l-.52-1.06h-4l-1.88 4.29V23z"></path></g></svg><svg viewBox="0 0 80 48" width="80" height="48" id="android-pay" x="80" y="48"><path fill="none" d="M0 3.2C0 1.5 1.4 0 3.1 0H76.8C78.5 0 80 1.4 80 3.1v41.7c0 1.7-1.4 3.2-3.1 3.2H3.2C1.5 48 0 46.6 0 44.9V3.2z"></path><path fill="#6EC848" d="M34.2 15l-.1 8.6c0 .7.6 1.3 1.3 1.3h1.1v3c0 .7.6 1.3 1.3 1.3.7 0 1.3-.6 1.3-1.3v-3h1.8v3c0 .7.6 1.3 1.3 1.3.7 0 1.3-.6 1.3-1.3v-3h1.1c.7 0 1.3-.6 1.3-1.3V15H34.2zm2.6-3.1c0 .3.2.6.5.6s.6-.2.6-.5-.2-.6-.5-.6h-.1c-.3-.1-.5.2-.5.5zm5.3 0c0 .3.2.6.5.6s.6-.2.6-.5-.2-.6-.5-.6c-.3-.1-.5.2-.6.5zm-8 2.6v-.2c0-.4 0-.8.1-1.2.4-1.5 1.4-2.7 2.7-3.4L36 8c-.1-.1 0-.2.1-.3.1-.1.2 0 .3.1l.9 1.7c1.6-.7 3.5-.7 5.2 0l1-1.7c.1-.1.2-.1.3-.1.1.1.1.2.1.3L43 9.8c1.4.7 2.5 2 2.9 3.6 0 .2.1.4.1.5v.6H34.1zM49 16c0-.7-.6-1.3-1.3-1.3-.7 0-1.3.6-1.3 1.3v5.5c0 .7.6 1.3 1.3 1.3.7 0 1.3-.6 1.3-1.3V16zm-15.4 0v5.5c0 .7-.6 1.3-1.3 1.3-.7 0-1.3-.6-1.3-1.3V16c0-.7.6-1.3 1.3-1.3.7 0 1.3.6 1.3 1.3"></path><path fill="#7B7979" d="M54 31.7h-1.4l-3 7.2h.6l-3-7.2h-1.4l3.4 7.9-.3.6c-.2.6-.8 1-1.4 1H47v1.2h.4c1.2 0 2.3-.8 2.7-1.9l3.9-8.8zm-8.9 8.2v-8.2h-1.2v.9c-.7-.7-1.7-1.1-2.7-1.1-2.3.1-4.2 2.1-4 4.5.1 2.2 1.9 3.9 4 4 1 0 2-.4 2.7-1.1v.9l1.2.1zm-3.9-1c-1.7-.1-3-1.5-2.9-3.2.1-1.6 1.3-2.8 2.9-2.9 1 0 2 .5 2.5 1.3 0 .1.1.2.1.3v2.9c0 .1 0 .2-.1.3-.5.8-1.5 1.3-2.5 1.3zm-12 3.5V39c.7.7 1.7 1.1 2.7 1.1 2.3-.1 4.2-2.1 4-4.5-.1-2.2-1.9-3.9-4-4-1 0-2 .4-2.7 1.1v-.9H28v10.6h1.2zm2.6-3.5c-1 0-2-.5-2.5-1.3-.1-.1-.1-.2-.1-.3v-3c0-.1 0-.2.1-.3.6-.8 1.5-1.3 2.5-1.3 1.7.1 3 1.5 2.9 3.2-.1 1.7-1.3 2.9-2.9 3"></path></svg><svg viewBox="0 0 80 48" width="80" height="48" id="apple-pay" x="160" y="96"><path fill="none" d="M0 3.2C0 1.5 1.4 0 3.1 0h73.7C78.5 0 80 1.4 80 3.1v41.7c0 1.7-1.4 3.2-3.1 3.2H3.2C1.5 48 0 46.6 0 44.9V3.2z"></path><path d="M25.7 18.1c-.5.7-1.3 1.1-2.2 1-.1-.8.2-1.7.8-2.3.6-.6 1.3-1.1 2.2-1.1.1.9-.2 1.8-.8 2.4m.8 1.3c-1.2-.1-2.3.7-2.9.7s-1.5-.7-2.4-.6c-1.3 0-2.4.7-3.1 1.9-1.3 2.3-.4 5.6.9 7.5.6.9 1.4 1.9 2.4 1.9s1.3-.6 2.4-.6 1.5.6 2.4.6 1.7-.9 2.3-1.8c.4-.6.8-1.4 1-2.1-1.2-.5-2-1.7-2-3 0-1.2.6-2.2 1.6-2.8-.5-1.1-1.6-1.7-2.6-1.7m7-2.6v13.7h2.1v-4.7h3c2.4.1 4.4-1.7 4.6-4.1v-.4c.1-2.4-1.7-4.4-4.1-4.5H33.5zm2.1 1.8h2.5c1.4-.2 2.7.8 2.9 2.2v.5c0 1.7-1 2.7-2.9 2.7h-2.5v-5.4zm11.4 12c1.3 0 2.5-.6 3.1-1.8v1.6h2v-6.8c0-2-1.6-3.3-4-3.3-2.3 0-3.9 1.3-4 3.1H46c.2-.9 1.1-1.5 2-1.4 1.3 0 2 .6 2 1.7v.8l-2.7.2c-2.5.1-3.8 1.2-3.8 2.9s1.6 3.1 3.5 3zm.6-1.6c-1.1 0-1.8-.5-1.8-1.4s.7-1.4 2-1.4l2.4-.2v.8c0 1.3-1.1 2.3-2.4 2.2h-.2zm7.3 5.3c2.1 0 3-.8 3.9-3.2l3.7-10.5h-2.2l-2.5 8.1-2.5-8.1H53l3.6 10-.2.6c-.1.9-.9 1.5-1.8 1.4H54v1.7h.9z"></path></svg><svg viewBox="0 0 80 48" width="80" height="48" id="cash" x="240" y="144"><path fill="none" d="M0 3.2C0 1.5 1.4 0 3.1 0h73.7C78.5 0 80 1.4 80 3.1v41.7c0 1.7-1.4 3.2-3.1 3.2H3.2C1.5 48 0 46.6 0 44.9V3.2z"></path><path d="M24.2 11.7l-1.4 1c-.5-.6-1.3-1-2.1-1-.9 0-1.8.3-2.5 1-.6.7-1 1.6-1 2.5 0 1 .3 1.9 1 2.6.6.7 1.5 1 2.5 1 .9 0 1.7-.4 2.3-1.1l1.5 1c-.9 1.2-2.2 1.8-3.7 1.8-1.4.1-2.7-.4-3.8-1.4-1-1-1.5-2.3-1.5-3.7-.1-2.8 2-5.1 4.7-5.2h.5c1.4-.1 2.7.5 3.5 1.5zm5.2 8.6v-.9c-.5.7-1.3 1.1-2.1 1.1-.6 0-1.2-.1-1.7-.5-.5-.3-.7-.9-.7-1.5 0-.3.1-.6.2-.9.1-.3.3-.5.5-.6.2-.2.5-.3.7-.4.3-.1.6-.2.9-.2.4 0 .7-.1.9-.1h1.3V16c.1-.4-.1-.8-.4-1-.3-.2-.7-.3-1.1-.3-.7 0-1.3.2-1.8.7l-.9-.9c.8-.7 1.8-1.1 2.9-1.1.4 0 .7 0 1 .1.3.1.5.2.8.3.2.1.4.3.5.5.1.2.2.3.3.5.1.2.1.4.2.6 0 .2.1.4.1.5v4.4h-1.6zm-.1-2.6v-.4H29c-1.7 0-2.5.4-2.5 1 0 .3.1.5.4.6.2.2.5.2.8.2.5 0 .9-.1 1.3-.4.2-.2.3-.6.3-1zm7.9-3.3l-1.1 1c-.3-.4-.8-.7-1.3-.7-.2 0-.5.1-.7.2-.2.1-.3.3-.3.5s.2.4.4.5l.9.3c.4.1.7.2 1.1.3.4.1.7.3.9.6.3.3.4.7.4 1.2.1.7-.3 1.3-.9 1.7-.6.4-1.3.5-2 .5-1 .1-1.9-.3-2.6-1l1.1-1.1c.4.5 1 .8 1.6.8.3 0 .5-.1.8-.2.3-.2.4-.5.3-.9l-.3-.3-.9-.3c-.4-.1-.7-.2-1.1-.3-.4-.1-.7-.3-.9-.6-.3-.3-.4-.7-.4-1.1 0-.6.2-1.2.8-1.6.6-.4 1.2-.6 1.9-.6.8.1 1.7.4 2.3 1.1zm2.9-4.7v4.8c.2-.3.4-.6.7-.8.4-.2.8-.3 1.2-.3.7-.1 1.4.2 1.8.8.4.5.6 1.2.6 1.9v4.2h-1.6v-3.4-.6c0-.2-.1-.4-.1-.6-.1-.2-.2-.4-.4-.5-.2-.1-.4-.2-.7-.2-.4 0-.9.2-1.2.5-.3.4-.4.8-.4 1.2v3.7h-1.7V9.7h1.8zm10.7 9.8c-.7-.6-1.1-1.5-1-2.5 0-1 .4-1.9 1-2.5 1.5-1.3 3.7-1.3 5.2 0 .7.7 1.1 1.6 1 2.5 0 .9-.3 1.8-1 2.5-1.5 1.3-3.7 1.3-5.2 0zm1.1-4c-.7.8-.7 2 0 2.8.8.8 2 .8 2.8 0 .7-.8.7-2 0-2.8-.7-.8-1.9-.8-2.8 0 .1 0 .1 0 0 0zm6.4 4.8v-6.7h1.6v1.1c.4-.8 1.2-1.3 2.1-1.3.7-.1 1.4.2 1.9.8.4.5.6 1.2.6 1.9v4.2h-1.7v-3.4-.6c0-.2-.1-.4-.1-.6-.1-.2-.2-.4-.4-.5-.2-.1-.4-.2-.7-.2-.4 0-.9.2-1.2.5-.3.3-.4.8-.4 1.2v3.7h-1.7zM21.2 35.8v-1c-.5.8-1.4 1.3-2.3 1.2-.9 0-1.8-.3-2.4-1-.6-.7-.9-1.6-.9-2.5 0-.9.3-1.8.9-2.5.6-.7 1.4-1 2.3-1 .9 0 1.7.3 2.3 1v-4.7h1.7v10.6h-1.6zM17.8 31c-.7.8-.7 2 0 2.8.4.4.9.6 1.4.6.5 0 1.1-.2 1.4-.6.7-.8.7-2 0-2.8-.4-.4-.9-.6-1.4-.6-.5 0-1.1.2-1.4.6zm13.1 2h-5.1c0 .4.3.9.6 1.2.3.3.8.4 1.2.4.7 0 1.4-.3 1.8-.9l1.2.9c-.7.9-1.7 1.4-2.8 1.4-1 0-1.9-.3-2.6-1-1.4-1.4-1.4-3.7 0-5.1.7-.7 1.6-1 2.6-1 .9 0 1.7.3 2.3 1 .6.8.9 1.7.9 2.7l-.1.4zm-5.1-1.3h3.4c0-.4-.2-.9-.5-1.2-.3-.3-.8-.5-1.2-.4-.4 0-.9.1-1.2.4-.3.4-.5.8-.5 1.2zm6.4 4.1V25.2h1.7v10.6h-1.7zm3.5-8.3c-.4-.4-.4-1 0-1.4.2-.2.5-.3.8-.3.3 0 .6.1.8.3.4.4.4 1 0 1.4-.2.2-.5.3-.8.3-.4 0-.6-.1-.8-.3zm-.1 8.3v-6.7h1.7v6.7h-1.7zm5.2 0L38 29.1h1.8l1.8 4.7 1.8-4.7h1.7l-2.6 6.7h-1.7zM52.4 33h-5.1c0 .4.2.9.6 1.2.3.3.8.4 1.2.4.7 0 1.4-.3 1.8-.9l1.2.9c-.7.9-1.7 1.4-2.8 1.4-1 0-1.9-.3-2.6-1-1.4-1.4-1.4-3.7 0-5.1.7-.7 1.6-1 2.6-1 .9 0 1.7.3 2.3 1 .6.8.9 1.7.9 2.7l-.1.4zm-5.1-1.2h3.4c0-.4-.2-.9-.5-1.2-.3-.3-.8-.5-1.3-.4-.4 0-.9.1-1.2.4-.2.3-.4.7-.4 1.2zm6.4 4v-6.7h1.7v1.1c.2-.4.5-.7.8-.9.4-.2.8-.3 1.2-.3.2 0 .4 0 .6.1v1.6c-.3-.1-.5-.1-.8-.1-.3 0-.6.1-.9.2-.2.1-.4.3-.6.5-.1.2-.2.4-.2.6 0 .1-.1.3-.1.4v3.6l-1.7-.1zm7.2.1L58 29.1h1.8l1.9 4.7 1.7-4.7h1.7L62 37.3c-.2.6-.5 1.1-1 1.5-.5.3-1 .5-1.6.5-.4 0-.8-.1-1.2-.2l.2-1.5c.3.1.6.2.8.2.3 0 .6 0 .8-.2.2-.2.4-.5.5-.8l.4-.9z"></path></svg><svg data-name="Layer 1" viewBox="0 0 80 48" width="80" height="48" id="cirrus" x="320" y="192"><path d="M0 3.2A3.15 3.15 0 0 1 3.12 0H76.8A3.15 3.15 0 0 1 80 3.12V44.8a3.15 3.15 0 0 1-3.12 3.2H3.2A3.15 3.15 0 0 1 0 44.88V3.2z" fill="#006"></path><path d="M39.79 36.06a15.61 15.61 0 0 1-1.1-22c.35-.39.72-.75 1.1-1.1" fill="#009ddd" stroke="#009ddd" stroke-width=".058"></path><path d="M63.82 33.19a.51.51 0 1 1 .51.51.51.51 0 0 1-.51-.51zm.51.38a.39.39 0 0 0 0-.77.39.39 0 0 0 0 .77zm-.07-.16h-.1V33h.3a.14.14 0 0 1 .06.11.12.12 0 0 1-.08.11l.08.2h-.11l-.07-.18h-.08zm0-.26h.12a.06.06 0 0 0-.06 0h-.06z" fill="#009ddd"></path><path d="M39.79 36.05a15.61 15.61 0 1 0-5.13-11.57 15.61 15.61 0 0 0 5.13 11.57" fill="#009ddd"></path><path d="M44.85 22.83a15.3 15.3 0 0 0-.26-1.65H35a15.45 15.45 0 0 1 .45-1.65h8.66a15.93 15.93 0 0 0-.66-1.66h-7.31a13.19 13.19 0 0 1 .9-1.65h5.53a16.18 16.18 0 0 0-1.19-1.66h-3.15a17.32 17.32 0 0 1 1.56-1.65 15.61 15.61 0 1 0 0 23.14 15.4 15.4 0 0 0 1.58-1.65h-3.14A16.05 16.05 0 0 1 37 32.75h5.53a17.74 17.74 0 0 0 .9-1.66h-7.29a13.9 13.9 0 0 1-.67-1.65h8.66a15.45 15.45 0 0 0 .45-1.65 15.9 15.9 0 0 0 .26-5z" fill="#007cc2"></path><path d="M58.58 28.15a.51.51 0 1 1 .51.51.51.51 0 0 1-.51-.51zm.51.38a.39.39 0 1 0-.38-.38.38.38 0 0 0 .37.38zm-.09-.16h-.1v-.44h.18a.17.17 0 0 1 .12 0 .13.13 0 0 1 .05.11.11.11 0 0 1-.07.11l.08.2h-.12l-.06-.18H59v.18zm0-.26h.06a.06.06 0 0 0 .06 0 .05.05 0 0 0 0-.05H59v.09z" fill="#fff"></path><path d="M29.31 22.32h2.46L30.33 29h-2.45zM28.36 20.89c-.14.61-.21 1-.4 1.7a4.38 4.38 0 0 0-4 0 3.2 3.2 0 0 0-1.44 3.11 1.89 1.89 0 0 0 1.17 1.45 3.94 3.94 0 0 0 3.34-.34c-.17.76-.29 1.35-.44 1.89a6.91 6.91 0 0 1-4.15.05A3.42 3.42 0 0 1 20.11 26a4.66 4.66 0 0 1 2.57-4.9 8.57 8.57 0 0 1 5.68-.21zM52.37 24.53c0 .86.57 1.45 1.86 1.89 1 .34 1.14.44 1.14.75s-.44.61-1.4.61a8.84 8.84 0 0 1-2.18-.25l-.34 1.56h.11l.44.07.64.06c.58 0 1 .06 1.34.06 2.57 0 3.76-.72 3.76-2.27 0-.93-.49-1.48-1.71-1.88-1-.35-1.14-.42-1.14-.74s.4-.56 1.19-.56a16.73 16.73 0 0 1 1.75.11l.35-1.57a20.55 20.55 0 0 0-2.18-.14c-2.68-.01-3.63 1.04-3.63 2.3zM50.62 27.28a17.1 17.1 0 0 0-.3 1.74H48l.17-1 .06-.09a3.4 3.4 0 0 1-2.71 1.24 2.11 2.11 0 0 1-2.19-2.3 6.05 6.05 0 0 1 .19-1.4l.63-3.1h2.38l-.67 3.12a4.75 4.75 0 0 0-.17 1c0 .4.4.79 1.07.77 1 0 1.53-.84 1.71-1.82l.7-3.06h2.53zM43.52 22.3l-.77 1.84-.4-.07a1.68 1.68 0 0 0-1.55.93 20.43 20.43 0 0 0-1.06 4h-2.55l.12-.46c.45-2.05 1-4.15 1.34-6.21h2.23a4.55 4.55 0 0 1-.14 1 2.74 2.74 0 0 1 2.75-1.06z" fill="#003473"></path><path d="M44.05 21.78a2.69 2.69 0 0 0-2.73 1.06 4.06 4.06 0 0 0 .14-1h-2.18C39 23.86 38.41 26 38 28l-.12.44h2.49a21.75 21.75 0 0 1 1-4 1.62 1.62 0 0 1 1.52-.89l.4.08zM29.91 21.81h2.39l-1.42 6.67h-2.39zM28.9 20.35c-.14.61-.21 1-.4 1.7a4.38 4.38 0 0 0-4 0 3.2 3.2 0 0 0-1.44 3.11 1.89 1.89 0 0 0 1.18 1.45 3.93 3.93 0 0 0 3.33-.34c-.16.75-.29 1.35-.44 1.89a6.91 6.91 0 0 1-4.15.05 3.43 3.43 0 0 1-2.36-2.79 4.65 4.65 0 0 1 2.56-4.89 8.57 8.57 0 0 1 5.72-.18zM52.92 24c0 .86.57 1.45 1.86 1.89 1 .35 1.14.44 1.14.75s-.44.62-1.4.62a9.36 9.36 0 0 1-2.18-.26L52 28.53h.11l.45.07.63.06c.58 0 1 .05 1.35.05 2.56 0 3.75-.71 3.75-2.26 0-.93-.49-1.48-1.71-1.89-1-.34-1.14-.42-1.14-.74s.4-.55 1.19-.55c.48 0 1.13 0 1.75.1l.35-1.57c-.63-.07-1.59-.13-2.15-.13-2.72 0-3.66 1-3.66 2.29zM51.16 26.74c-.12.58-.23 1.14-.3 1.73h-2.25l.19-1.08a3.44 3.44 0 0 1-2.72 1.25 2.1 2.1 0 0 1-2.19-2.3 6.05 6.05 0 0 1 .19-1.4l.65-3.1h2.38l-.67 3.1a4.94 4.94 0 0 0-.16 1c0 .4.39.79 1.07.77a1.91 1.91 0 0 0 1.79-1.82l.69-3.06h2.43l-1.09 4.91z" fill="#fff"></path><path d="M38.07 22.3l-.77 1.84-.4-.07a1.66 1.66 0 0 0-1.54.89 19.76 19.76 0 0 0-1.06 4h-2.56l.12-.46c.45-2.05 1-4.15 1.34-6.21h2.23a4.47 4.47 0 0 1-.14 1 2.72 2.72 0 0 1 2.71-1z" fill="#003473"></path><path d="M37.86 23.64l-.4-.08a1.63 1.63 0 0 0-1.52.9 20 20 0 0 0-1 4h-2.5l.12-.45c.43-2.05 1-4.15 1.31-6.21H36a4.64 4.64 0 0 1-.14 1 2.71 2.71 0 0 1 2.73-1.07l-.77 1.87z" fill="#fff"></path></svg><svg data-name="Layer 1" viewBox="0 0 80 48" width="80" height="48" id="maestro" x="400" y="240"><title>maestro</title><path d="M0 3.2A3.16 3.16 0 0 1 3.2 0h73.6A3.16 3.16 0 0 1 80 3.2v41.6a3.16 3.16 0 0 1-3.2 3.2H3.2A3.16 3.16 0 0 1 0 44.8z" fill="#006"></path><path d="M45.2 24A15.85 15.85 0 0 0 40 12.2 15.57 15.57 0 0 0 29.3 8a16 16 0 0 0 0 32 16 16 0 0 0 15.9-16z" fill="#0092c7"></path><path d="M40 12.2a12.88 12.88 0 0 0-1.6 1.7h3.1c.4.5.8 1.1 1.2 1.7h-5.5c-.3.5-.6 1.1-.9 1.7h7.4c.2.5.4 1.1.6 1.7h-8.7a8.47 8.47 0 0 0-.4 1.7h9.6a9.63 9.63 0 0 1 .4 3.4 14.4 14.4 0 0 1-.9 5.1h-8.7a8.65 8.65 0 0 0 .7 1.7h7.4a9.5 9.5 0 0 1-1 1.7h-5.5c.4.6.8 1.2 1.2 1.7h3.1c-.5.6-1.1 1.2-1.6 1.7a15.75 15.75 0 0 0 10.7 4.2 16 16 0 0 0 0-32 14.63 14.63 0 0 0-10.6 4z" fill="#d82331"></path><path d="M61.5 27.6l-.1-.4h.3c.1 0 .1.1.1.2a.1.1 0 0 1-.1.1l.1.2h-.1l-.1-.2h-.1v-.2h.1c.1 0 .1 0 .1-.1h-.2v.4zm.1.2a.43.43 0 0 0 .4-.4.4.4 0 0 0-.8 0 .43.43 0 0 0 .4.4zm-.5-.3a.5.5 0 1 1 .5.5.47.47 0 0 1-.5-.5zM27.4 28h-2l1.2-6.2-2.7 6.2h-1.8l-.3-6.2-1.2 6.2h-1.8l1.5-8.1h3.1l.2 5 2.2-5h3.1L27.4 28M49.5 28a9.32 9.32 0 0 1-1.4.2c-1 0-1.6-.5-1.6-1.4a1.27 1.27 0 0 1 .1-.6l.1-.6.1-.5.9-5.1h2l-.3 1.5h1l-.3 1.6H49l-.4 2.8a.37.37 0 0 0-.1.3c0 .4.2.5.7.5a.75.75 0 0 0 .5-.1l-.2 1.4M54.9 21.3h-.3c-.6 0-1.1.3-1.7 1.1l.2-1h-1.8L50.1 28h2c.7-4 1-4.7 2-4.7h.6l.7-1.9c-.3 0-.6 0-.5-.1zM43.2 25.3c.8.3.9.4.9.7s-.3.6-1.2.6a6.15 6.15 0 0 1-1.8-.3l-.2 1.5s.7.1.9.1a4.91 4.91 0 0 0 1.1.1c2.1 0 3.1-.7 3.1-2.2 0-.9-.4-1.4-1.4-1.8-.8-.4-.9-.4-.9-.7s.3-.6 1-.5a7.08 7.08 0 0 1 1.4.1l.3-1.6c-.5 0-1.3-.1-1.8-.1-2.2 0-3 1-3 2.2 0 .9.5 1.5 1.6 1.9zM32.3 25h-.4c-1.1 0-1.7.3-1.7 1a.68.68 0 0 0 .7.7 1.52 1.52 0 0 0 1.4-1.7zm1.5 3h-1.7l.1-.7a2.86 2.86 0 0 1-2.1.8 1.73 1.73 0 0 1-1.8-1.8c0-1.6 1.3-2.6 3.5-2.6a2.49 2.49 0 0 1 .8.1.76.76 0 0 0 .1-.4q0-.6-1.2-.6a8.81 8.81 0 0 0-1.7.2l-.3.1-.2.1.3-1.5a8 8 0 0 1 2.4-.4c1.7 0 2.6.7 2.6 2a3.52 3.52 0 0 1-.2 1.2l-.4 2.4-.1.4-.1.4v.3zM39.2 23.9v-.4c0-.5-.4-.8-1-.8a1.21 1.21 0 0 0-1.2 1.2zm1.1 3.9a7.47 7.47 0 0 1-2 .3c-2.2 0-3.4-1-3.4-2.9a3.59 3.59 0 0 1 3.5-3.9 2.4 2.4 0 0 1 2.7 2.4 5.5 5.5 0 0 1-.3 1.6h-3.9v.2c0 .8.6 1.2 1.7 1.2a4.48 4.48 0 0 0 2-.4l-.3 1.5zM59.4 24.2c0-.7-.3-1.3-1.1-1.3-1.1 0-1.7 1.2-1.7 2.2s.4 1.5 1.2 1.5a1.9 1.9 0 0 0 1.5-1.6 2.2 2.2 0 0 0 .1-.8zm2 .9a3.47 3.47 0 0 1-3.8 3.1 2.81 2.81 0 0 1-3.1-3 3.67 3.67 0 0 1 3.9-3.9 2.84 2.84 0 0 1 3.1 2.9 2.48 2.48 0 0 0-.1.9z" fill="#fff"></path></svg><svg data-name="Layer 1" viewBox="0 0 80 48" width="80" height="48" id="mastercard" x="480" y="288"><title>mastercard</title><path d="M0 3.2A3.16 3.16 0 0 1 3.2 0h73.6A3.16 3.16 0 0 1 80 3.2v41.6a3.16 3.16 0 0 1-3.2 3.2H3.2A3.16 3.16 0 0 1 0 44.8z" fill="#006"></path><path d="M44.9 24.4A15.6 15.6 0 1 1 29.3 8.8a15.62 15.62 0 0 1 15.6 15.6" fill="#c00"></path><path d="M50.3 8.8a15.63 15.63 0 0 0-10.5 4c-.6.5-1.1 1.1-1.6 1.6h3.2c.4.5.8 1.1 1.2 1.7H37c-.3.5-.6 1.1-.9 1.7h7.3a11.11 11.11 0 0 1 .7 1.6h-8.7a10.46 10.46 0 0 0-.4 1.7h9.6a15.67 15.67 0 0 1-.5 8.3h-8.7a7.74 7.74 0 0 0 .7 1.6h7.3c-.3.6-.6 1.1-.9 1.7H37c.4.6.8 1.1 1.2 1.7h3.2a12.88 12.88 0 0 1-1.6 1.7 15.58 15.58 0 1 0 20.8-23.2 14.77 14.77 0 0 0-10.3-4.1" fill="#f90"></path><path d="M25.6 26.1h-.4c-1 0-1.5.3-1.5 1a.75.75 0 0 0 .5.7h.1c.8 0 1.3-.7 1.3-1.7zm1.3 2.9h-1.4v-.7a2.34 2.34 0 0 1-1.8.8 1.58 1.58 0 0 1-1.6-1.6v-.1c0-1.6 1.1-2.5 3-2.5h.7c0-.1.1-.3.1-.4 0-.4-.3-.6-1.1-.6a5.66 5.66 0 0 0-1.8.3c0-.1.2-1.5.2-1.5a6.45 6.45 0 0 1 2-.3c1.5 0 2.2.7 2.2 1.9 0 .4-.1.9-.1 1.3-.1.9-.4 2.9-.4 3.4zM21.5 29h-1.7l1-6.1-2.2 6.1h-1.2l-.1-6.1-1 6.1h-1.6l1.3-8h2.4l.2 4.5 1.5-4.5h2.7l-1.3 8M52.3 26.1H52c-1 0-1.5.3-1.5 1a.75.75 0 0 0 .5.7h.1c.7 0 1.2-.7 1.2-1.7zm1.3 2.9h-1.4v-.7a2.34 2.34 0 0 1-1.8.8 1.58 1.58 0 0 1-1.6-1.6v-.1c0-1.6 1.1-2.5 3-2.5h.7c0-.1.1-.3.1-.4 0-.4-.3-.6-1.1-.6a5.66 5.66 0 0 0-1.8.3c0-.1.2-1.5.2-1.5a6.45 6.45 0 0 1 2-.3c1.5 0 2.2.7 2.2 1.9 0 .4-.1.9-.1 1.3-.1.9-.4 2.9-.4 3.4zM34.4 28.9a5 5 0 0 1-1.2.2 1.16 1.16 0 0 1-1.3-1.1v-.3a9.85 9.85 0 0 1 .2-1.7c.1-.6.7-4.4.7-4.4h1.7l-.2 1h1l-.2 1.5h-1c-.2 1.2-.5 2.8-.5 3a.56.56 0 0 0 .6.5.9.9 0 0 0 .5-.1l-.3 1.5M39.6 28.8a5.08 5.08 0 0 1-1.7.3 2.58 2.58 0 0 1-2.9-2.2v-.6c0-2.2 1.3-3.8 3-3.8a2.14 2.14 0 0 1 2.3 2v.3a4.53 4.53 0 0 1-.3 1.6h-3.4c-.1.9.5 1.3 1.5 1.3a3.92 3.92 0 0 0 1.8-.4zm-1-3.8c0-.1.2-1.1-.8-1.1-.5 0-.9.4-1.1 1.1zM27.9 24.6a1.92 1.92 0 0 0 1.3 1.8c.7.3.8.4.8.7s-.3.6-1 .6a4 4 0 0 1-1.5-.3l-.2 1.5a11 11 0 0 0 1.8.2c1.8 0 2.6-.7 2.6-2.1a1.71 1.71 0 0 0-1.2-1.8c-.7-.3-.8-.4-.8-.7s.3-.5.8-.5a4.87 4.87 0 0 1 1.2.1l.2-1.5a7.57 7.57 0 0 0-1.5-.1c-1.9-.1-2.5.9-2.5 2.1M47.8 22.5a4.19 4.19 0 0 1 1.5.4l.3-1.7a6.19 6.19 0 0 0-1.9-.7A3.28 3.28 0 0 0 45 22c-1-.3-1.4.3-1.9 1l-.4.1c0-.2.1-.4 0-.6h-1.6c-.2 2-.6 4-.9 6v.5h1.7c.3-1.8.4-3 .5-3.8l.6-.4c.1-.4.4-.5 1-.5a5.7 5.7 0 0 0-.1 1.3c0 2.1 1.1 3.4 3 3.4a7.72 7.72 0 0 0 1.5-.2l.3-1.8a3.26 3.26 0 0 1-1.4.4c-1 0-1.6-.7-1.6-1.9 0-1.7.9-3 2.1-3M62.2 21l-.4 2.3a2.09 2.09 0 0 0-1.6-1.1 2.65 2.65 0 0 0-2.2 1.6 5.73 5.73 0 0 1-1.4-.4c0-.3.1-.7.1-1h-1.5c-.2 2-.6 4-.9 6l-.1.4h1.7c.2-1.5.4-2.7.5-3.7.6-.5.9-1 1.5-1a5.22 5.22 0 0 0-.4 2.1c0 1.6.8 2.7 2 2.7a2 2 0 0 0 1.6-.7v.8h1.6l1.3-7.9zM60 27.5c-.6 0-.9-.4-.9-1.3 0-1.3.5-2.2 1.3-2.2.6 0 .9.4.9 1.3.1 1.3-.5 2.2-1.3 2.2z" fill="#006"></path><path fill="#fff" d="M22 28.5h-1.7l.9-6.1-2.1 6.1h-1.2l-.1-6-1 6h-1.6l1.3-7.9h2.4l.1 4.9 1.6-4.9h2.7L22 28.5M26.1 25.6h-.4c-1 0-1.4.3-1.4 1a.75.75 0 0 0 .5.7h.1c.7 0 1.2-.7 1.2-1.7zm1.3 2.9H26v-.7a2.34 2.34 0 0 1-1.8.8 1.58 1.58 0 0 1-1.6-1.6v-.1c0-1.6 1.1-2.5 3-2.5h.7V24c0-.4-.3-.6-1.1-.6a5.66 5.66 0 0 0-1.8.3c0-.1.2-1.5.2-1.5a6.45 6.45 0 0 1 2-.3c1.5 0 2.2.7 2.2 1.9 0 .4-.1.9-.1 1.3 0 .9-.3 2.9-.3 3.4zM50.1 20.8l-.3 1.7a2.82 2.82 0 0 0-1.5-.4c-1.3 0-2.2 1.2-2.2 3 0 1.2.6 1.9 1.6 1.9a3.26 3.26 0 0 0 1.4-.4l-.3 1.8a7.72 7.72 0 0 1-1.5.2c-1.8 0-3-1.3-3-3.4 0-2.8 1.6-4.8 3.8-4.8a6.47 6.47 0 0 1 2 .4M52.8 25.6h-.4c-1 0-1.5.3-1.5 1a.75.75 0 0 0 .5.7h.1c.8 0 1.3-.7 1.3-1.7zm1.3 2.9h-1.4v-.7a2.34 2.34 0 0 1-1.8.8 1.58 1.58 0 0 1-1.6-1.6v-.1c0-1.6 1.1-2.5 3-2.5h.7c0-.1.1-.3.1-.4 0-.4-.3-.6-1.1-.6a5.66 5.66 0 0 0-1.8.3c0-.1.2-1.5.2-1.5a6.45 6.45 0 0 1 2-.3c1.5 0 2.2.7 2.2 1.9 0 .4-.1.9-.1 1.3-.1.9-.4 2.9-.4 3.4zM34.9 28.4a5 5 0 0 1-1.2.2 1.11 1.11 0 0 1-1.3-1.1v-.3c0-.3.1-1 .2-1.7l.7-4.4H35l-.2 1h.9l-.2 1.5h-.9c-.2 1.2-.5 2.8-.5 3a.56.56 0 0 0 .6.5.9.9 0 0 0 .5-.1l-.3 1.4M40.1 28.4a5.08 5.08 0 0 1-1.7.3 2.58 2.58 0 0 1-2.9-2.2v-.7c0-2.2 1.3-3.8 2.9-3.8a2.14 2.14 0 0 1 2.3 2v.3a8.75 8.75 0 0 1-.2 1.6h-3.3c-.1.9.5 1.3 1.5 1.3a3.92 3.92 0 0 0 1.8-.4c-.2 0-.4 1.6-.4 1.6zm-1-3.9c0-.1.2-1.1-.8-1.1-.5 0-.9.4-1.1 1.1zM28.4 24.1a1.92 1.92 0 0 0 1.3 1.8c.7.3.8.4.8.7s-.3.6-1 .6a4 4 0 0 1-1.5-.3l-.2 1.5a11 11 0 0 0 1.8.2c1.8 0 2.6-.7 2.6-2.1a1.71 1.71 0 0 0-1.2-1.8c-.7-.3-.8-.4-.8-.7s.3-.5.8-.5a4.87 4.87 0 0 1 1.2.1l.2-1.5a7.57 7.57 0 0 0-1.5-.1c-1.9-.1-2.5.9-2.5 2.1M63 28.5h-1.6l.1-.6a2 2 0 0 1-1.6.7c-1.2 0-2-1.1-2-2.7 0-2.1 1.3-4 2.8-4a1.7 1.7 0 0 1 1.6.9l.4-2.3h1.7zM60.5 27c.8 0 1.3-.9 1.3-2.2 0-.8-.3-1.3-.9-1.3-.8 0-1.3.9-1.3 2.2.1.9.4 1.3.9 1.3zM55.6 22.1c-.2 2-.6 4-.9 6l-.1.4h1.7c.6-3.9.8-4.7 1.7-4.6a6 6 0 0 1 .6-1.9c-.7-.1-1.1.3-1.6 1a3.4 3.4 0 0 0 .1-1l-1.5.1M41.6 22.1c-.2 2-.6 4-.9 6l-.1.4h1.7c.6-3.9.8-4.7 1.7-4.6a6 6 0 0 1 .6-1.9c-.7-.1-1.1.3-1.6 1a3.4 3.4 0 0 0 .1-1l-1.5.1"></path></svg><svg data-name="Layer 1" viewBox="0 0 80 48" width="80" height="48" id="visa" x="560" y="336"><title>visa</title><path d="M0 3.21A3.21 3.21 0 0 1 3.2 0h73.6A3.21 3.21 0 0 1 80 3.21v41.58A3.21 3.21 0 0 1 76.8 48H3.2A3.21 3.21 0 0 1 0 44.79z" fill="#26337a"></path><path fill="#fffffe" d="M33.19 31.64l2.46-15.26h3.93l-2.46 15.26h-3.93M51.39 16.75a9.88 9.88 0 0 0-3.53-.64c-3.88 0-6.62 2.07-6.64 5 0 2.19 2 3.41 3.44 4.14s2.05 1.23 2 1.9c0 1-1.22 1.49-2.35 1.49a7.9 7.9 0 0 1-3.71-.8l-.5-.25-.55 3.42a11.77 11.77 0 0 0 4.38.81c4.13 0 6.81-2 6.85-5.21 0-1.74-1-3.06-3.31-4.14-1.37-.71-2.21-1.18-2.2-1.9s.73-1.27 2.29-1.27a6.89 6.89 0 0 1 2.94.59l.35.17.54-3.31M56.62 26.23C57 25.35 58.19 22 58.19 22s.32-.88.52-1.45l.29 1.27.91 4.41zm4.85-9.84h-3a2 2 0 0 0-2.06 1.27l-5.84 14h4.13l.83-2.29h5l.47 2.27h3.64l-3.17-15.25zM29.89 16.39L26 26.79l-.41-2.11a11.68 11.68 0 0 0-5.44-6.4l3.52 13.34h4.16l6.19-15.23h-4.13"></path><path d="M22.47 16.38h-6.34l-.05.32c4.93 1.26 8.2 4.31 9.55 8l-1.38-7a1.64 1.64 0 0 0-1.78-1.29" fill="#ec982d"></path></svg></svg>