<svg xmlns="http://www.w3.org/2000/svg" xmlns:xlink="http://www.w3.org/1999/xlink" width="278" height="302" viewBox="0 0 278 302">
    <defs>
        <path id="a" d="M.57 20h22.505V.367H.57V20z"/>
        <path id="c" d="M.303.546h9.019v7.977H.303V.546z"/>
    </defs>
    <g fill="none" fill-rule="evenodd">
        <path fill="#1450A0" d="M190.993 98.747C142.42 73.701 94.437 71.043 64.605 79.997 9.45 96.513-7.663 166.627 43.471 200.965c3.072 2.088 1.128 6.466-2.746 13.442-4.784 8.682-13.674 25.786-29.386 38.1-9.432 7.444-15.576 10.52-7.806 19.7 0 0 17.28 19.348 30.066 24.968 15.388 6.75 19.244 5.61 30.69-5.11 7.208-6.748 21.48-25.168 38.694-54.536 8.944-15.26 20.884-15.538 19.244 9.566 0 0-2.354 24.162-3 29.164-1.91 14.386-.418 19.362 12.504 19.518 0 0 27.706-1.528 37.326-2.884 13.53-1.858 12.786-4.044 16.328-14.718 18.938-56.966 20.526-154.754 20.526-154.754.826-13.12-3.32-18.708-14.918-24.674m-35.454 52.726s-17.194 11.78-17.634 12.104c-1.474 1.12-3.466 2.466-3.738 7.928-.094 2.294-.784 18.358-.806 20.382-.05 2.194-1.022 8.268-8.012 2.102 0 0-11.72-10.25-13.444-11.776-.418-.356-4.418-4.922-10.698-2.214l-18.342 7.332s-11.01 4.502-6.946-5.41c4.002-9.644 6.694-17.642 7.572-20.234.908-2.706.576-6.5-1.65-9.15-1.024-1.192-9.82-12.862-11.836-15.728 0 0-7.248-8.594 4.816-8.008 0 0 20.588.456 20.924.488.324.034 4.2.302 6.956-4.04 3.364-5.318 13.33-17.798 11.272-15.144 1.732-2.216 5.766-7.648 8.44 1.382 0 0 3.79 11.884 5.602 16.886 1.188 3.394 1.982 5.664 8.104 7.636l18.908 6.842s8.86 2.726.512 8.622"/>
        <path fill="#FAAE17" d="M167.02 160.692c4.297 4 31.437 29 47.347 36.936 3.648 10.014 8.044 20.428 11.346 27.97 1.322 3.03 2.514 5.662 3.644 7.942.96 7.402 3.68 27.458 5.694 33.332 1.44.58 5.198 2.324 9.354 4.288a2844.686 2844.686 0 0 1-4.074 10.666c.762.352 3.66 1.09 4.628 1.158 2.038-2.668 3.974-5.652 5.798-8.802 4.13 1.974 7.666 3.686 8.642 4.156l1.198-4.972c-.696-.428-3.47-2.12-7.068-4.26 7.788-15.15 12.866-32.474 13.106-38.782 4.356.718 6.248 3.22 7.096 5.084.328-.114.676-.18 1.058-.192.394-.012.744.062 1.056.194-1.584-4.414-5.3-7.878-9.184-9.286-.164-3.566-1.684-7.51-5.116-11.696-3.6-1.68-8.58-6.406-9.5-8.062 1.436-.818 3.894-2.16 6.016-2.632 2.718-4.268 11.774-18.648 12.41-21.788-8.918-1.018-32.054-3.068-40.4-3.8-18.132-29.956-31.738-78.444-30.258-114.852 2.842 1.884 12.582 5.19 21.326 10.746-.624 3.522.362 7.138 3.418 9.87 4.824 3.056 8.604 2.148 12.18.842 5.036-1.698 6.674-8.442 1.836-15.85.178-1.244.5-4.19-.364-5.056-.458-.456-2.634-.604-4.05-.652A2629.271 2629.271 0 0 0 219.43 43.88c1.18-3.01 2.128-6.63 2.07-7.076-.846-1.356-5.41-1.936-9.206-2.184-1.74-2.25-3.3-4.258-4.568-5.89-.194.608-.654 1.186-1.532 1.684.272-4.18-10.062-5.988-11.594-5.772l-2.528-14.456a4.94 4.94 0 0 1-1.636.782 4.977 4.977 0 0 1-2.342.05l4.746 13.632A161.56 161.56 0 0 0 189 35.784c-10.646 27.5-1.582 99.832 19.872 145.576-16.4-5.196-34.282-19.082-39.752-23.542-1.136 1.78-1.94 3.012-1.94 3.012l-.16-.138zm73.305 84.38c2.988.58 6.662-.012 11.66-1.568a25.012 25.012 0 0 0 3.272-1.282c-2.05 5.52-5.184 13.934-8.558 22.874a371.8 371.8 0 0 0-5.352-3.042c-.028-5.444-.576-12.27-1.022-16.982zm-3.448-57.378l26.788-.886-10.858 18.446c-4.78-4.836-10.202-10.41-15.93-17.56zM203.279 9.263c.75.458 1.658.726 2.634.714.33-.006.656-.04.964-.106l-1.9 6.364c-.792.298-1.638.66-2.498 1.076l.8-8.048z"/>
        <path fill="#7B2F09" d="M275.845 235.411c2.06.898 2.264 4.714 1.086 6.77-1.356 2.362-5.816 4.962-6.462 8.664-.572 3.28-1.302 5.94 2.506 8.116-2.412.266-5.212-1.192-5.462-5.838.144-5.764 1.802-11.724 2.384-12.956.506-1.074 1.554-3.984 3.834-4.758a3.45 3.45 0 0 1 1.058-.194c.394-.012.744.064 1.056.196M169.497 163.759l-10.8-2.552s-4.268-9.208-1.204-9.282c3.246 2.618 7.014 4.608 7.014 4.608s-8.792-17.67-7.49-18.932c1.3-1.26 12.684 5.426 13.424 7.758.514 1.63-.052 9.992-.438 14.876-.168 2.108-.3 3.572-.3 3.572l-.206-.048zM260.607 273.337s9.91-4.752 13.02-2.16c-1.878 16.042-2.686 22.492-3.312 25.832-1.478.142-13.502.378-15.728-.16.308-2.818 5.202-5.308 8.794-4.702-.664-4.566-3.998-13.734-3.998-13.734l.016-.074 1.198-4.972.01-.03z"/>
        <g transform="translate(230 281.454)">
            <mask id="b" fill="#fff">
                <use xlink:href="#a"/>
            </mask>
            <path fill="#7B2F09" d="M14.966 1.53c-.94 4.83 8.93 12.651 8.054 16.757C17.65 20.37 5.564 21.071.57 17.39.894 12.313 6.614 9.303 10.322.367c.004.004.006.004.01.006.76.352 3.66 1.09 4.626 1.156h.008z" mask="url(#b)"/>
        </g>
        <path fill="#7B2F09" d="M252.044 206.366c1.438-.818 3.894-2.16 6.016-2.63.38-.088.754-.154 1.106-.17 1.648-1.324 5.204-3.968 5.814-3.696 4.012 1.792 1.21 3.924-.14 4.738 4.49-.114 8.636.438 8.836 1.428.362 1.786-7.922 9.324-10.398 8.97-.514-.074-1.108-.284-1.734-.578-3.6-1.68-8.58-6.406-9.5-8.062"/>
        <g transform="translate(201 1.454)">
            <mask id="d" fill="#fff">
                <use xlink:href="#c"/>
            </mask>
            <path fill="#7B2F09" d="M2.279 7.809C1.12 7.1.339 5.935.305 4.6.249 2.393 2.22.583 4.707.545 7.197.513 9.26 2.267 9.32 4.47c.046 1.91-1.428 3.524-3.444 3.946-.308.066-.634.1-.964.106a4.935 4.935 0 0 1-2.634-.714" mask="url(#d)"/>
        </g>
        <path fill="#E67700" d="M209.788 26.74c3.046-4.7 22.748-3.009 23.56-1.505-12.184 7.144-20.92 6.02-23.56 1.504"/>
        <path fill="#FEFEFE" d="M219.427 44.155a5.983 5.983 0 1 1-5.784-6.174 5.98 5.98 0 0 1 5.784 6.174"/>
        <path fill="#7B2F09" d="M215.04 44.198a2.344 2.344 0 0 1-2.416 2.264 2.34 2.34 0 1 1 .15-4.678 2.339 2.339 0 0 1 2.266 2.414"/>
        <path fill="#FEFEFE" d="M207.314 44.23a5.982 5.982 0 1 1-11.958-.396 5.979 5.979 0 0 1 6.172-5.78 5.978 5.978 0 0 1 5.786 6.176"/>
        <path fill="#7B2F09" d="M203.673 44.108a2.344 2.344 0 0 1-2.416 2.264 2.343 2.343 0 0 1-2.262-2.418 2.336 2.336 0 0 1 2.414-2.262 2.342 2.342 0 0 1 2.264 2.416M236.738 84.753c-11.914-.308-14.194-9.132-10.354-12.97-4.798 2.398-2.898 12.936 7.67 13.104.272.008 2.396.1 2.684-.134M197.509 34.58c.944-.313 3.894-.725 4.77-.655.54-.508.554-1.47.352-1.83-3.29 1.23-4.292 1.494-5.122 2.484M219.667 34.337c-1.51.036-4.238-.06-4.804-.424-.326-.206-.34-1.518-.27-1.672 1.09.708 5.27 1.756 5.074 2.096M194.58 24.644c1.45-.232 11.887 1.57 11.615 5.772 3.89-2.184-.08-6.046-2.162-6.98 4.124-2.144 5.494 2.918 5.494 2.918 2.016-3.958 2.15-10.576-1.098-10.874-3.248-.3-14.956 5.894-13.85 9.164"/>
        <path fill="#E67700" d="M190.753 26.573c-3.356-4.878-25.052-3.124-25.946-1.562 13.418 7.42 23.038 6.248 25.946 1.562"/>
        <path fill="#7B2F09" d="M233.689 66.948c.07 1.228-.266 2.248-.75 2.278-.484.024-.932-.95-1-2.18-.07-1.232.268-2.248.752-2.28.484-.024.928.954.998 2.182M238.08 67.36c.065 1.228-.27 2.248-.753 2.276-.486.024-.934-.95-.998-2.18-.07-1.23.264-2.25.75-2.276.484-.028.93.95 1 2.18"/>
        <path fill="#FFD673" d="M229.232 215.523c5.848 13.294 13.46 20.218 21.326 15.15 6.796-4.382 3.468-15.348-5.448-26.714-9.882-12.608-15.792-17.82-20.478-15.418-4.18 2.14-2.078 11.804 4.6 26.982"/>
        <path fill="#E67700" d="M190.23 57.648c-.278.358-.428.942-.234 1.45.09.242.79 2.44.942 2.974 0 0 .628 1.666-1.14.944l-3.104-1.174c-.042-.024-.606-.264-1.248.232-.202.166-.506.378-.828.598.15-4.352.462-8.448.95-12.224.036.056.074.114.112.182 0 0 1.206 2.144 1.394 2.464.032.072.394.966 1.47.89l3.128-.126s1.884-.098.75 1.168c-1.106 1.228-1.924 2.284-2.192 2.622M199.554 91.651c-.946.746-3.518 2.356-2.978 2.008-.45.286-1.526 1.012-1.428-.78 0 0 .07-2.372.056-3.38 0-.694.01-1.142-.966-1.886l-2.972-2.426s-1.412-1.046.46-1.576c0 0 3.834-1.028 3.926-1.062.338-.106.78-.224 1.176-1.184.16-.406 1.292-3.25 1.434-3.61.144-.392.7-1.424 1.568.128l.142.252c.256 4.346.684 8.794 1.266 13.302l-.182-.072c-.054-.026-.732-.318-1.502.286M187.952 101.54c.196-.166.452-.372.432-1.12-.012-.31-.082-2.504-.096-2.782-.02-.3.048-1.138 1.064-.372 0 0 1.702 1.28 1.96 1.468.054.046.646.628 1.472.194l2.428-1.188s1.452-.732.994.666c-.444 1.352-.726 2.47-.818 2.834-.1.378-.014.89.314 1.226a92.797 92.797 0 0 1 1.776 2.022s1.078 1.096-.572 1.142c0 0-2.808.148-2.862.148-.042-.006-.566.002-.898.62-.404.762-1.636 2.562-1.382 2.178-.208.318-.706 1.1-1.164-.1 0 0-.638-1.58-.936-2.24-.198-.456-.326-.756-1.18-.956l-1.146-.322c-.126-.878-.25-1.752-.362-2.626.496-.4.954-.77.976-.792M185.275 71.628l2.426-1.188s1.458-.726.996.668c-.444 1.35-.724 2.472-.822 2.832-.092.378-.012.89.32 1.226.154.158 1.47 1.652 1.778 2.02 0 0 1.072 1.104-.578 1.144 0 0-2.804.146-2.856.146-.044-.002-.57.002-.902.62-.17.322-.486.824-.78 1.276-.16-2.936-.262-5.8-.304-8.596.208.024.45-.002.722-.148M194.529 111.804s-1.156-1.322.788-1.44c0 0 3.962-.19 4.058-.202.354-.032.81-.052 1.402-.91.242-.358 1.958-2.896 2.17-3.216.102-.16.31-.428.558-.52a253.646 253.646 0 0 0 3.89 16.934c-.23.14-.618.104-1.276-.346 0 0-3.284-2.134-3.34-2.178-.044-.038-.648-.464-1.53-.04-1.078.528-3.93 1.554-3.338 1.328-.496.184-1.704.662-1.228-1.066 0 0 .572-2.306.776-3.29.148-.678.256-1.116-.546-2.048l-2.384-3.006zM197.132 138.157c.242-.36 1.954-2.892 2.17-3.214.222-.356.986-1.242 1.5.454 0 0 .872 2.832 1.008 3.258.03.094.22 1.236 1.508 1.422l3.704.648s2.24.372.58 1.568c-1.608 1.162-2.844 2.19-3.246 2.52-.418.35-.746.996-.642 1.646.04.3.302 3.068.34 3.736 0 0 .316 2.118-1.578.814 0 0-3.286-2.136-3.34-2.174-.05-.04-.65-.466-1.532-.042-.188.094-.44.202-.714.32a288.075 288.075 0 0 1-2.736-9.964 98.567 98.567 0 0 0 1.576-.08c.354-.03.814-.05 1.402-.912M222.558 167.064s-3.288-2.132-3.344-2.174c-.048-.04-.648-.466-1.528-.042-1.08.528-3.936 1.556-3.336 1.326-.498.184-1.704.664-1.232-1.066 0 0 .574-2.302.78-3.288.146-.682.25-1.118-.548-2.052l-2.382-3s-1.158-1.324.78-1.444c0 0 3.968-.184 4.062-.198.356-.036.81-.056 1.404-.914.074-.112.292-.428.558-.824a204.844 204.844 0 0 0 6.266 13.79c-.168.344-.566.514-1.48-.114M212.591 183.91c.224-.353.986-1.243 1.502.46 0 0 .874 2.831 1.006 3.253.032.092.218 1.238 1.508 1.42l3.704.652s2.242.368.582 1.564c-1.61 1.166-2.844 2.192-3.246 2.522-.42.352-.744.998-.644 1.644.042.302.306 3.066.342 3.736 0 0 .312 2.12-1.58.816l-.708-.46c-1.632-4.39-3.136-8.732-4.37-12.782a754.2 754.2 0 0 0 1.904-2.826M242.706 197.304s-.788-.902.536-.984c0 0 .44-.024.97-.048 2.618 2.876 5.126 5.462 7.492 7.866-.038.36-.236.776-1.086.196 0 0-2.242-1.456-2.282-1.488-.03-.024-.438-.314-1.038-.024-.74.36-2.69 1.056-2.282.904-.34.128-1.162.454-.838-.726 0 0 .392-1.57.528-2.248.104-.46.174-.762-.37-1.398l-1.63-2.05zM197.812 66.4c.118-.175.948-1.399 1.05-1.555.11-.17.478-.602.728.22 0 0 .058.194.138.446a142.73 142.73 0 0 0 .008 6.67c-.442-.286-.942-.61-.958-.622-.02-.018-.31-.224-.738-.02-.522.256-1.9.752-1.61.642-.242.092-.826.322-.592-.516 0 0 .272-1.114.374-1.594.068-.322.118-.536-.268-.984l-1.15-1.452s-.556-.642.38-.698c0 0 1.914-.09 1.962-.096.174-.016.39-.028.676-.442M264.575 229.107c-1.1.534-4 1.572-3.392 1.346-.502.186-1.728.672-1.246-1.084 0 0 .58-2.334.79-3.336.148-.686.252-1.136-.556-2.078l-2.418-3.05s-1.172-1.34.794-1.46c0 0 4.022-.194 4.12-.206.358-.03.822-.054 1.424-.924.018-.024.044-.066.076-.116 2.33 4.048 2.9 7.81 2.268 11.148-.184-.116-.302-.196-.316-.202-.048-.038-.654-.474-1.544-.038M246.294 240.487s-1.174-1.346.792-1.462c0 0 4.02-.192 4.118-.202.362-.038.826-.058 1.428-.926.244-.368 1.982-2.936 2.2-3.264.228-.358 1-1.262 1.524.46 0 0 .888 2.872 1.018 3.304.032.094.222 1.256 1.528 1.446l.282.05a25.16 25.16 0 0 1-7.206 3.606 62.17 62.17 0 0 1-2.756.792 3.377 3.377 0 0 0-.51-.756l-2.418-3.048zM239.736 191.946s-2.346-1.526-2.386-1.55c-.036-.032-.464-.332-1.09-.032-.772.378-2.816 1.11-2.39.948-.352.134-1.214.472-.876-.762 0 0 .412-1.646.558-2.35.104-.478.178-.796-.39-1.462l-1.706-2.144s-.822-.944.56-1.028l1.6-.078a169.818 169.818 0 0 0 7.002 8.722c-.166.084-.438.042-.882-.264M232.052 231.942c.21-.31 1.682-2.486 1.868-2.764.188-.304.844-1.07 1.286.39 0 0 .75 2.428.868 2.8.022.076.186 1.058 1.29 1.222l3.188.558s1.922.316.498 1.346c-1.382.998-2.444 1.88-2.79 2.16-.358.304-.638.86-.554 1.414.04.26.264 2.636.298 3.208 0 0 .266 1.824-1.36.704 0 0-1.506-.98-2.336-1.518-1.796-2.008-3.464-4.858-5.306-8.646.884-.042 1.804-.088 1.846-.092.306-.028.696-.048 1.204-.782M200.466 158.558c.152-.23 1.254-1.854 1.388-2.06.142-.23.636-.796.966.288 0 0 .556 1.818.644 2.088.016.058.138.796.96.912l2.382.42s1.434.236.368 1.002c-1.03.744-1.822 1.404-2.08 1.616-.268.224-.476.638-.414 1.054.032.194.202 1.966.222 2.396 0 0 .2 1.356-1.01.522 0 0-.854-.554-1.482-.964a240.766 240.766 0 0 1-2.402-6.816c.138-.08.286-.212.458-.458M228.808 179.05s-1.764-1.148-1.794-1.17c-.028-.022-.35-.25-.828-.022-.578.286-2.114.834-1.796.716-.268.096-.914.356-.656-.576 0 0 .304-1.24.418-1.77.076-.366.13-.6-.298-1.104l-1.28-1.616s-.624-.71.424-.776c0 0 2.128-.098 2.182-.106.19-.02.436-.03.754-.492.048-.068.204-.298.384-.566a145.926 145.926 0 0 0 3.226 5.696c.05.498.102 1.126.116 1.346 0 0 .168 1.14-.852.44M210.714 142.722s-.738-.848.502-.926c0 0 1.35-.064 2.108-.102.72 2.052 1.454 4.084 2.224 6.088a1.162 1.162 0 0 0-.528.116c-.688.342-2.52.998-2.134.854-.32.118-1.092.424-.792-.682 0 0 .368-1.478.496-2.11.096-.438.164-.718-.346-1.316l-1.53-1.922zM204.029 127.917s-.742-.85.502-.924c0 0 2.542-.12 2.606-.126.226-.024.518-.036.896-.584.042-.064.152-.23.292-.436a257.6 257.6 0 0 0 2.454 8.226c-.62-.4-1.44-.932-1.46-.952-.032-.022-.416-.296-.982-.024-.688.34-2.522.998-2.14.854-.316.114-1.092.424-.788-.684 0 0 .368-1.478.498-2.112.096-.434.164-.714-.346-1.314l-1.532-1.924zM224.892 220.89c.09-.13.708-1.052.79-1.166.08-.132.354-.452.544.164 0 0 .314 1.024.366 1.182.008.034.078.444.542.516l1.348.234s.812.134.208.568c-.582.422-1.028.796-1.174.918a.668.668 0 0 0-.238.594c.016.11.114 1.114.126 1.356 0 0 .114.77-.572.298 0 0-1.19-.776-1.214-.79a.48.48 0 0 0-.308-.08c-.48-1.096-.974-2.236-1.488-3.436.292-.014.546-.024.564-.03.126-.01.296-.016.506-.328M221.593 207.6a477.76 477.76 0 0 0 1.548-2.291c.162-.256.706-.892 1.076.324 0 0 .622 2.018.718 2.324.018.066.156.882 1.076 1.018l2.644.46s1.598.266.416 1.122a41.853 41.853 0 0 0-2.32 1.8c-.298.248-.53.704-.462 1.174.032.212.222 2.19.25 2.666 0 0 .222 1.514-1.132.584 0 0-2.344-1.526-2.382-1.554-.038-.028-.464-.334-1.092-.03-.148.07-.348.16-.566.25a512.206 512.206 0 0 1-2.894-7.086c.844-.042 2.072-.102 2.118-.11.254-.022.58-.034 1.002-.65"/>
        <path fill="#7B2F09" d="M188.27 3.286c2.403-.648 4.839.546 5.433 2.668.45 1.58-.252 3.224-1.63 4.232a4.94 4.94 0 0 1-1.636.782 4.977 4.977 0 0 1-2.342.05c-1.478-.32-2.698-1.304-3.096-2.716-.6-2.124.866-4.37 3.272-5.016"/>
    </g>
</svg>
