<svg xmlns="http://www.w3.org/2000/svg" xmlns:xlink="http://www.w3.org/1999/xlink" width="309" height="200" viewBox="0 0 309 200">
    <defs>
        <path id="a" d="M0 0h309v200H0V0zm159.787 108.772c14.924 0 27.023-12.044 27.023-26.9 0-14.857-12.099-26.901-27.023-26.901s-27.023 12.044-27.023 26.9c0 14.857 12.099 26.9 27.023 26.9z"/>
    </defs>
    <g fill="none" fill-rule="evenodd">
        <g>
            <mask id="b" fill="#fff">
                <use xlink:href="#a"/>
            </mask>
            <g fill="#FFDC00" mask="url(#b)">
                <path d="M239.178 109.895s.3.581-.373.392c0 0-1.158-.287-1.18-.29-.013-.007-.23-.069-.44.14-.093.089-.71.621-.828.72-.127.102-.421.356-.463-.186 0 0-.064-.723-.103-1.027-.022-.21-.036-.345-.358-.534l-.988-.628s-.459-.269.083-.498c0 0 1.12-.45 1.152-.457.09-.049.224-.1.304-.404.038-.128.28-1.03.304-1.145.033-.122.166-.456.484-.018 0 0 .531.729.61.833a.52.52 0 0 0 .575.261l1.128-.185s.68-.111.322.397c-.347.498-.596.912-.68 1.05a.596.596 0 0 0-.026.54c.05.08.4.852.477 1.039M223.074 45.769s1.297-.115.443.987c0 0-1.41 1.915-1.432 1.947-.027.033-.31.379-.081.925.097.237.592 1.783.681 2.072.095.31.343 1.06-.689.704 0 0-1.369-.427-1.964-.593-.398-.107-.663-.18-1.257.267l-1.9 1.337s-.849.649-.849-.53c0 0 .028-2.412.024-2.469-.01-.21 0-.497-.499-.882-.21-.162-1.681-1.293-1.87-1.433-.208-.149-.714-.646.331-.897 0 0 1.744-.422 2.002-.49.061-.009.76-.094.918-.856l.524-2.238s.307-1.33.969-.288a38.482 38.482 0 0 0 1.413 2.056c.194.267.574.488.97.452a70.41 70.41 0 0 1 2.266-.071M244.37 93.182s1.522-.136.517 1.165c0 0-1.657 2.253-1.69 2.291-.027.033-.36.444-.084 1.084.105.283.687 2.098.798 2.445.104.369.401 1.239-.815.836 0 0-1.608-.502-2.31-.707-.474-.129-.784-.218-1.482.313l-2.234 1.572s-.997.769-1-.618c0 0 .037-2.842.029-2.907-.012-.254.004-.585-.59-1.037-.241-.19-1.973-1.523-2.196-1.687-.239-.177-.84-.761.386-1.054l2.366-.578c.066-.02.889-.112 1.072-1.018l.619-2.616s.36-1.578 1.145-.352c.756 1.206 1.44 2.122 1.66 2.426.225.315.676.572 1.14.526.217-.016 2.198-.09 2.67-.084M121.75 102.663s1.878-.732 1.073 1.285c0 0-1.277 3.472-1.3 3.53-.028.054-.294.696.28 1.417.246.309 1.65 2.397 1.912 2.804.278.421.968 1.426-.726 1.35 0 0-2.233-.047-3.193-.034-.646.008-1.078.008-1.77.935l-2.26 2.816s-.98 1.352-1.486-.419l-1.031-3.698c-.104-.319-.215-.74-1.129-1.103-.382-.15-3.065-1.206-3.409-1.33-.371-.135-1.35-.654.11-1.484l2.78-1.6c.081-.044 1.096-.46 1-1.68l-.179-3.554s-.117-2.134 1.324-.865a56.327 56.327 0 0 0 2.993 2.466c.406.315 1.073.483 1.651.255.258-.098 2.752-.925 3.36-1.091M190.714 61.39s1.883-.734 1.078 1.281c0 0-1.277 3.475-1.302 3.53-.028.053-.296.702.28 1.42.246.31 1.652 2.398 1.912 2.805.277.422.967 1.426-.725 1.351 0 0-2.233-.05-3.19-.035-.648.007-1.082.007-1.772.934l-2.265 2.817s-.978 1.35-1.48-.419c0 0-1.01-3.613-1.033-3.7-.104-.317-.218-.739-1.127-1.104-.38-.152-3.068-1.203-3.411-1.328-.374-.14-1.35-.654.108-1.487 0 0 2.424-1.39 2.78-1.598.084-.042 1.095-.462 1-1.68l-.176-3.558s-.12-2.13 1.322-.86c1.41 1.244 2.61 2.168 2.993 2.466.406.312 1.074.484 1.65.255.26-.102 2.754-.923 3.358-1.09M251.234 126.76s-.497.247-.333-.32l.267-.997c.004-.019.064-.201-.115-.386-.076-.071-.515-.61-.595-.711-.087-.112-.298-.363.165-.394 0 0 .61-.041.872-.07.175-.02.291-.029.456-.298l.545-.834s.229-.392.416.077c0 0 .37.955.383.983.038.085.076.192.336.271.105.027.868.248.962.271.11.032.386.144.01.407 0 0-.622.449-.716.519a.442.442 0 0 0-.23.482l.142.958s.088.59-.34.277a15.305 15.305 0 0 0-.88-.597.486.486 0 0 0-.455-.024c-.076.03-.728.324-.89.387M235.513 81.878s.617.996-.618.748c0 0-2.105-.363-2.138-.37-.034-.01-.427-.094-.78.31-.143.17-1.185 1.189-1.388 1.39-.206.192-.707.69-.84-.282 0 0-.207-1.274-.315-1.82-.075-.37-.119-.617-.716-.914l-1.842-.992s-.861-.419.087-.896l1.994-.97c.167-.099.393-.203.503-.763.048-.232.362-1.87.398-2.082.042-.229.227-.835.853-.099l1.2 1.425c.038.044.378.57 1.064.394l1.993-.473s1.205-.293.637.663c-.566.926-.962 1.708-1.092 1.961-.134.269-.156.663.029.97.083.14.81 1.473.971 1.8M245.83 119.845s.614.998-.615.747l-2.14-.37c-.03-.01-.429-.097-.78.307-.148.173-1.187 1.193-1.389 1.387-.21.2-.706.7-.839-.277 0 0-.209-1.276-.315-1.816-.076-.373-.123-.62-.717-.92l-1.84-.99s-.866-.42.086-.897l1.991-.97c.17-.092.397-.208.503-.758.047-.236.365-1.877.4-2.085.038-.23.23-.838.854-.099 0 0 1.041 1.24 1.2 1.423.036.048.374.575 1.062.397l1.997-.476s1.203-.294.628.66c-.556.93-.955 1.717-1.088 1.964-.136.27-.155.666.03.969.084.144.813 1.473.972 1.804M270.733 114.933s.608.993-.619.751l-2.141-.378c-.03-.01-.428-.096-.775.307-.148.176-1.19 1.194-1.391 1.39-.213.203-.71.694-.843-.275 0 0-.208-1.277-.315-1.824-.076-.367-.12-.615-.718-.91l-1.836-.997s-.87-.419.081-.893c0 0 1.946-.947 1.997-.97.165-.092.396-.202.503-.761.047-.234.36-1.873.397-2.087.04-.222.233-.832.855-.097l1.201 1.421c.036.046.376.58 1.062.394l2-.476s1.196-.29.625.665c-.561.938-.959 1.721-1.087 1.968-.137.264-.16.661.03.97.087.138.809 1.471.974 1.802M206.286 78.466s.044.632-.488.202c0 0-.931-.705-.944-.722-.014-.008-.183-.149-.457-.044a33.44 33.44 0 0 1-1.023.317c-.152.043-.522.165-.343-.339 0 0 .227-.678.311-.97.052-.198.095-.324-.12-.626l-.64-.944s-.314-.422.262-.41l1.214.03c.105-.007.242 0 .436-.239.084-.104.648-.82.722-.914.076-.099.322-.343.434.169 0 0 .193.871.227.996.005.03.04.374.418.457l1.083.28s.656.16.138.482c-.499.309-.893.585-1.018.676a.55.55 0 0 0-.23.474c.006.09.024.92.018 1.125M209.804 50.71s1.77 1.984-1.084 1.936c0 0-4.875.035-4.957.028-.083-.009-.997-.043-1.618 1.004-.265.451-2.19 3.164-2.563 3.678-.392.531-1.31 1.859-2.005-.27 0 0-.982-2.794-1.441-3.968-.313-.791-.514-1.33-1.976-1.752l-4.53-1.491s-2.114-.583-.18-2.037c0 0 3.99-2.92 4.087-2.997.344-.278.807-.608.833-1.907.008-.546.054-4.36.046-4.842-.004-.525.18-1.965 1.88-.559 0 0 2.844 2.352 3.27 2.7.095.08 1.074 1.135 2.54.448l4.293-1.867s2.58-1.146 1.681 1.236c-.876 2.315-1.455 4.231-1.642 4.848-.202.648-.095 1.553.452 2.158.247.282 2.418 2.982 2.914 3.655M151.255 71.098s1.772 1.985-1.08 1.937c0 0-4.88.034-4.96.026-.08-.006-.996-.04-1.616 1.006-.267.45-2.19 3.163-2.565 3.678-.39.532-1.31 1.859-2.004-.272 0 0-.981-2.795-1.44-3.969-.314-.79-.516-1.326-1.978-1.752l-4.532-1.486s-2.112-.586-.177-2.039c0 0 3.989-2.922 4.087-2.999.342-.276.807-.607.832-1.907.008-.547.053-4.357.05-4.842-.008-.522.176-1.966 1.876-.557 0 0 2.844 2.351 3.268 2.697.098.083 1.077 1.139 2.541.45l4.295-1.864s2.578-1.148 1.68 1.234c-.877 2.315-1.455 4.234-1.642 4.847-.202.65-.095 1.553.452 2.16.247.279 2.421 2.981 2.913 3.652M185.49 127.292s1.774 1.986-1.08 1.936c0 0-4.877.033-4.958.025-.084-.006-.997-.036-1.618 1.008-.264.448-2.19 3.161-2.565 3.679-.39.53-1.308 1.856-2.003-.27 0 0-.98-2.795-1.443-3.97-.31-.793-.511-1.331-1.975-1.752l-4.53-1.49s-2.115-.584-.18-2.038c0 0 3.989-2.919 4.086-2.997.343-.277.81-.608.834-1.909.009-.545.054-4.355.048-4.84-.007-.524.178-1.965 1.876-.558 0 0 2.845 2.35 3.27 2.698.099.083 1.078 1.136 2.542.447l4.294-1.864s2.579-1.146 1.681 1.236c-.877 2.315-1.456 4.233-1.644 4.848-.201.647-.093 1.553.452 2.158.25.28 2.42 2.98 2.913 3.653M157.414 158.962s1.77 1.988-1.083 1.94c0 0-4.878.031-4.958.026-.083-.007-.996-.041-1.617 1.004-.263.45-2.189 3.166-2.564 3.679-.392.53-1.311 1.86-2.004-.27 0 0-.982-2.794-1.44-3.969-.315-.792-.514-1.328-1.978-1.753l-4.53-1.488s-2.114-.586-.181-2.039c0 0 3.99-2.919 4.088-2.994.343-.28.808-.612.835-1.908.007-.549.05-4.359.046-4.844-.006-.521.178-1.966 1.878-.556 0 0 2.844 2.348 3.27 2.695.096.084 1.076 1.138 2.542.45l4.292-1.865s2.578-1.146 1.68 1.236a71.438 71.438 0 0 0-1.64 4.85c-.203.646-.097 1.55.45 2.154.246.283 2.42 2.984 2.914 3.652M207.65 24.542s1.037.776-.333 1.03c0 0-2.326.479-2.366.482-.038.005-.48.082-.676.64-.086.239-.747 1.715-.877 1.998-.135.296-.446 1.017-.985.066 0 0-.727-1.245-1.06-1.76-.227-.351-.375-.59-1.11-.654l-2.307-.276s-1.065-.076-.28-.958c0 0 1.624-1.773 1.667-1.818.137-.17.328-.371.217-.99-.047-.262-.387-2.09-.433-2.318-.053-.252-.105-.965.839-.449l1.82.981c.054.028.626.44 1.255-.032l1.876-1.298s1.122-.795.92.425c-.198 1.19-.294 2.167-.324 2.478-.034.33.104.752.423.99.144.11 1.438 1.19 1.735 1.463M110.401 177.707s1.037.78-.335 1.028c0 0-2.327.486-2.364.486-.038.005-.481.082-.674.636-.089.244-.751 1.72-.88 2.002-.137.296-.444 1.015-.984.063 0 0-.729-1.24-1.062-1.759-.226-.348-.372-.587-1.11-.649l-2.305-.28s-1.066-.076-.282-.957l1.668-1.82c.136-.166.33-.37.217-.99a301.93 301.93 0 0 0-.432-2.317c-.053-.25-.109-.964.84-.447 0 0 1.586.856 1.82.977.05.03.626.439 1.253-.026l1.877-1.303s1.122-.796.92.426c-.199 1.188-.293 2.164-.325 2.478-.034.33.103.751.423.989a79.49 79.49 0 0 1 1.735 1.463M254.19 71.962s1.856.305.256 1.544c0 0-2.673 2.185-2.724 2.218-.045.031-.564.422-.446 1.275.05.37.19 2.721.206 3.17.025.465.105 1.607-1.227.737 0 0-1.768-1.104-2.541-1.548-.522-.301-.87-.506-1.869-.095l-3.16 1.191s-1.426.617-.992-1.042c0 0 .906-3.385.926-3.469.066-.304.175-.696-.384-1.42-.239-.306-1.894-2.434-2.11-2.698-.24-.29-.773-1.165.785-1.142 0 0 2.61.035 3.002.035.086.007 1.098.148 1.595-.875l1.55-2.94s.916-1.776 1.468-.064c.545 1.672 1.072 2.985 1.242 3.411.175.446.63.896 1.203.988.262.047 2.657.574 3.22.724M287.248 86.25s1.853.308.253 1.543c0 0-2.673 2.186-2.724 2.22-.047.034-.562.424-.444 1.273.05.37.189 2.725.207 3.168.023.47.1 1.61-1.228.74 0 0-1.77-1.103-2.544-1.548-.522-.299-.87-.507-1.863-.095l-3.164 1.192s-1.427.614-.994-1.042l.928-3.47c.066-.303.177-.696-.385-1.423a328.554 328.554 0 0 0-2.113-2.697c-.236-.287-.77-1.161.789-1.14 0 0 2.608.036 3 .036.088.008 1.098.147 1.599-.874l1.545-2.943s.917-1.77 1.47-.06c.546 1.668 1.075 2.984 1.242 3.406.175.448.63.896 1.204.989.258.05 2.655.571 3.222.725M211.296 125.25s-.162.636-.534.044c0 0-.671-.987-.681-1.006-.014-.015-.128-.206-.425-.194-.128.008-.937-.016-1.097-.018-.16-.014-.551-.017-.217-.45 0 0 .435-.577.604-.83.125-.172.208-.285.09-.64l-.312-1.127s-.171-.503.386-.312l1.162.429c.104.031.24.08.504-.093.112-.077.89-.581.986-.648.107-.073.428-.233.372.309l-.104 1.034a.525.525 0 0 0 .254.575l.963.62s.583.367-.027.506c-.587.139-1.058.281-1.203.332a.558.558 0 0 0-.378.383c-.02.088-.272.901-.343 1.086M257.171 51.222s.043.634-.488.207c0 0-.933-.709-.949-.718-.01-.015-.181-.162-.45-.05-.116.05-.88.277-1.023.32-.155.045-.52.162-.34-.349 0 0 .22-.67.306-.958.058-.198.096-.328-.116-.626l-.644-.95s-.315-.42.266-.408c0 0 1.181.027 1.213.03.102-.003.242 0 .434-.238.08-.104.647-.82.72-.917.077-.095.32-.342.434.17 0 0 .197.866.224.998.009.026.042.375.42.456l1.088.28s.656.158.14.479c-.504.31-.897.584-1.023.678a.567.567 0 0 0-.233.473c.007.096.028.927.021 1.123M161.908 22.38s.045.636-.488.209c0 0-.935-.713-.951-.72-.007-.016-.18-.16-.447-.052-.117.051-.884.278-1.024.32-.155.046-.521.165-.34-.346 0 0 .22-.671.304-.962.06-.196.095-.325-.117-.622l-.643-.95s-.314-.422.268-.409c0 0 1.181.026 1.211.029.104-.003.242 0 .437-.24.078-.103.645-.818.718-.912.077-.098.32-.345.438.17 0 0 .192.863.22.995.01.027.042.375.419.457l1.09.28s.656.157.14.477c-.505.308-.896.585-1.023.679a.577.577 0 0 0-.236.476c.009.091.029.924.024 1.12M172.405 41.89s-.07.808-.653.164c0 0-1.028-1.078-1.042-1.095-.017-.014-.205-.225-.56-.144-.159.032-1.158.176-1.351.195-.197.03-.687.106-.355-.497 0 0 .408-.799.57-1.146.105-.24.188-.393-.024-.81l-.62-1.319s-.313-.582.415-.46c0 0 1.481.271 1.513.275.133.021.303.055.598-.212.122-.108.967-.898 1.078-1.002.11-.105.47-.376.515.3l.084 1.294c.006.034-.02.473.434.652l1.314.562s.79.333.075.628c-.693.295-1.236.563-1.412.657a.692.692 0 0 0-.38.547 67.805 67.805 0 0 1-.199 1.41M115.778 88.423s-.061.806-.65.165l-1.044-1.098c-.017-.019-.205-.227-.558-.146-.159.034-1.16.177-1.351.2-.2.024-.688.1-.357-.504 0 0 .409-.8.571-1.145.109-.24.188-.394-.025-.805l-.62-1.319s-.31-.583.414-.463l1.515.278c.132.018.304.052.595-.219.124-.105.97-.894 1.08-.994.112-.11.471-.378.514.295 0 0 .076 1.124.085 1.292.008.037-.02.478.434.658l1.312.562s.792.33.079.623c-.693.298-1.237.567-1.413.655a.692.692 0 0 0-.381.555 49.96 49.96 0 0 1-.2 1.41M184.555 17.422s.193.518-.359.285c0 0-.942-.378-.954-.381-.018-.008-.19-.09-.389.064-.089.065-.67.437-.785.506-.117.074-.395.254-.363-.207 0 0 .027-.618.034-.877.001-.18.006-.298-.243-.493l-.758-.644s-.364-.279.125-.409c0 0 .994-.25 1.022-.254.089-.025.203-.055.312-.304.044-.104.347-.833.387-.924.037-.103.191-.366.408.037 0 0 .358.676.414.777.01.018.119.3.452.29l.974-.027s.589-.018.227.367c-.35.382-.608.703-.694.809a.492.492 0 0 0-.083.453c.025.07.235.76.273.932M126.007 199.43s.19.52-.358.286c0 0-.944-.379-.954-.381-.017-.01-.19-.091-.39.064-.088.064-.671.435-.786.502-.116.075-.395.257-.36-.206 0 0 .025-.614.03-.873.003-.184.008-.3-.241-.495l-.758-.64s-.362-.283.125-.413l1.021-.254c.087-.026.205-.054.313-.302.044-.106.349-.836.386-.928.038-.102.191-.364.407.038l.415.78c.01.017.12.3.452.288l.977-.028s.587-.015.226.37c-.35.38-.609.7-.696.81a.48.48 0 0 0-.082.45c.023.069.235.758.273.933M134.757 47.207s.186.52-.362.289c0 0-.94-.378-.957-.383-.017-.01-.192-.088-.392.066-.084.063-.667.433-.78.506-.116.068-.399.253-.364-.21 0 0 .03-.613.03-.878 0-.177.004-.295-.243-.495l-.756-.642s-.36-.281.126-.406c0 0 .999-.25 1.02-.257.091-.023.206-.051.309-.303.045-.1.352-.83.391-.925.04-.105.186-.37.403.037 0 0 .367.678.42.779.013.021.12.301.453.287l.977-.023s.585-.015.227.372c-.353.372-.617.698-.696.805a.47.47 0 0 0-.087.446c.031.077.231.765.28.935M178.882 50.957s1.047.402-.037.935c0 0-1.833.945-1.864.957-.034.015-.382.176-.418.69-.018.222-.225 1.61-.267 1.874-.05.28-.143.95-.808.283 0 0-.899-.87-1.298-1.222-.273-.237-.447-.404-1.08-.285l-1.987.303s-.91.185-.46-.735l.973-1.91c.075-.167.19-.382-.05-.873-.102-.206-.808-1.656-.899-1.833-.102-.197-.307-.78.597-.571 0 0 1.524.341 1.749.393.052.008.62.218 1.042-.31l1.265-1.533s.754-.923.867.15c.115 1.036.262 1.871.303 2.14.05.276.259.602.585.724.147.059 1.476.662 1.787.823M128.579 50.706s.609.237-.018.542c0 0-1.065.547-1.083.553-.016.007-.217.1-.245.396-.002.131-.127.937-.15 1.084-.028.164-.082.555-.471.164 0 0-.515-.497-.744-.7-.162-.142-.26-.239-.628-.168l-1.153.175s-.525.105-.263-.428c0 0 .552-1.076.564-1.102.044-.098.108-.218-.029-.506-.058-.119-.468-.959-.525-1.067-.052-.106-.174-.443.35-.325l1.01.227c.03.006.363.129.605-.184l.732-.879s.437-.535.5.08c.068.6.15 1.086.179 1.242a.544.544 0 0 0 .333.417c.086.038.856.386 1.036.479M61.25 47.264s1.833-.842 1.154 1.222c0 0-1.07 3.541-1.09 3.6-.023.058-.252.713.366 1.399.26.292 1.786 2.298 2.078 2.682.297.405 1.049 1.364-.647 1.396 0 0-2.23.084-3.181.156-.65.048-1.08.075-1.715 1.042l-2.084 2.951s-.9 1.404-1.514-.334c0 0-1.214-3.54-1.246-3.63-.128-.31-.264-.717-1.194-1.033-.39-.122-3.136-1.016-3.488-1.122-.374-.108-1.38-.562.02-1.48 0 0 2.336-1.538 2.684-1.77.078-.051 1.06-.532.896-1.74L51.9 47.07s-.254-2.128 1.266-.944c1.479 1.158 2.73 2.001 3.132 2.28.426.291 1.1.417 1.663.158.255-.124 2.692-1.088 3.289-1.3M86.497 83.742s.638.035.143.507c0 0-.812.844-.83.855-.014.019-.173.167-.102.446.036.123.173.907.196 1.06.025.156.093.536-.382.294 0 0-.637-.304-.92-.419-.188-.083-.312-.136-.63.04l-1.019.527s-.457.26-.375-.316c0 0 .174-1.172.18-1.204.008-.1.031-.242-.185-.46a87.73 87.73 0 0 0-.817-.824c-.09-.091-.302-.367.224-.42 0 0 .877-.09 1.01-.102.03 0 .376.007.504-.359l.408-1.049s.236-.632.493-.077c.242.54.473.96.546 1.098.078.14.245.28.444.287.086.003.915.088 1.112.116M114.879 25.677s.635.033.143.507c0 0-.812.84-.833.854-.012.017-.17.165-.097.446.032.123.169.905.191 1.057.027.154.097.54-.378.298 0 0-.64-.303-.92-.422-.192-.081-.314-.133-.635.044l-1.016.524s-.458.257-.376-.315l.18-1.202c.01-.105.034-.245-.184-.464-.091-.093-.735-.744-.819-.825-.09-.086-.3-.365.226-.42l1.01-.1c.028 0 .379.007.503-.36l.408-1.046s.237-.635.494-.081c.242.54.474.963.546 1.1.075.14.245.279.444.29.085.001.915.086 1.113.115M61.162 158.56s.634.038.14.508c0 0-.813.841-.832.852-.01.017-.168.168-.098.452.033.12.17.905.192 1.057.03.15.097.536-.382.297 0 0-.635-.307-.915-.424-.19-.08-.316-.134-.633.042l-1.019.523s-.457.262-.373-.31l.177-1.203c.01-.107.034-.245-.18-.465-.095-.095-.737-.743-.822-.823-.091-.092-.3-.37.225-.42 0 0 .878-.087 1.013-.103.028 0 .377.007.498-.359l.411-1.046s.237-.635.494-.083c.242.54.472.968.544 1.1a.557.557 0 0 0 .445.289c.087.001.915.089 1.115.116M4.863 96.703s.633.033.145.506c0 0-.812.839-.835.853-.013.016-.17.166-.1.448.034.123.172.906.196 1.058.024.153.094.535-.383.296 0 0-.636-.304-.918-.42-.19-.083-.313-.135-.636.04l-1.014.524s-.461.26-.377-.312c0 0 .177-1.175.18-1.205.01-.103.034-.241-.184-.464-.093-.092-.735-.739-.819-.823-.09-.087-.3-.365.226-.419 0 0 .877-.09 1.011-.101.028 0 .373.009.503-.36l.408-1.045s.235-.634.494-.083c.24.54.473.965.545 1.103a.564.564 0 0 0 .445.285c.088.004.914.087 1.113.12M308.518 89.74s.634.033.144.507c0 0-.813.838-.834.85-.012.022-.172.17-.1.45.033.122.173.904.196 1.06.024.151.095.535-.383.297 0 0-.637-.308-.916-.425-.194-.08-.316-.134-.636.044l-1.016.523s-.46.261-.374-.313l.177-1.206c.009-.103.033-.24-.183-.463-.092-.09-.735-.742-.82-.823-.09-.088-.299-.363.227-.416l1.011-.103c.025 0 .377.006.5-.362l.408-1.045s.241-.633.496-.083c.24.543.474.966.545 1.103a.56.56 0 0 0 .446.286c.084 0 .914.087 1.112.12M278.417 171.052s.636.037.144.505c0 0-.813.847-.834.853-.011.018-.17.169-.1.45.032.122.174.906.196 1.057.026.156.095.538-.383.297 0 0-.636-.306-.915-.419-.192-.083-.314-.136-.636.04l-1.015.523s-.458.26-.377-.31c0 0 .174-1.176.18-1.205.008-.106.032-.243-.186-.466-.09-.092-.733-.743-.815-.824-.091-.087-.303-.366.222-.414 0 0 .88-.093 1.014-.105.025 0 .375.006.5-.36l.408-1.045s.238-.635.494-.083c.243.542.473.965.545 1.102.078.138.248.28.445.289.089 0 .915.084 1.113.115M284.333 108.28s.634.033.144.508c0 0-.813.837-.834.85-.011.02-.171.164-.1.449.034.124.17.904.194 1.057.026.155.095.54-.381.299 0 0-.637-.307-.918-.422-.191-.084-.315-.134-.635.042l-1.015.525s-.46.259-.376-.316l.178-1.203c.011-.103.031-.242-.182-.466-.092-.09-.736-.74-.817-.822-.092-.088-.303-.364.223-.418 0 0 .877-.09 1.012-.099.027 0 .377.005.501-.363l.407-1.046s.238-.632.494-.082c.243.544.474.965.546 1.102.079.14.247.28.446.29.087 0 .913.087 1.113.116M145.667 38.388s.532-1.81 1.567-.064c0 0 1.838 2.926 1.866 2.977.027.05.346.615 1.21.598.367-.007 2.71.142 3.158.18.466.033 1.609.097.586 1.309 0 0-1.309 1.627-1.844 2.348-.363.484-.607.804-.321 1.845l.797 3.286s.439 1.49-1.157.863c0 0-3.238-1.313-3.318-1.347-.3-.099-.67-.26-1.458.214-.333.196-2.64 1.592-2.926 1.773-.31.2-1.248.621-1.036-.933 0 0 .352-2.578.402-2.973.012-.086.28-1.073-.677-1.697l-2.722-1.895s-1.645-1.122.116-1.469a53.204 53.204 0 0 0 3.525-.821c.462-.121.968-.518 1.13-1.078.075-.25.885-2.568 1.102-3.116M183.188 155.242s.532-1.805 1.562-.06c0 0 1.842 2.924 1.869 2.974.03.053.347.618 1.21.599.367-.005 2.711.144 3.158.181.468.032 1.607.093.59 1.31 0 0-1.312 1.629-1.848 2.346-.363.485-.607.804-.319 1.843l.797 3.288s.437 1.49-1.16.864l-3.318-1.346c-.299-.099-.67-.261-1.457.212-.33.194-2.641 1.592-2.926 1.772-.313.2-1.248.625-1.037-.928 0 0 .353-2.585.402-2.974.015-.086.282-1.08-.677-1.7l-2.724-1.891s-1.643-1.13.12-1.472c1.718-.34 3.082-.705 3.524-.818.463-.121.966-.52 1.128-1.082.08-.25.887-2.566 1.106-3.118M116.181 73.178s.637.032.148.513c0 0-.816.839-.832.857-.012.008-.174.163-.1.441.03.124.168.908.193 1.058.02.157.095.537-.384.294 0 0-.642-.3-.918-.418-.188-.08-.314-.13-.628.04l-1.02.522s-.456.265-.377-.313l.177-1.2c.013-.104.036-.238-.183-.463-.09-.093-.73-.743-.816-.828-.089-.083-.303-.361.223-.412 0 0 .88-.09 1.012-.107.029-.001.373.01.505-.358l.402-1.05s.24-.63.496-.075c.244.54.477.962.547 1.1.079.143.25.273.445.285.091.003.914.087 1.11.114M144.462 25.918s1.067-.483.67.705c0 0-.62 2.053-.632 2.087-.012.034-.146.415.21.812.153.169 1.037 1.331 1.206 1.547.168.237.605.794-.375.81 0 0-1.292.049-1.842.094-.375.024-.624.038-.99.598l-1.21 1.71s-.516.809-.873-.19c0 0-.703-2.054-.727-2.106-.066-.178-.146-.42-.684-.593-.233-.079-1.814-.59-2.02-.652-.215-.062-.795-.326.016-.854 0 0 1.348-.893 1.551-1.026.045-.029.615-.3.515-1.009l-.222-2.05s-.146-1.225.731-.539c.854.67 1.578 1.157 1.812 1.32.248.162.634.239.962.093.15-.074 1.557-.634 1.902-.757M106.032 121.247s.467-1.075.972.075c0 0 .904 1.94.917 1.974.013.033.167.406.694.46.235.025 1.661.29 1.935.346.284.059.977.182.26.85 0 0-.925.897-1.311 1.299-.26.271-.435.455-.335 1.116l.239 2.077s.16.953-.775.445c0 0-1.89-1.056-1.94-1.082-.172-.083-.392-.208-.911.022-.216.096-1.74.782-1.932.867-.209.103-.815.29-.566-.647l.473-1.799c.018-.054.254-.64-.284-1.097l-1.534-1.37s-.928-.82.183-.897a28.828 28.828 0 0 0 2.227-.232c.291-.043.63-.252.775-.577.064-.15.74-1.514.913-1.83M219.548 126.41s-.814-2.587 1.816-1.341c0 0 4.539 2.022 4.612 2.059.072.04.908.458 1.922-.25.437-.302 3.357-2.015 3.92-2.333.587-.328 1.994-1.174 1.749 1.093 0 0-.264 3.005-.324 4.285-.044.874-.085 1.455 1.1 2.463l3.578 3.29s1.717 1.434-.693 1.97c0 0-4.923 1.027-5.045 1.058-.433.115-1.01.227-1.575 1.424-.236.495-1.878 4.018-2.073 4.471-.216.487-.99 1.751-1.975-.273 0 0-1.656-3.383-1.908-3.884-.055-.114-.52-1.51-2.166-1.489l-4.77-.073s-2.87-.023-1.037-1.853a75.465 75.465 0 0 0 3.558-3.81c.455-.52.736-1.398.482-2.193a158.33 158.33 0 0 1-1.171-4.613M159.744 42.78s-.399-.83.549-.537l1.651.475c.026.009.325.11.632-.178.132-.13 1.038-.836 1.213-.97.178-.14.615-.49.641.287 0 0 .053 1.022.093 1.456.026.296.042.489.488.774l1.361.936s.648.402-.137.698c0 0-1.607.58-1.652.6-.139.056-.326.122-.46.552a124.16 124.16 0 0 0-.487 1.604c-.05.174-.248.639-.676 0l-.83-1.213c-.022-.037-.246-.484-.8-.403l-1.61.202s-.964.14-.437-.567c.516-.685.89-1.265 1.02-1.45.123-.2.178-.509.051-.768a50.21 50.21 0 0 1-.61-1.498M132.737 167.219s-.396-.828.549-.537l1.651.474c.026.005.326.109.634-.18.13-.123 1.035-.836 1.211-.968.18-.142.616-.492.641.284 0 0 .054 1.02.095 1.456.025.3.037.494.486.776l1.363.938s.645.398-.137.695l-1.652.598c-.14.063-.326.125-.462.555-.055.178-.442 1.441-.487 1.606-.048.17-.25.637-.678 0 0 0-.72-1.057-.824-1.217-.025-.035-.25-.482-.804-.395l-1.61.196s-.963.137-.435-.566c.515-.685.89-1.268 1.015-1.452.127-.201.18-.51.06-.764a50.282 50.282 0 0 1-.616-1.5M177.862 28.013s-.299-1.268.912-.584c0 0 2.107 1.111 2.132 1.132.038.024.421.25.93-.06.214-.13 1.666-.846 1.945-.977.291-.144.985-.499.797.575 0 0-.223 1.424-.293 2.038-.048.407-.085.686.443 1.208l1.603 1.685s.77.742-.395.915l-2.442.344c-.207.037-.49.078-.793.624-.132.235-1.03 1.857-1.135 2.065-.12.226-.535.802-.94-.19 0 0-.673-1.671-.782-1.92-.018-.055-.203-.736-.987-.777l-2.27-.194s-1.368-.105-.439-.913c.913-.798 1.602-1.488 1.83-1.703.232-.235.393-.643.298-1.036a74.814 74.814 0 0 1-.414-2.232M110.366 52.917s.715-1.65 1.487.126c0 0 1.398 2.98 1.418 3.03.018.052.259.62 1.073.707.348.034 2.548.45 2.962.534.444.091 1.512.281.406 1.31 0 0-1.43 1.387-2.016 2.001-.395.422-.67.695-.512 1.709l.369 3.2s.238 1.458-1.197.683c0 0-2.909-1.623-2.985-1.657-.263-.137-.598-.33-1.397.024-.333.15-2.679 1.192-2.97 1.336-.323.148-1.252.444-.872-.997l.725-2.764c.024-.08.393-.983-.444-1.688l-2.35-2.11s-1.43-1.26.279-1.374a49.626 49.626 0 0 0 3.432-.365c.45-.054.968-.377 1.187-.886a96.185 96.185 0 0 1 1.405-2.82M114.632 35.938s-.809-1.705 1.12-1.101c0 0 3.32.952 3.375.966.053.024.67.227 1.3-.362.266-.248 2.11-1.71 2.466-1.99.37-.282 1.258-.996 1.31.587 0 0 .111 2.089.189 2.98.062.606.088 1.01 1.003 1.587l2.78 1.91s1.32.817-.285 1.418c0 0-3.284 1.188-3.369 1.225-.285.122-.667.256-.938 1.132-.116.372-.9 2.95-.997 3.283-.1.353-.512 1.303-1.387.003 0 0-1.467-2.166-1.683-2.488-.05-.07-.51-.985-1.636-.812l-3.296.422s-1.969.268-.886-1.173a54.89 54.89 0 0 0 2.07-2.97c.265-.399.373-1.035.121-1.56a105.163 105.163 0 0 1-1.257-3.057M106.71 36.42s.603-.228.338.42c0 0-.42 1.117-.43 1.134-.006.017-.098.221.088.457.078.103.522.782.605.912.083.137.308.46-.234.433 0 0-.722-.02-1.03-.02-.212 0-.349 0-.575.294l-.741.905s-.317.43-.478-.143l-.32-1.195c-.032-.104-.066-.242-.36-.357-.126-.05-.988-.403-1.095-.443-.123-.048-.43-.212.04-.478 0 0 .783-.443.906-.506.02-.016.353-.147.322-.538l-.044-1.151s-.036-.69.429-.272c.45.408.83.706.959.802.127.103.344.16.53.087.084-.034.89-.29 1.09-.34M99.574 89.048s.465-1.077.964.07c0 0 .909 1.943.925 1.974.01.04.17.41.697.462.226.027 1.653.295 1.928.347.285.062.976.181.263.857 0 0-.931.899-1.31 1.295-.26.273-.434.448-.334 1.115l.24 2.077s.158.948-.777.444c0 0-1.892-1.055-1.941-1.074-.173-.09-.391-.213-.91.012-.215.097-1.738.78-1.933.871-.204.097-.812.29-.564-.649 0 0 .41-1.562.469-1.794.013-.055.256-.643-.288-1.102l-1.527-1.366s-.931-.82.18-.897c1.082-.076 1.95-.196 2.229-.235.292-.045.634-.248.773-.575.068-.154.74-1.513.916-1.832M100.265 71.725s.464-1.077.965.072l.924 1.973c.01.037.169.407.697.463a63.92 63.92 0 0 1 1.93.347c.283.058.976.18.263.853 0 0-.933.901-1.311 1.296-.262.274-.438.45-.336 1.114l.241 2.083s.16.945-.779.44c0 0-1.892-1.057-1.937-1.072-.174-.093-.392-.22-.912.012-.217.096-1.74.778-1.933.868-.205.095-.812.29-.564-.646l.47-1.795c.015-.056.255-.648-.29-1.102l-1.525-1.37s-.933-.816.18-.894c1.082-.079 1.95-.2 2.228-.233.294-.048.634-.251.776-.58.063-.15.736-1.513.913-1.83M49.656 71.725s.464-1.077.964.072c0 0 .91 1.945.926 1.973.009.037.167.407.697.463.223.026 1.654.292 1.928.347.286.058.976.18.261.853 0 0-.93.901-1.308 1.296-.26.274-.436.45-.335 1.114l.24 2.083s.157.945-.779.44c0 0-1.892-1.057-1.937-1.072-.175-.093-.392-.22-.913.012-.215.096-1.739.778-1.932.868-.204.095-.812.29-.563-.646l.47-1.795c.012-.056.252-.648-.29-1.102l-1.527-1.37s-.932-.816.182-.894c1.079-.079 1.949-.2 2.227-.233.296-.048.634-.251.773-.58.066-.15.74-1.513.916-1.83M266.633 23.165s.287-.662.597.041c0 0 .556 1.197.567 1.215.006.022.104.25.429.285.14.016 1.016.177 1.185.214.175.035.602.11.161.523 0 0-.57.555-.803.8-.162.168-.27.274-.207.682l.147 1.279s.098.582-.479.273c0 0-1.164-.65-1.192-.66-.105-.055-.24-.134-.56.007-.132.06-1.07.479-1.19.534-.125.06-.497.179-.343-.398 0 0 .252-.959.288-1.102.007-.035.157-.4-.178-.678l-.94-.843s-.573-.502.113-.549c.665-.05 1.197-.123 1.367-.143a.634.634 0 0 0 .478-.356c.04-.095.455-.93.56-1.124M85.745 41.233s.467-1.071.967.075c0 0 .91 1.942.922 1.974.014.036.17.407.7.464.225.024 1.652.291 1.929.342.285.062.975.185.262.856 0 0-.932.9-1.312 1.297-.26.273-.434.45-.335 1.113l.24 2.08s.16.945-.777.444c0 0-1.892-1.055-1.938-1.074-.174-.091-.394-.218-.912.01-.216.099-1.74.783-1.934.872-.203.093-.81.29-.562-.646 0 0 .41-1.562.469-1.799.017-.052.255-.644-.288-1.1l-1.525-1.367s-.935-.818.176-.896c1.084-.077 1.95-.196 2.232-.232.292-.047.632-.251.773-.579.065-.153.74-1.512.913-1.834M62.11 11.227s.465-1.074.967.076c0 0 .907 1.94.92 1.972.013.037.171.405.699.46a64.14 64.14 0 0 1 1.93.349c.283.058.975.182.263.851 0 0-.934.903-1.311 1.298-.262.274-.435.45-.334 1.114l.237 2.082s.16.944-.777.443c0 0-1.892-1.06-1.936-1.074-.175-.093-.394-.217-.913.01-.216.098-1.741.78-1.935.872-.202.093-.812.29-.56-.647l.468-1.796c.014-.058.255-.646-.289-1.102l-1.525-1.368s-.934-.817.18-.895c1.08-.077 1.949-.2 2.228-.233.293-.046.632-.252.774-.578.065-.153.735-1.514.914-1.834M145.287 189.428s.463-1.076.964.072l.925 1.972c.013.039.168.41.696.464.228.026 1.657.29 1.93.346.283.058.976.182.263.856 0 0-.931.9-1.311 1.296-.26.273-.435.447-.336 1.115l.242 2.078s.157.95-.78.442c0 0-1.89-1.055-1.936-1.073-.177-.09-.393-.218-.914.013-.214.095-1.739.775-1.93.87-.208.095-.814.288-.565-.645 0 0 .41-1.564.47-1.8.015-.054.256-.645-.289-1.1l-1.528-1.37s-.932-.817.181-.894c1.08-.078 1.95-.2 2.23-.234.294-.049.634-.25.772-.576.068-.154.74-1.513.916-1.832M151.24.457s.467-1.076.968.073l.922 1.972c.01.038.169.408.696.466.228.023 1.655.29 1.93.345.283.058.978.179.262.85 0 0-.933.906-1.308 1.3-.262.273-.437.448-.337 1.112l.24 2.082s.159.947-.778.443c0 0-1.89-1.055-1.937-1.073-.175-.089-.394-.218-.912.012-.217.095-1.742.778-1.935.871-.202.094-.811.289-.56-.647 0 0 .408-1.567.466-1.797.016-.057.256-.65-.289-1.104l-1.525-1.367s-.931-.816.183-.893c1.08-.081 1.947-.201 2.227-.235.293-.046.633-.253.772-.575.068-.158.74-1.515.915-1.835M238.03 46.706s.465-1.073.963.076c0 0 .912 1.941.927 1.97.01.038.168.41.696.463.227.028 1.655.292 1.929.347.284.059.976.184.262.853 0 0-.93.9-1.31 1.295-.262.276-.434.451-.333 1.117l.24 2.079s.157.949-.781.445c0 0-1.89-1.057-1.938-1.074-.173-.094-.39-.217-.91.013-.216.093-1.74.774-1.933.866-.205.096-.814.293-.562-.644l.47-1.8c.01-.051.253-.643-.292-1.099l-1.528-1.366s-.929-.82.182-.898c1.082-.079 1.95-.197 2.23-.23.293-.047.632-.253.772-.578.066-.156.74-1.516.916-1.835M59.114 130.213s.465-1.073.965.08l.925 1.967c.011.038.165.407.697.465.228.022 1.653.29 1.928.346.285.062.98.18.263.852 0 0-.932.902-1.308 1.295-.263.278-.436.453-.337 1.116l.243 2.083s.158.945-.78.441c0 0-1.892-1.056-1.939-1.076-.175-.091-.392-.213-.913.016-.214.097-1.738.777-1.933.869-.204.093-.811.291-.56-.65l.467-1.798c.017-.05.257-.641-.29-1.097l-1.523-1.369s-.932-.818.18-.894c1.081-.077 1.947-.199 2.228-.234.293-.044.63-.251.774-.574.064-.16.738-1.518.913-1.838M93.715 70.295s.862 2.085-1.409 1.24l-3.965-1.364c-.063-.035-.784-.313-1.574.35-.335.28-2.627 1.912-3.074 2.214-.457.315-1.563 1.113-1.525-.779 0 0 0-2.505-.044-3.57-.026-.729-.038-1.21-1.084-1.955l-3.199-2.463s-1.526-1.062.427-1.675c0 0 4-1.213 4.099-1.248.343-.126.812-.26 1.193-1.294.163-.429 1.26-3.46 1.395-3.844.14-.422.692-1.528 1.656.081l1.856 3.071c.052.086.543 1.206 1.903 1.068l3.95-.284s2.375-.194.996 1.456c-1.35 1.607-2.345 2.974-2.667 3.413-.342.46-.511 1.21-.244 1.851.123.291 1.098 3.058 1.31 3.732M212.676 161.007s-1.112-.115-.207-.911c0 0 1.519-1.4 1.549-1.422.029-.014.322-.267.22-.766-.041-.222-.203-1.618-.235-1.883-.024-.279-.108-.951.708-.485 0 0 1.099.595 1.573.84.32.156.535.264 1.113-.015l1.84-.825s.827-.41.63.592l-.43 2.1c-.03.187-.082.425.278.839.149.168 1.211 1.374 1.351 1.528.15.162.502.668-.429.705l-1.79.083c-.05 0-.657-.05-.925.576l-.816 1.812s-.485 1.088-.879.086a29.597 29.597 0 0 0-.854-1.986.947.947 0 0 0-.752-.549 52.014 52.014 0 0 1-1.945-.319M33.04 163.377s-1.116-.115-.207-.913c0 0 1.52-1.398 1.548-1.42.029-.015.32-.269.219-.766a72.213 72.213 0 0 1-.233-1.886c-.026-.277-.109-.949.707-.484 0 0 1.098.596 1.574.84.32.158.535.265 1.112-.015l1.84-.825s.828-.411.632.592c0 0-.424 2.048-.43 2.1-.03.187-.084.426.277.841.147.167 1.212 1.374 1.349 1.527.15.162.505.669-.427.707 0 0-1.558.07-1.789.083-.051 0-.66-.052-.928.575l-.814 1.808s-.485 1.089-.88.09a31.415 31.415 0 0 0-.854-1.988.948.948 0 0 0-.75-.547 53.326 53.326 0 0 1-1.946-.319M243.405 169.695s-1.116-.118-.208-.91c0 0 1.52-1.4 1.548-1.422.027-.015.321-.27.22-.769-.042-.223-.203-1.618-.235-1.884-.025-.276-.11-.95.708-.484 0 0 1.098.593 1.574.838.32.158.535.267 1.111-.015l1.841-.823s.829-.411.63.592l-.431 2.1c-.027.186-.081.427.279.84.147.169 1.21 1.373 1.35 1.528.152.161.503.67-.428.705l-1.788.083c-.054 0-.66-.05-.929.576l-.814 1.812s-.484 1.085-.88.086a30.978 30.978 0 0 0-.852-1.987.951.951 0 0 0-.752-.549 47.246 47.246 0 0 1-1.944-.317M210.337 94.515s-1.842 1.097-1.358-1.155c0 0 .721-3.86.743-3.927.013-.063.175-.788-.551-1.436-.314-.284-2.15-2.218-2.5-2.592-.357-.395-1.26-1.323.52-1.544 0 0 2.353-.347 3.347-.533.675-.12 1.127-.198 1.686-1.287l1.87-3.357s.79-1.582 1.631.175c0 0 1.687 3.603 1.733 3.69.169.31.355.736 1.38.955.421.09 3.418.71 3.803.785.41.076 1.521.44.145 1.57 0 0-2.284 1.889-2.627 2.17-.073.064-1.062.678-.744 1.943l.81 3.685s.506 2.214-1.228 1.135c-1.695-1.05-3.114-1.804-3.572-2.048-.48-.255-1.203-.316-1.767.029-.262.153-2.724 1.452-3.321 1.742M217.534 112.135s-.896.753-.835-.501c0 0 .058-2.142.061-2.177.007-.038.034-.438-.412-.725-.194-.123-1.35-1.008-1.572-1.176-.229-.18-.792-.609.146-.88 0 0 1.235-.39 1.758-.572.347-.127.586-.21.795-.842l.716-1.977s.289-.914.89-.04c0 0 1.22 1.788 1.254 1.836.117.16.254.361.822.397.243.01 1.9.088 2.114.093.228.003.86.109.216.833 0 0-1.073 1.213-1.23 1.393-.035.045-.513.455-.232 1.114l.752 1.907s.466 1.148-.565.721c-.997-.416-1.826-.7-2.091-.794-.283-.095-.678-.063-.953.165a55.909 55.909 0 0 1-1.634 1.225M261.144 92.968s-.62.134-.277-.457c0 0 .565-1.023.58-1.038.01-.014.125-.206-.02-.46-.061-.108-.393-.827-.461-.966-.072-.146-.234-.494.29-.386 0 0 .697.115.996.16.198.026.34.045.6-.203l.842-.777s.373-.373.44.207c0 0 .144 1.178.149 1.208.017.1.03.235.296.4.117.063.907.52 1.005.572.108.065.391.277-.104.462 0 0-.823.322-.95.365-.026.018-.363.093-.387.481l-.114 1.12s-.067.676-.459.207a17.087 17.087 0 0 0-.817-.911.55.55 0 0 0-.505-.166c-.089.024-.908.156-1.104.182M169.729 155.782s-.65-.068-.123-.525l.895-.822c.014-.016.187-.159.128-.448a22.832 22.832 0 0 1-.135-1.088c-.017-.161-.067-.554.406-.278 0 0 .636.343.915.477.182.094.306.161.638-.002l1.068-.475s.482-.24.365.343l-.249 1.211c-.017.108-.048.244.16.482.085.103.705.801.784.893.085.086.29.382-.251.4l-1.03.05c-.036 0-.384-.025-.539.33l-.474 1.051s-.28.632-.504.049a22.341 22.341 0 0 0-.495-1.154.563.563 0 0 0-.435-.308c-.093-.015-.93-.145-1.124-.186M193.981 161.524s-.643-.065-.12-.525c0 0 .882-.811.896-.82.013-.015.186-.159.128-.45-.03-.125-.12-.93-.136-1.083-.015-.164-.066-.557.404-.284 0 0 .638.346.915.482.185.092.31.16.642-.003l1.063-.48s.484-.235.365.347c0 0-.239 1.18-.248 1.212-.017.107-.047.244.164.482.082.1.7.802.78.888.089.09.291.388-.252.404 0 0-.897.044-1.03.052-.032 0-.381-.028-.535.332l-.477 1.049s-.277.635-.503.046c-.222-.556-.429-1.007-.493-1.153a.562.562 0 0 0-.437-.306c-.091-.017-.928-.147-1.126-.19M164.434 183.225s-1.119-.67.219-1.065c0 0 2.272-.741 2.313-.748.038-.007.469-.132.606-.714.057-.247.552-1.801.653-2.1.102-.303.337-1.064.972-.171 0 0 .873 1.157 1.264 1.639.265.323.44.545 1.182.524l2.336.02s1.074-.038.383.926c0 0-1.43 1.956-1.457 2.008-.128.183-.288.406-.112 1.018.08.25.624 2.043.696 2.265.077.247.208.945-.795.537 0 0-1.677-.674-1.926-.769-.058-.027-.67-.374-1.257.169l-1.728 1.51s-1.032.92-.963-.327c.061-1.22.049-2.2.048-2.513a1.139 1.139 0 0 0-.529-.94 64.46 64.46 0 0 1-1.905-1.27M198.167 141.865s-1.37 1.154-1.27-.776c0 0 .088-3.298.088-3.348.01-.053.052-.676-.634-1.118-.303-.183-2.08-1.542-2.413-1.813-.35-.274-1.223-.927.224-1.341 0 0 1.9-.602 2.702-.885.541-.194.903-.318 1.226-1.293l1.1-3.026s.439-1.416 1.372-.073c0 0 1.873 2.758 1.929 2.826.169.235.389.555 1.26.601.364.02 2.927.135 3.254.145.353.008 1.316.16.33 1.278 0 0-1.646 1.867-1.89 2.147-.056.061-.79.704-.36 1.704l1.157 2.945s.715 1.766-.863 1.104c-1.544-.64-2.82-1.08-3.223-1.222-.436-.147-1.046-.1-1.462.263-.196.16-2.058 1.563-2.527 1.882M158.703 97.403s-.16.633-.537.044c0 0-.67-.99-.677-1.006-.015-.014-.13-.208-.426-.193-.13.008-.94-.015-1.097-.019-.159-.012-.55-.016-.217-.448 0 0 .435-.578.604-.828.125-.175.205-.29.09-.645l-.312-1.126s-.17-.503.387-.312l1.16.427c.105.033.239.08.505-.089.112-.08.89-.585.985-.65.106-.073.427-.23.37.309l-.103 1.033c-.005.022-.087.372.255.578l.962.617s.581.366-.026.51c-.588.138-1.057.278-1.2.327a.563.563 0 0 0-.383.385c-.018.088-.267.9-.34 1.086M127.727 84.785s-.896.751-.832-.502c0 0 .055-2.143.06-2.178.007-.036.032-.434-.416-.725-.192-.121-1.349-1.006-1.57-1.174-.227-.18-.79-.609.146-.88 0 0 1.235-.39 1.759-.574.347-.126.587-.206.795-.842l.717-1.975s.285-.914.89-.04c0 0 1.22 1.788 1.251 1.837.118.152.254.36.824.396.24.01 1.901.086 2.11.09.234.005.864.109.219.837l-1.23 1.391c-.033.043-.512.455-.23 1.114l.749 1.906s.469 1.15-.565.723c-.995-.418-1.823-.7-2.089-.795-.283-.095-.68-.062-.952.163a50.114 50.114 0 0 1-1.636 1.228M177.84 109.151s-.897.75-.833-.502c0 0 .059-2.141.062-2.174.007-.038.033-.438-.416-.728-.19-.122-1.35-1.007-1.57-1.174-.23-.177-.789-.608.146-.88 0 0 1.236-.39 1.757-.573.349-.126.59-.211.799-.842l.713-1.974s.287-.917.891-.042l1.252 1.836c.118.158.254.36.824.394.24.012 1.9.09 2.115.094.226.005.858.108.217.833l-1.233 1.392c-.033.045-.512.457-.23 1.115l.75 1.907s.466 1.15-.564.72c-.999-.417-1.828-.699-2.093-.791-.28-.096-.677-.064-.95.163a53.942 53.942 0 0 1-1.636 1.226M155.513 118.602s-.895.75-.832-.504l.059-2.177c.008-.035.035-.434-.415-.725-.192-.122-1.35-1.005-1.572-1.174-.224-.181-.788-.609.148-.88 0 0 1.234-.39 1.758-.572.348-.13.588-.21.794-.842l.716-1.975s.288-.918.89-.043c0 0 1.223 1.79 1.253 1.836.119.158.257.362.824.398.243.01 1.9.087 2.116.09.228.003.856.107.216.837 0 0-1.071 1.211-1.232 1.391-.034.042-.511.453-.23 1.113l.75 1.907s.468 1.15-.565.721c-.997-.414-1.826-.697-2.092-.792-.282-.095-.677-.064-.95.162a56.512 56.512 0 0 1-1.636 1.229M130.207 147.94s-.895.75-.833-.5l.061-2.179c.009-.035.032-.434-.412-.723-.192-.123-1.351-1.01-1.572-1.174-.229-.182-.79-.61.144-.881 0 0 1.238-.392 1.76-.574.348-.128.587-.21.796-.842l.716-1.975s.287-.916.888-.042l1.252 1.836c.12.16.256.36.825.396.242.012 1.902.086 2.112.091.231.004.863.11.22.835 0 0-1.072 1.213-1.234 1.393-.032.044-.51.454-.23 1.115l.752 1.905s.467 1.15-.565.72c-.999-.415-1.829-.698-2.092-.79-.283-.098-.677-.064-.95.163a50.477 50.477 0 0 1-1.638 1.227M166.925 68.873s-.897.75-.832-.503c0 0 .056-2.144.058-2.176.009-.038.035-.439-.412-.727-.194-.122-1.35-1.006-1.573-1.175-.23-.18-.79-.607.148-.88 0 0 1.234-.389 1.756-.573.349-.128.587-.208.798-.841l.714-1.975s.29-.916.892-.043c0 0 1.22 1.791 1.248 1.837.123.157.26.36.827.398.243.01 1.901.085 2.113.09.229.007.861.109.217.835l-1.23 1.392c-.035.043-.512.454-.232 1.115l.753 1.907s.463 1.147-.568.72c-.998-.417-1.826-.699-2.091-.793-.282-.097-.678-.064-.95.162a55.693 55.693 0 0 1-1.636 1.23M194.215 86.773s-.896.753-.835-.5c0 0 .058-2.147.062-2.176.008-.04.032-.438-.413-.726-.193-.124-1.351-1.009-1.573-1.176-.226-.181-.79-.608.148-.879 0 0 1.234-.39 1.756-.572.35-.13.588-.212.796-.842l.716-1.979s.286-.914.89-.04c0 0 1.222 1.789 1.253 1.837.118.157.256.36.822.394.243.013 1.902.09 2.116.094.229.004.857.109.216.835l-1.232 1.393c-.033.042-.51.454-.229 1.111l.752 1.91s.464 1.148-.568.72c-.996-.417-1.825-.699-2.089-.792-.285-.099-.68-.065-.952.16a52.925 52.925 0 0 1-1.636 1.228M138.133 106.559s-1.371 1.152-1.27-.774c0 0 .086-3.3.086-3.35.01-.052.052-.674-.634-1.12-.302-.184-2.079-1.543-2.413-1.813-.352-.27-1.225-.925.224-1.342 0 0 1.9-.599 2.703-.882.54-.196.905-.317 1.224-1.295l1.103-3.023s.438-1.418 1.37-.072c0 0 1.872 2.755 1.928 2.824.171.234.386.553 1.262.602.361.018 2.926.131 3.252.142.355.01 1.318.163.33 1.28 0 0-1.645 1.867-1.888 2.147-.056.062-.79.706-.36 1.702l1.159 2.944s.71 1.767-.865 1.104c-1.545-.637-2.822-1.077-3.22-1.22-.439-.144-1.052-.097-1.464.261-.198.161-2.062 1.565-2.527 1.885M174.352 94.127s-1.368 1.153-1.27-.776c0 0 .087-3.297.087-3.349.011-.05.051-.676-.634-1.117-.303-.184-2.077-1.546-2.412-1.813-.35-.274-1.226-.926.225-1.343 0 0 1.9-.602 2.7-.884.54-.196.904-.316 1.225-1.294l1.101-3.023s.44-1.415 1.373-.074c0 0 1.871 2.758 1.928 2.827.17.233.386.552 1.26.602.363.017 2.927.132 3.253.143.353.007 1.319.163.332 1.276 0 0-1.648 1.87-1.89 2.148-.053.063-.79.707-.36 1.705l1.157 2.944s.714 1.767-.865 1.104c-1.543-.641-2.817-1.08-3.221-1.222-.437-.146-1.045-.097-1.462.264-.198.16-2.061 1.565-2.527 1.882M204.502 122.429s-.636 2.062-1.787.051c0 0-2.045-3.369-2.073-3.422-.028-.06-.387-.71-1.365-.71-.421.007-3.09-.205-3.601-.25-.536-.052-1.828-.14-.648-1.504 0 0 1.522-1.839 2.143-2.646.42-.543.702-.911.392-2.093l-.852-3.758s-.468-1.712 1.336-.97c0 0 3.67 1.553 3.764 1.585.335.128.757.314 1.664-.212.378-.214 3.029-1.765 3.365-1.969.355-.222 1.43-.693 1.157 1.068 0 0-.443 2.948-.507 3.389-.012.098-.341 1.217.743 1.947l3.07 2.204s1.863 1.31-.156 1.68c-1.966.349-3.53.744-4.03.868-.53.13-1.108.577-1.305 1.208-.09.289-1.055 2.914-1.31 3.534M83.382 170.627s-.54-.127-.045-.459c0 0 .828-.588.84-.6.012-.004.17-.109.159-.359-.012-.115-.007-.8-.005-.934.003-.14 0-.474.372-.193 0 0 .501.357.718.5.149.102.246.163.546.063l.951-.287s.427-.156.267.322c0 0-.331.97-.332.998-.026.09-.067.2.082.423.066.097.509.748.569.829.063.091.202.363-.252.323 0 0-.768-.061-.88-.066a.438.438 0 0 0-.481.226l-.511.833s-.302.505-.434-.008a13.723 13.723 0 0 0-.3-1.02.489.489 0 0 0-.337-.32 20.343 20.343 0 0 1-.927-.271M95.83 160.49s-.168 1.157-.953.177c0 0-1.386-1.63-1.41-1.654-.018-.03-.265-.353-.793-.265-.223.037-1.673.159-1.954.174-.29.017-.993.091-.473-.753 0 0 .66-1.108.922-1.598.183-.328.3-.55.03-1.157l-.778-1.948s-.404-.875.634-.63c0 0 2.1.517 2.155.524.19.037.435.105.869-.256.19-.15 1.477-1.21 1.64-1.347.17-.149.71-.495.711.476 0 0 .01 1.616.022 1.855 0 .056-.077.685.566.99l1.84.914s1.102.542.056.91c-1.027.362-1.829.706-2.092.813-.27.125-.544.415-.594.765a68.207 68.207 0 0 1-.398 2.01M203.948 67.342s-1.1.386-.6-.766l.81-2.013c.017-.034.185-.4-.136-.829-.138-.18-.916-1.415-1.06-1.654-.15-.252-.533-.837.444-.77 0 0 1.292.07 1.843.078.38.007.628.008 1.04-.511l1.356-1.594s.588-.764.854.269c0 0 .518 2.105.534 2.159.056.19.113.435.634.655.218.095 1.75.75 1.95.826.21.086.766.406-.094.86 0 0-1.424.758-1.63.876-.05.028-.64.246-.607.959l.039 2.053s.037 1.238-.776.478a35.165 35.165 0 0 0-1.693-1.476c-.228-.19-.614-.297-.944-.18-.158.063-1.617.49-1.964.58M246.675 152.148s.604.693-.387.661l-1.715-.019c-.029 0-.345-.02-.567.34-.094.155-.776 1.081-.908 1.25-.14.192-.468.638-.697-.1 0 0-.319-.973-.472-1.385-.106-.28-.172-.465-.675-.62l-1.56-.541s-.726-.215-.05-.71c0 0 1.403-.984 1.433-1.012.12-.096.284-.206.302-.652.008-.194.045-1.514.047-1.677.003-.182.074-.684.652-.184 0 0 .97.835 1.118.955.03.03.367.4.877.17l1.499-.62s.9-.379.57.438c-.315.797-.524 1.459-.594 1.67a.803.803 0 0 0 .144.755c.084.089.82 1.04.983 1.281M200.606 90.597s.058-.547.444-.1c0 0 .688.749.7.764.01.015.13.16.379.11.107-.015.793-.104.92-.112.14-.016.471-.06.24.347 0 0-.294.542-.41.772-.081.158-.133.266.002.553l.402.909s.206.409-.288.313c0 0-1.001-.209-1.03-.22-.093-.013-.204-.042-.412.142-.082.075-.676.594-.755.665-.075.073-.322.246-.343-.212 0 0-.03-.77-.039-.885-.001-.024.023-.321-.288-.455l-.884-.402s-.531-.244-.042-.438c.481-.184.856-.362.975-.42a.472.472 0 0 0 .27-.371c.008-.075.12-.787.159-.96M151.352 138.064s-1.163-.027-.296-.928c0 0 1.448-1.58 1.473-1.604.024-.026.31-.309.16-.82-.064-.222-.357-1.646-.407-1.917-.054-.292-.205-.986.682-.566 0 0 1.187.514 1.702.72.347.14.577.236 1.153-.11l1.828-1.012s.823-.503.702.555l-.261 2.21c-.014.188-.042.44.365.835.17.166 1.378 1.322 1.53 1.463.17.153.579.647-.383.766 0 0-1.6.212-1.838.25-.053.003-.689.006-.905.675l-.686 1.945s-.402 1.174-.897.165a34.371 34.371 0 0 0-1.06-1.976c-.151-.255-.466-.492-.827-.495a85.486 85.486 0 0 1-2.035-.156M185.688 149.097s-1.164-.026-.295-.93l1.472-1.602c.027-.02.311-.306.162-.816-.067-.22-.358-1.65-.41-1.92-.055-.291-.203-.985.685-.562 0 0 1.187.514 1.697.715.349.137.582.235 1.157-.109l1.83-1.012s.813-.505.699.558c0 0-.254 2.146-.26 2.209-.014.185-.045.438.366.835.166.163 1.375 1.322 1.531 1.465.167.149.579.641-.387.767 0 0-1.599.208-1.837.242-.05.008-.692.012-.904.682l-.684 1.943s-.406 1.168-.9.163a29.544 29.544 0 0 0-1.058-1.975c-.15-.255-.469-.497-.827-.498a67.682 67.682 0 0 1-2.037-.155M27.606 73.436s-.437-.48.26-.48c0 0 1.192-.034 1.209-.028.021 0 .245.002.395-.252.06-.112.518-.786.607-.914.095-.13.312-.454.493.058 0 0 .25.678.371.967.08.194.129.321.489.423l1.111.342s.526.126.051.495c0 0-.959.728-.984.753-.08.068-.192.153-.192.468l.006 1.18c0 .133-.036.486-.454.146 0 0-.705-.564-.814-.645-.021-.019-.268-.271-.621-.098l-1.04.477s-.624.29-.414-.298a15.54 15.54 0 0 0 .377-1.193.564.564 0 0 0-.119-.524c-.062-.07-.606-.718-.73-.877M118.899 165.601s-.562-.311.086-.533l1.119-.402c.017-.006.233-.07.286-.364.019-.12.242-.887.282-1.03.045-.15.15-.527.473-.1 0 0 .446.548.64.78.14.152.23.257.59.24l1.146-.034s.526-.034.203.45c0 0-.668.981-.681 1.003-.054.094-.137.202-.037.495.041.132.332.994.376 1.102.04.12.113.456-.385.286 0 0-.83-.316-.951-.351-.031-.016-.335-.173-.613.096l-.823.768s-.489.47-.474-.143a12.782 12.782 0 0 0-.02-1.232.555.555 0 0 0-.27-.448 41.77 41.77 0 0 1-.947-.583M100.175 151.962s-1.617 1.2-1.375-.95c0 0 .324-3.693.332-3.751.01-.06.096-.755-.647-1.3-.318-.232-2.22-1.877-2.577-2.195-.374-.339-1.309-1.123.342-1.5 0 0 2.17-.54 3.087-.801.623-.183 1.039-.298 1.46-1.371l1.443-3.32s.592-1.557 1.543.011c0 0 1.918 3.22 1.971 3.303.187.28.403.653 1.379.763.403.047 3.272.355 3.634.38.395.034 1.47.275.287 1.463 0 0-1.972 1.98-2.264 2.278-.063.064-.931.73-.524 1.891l1.106 3.376s.678 2.033-1.049 1.18a64.442 64.442 0 0 0-3.533-1.586c-.476-.196-1.158-.18-1.656.188-.231.166-2.417 1.622-2.96 1.94M42.55 119.451s.403-.369.398.223l.009 1.036c-.004.018-.008.207.208.332.092.058.658.462.763.54.11.078.388.267-.055.414 0 0-.58.207-.823.303-.166.063-.273.108-.36.415l-.306.943s-.12.44-.427.035c0 0-.605-.826-.627-.853-.053-.064-.121-.164-.387-.167a58.48 58.48 0 0 0-1.008-.013c-.107.003-.409-.033-.116-.386l.558-.684c.014-.024.236-.226.088-.526l-.387-.897s-.234-.536.259-.35c.48.18.877.303 1.007.336.136.04.321.02.446-.093.06-.052.62-.504.76-.608M85.22 101.722s.41-.369.401.224c0 0 .013 1.016.01 1.033 0 .024-.005.212.21.34.091.054.656.456.766.53.106.085.38.27-.06.42 0 0-.578.204-.822.307-.166.062-.272.102-.36.41l-.31.942s-.118.442-.42.038c0 0-.61-.83-.627-.85-.057-.074-.129-.169-.393-.169a39.803 39.803 0 0 0-1.008-.014c-.106 0-.404-.035-.116-.39 0 0 .489-.595.56-.687a.438.438 0 0 0 .092-.523l-.389-.895s-.237-.536.257-.352c.483.18.877.299 1.007.34.133.043.323.02.446-.094.059-.052.62-.505.756-.61M68.62 72.878s.656-1.52 1.364.105c0 0 1.277 2.745 1.296 2.792.013.046.232.57.977.655.324.032 2.338.406 2.726.494.395.082 1.375.257.367 1.202 0 0-1.318 1.268-1.861 1.829-.362.383-.613.635-.47 1.571l.33 2.93s.216 1.347-1.095.624l-2.736-1.526c-.246-.122-.553-.3-1.29.021-.304.14-2.45 1.097-2.722 1.221-.293.14-1.154.406-.8-.918 0 0 .585-2.204.668-2.533.024-.075.364-.906-.392-1.549l-2.16-1.94s-1.307-1.158.261-1.27a44.905 44.905 0 0 0 3.148-.315c.413-.059.89-.348 1.093-.812a81.595 81.595 0 0 1 1.296-2.58M73.998 148.91s-.011-.653.51-.188c0 0 .906.779.918.792.015.014.178.166.46.075.12-.04.908-.229 1.058-.265.161-.036.544-.136.33.374 0 0-.266.662-.369.958-.072.2-.114.33.084.65l.597.992s.297.45-.29.408l-1.233-.103c-.109 0-.247-.018-.458.216-.088.102-.708.801-.785.888-.086.098-.346.337-.435-.2 0 0-.152-.886-.172-1.02-.004-.034-.018-.386-.398-.49l-1.09-.346s-.66-.202-.11-.5c.528-.284.945-.546 1.076-.625.138-.091.268-.277.258-.473a30.86 30.86 0 0 1 .049-1.143M255.604 142.066s-.21-.604.419-.33c0 0 1.084.437 1.096.447.023.007.223.097.456-.073.101-.08.77-.5.901-.574.136-.085.461-.3.417.236 0 0-.036.71-.038 1.01-.004.207-.008.342.28.574l.863.743s.414.324-.143.47c0 0-1.155.28-1.183.284-.096.035-.231.07-.354.351-.055.122-.414.959-.452 1.07-.05.117-.222.412-.471-.047l-.479-.901c-.012-.029-.134-.35-.522-.333l-1.123.02s-.67.016-.255-.424c.4-.435.706-.808.806-.925a.557.557 0 0 0 .095-.524c-.029-.08-.267-.88-.313-1.074M53.556 112.406s-2.604.143-.812-2.016c0 0 2.978-3.749 3.032-3.807.05-.062.64-.738.225-1.858-.182-.479-1.062-3.62-1.224-4.219-.165-.63-.607-2.146 1.442-1.371 0 0 2.725.968 3.904 1.338.796.251 1.327.427 2.55-.433l3.919-2.547s1.748-1.257 1.658 1.118c0 0-.226 4.844-.225 4.965 0 .43-.035.997.94 1.811.408.343 3.284 2.725 3.655 3.015.4.317 1.391 1.342-.731 1.781 0 0-3.54.725-4.065.838-.12.027-1.528.128-1.904 1.666l-1.218 4.434s-.712 2.677-1.972.52c-1.228-2.09-2.329-3.714-2.68-4.237-.376-.548-1.126-1.023-1.925-.98-.368.017-3.755.02-4.57-.018M27.277 107.33s-1.47-1.381.682-1.533c0 0 3.681-.355 3.746-.352.06-.003.75-.037 1.152-.87.171-.356 1.442-2.536 1.69-2.943.264-.429.862-1.49 1.531.068 0 0 .93 2.042 1.349 2.898.292.578.476.971 1.61 1.19l3.515.826s1.638.296.273 1.521c0 0-2.815 2.47-2.88 2.536-.24.235-.572.511-.505 1.495.028.412.251 3.293.29 3.657.035.396-.01 1.499-1.383.547 0 0-2.307-1.586-2.652-1.818-.076-.054-.886-.788-1.943-.17l-3.115 1.7s-1.873 1.034-1.349-.823c.504-1.812.813-3.293.914-3.767.108-.512-.032-1.182-.486-1.602-.207-.197-2.02-2.093-2.439-2.56M71.292 136.976s-1.867.187-.65-1.43c0 0 2.004-2.815 2.044-2.86.03-.043.435-.556.091-1.346-.14-.338-.895-2.574-1.029-2.996-.14-.446-.52-1.528.986-1.043 0 0 2 .597 2.866.82.588.154.976.261 1.824-.406l2.736-1.98s1.213-.964 1.238.751c0 0 .01 3.503.016 3.593.013.312.012.716.743 1.268.307.229 2.466 1.841 2.745 2.038.303.223 1.05.925-.462 1.313 0 0-2.526.654-2.901.756-.088.018-1.102.147-1.316 1.274l-.72 3.238s-.412 1.953-1.404.446a54.342 54.342 0 0 0-2.083-2.957c-.288-.384-.849-.7-1.425-.637-.263.025-2.709.15-3.299.158M42.425 133.714s-.21-.602.418-.329c0 0 1.085.438 1.103.447.015.007.22.106.449-.074.101-.076.773-.498.9-.579.142-.08.463-.296.423.244 0 0-.039.709-.042 1.008-.002.205-.006.345.277.57l.87.747s.41.322-.15.466c0 0-1.15.283-1.175.293-.105.025-.236.06-.358.346-.053.119-.41.96-.458 1.069-.044.115-.221.418-.467-.049 0 0-.413-.785-.477-.901-.015-.026-.136-.346-.521-.33l-1.12.023s-.679.014-.26-.433c.404-.43.71-.805.807-.925a.58.58 0 0 0 .099-.519c-.035-.081-.27-.88-.318-1.074M261.987 70.277s-.847-.802.399-.885c0 0 2.13-.2 2.167-.206.034 0 .434-.019.664-.5.103-.21.834-1.47.978-1.703.152-.25.502-.861.887.042 0 0 .533 1.176.783 1.67.165.337.276.56.927.688l2.037.474s.946.174.157.887c0 0-1.628 1.43-1.666 1.47-.142.13-.333.29-.29.861.014.243.139 1.9.168 2.112.017.232-.009.87-.804.323l-1.53-1.056c-.051-.027-.518-.452-1.127-.098l-1.805.983s-1.084.598-.778-.474c.293-1.042.469-1.905.526-2.18a1.037 1.037 0 0 0-.274-.931c-.126-.109-1.174-1.208-1.42-1.477M203.689 173.506s-.21-.597.414-.326c0 0 1.089.438 1.109.452.008.005.214.097.442-.08.102-.076.78-.498.907-.58.14-.077.46-.287.422.246 0 0-.04.71-.047 1.01-.003.206-.005.344.278.57l.866.745s.419.325-.144.47l-1.176.289c-.103.03-.232.06-.36.344-.051.119-.41.963-.453 1.071-.046.116-.222.416-.464-.052 0 0-.42-.78-.479-.9-.012-.026-.137-.346-.52-.326l-1.127.02s-.677.016-.258-.427c.404-.438.712-.808.806-.926a.55.55 0 0 0 .099-.52 32.293 32.293 0 0 1-.315-1.08M18.537 173.506s-.21-.597.417-.326c0 0 1.087.438 1.106.452.009.005.214.097.445-.08.1-.076.778-.498.905-.58.138-.077.459-.287.422.246 0 0-.04.71-.047 1.01-.002.206-.004.344.278.57l.866.745s.417.325-.147.47l-1.176.289c-.102.03-.23.06-.356.344-.051.119-.411.963-.452 1.071-.05.116-.227.416-.468-.052 0 0-.417-.78-.477-.9-.014-.026-.138-.346-.52-.326l-1.128.02s-.676.016-.258-.427c.405-.438.712-.808.807-.926a.56.56 0 0 0 .098-.52 30.777 30.777 0 0 1-.315-1.08M78.767 95.35s.548-.065.196.418c0 0-.575.834-.588.847-.009.016-.125.165-.02.394.04.103.275.75.314.881.042.124.157.442-.287.308 0 0-.59-.172-.842-.23-.174-.037-.288-.072-.538.129l-.79.588s-.356.293-.372-.21l-.017-1.058c-.007-.089-.005-.208-.228-.371-.088-.06-.732-.526-.813-.587-.088-.057-.313-.265.135-.386 0 0 .735-.2.85-.235.022-.003.322-.046.379-.378l.192-.955s.116-.575.413-.137c.289.422.546.756.624.86.086.115.253.2.423.181.074-.009.796-.059.97-.059M92.122 27.433s.688.03.164.55c0 0-.877.914-.893.927-.016.018-.187.18-.106.482.036.133.188.979.214 1.145.028.166.11.577-.41.32 0 0-.697-.32-.995-.446-.205-.086-.34-.146-.68.048l-1.098.574s-.494.287-.408-.337c0 0 .181-1.272.181-1.304.012-.109.037-.26-.204-.498a99.876 99.876 0 0 0-.884-.885c-.096-.092-.333-.392.236-.445l1.092-.123c.033 0 .403.006.546-.39l.427-1.142s.256-.684.533-.09c.272.587.522 1.04.6 1.187a.628.628 0 0 0 .485.308c.096 0 .987.087 1.2.119M220.299 71.549s.77.247.016.672c0 0-1.279.762-1.296.775-.024.013-.267.146-.275.51 0 .164-.086 1.173-.107 1.364-.02.2-.059.696-.566.238 0 0-.681-.578-.99-.82-.202-.158-.34-.27-.786-.15l-1.42.31s-.645.17-.357-.512l.608-1.42c.048-.12.121-.278-.076-.629a76.728 76.728 0 0 0-.728-1.275c-.081-.137-.254-.546.403-.438 0 0 1.11.184 1.278.207.037.005.46.135.737-.278l.84-1.155s.504-.693.633.067c.127.747.266 1.337.306 1.529.055.195.217.422.455.491.107.044 1.097.411 1.325.514M148.851 87.96s.772.249.014.674c0 0-1.277.76-1.296.773-.022.012-.266.146-.274.51 0 .163-.088 1.175-.106 1.366-.022.2-.058.694-.568.234 0 0-.681-.577-.987-.818-.203-.157-.343-.271-.788-.15l-1.418.307s-.646.173-.36-.508l.612-1.421c.048-.122.118-.28-.078-.63a95.207 95.207 0 0 0-.727-1.275c-.08-.137-.255-.546.404-.437 0 0 1.107.183 1.278.206.038.006.457.135.734-.276l.84-1.157s.503-.69.63.067c.131.748.267 1.336.31 1.528.054.195.218.424.455.493.107.044 1.098.413 1.325.513M92.249 115.669s-.731-.35.077-.674c0 0 1.366-.577 1.388-.593.022-.014.284-.108.336-.471.023-.162.244-1.15.286-1.334.045-.199.151-.678.595-.163 0 0 .603.668.87.945.18.183.304.314.76.257l1.447-.12s.665-.084.29.557l-.793 1.318c-.063.12-.154.264-.006.64.056.148.494 1.228.553 1.364.06.14.18.571-.46.373 0 0-1.078-.324-1.238-.37-.037-.01-.438-.192-.764.17l-.987 1.036s-.592.618-.617-.147a24.675 24.675 0 0 0-.108-1.554c-.023-.204-.156-.45-.38-.556-.102-.05-1.033-.55-1.25-.678M131.152 93.69s.636.033.145.506c0 0-.814.843-.833.852-.012.017-.17.169-.1.447a32 32 0 0 1 .194 1.058c.027.157.095.54-.381.298 0 0-.636-.304-.919-.42-.19-.08-.313-.138-.632.042l-1.019.525s-.456.255-.374-.315l.178-1.204c.009-.103.032-.242-.181-.461-.094-.095-.736-.745-.819-.826-.092-.09-.305-.364.224-.416 0 0 .877-.093 1.014-.103.026 0 .375.006.498-.361l.41-1.049s.237-.63.493-.077c.242.538.473.962.545 1.099a.56.56 0 0 0 .444.288c.09 0 .915.088 1.113.117M160.838 83.124s.634.031.146.512c0 0-.817.839-.832.858-.012.008-.175.161-.1.443.035.122.167.905.193 1.056.021.156.095.538-.384.297 0 0-.64-.3-.916-.423-.191-.077-.316-.13-.63.043l-1.017.521s-.46.264-.38-.312c0 0 .175-1.174.177-1.201.012-.103.036-.241-.183-.463-.088-.095-.73-.742-.815-.829-.085-.084-.306-.36.224-.413l1.01-.104c.029-.002.374.008.505-.359l.403-1.047s.241-.632.494-.077c.246.538.48.962.547 1.098.08.148.25.277.444.288.095.004.915.086 1.114.112M171.753 75.166s.636.035.146.516c0 0-.813.836-.83.856-.012.008-.178.165-.102.442.034.122.168.904.193 1.058.023.155.095.533-.383.294 0 0-.641-.299-.919-.422-.186-.076-.312-.128-.627.044l-1.017.52s-.459.266-.38-.31l.179-1.202c.01-.104.032-.242-.185-.462-.09-.093-.732-.745-.815-.827-.087-.086-.306-.362.222-.414l1.01-.107c.03-.002.374.01.506-.356l.405-1.049s.242-.634.493-.077c.248.537.48.963.549 1.097.08.149.247.275.444.286.091.004.913.089 1.11.113M129.081 130.863s.638.03.148.514c0 0-.815.838-.832.857-.01.008-.174.162-.101.442.033.122.169.906.193 1.058.022.153.094.533-.384.294 0 0-.64-.3-.916-.42-.188-.079-.313-.13-.631.042l-1.015.521s-.462.264-.38-.313l.179-1.201c.01-.101.031-.24-.185-.46-.09-.095-.732-.745-.816-.829-.089-.086-.305-.36.225-.414 0 0 .877-.09 1.009-.106.03-.002.373.008.506-.358l.403-1.046s.243-.635.494-.078c.246.536.48.96.548 1.098.08.147.25.274.443.286.092.002.913.087 1.112.113M161.828 56.27s.639.032.148.514c0 0-.815.837-.83.856-.014.01-.175.165-.103.443.035.122.17.906.192 1.059.024.153.097.534-.38.294 0 0-.645-.3-.918-.42-.187-.08-.317-.132-.63.039l-1.017.524s-.46.264-.38-.314c0 0 .177-1.175.178-1.2.011-.106.035-.242-.183-.464l-.816-.825c-.09-.087-.304-.362.223-.415 0 0 .88-.092 1.011-.104.03-.002.372.006.505-.36l.405-1.048s.239-.632.494-.078c.246.54.475.963.549 1.1a.56.56 0 0 0 .438.287c.095.002.919.087 1.114.111M193.585 95.554s.636.033.147.514c0 0-.818.839-.832.86-.013.006-.176.161-.103.441.036.124.169.906.193 1.056.025.155.096.537-.383.296 0 0-.64-.3-.916-.42-.189-.08-.314-.13-.63.042l-1.018.518s-.458.267-.378-.308c0 0 .174-1.176.18-1.205.011-.103.03-.24-.186-.46-.088-.09-.731-.742-.815-.829-.088-.085-.304-.36.223-.414l1.01-.103c.028-.002.375.007.506-.36l.403-1.05s.244-.63.495-.075c.246.539.478.965.547 1.1.08.145.25.273.446.286.093.002.911.087 1.111.111M129.874 111.667s.412-.367.403.224c0 0 .012 1.018.007 1.033.002.024-.001.213.211.34.093.056.659.458.767.531.103.085.38.272-.06.418 0 0-.578.208-.82.308-.166.063-.277.105-.364.41l-.306.943s-.122.44-.423.039c0 0-.609-.832-.626-.85-.055-.073-.13-.17-.392-.172a43.031 43.031 0 0 0-1.01-.012c-.103 0-.401-.036-.114-.392 0 0 .489-.592.558-.683.017-.017.239-.224.095-.525l-.391-.897s-.238-.532.258-.351c.48.18.876.3 1.006.342.134.046.324.02.447-.095.058-.05.62-.506.754-.61M136.903 125.615s-.73-.352.078-.671c0 0 1.365-.582 1.387-.595.025-.012.284-.109.337-.475.021-.16.245-1.146.287-1.332.046-.198.152-.679.594-.162 0 0 .599.663.87.946.181.182.304.311.76.255l1.448-.12s.662-.084.29.558c0 0-.777 1.29-.793 1.321-.062.116-.154.263-.007.636.057.148.495 1.225.554 1.364.058.144.18.57-.463.373 0 0-1.074-.324-1.237-.37-.035-.01-.439-.191-.763.174l-.988 1.035s-.589.618-.616-.15a26.338 26.338 0 0 0-.107-1.557c-.028-.202-.157-.444-.383-.55-.098-.055-1.032-.551-1.248-.68M73.496 59.552s.552-.068.2.416c0 0-.579.834-.59.847-.013.012-.127.165-.017.393.04.1.267.755.31.878.044.134.16.445-.288.31 0 0-.588-.169-.845-.227-.171-.043-.287-.076-.533.122l-.793.591s-.353.294-.371-.214l-.014-1.048c-.007-.097-.01-.209-.225-.375-.092-.062-.73-.529-.817-.583-.092-.063-.313-.265.133-.386 0 0 .737-.204.849-.24a.448.448 0 0 0 .378-.376l.196-.952s.12-.575.413-.141c.29.43.538.755.624.862.091.109.253.201.418.178.08-.01.798-.055.972-.055M31.733 84.78s.365-.539.52.142c0 0 .293 1.162.293 1.18.01.02.052.236.338.325.119.038.87.339 1.019.397.145.06.513.205.054.492 0 0-.608.398-.861.578-.17.119-.282.198-.293.57l-.095 1.163s-.012.539-.471.162c0 0-.922-.782-.945-.796-.09-.069-.196-.156-.5-.087a61.99 61.99 0 0 0-1.152.27c-.122.029-.476.07-.24-.418l.45-.93c.015-.03.207-.326-.043-.628l-.694-.918s-.422-.546.197-.47c.597.072 1.087.096 1.244.105.163.005.37-.06.483-.229.052-.079.564-.752.696-.908M14.308 81.113s-.235-1.146.835-.493l1.887 1.08c.029.023.369.236.834-.018.201-.108 1.524-.713 1.78-.83.265-.115.904-.415.698.551 0 0-.238 1.273-.327 1.814-.056.376-.098.62.364 1.107l1.389 1.564s.67.687-.382.808c0 0-2.153.226-2.205.234-.197.029-.44.053-.736.542-.126.202-.98 1.637-1.087 1.818-.116.199-.498.709-.831-.202 0 0-.56-1.52-.645-1.744-.018-.053-.16-.67-.866-.735l-2.04-.24s-1.227-.13-.36-.84a33.772 33.772 0 0 0 1.689-1.472c.219-.205.371-.567.306-.92a62.426 62.426 0 0 1-.303-2.024M18.03 105.863s.368-.54.518.144c0 0 .294 1.158.298 1.178.004.017.046.24.335.32.122.044.877.342 1.023.4.143.06.512.2.05.493 0 0-.6.396-.854.58-.173.112-.291.191-.301.562l-.09 1.166s-.013.542-.474.162l-.944-.798c-.09-.063-.194-.156-.502-.084-.13.027-1.038.238-1.151.27-.125.032-.473.072-.241-.419 0 0 .394-.808.45-.93.014-.023.205-.324-.04-.634l-.696-.908s-.42-.548.194-.473c.6.076 1.09.096 1.244.11a.599.599 0 0 0 .486-.234c.054-.079.565-.75.696-.905M161.654 151.315s.373-.543.52.14c0 0 .297 1.16.3 1.179.004.022.046.24.332.324.125.037.875.337 1.021.398.147.063.52.198.05.49 0 0-.6.397-.85.576-.172.12-.29.193-.3.572l-.091 1.167s-.013.534-.473.157c0 0-.924-.778-.947-.8-.089-.06-.192-.153-.502-.087a94.35 94.35 0 0 1-1.15.271c-.122.037-.474.078-.24-.41 0 0 .391-.815.446-.936.015-.026.208-.324-.038-.63l-.695-.915s-.423-.544.196-.472c.598.078 1.088.1 1.244.114a.575.575 0 0 0 .482-.235c.054-.078.566-.747.695-.903M120.269 150s.369-.536.52.148c0 0 .293 1.158.295 1.178.003.014.045.236.334.32.126.04.876.34 1.021.399.146.063.516.198.053.493 0 0-.604.395-.857.578-.17.122-.289.192-.299.567l-.088 1.165s-.013.536-.477.16c0 0-.92-.775-.948-.797-.086-.061-.189-.152-.496-.087-.127.035-1.038.24-1.151.27-.124.03-.474.073-.239-.416 0 0 .395-.812.45-.933.01-.022.204-.32-.045-.628l-.694-.913s-.422-.545.195-.47c.6.074 1.09.095 1.245.107a.567.567 0 0 0 .484-.234c.052-.074.566-.749.697-.906"/>
            </g>
        </g>
        <path fill="#1450A0" d="M193.127 58.666c-21.628-11.147-42.988-12.331-56.277-8.346-24.553 7.353-32.17 38.57-9.414 53.856 1.38.937.51 2.883-1.217 5.99-2.126 3.862-6.089 11.472-13.082 16.96-4.194 3.316-6.934 4.685-3.471 8.771 0 0 7.692 8.612 13.38 11.117 6.849 3.003 8.564 2.498 13.666-2.276 3.209-3.004 9.564-11.206 17.224-24.279 3.986-6.796 9.296-6.916 8.575 4.259 0 0-1.047 10.758-1.34 12.98-.85 6.41-.184 8.623 5.565 8.693 0 0 12.338-.68 16.613-1.284 6.03-.834 5.702-1.802 7.28-6.557 8.423-25.36 9.135-68.895 9.135-68.895.37-5.842-1.48-8.332-6.637-10.99m-15.795 23.473s-7.652 5.25-7.843 5.393c-.653.498-1.545 1.103-1.67 3.53-.044 1.022-.34 8.176-.356 9.076-.022.97-.449 3.68-3.562.933 0 0-5.227-4.56-5.994-5.24-.176-.159-1.963-2.187-4.755-.985l-8.17 3.263s-4.91 2.005-3.088-2.406c1.774-4.302 2.972-7.858 3.367-9.01.406-1.208.259-2.892-.738-4.074-.453-.532-4.371-5.727-5.265-7.006 0 0-3.226-3.825 2.14-3.56 0 0 9.172.198 9.316.215.15.018 1.871.136 3.097-1.793 1.502-2.373 5.94-7.933 5.018-6.751.774-.981 2.571-3.405 3.759.62 0 0 1.695 5.285 2.49 7.516.54 1.512.889 2.525 3.617 3.399l8.417 3.048s3.945 1.215.22 3.832"/>
    </g>
</svg>
