<svg xmlns="http://www.w3.org/2000/svg" width="104" height="104" viewBox="0 0 104 104">
    <path fill="#1450A0" fill-rule="evenodd" d="M87.561 10.74C65.291-.738 43.297-1.957 29.613 2.147 4.33 9.718-3.512 41.863 19.919 57.603c1.422.964.525 2.968-1.252 6.167-2.19 3.977-6.27 11.813-13.471 17.464-4.32 3.415-7.14 4.824-3.575 9.032 0 0 7.921 8.867 13.777 11.447 7.053 3.092 8.819 2.572 14.073-2.344 3.304-3.093 9.847-11.538 17.736-25 4.104-6.998 9.571-7.122 8.83 4.385 0 0-1.08 11.078-1.38 13.366-.875 6.6-.19 8.88 5.73 8.951 0 0 12.704-.7 17.107-1.322 6.207-.858 5.87-1.855 7.496-6.752 8.673-26.113 9.405-70.94 9.405-70.94.382-6.016-1.524-8.58-6.834-11.317M71.298 34.91s-7.88 5.406-8.076 5.553c-.673.513-1.591 1.135-1.72 3.635-.046 1.052-.35 8.418-.366 9.346-.023 1-.463 3.79-3.669.96 0 0-5.382-4.695-6.172-5.395-.18-.164-2.021-2.252-4.896-1.015l-8.412 3.36s-5.056 2.065-3.18-2.478c1.827-4.429 3.06-8.09 3.467-9.277.418-1.244.266-2.978-.76-4.195-.467-.548-4.501-5.897-5.422-7.214 0 0-3.322-3.94 2.203-3.667 0 0 9.445.205 9.593.223.155.018 1.927.14 3.19-1.847 1.547-2.444 6.117-8.168 5.166-6.951.798-1.01 2.648-3.507 3.871.64 0 0 1.745 5.44 2.564 7.737.556 1.558.916 2.6 3.725 3.5l8.667 3.14s4.062 1.25.227 3.945"/>
</svg>
