<svg xmlns="http://www.w3.org/2000/svg" xmlns:xlink="http://www.w3.org/1999/xlink" width="448" height="448" viewBox="0 0 448 448"><svg width="64" height="64" viewBox="0 0 64 64" id="email" x="0" y="0"><path fill="#1450A0" d="M56.2 7.8c10.1 10.1 10.7 38.2 0 48.5-10.4 10.1-38.3 10.3-48.5 0s-10.1-38.1 0-48.5c10.4-10.6 38.4-10.2 48.5 0"></path><path fill="#FFF" d="M39.8 32l9.2-9.2v18.5L39.8 32zm-13.3 2.1l1.3 1.5c1.2 1.2 2.7 1.7 4.3 1.7s3.1-.7 4.3-1.7l1.3-1.5 8.8 8.9H17.7l8.8-8.9zM24.3 32l-9.2 9.2V22.8l9.2 9.2zm9.9 1.3c-.5.5-1.3.9-2.1.9s-1.6-.3-2.1-.9L17.5 20.9h29.1L34.2 33.3zM49.1 18h-34c-1.6 0-3.1 1.3-3.1 3.1v22c0 1.6 1.3 3.1 3.1 3.1h34c1.6 0 3.1-1.3 3.1-3.1V20.9c-.1-1.6-1.5-2.9-3.1-2.9z"></path></svg><svg width="64" height="64" viewBox="0 0 64 64" id="facebook" x="64" y="64"><path fill="#33599D" d="M56.2 7.8c10.1 10.1 10.7 38.1 0 48.4-10.4 10-38.2 10.3-48.6 0s-10.1-38 0-48.4C18-2.9 46.1-2.3 56.2 7.8"></path><path fill="#FEFEFE" d="M41 64V40.3h8l1.2-9.2H41v-5.9c0-2.7.7-4.5 4.6-4.5h4.9v-8.2c-.8-.1-3.8-.4-7.1-.4-7.1 0-11.9 4.3-11.9 12.2v6.8h-8v9.2h8V64H41z"></path></svg><svg width="64" height="64" viewBox="0 0 64 64" id="googleplus" x="128" y="128"><path fill="#F7F7F7" d="M56.2 7.8c10.1 10.1 10.7 38.2 0 48.5-10.4 10.1-38.3 10.3-48.5 0s-10.1-38.1 0-48.5c10.4-10.6 38.4-10.2 48.5 0"></path><path fill="#4285F4" d="M51.3 32.4c0-1.5-.1-2.8-.4-4.1H32.1V36h10.8c-.4 2.5-1.9 4.7-4 6v5h6.4c3.8-3.3 6-8.5 6-14.6z"></path><path fill="#34A853" d="M32.1 52c5.3 0 9.9-1.7 13.2-4.8l-6.4-5.1C37 43.3 34.7 44 32.1 44c-5.2 0-9.6-3.5-11.2-8.3h-6.7v5.2c3.3 6.5 10 11.1 17.9 11.1z"></path><path fill="#FBBC05" d="M20.9 35.8c-.4-1.2-.7-2.5-.7-3.9s.3-2.5.7-3.9v-5h-6.7c-1.3 2.7-2.1 5.7-2.1 8.9s.8 6.3 2.1 8.9l6.7-5z"></path><path fill="#EA4335" d="M32.1 20c2.9 0 5.6 1.1 7.6 2.9l5.7-5.7c-3.5-3.2-8-5.2-13.3-5.2-7.9 0-14.5 4.5-17.9 11.1l6.7 5.2c1.6-4.9 6-8.3 11.2-8.3z"></path></svg><svg width="64" height="64" viewBox="0 0 64 64" id="instagram" x="192" y="192"><radialGradient id="a" cx="2.3" cy="24.745" r="47.36" gradientTransform="matrix(1.3333 0 0 -1.333 -8 79.99)" gradientUnits="userSpaceOnUse"><stop offset="0" stop-color="#fd5"></stop><stop offset=".1" stop-color="#fd5"></stop><stop offset=".5" stop-color="#ff543e"></stop><stop offset="1" stop-color="#c837ab"></stop></radialGradient><path fill="url(#a)" d="M7.6 7.8C2.7 13 0 22.5 0 32v.2c0 9.5 2.5 19 7.6 24.1 10.3 10.3 38.1 10.1 48.6 0 10.7-10.3 10.1-38.4 0-48.5S17.9-2.9 7.6 7.8z"></path><radialGradient id="b" cx="5.85" cy="61.025" r="26.93" gradientTransform="matrix(1.3333 0 0 -1.333 -8 79.99)" gradientUnits="userSpaceOnUse"><stop offset="0" stop-color="#3771c8"></stop><stop offset=".13" stop-color="#3771c8"></stop><stop offset="1" stop-color="#60f" stop-opacity="0"></stop></radialGradient><path fill="url(#b)" d="M7.6 7.8C2.7 13 0 22.5 0 32v.2c0 9.5 2.5 19 7.6 24.1S22.3 64 31.9 64c9.5 0 19.1-2.7 24.3-7.6 10.7-10.3 10.1-38.4 0-48.5S17.9-2.9 7.6 7.8z"></path><path fill="#FFF" d="M32 10.7c-5.8 0-6.5 0-8.8.1-1.8 0-3.5.4-5.2 1-2.9 1.1-5.1 3.4-6.3 6.2-.6 1.7-.9 3.4-1 5.2-.1 2.3-.1 3-.1 8.8s0 6.5.1 8.8c0 1.8.4 3.5 1 5.2.5 1.4 1.4 2.7 2.5 3.8 1.1 1.1 2.4 1.9 3.8 2.5 1.7.6 3.4 1 5.2 1 2.3.1 3 .1 8.8.1s6.5 0 8.8-.1c1.8 0 3.5-.4 5.2-1 2.9-1.1 5.1-3.4 6.2-6.2.6-1.7.9-3.4 1-5.2.1-2.3.1-3 .1-8.8s0-6.5-.1-8.8c0-1.8-.4-3.5-1-5.2-1.1-2.9-3.4-5.1-6.2-6.2-1.7-.6-3.4-.9-5.2-1-2.3-.2-3-.2-8.8-.2zm-1.9 3.8H32c5.7 0 6.4 0 8.6.1 1.4 0 2.7.3 4 .7 1.8.7 3.3 2.2 4 4 .5 1.3.7 2.6.7 4 .1 2.2.1 2.9.1 8.6s0 6.4-.1 8.6c0 1.4-.3 2.7-.7 4-.7 1.8-2.2 3.3-4 4-1.3.5-2.6.7-4 .7-2.2.1-2.9.1-8.6.1s-6.4 0-8.6-.1c-1.4 0-2.7-.3-4-.7-1.8-.7-3.3-2.2-4-4-.5-1.3-.7-2.6-.7-4-.1-2.3-.1-2.9-.1-8.6s0-6.4.1-8.6c0-1.4.3-2.7.7-4 .7-1.8 2.2-3.3 4-4 1.3-.5 2.6-.7 4-.7 1.9-.1 2.6-.1 6.7-.1zm13.3 3.6c-1.4 0-2.6 1.1-2.6 2.6 0 1.4 1.1 2.6 2.6 2.6 1.4 0 2.6-1.1 2.6-2.6s-1.2-2.6-2.6-2.6zm-11.4 3c-6.1 0-11 4.9-11 10.9 0 6.1 4.9 11 10.9 11s11-4.9 11-10.9c0-6.1-4.9-11-10.9-11zm0 3.8c3.9 0 7.1 3.2 7.1 7.1s-3.2 7.1-7.1 7.1-7.1-3.1-7.1-7.1c0-3.9 3.2-7.1 7.1-7.1z"></path></svg><svg width="64" height="64" viewBox="0 0 64 64" id="pinterest" x="256" y="256"><path fill="#BD081C" d="M56.2 7.8c10.1 10.1 10.7 38.2 0 48.6-10.4 10-38.2 10.3-48.6 0s-10.1-38.1 0-48.6C18-2.9 46.1-2.3 56.2 7.8"></path><path fill="#FFF" d="M20.3 62.7c-.3-2.5-.5-6.4.1-9.2.6-2.5 3.8-15.9 3.8-15.9s-1-1.9-1-4.8c0-4.4 2.6-7.8 5.8-7.8 2.7 0 4 2 4 4.5 0 2.7-1.7 6.8-2.6 10.7-.8 3.2 1.6 5.8 4.7 5.8 5.7 0 10.1-6 10.1-14.7 0-7.7-5.5-13-13.4-13-9.1 0-14.4 6.8-14.4 13.9 0 2.7 1.1 5.7 2.4 7.3.3.3.3.6.2.9-.2 1-.8 3.2-.9 3.6-.1.6-.5.7-1.1.4-4-1.9-6.5-7.7-6.5-12.4 0-10.1 7.3-19.4 21.1-19.4 11.1 0 19.7 7.9 19.7 18.5 0 11-7 19.9-16.6 19.9-3.2 0-6.3-1.7-7.3-3.7 0 0-1.6 6.1-2 7.6-.7 2.8-2.7 6.3-4 8.4-.7 0-1.7-.4-2.1-.6z"></path></svg><svg width="64" height="64" viewBox="0 0 64 64" id="twitter" x="320" y="320"><path fill="#55ACEE" d="M56.2 7.8c10.1 10.1 10.7 38.2 0 48.6-10.4 10-38.2 10.3-48.6 0s-10.1-38.1 0-48.6C18-2.9 46.1-2.3 56.2 7.8"></path><path fill="#FFF" d="M48.1 24.5c.7-.5 1.3-1.1 2-1.8s1.2-1.4 1.6-2.1c-.6.3-1.2.6-1.9.8-.7.2-1.4.3-2.2.4.7-.5 1.3-1.1 1.9-1.8.5-.7 1-1.5 1.3-2.4-.7.4-1.5.7-2.3 1.1-.8.3-1.6.5-2.5.7-1.1-1.3-2.5-2.1-4.1-2.2-1.6-.2-3.2.1-4.7.8-1.5.7-2.6 1.8-3.5 3.2-.9 1.5-1.1 3.2-.6 5.1-3.7-.2-6.7-1.1-9.1-2.6-2.4-1.5-4.5-3.3-6.4-5.3-1.1 1.7-1.3 3.6-.6 5.8s1.6 3.6 2.9 4.3c-.7 0-1.2-.2-1.7-.3-.5-.2-1-.4-1.5-.7.1 2.2.7 3.9 1.7 5 1.1 1.1 2.5 2 4.1 2.6-.5.1-1 .1-1.6.2-.5 0-1.1 0-1.7-.1.5 1.5 1.4 2.7 2.5 3.6 1.1.9 2.6 1.5 4.5 1.6-1.2 1.1-2.9 2-5 2.6s-4.1.8-6 .5c1.6 1.1 3.4 1.9 5.3 2.6 1.9.7 4.2 1 6.8.9 3.1-.1 5.9-.8 8.4-1.9 2.6-1.1 4.7-2.7 6.6-4.7s3.3-4.3 4.3-7c.9-2.7 1.5-5.7 1.5-8.9z"></path></svg><svg width="64" height="64" viewBox="0 0 64 64" id="youtube" x="384" y="384"><path fill="#FC0018" d="M56.2 7.8c10.1 10.1 10.7 38.2 0 48.5-10.4 10.1-38.3 10.3-48.5 0s-10.1-38.1 0-48.5c10.4-10.6 38.4-10.2 48.5 0"></path><path fill="#FFF" d="M53.1 21.4c-.5-1.9-2-3.3-3.9-3.9-3.5-.8-17.2-.8-17.2-.8s-13.5 0-16.9.8c-2 .5-3.6 2-4.3 3.9-.6 3.5-.9 7-.8 10.5-.1 3.5.2 7.1.8 10.5.7 1.9 2.3 3.4 4.3 3.9 3.5.9 16.9.8 16.9.8s13.5 0 16.9-.8c1.9-.5 3.5-2 4.1-3.9.6-3.5 1-7 .9-10.5.2-3.5-.1-7-.8-10.5z"></path><path fill="#FC0018" d="M27.9 38.8l11-6.8-11-6.8z"></path></svg></svg>