<svg xmlns="http://www.w3.org/2000/svg" xmlns:xlink="http://www.w3.org/1999/xlink" width="2539" height="2647" viewBox="0 0 2539 2647"><svg width="64" height="64" viewBox="0 0 64 64" id="assembly" x="0" y="0"><path fill="#2AACE2" d="M10.7 62c-1.2 1.3-2.9 2-4.7 2-1.5 0-2.9-.6-4-1.5-2.5-2.3-2.7-6.3-.4-8.8l.2-.2 37.1-37.4C37.7 12.3 38.7 8 41.6 5l1.8-1.8C47-.2 52.4-1 56.8 1.4l1.5 1.1-7.2 7.2 2.9 3 7.2-7.3L62.4 7c2.4 4.4 1.7 9.8-1.8 13.5l-1.8 1.8c-2.9 2.9-7.2 3.9-11.2 2.7L10.7 62"></path><path fill="#1450A0" d="M62 52.2l-10.7-11c-.5-.5-.8-1.1-1.1-1.7l-.8-2.3c-.5-1.5-1.8-2.7-3.4-3-1.4-.3-2.8.1-3.9.9L21.3 14.2c-.3-1-1.4-4.2-1.8-5.6-.1-.5-.5-.9-.9-1.1C15.9 5.6 6 .1 6 .1L.2 5.8l6.7 11.9c.3.5.7.8 1.2 1l6.3 2.3 20.9 20.9c-.9 1.2-1.1 2.8-.6 4.2l.2.6c.5 1.5 1.8 2.7 3.4 3l1 .2c.9.2 1.7.6 2.3 1.3l10.6 10.6c2.7 2.7 7 2.7 9.7 0s2.8-6.9.1-9.6z"></path></svg><svg width="64" height="64" viewBox="0 0 64 64" id="assembly-off" x="64" y="64"><g fill="none" fill-rule="evenodd"><path fill="#DDD" d="M8.017 61.416c-1.466 0-2.912-.504-4.026-1.526A6.087 6.087 0 0 1 2 55.5a6.08 6.08 0 0 1 1.792-4.466l32.902-32.986c-1.187-4.03-.206-8.235 2.666-11.112l1.803-1.8c3.379-3.387 8.72-4.104 13.283-1.79l1.533 1.12-7.19 7.198 2.929 2.93 7.194-7.205 1.123 1.52c2.355 4.587 1.648 9.96-1.755 13.368l-1.802 1.8c-2.862 2.867-7.043 3.853-11.094 2.67-1.077 1.074-32.72 32.735-32.72 32.735a6.599 6.599 0 0 1-4.648 1.934z"></path><path fill="#BFBFBF" d="M40.055 46.54L16.28 22.888l-6.245-2.317a2.208 2.208 0 0 1-1.147-.979L2.22 7.773l5.728-5.7s9.837 5.494 12.523 7.31c.41.275.712.67.866 1.139.44 1.347 1.494 4.557 1.824 5.56l23.75 23.64"></path><path fill="#BFBFBF" d="M44.67 32.778a4.607 4.607 0 0 1 3.394 2.992l.813 2.322c.224.64.587 1.227 1.064 1.71l10.725 10.941a6.801 6.801 0 0 1-.373 9.883 6.799 6.799 0 0 1-9.283-.296L40.424 49.788a4.629 4.629 0 0 0-2.334-1.25l-1.008-.206a4.624 4.624 0 0 1-3.424-2.973l-.218-.616a4.615 4.615 0 0 1 1.088-4.819l5.922-5.901a4.616 4.616 0 0 1 4.22-1.245"></path></g></svg><svg width="64" height="64" viewBox="0 0 64 64" id="battery" x="128" y="128"><path fill="#2AACE2" d="M43.8 64H20.3c-3.3 0-6-2.7-6-6V14c0-3.3 2.7-6 6-6h23.5c3.3 0 6 2.7 6 6v44c0 3.3-2.8 6-6 6z"></path><path fill="#5E2D91" d="M43 6.1H21V4c0-2.2 1.8-4 4-4h14c2.2 0 4 1.8 4 4v2.1z"></path><path fill="#FED204" d="M29 35.1l-5.8 18.3L41 35.1h-6.2l5.7-11.6H29l-6 11.6z"></path></svg><svg viewBox="0 0 54 64" width="54" height="64" id="book" x="192" y="192"><title>book</title><path d="M10.28 64H4.11A4.06 4.06 0 0 1 0 60V4a4.06 4.06 0 0 1 4.11-4h6.17z" fill="#1450a0"></path><path fill="#2aace2" d="M14.26 62v-2.29H54V0H10.28v64H54v-2H14.26z"></path><path fill="#1450a0" d="M16.45 32.48h31.8v-18h-31.8v18z"></path></svg><svg viewBox="0 0 39 64.1" width="39" height="64.1" id="boy" x="246" y="256"><title>boy</title><path d="M7.3 33.1a22.46 22.46 0 0 0 12.2 3.7 22.64 22.64 0 0 0 12.2-3.5v28.3a2.48 2.48 0 0 1-2.5 2.5H9.7a2.48 2.48 0 0 1-2.5-2.5V33.1z" fill="#1450a0"></path><path d="M39 17c0-8.9-6.6-12-9.4-10.1.3-3.7-4.2-6.9-10.1-6.9C8.9 0 0 8.4 0 17s8.9 4.9 19.5 4.9S39 25.9 39 17" fill="#5f2e8f"></path><path d="M1 17.1v.5a16.36 16.36 0 0 0 .8 5c2.3 6.7 9.4 11.7 17.7 11.7s15.4-4.9 17.7-11.6a17.68 17.68 0 0 0 .8-5.2V17H1z" fill="#f599b8"></path><path d="M16.4 23.6a2.2 2.2 0 1 1-2.2-2.2 2 2 0 0 1 2.2 2.2M28.5 23.6a2.2 2.2 0 1 1-2.2-2.2 2.1 2.1 0 0 1 2.2 2.2" fill="#5f2e8f"></path></svg><svg viewBox="0 0 56 58" width="56" height="58" id="calendar" x="285" y="321"><title>calendar</title><path d="M56 24v30a4 4 0 0 1-4 4H4a4 4 0 0 1-4-4V24z" fill="#2aace2"></path><path d="M46 8h6a4 4 0 0 1 4 4v12H0V12a4 4 0 0 1 4-4h6v6a4 4 0 0 0 8 0V8h20v6a4 4 0 0 0 8 0z" fill="#bed731"></path><path d="M14 0a2 2 0 0 1 2 2v12a2 2 0 0 1-4 0V2a2 2 0 0 1 2-2zM42 0a2 2 0 0 1 2 2v12a2 2 0 0 1-4 0V2a2 2 0 0 1 2-2z" fill="#1450a0"></path></svg><svg width="64" height="64" viewBox="0 0 64 64" id="cash" x="341" y="379"><title>9A57748E-E9CB-4090-9E01-07E8CADC95FD</title><g transform="translate(0 8)" fill="none" fill-rule="evenodd"><path d="M59 36V10a2 2 0 0 0-2-2H9V2a2 2 0 0 1 2-2h51a2 2 0 0 1 2 2v32a2 2 0 0 1-2 2h-3z" fill="#6DA10C"></path><path d="M2 10h53a2 2 0 0 1 2 2v34a2 2 0 0 1-2 2H2a2 2 0 0 1-2-2V12a2 2 0 0 1 2-2z" fill="#BED731"></path><path d="M26.432 37.886a7.777 7.777 0 0 1-3.02-1.407c-.95-.715-1.41-1.858-.808-2.861.602-1.004 1.929-1.335 2.986-.774 2.255 1.197 4.822 1.61 4.917-.223.166-3.2-7.698-1.48-8.41-6.058-.626-4.024 1.923-5.634 3.758-6.206.194-.061.386-.115.575-.163l.024-1.16C26.489 17.898 27.46 17 28.639 17h.065c1.207.035 2.157 1 2.122 2.157l-.008 1.01a7.838 7.838 0 0 1 2.627 1.31c.95.715 1.409 1.857.807 2.86-.601 1.004-1.929 1.335-2.985.774-2.255-1.196-4.604-1.561-4.917.224-.495 2.827 7.275.844 8.5 6.192.837 3.653-2.013 5.5-3.848 6.072l-.185.056.009 1.188c.035 1.157-.915 2.122-2.122 2.156l-.065.001c-1.179 0-2.15-.898-2.185-2.034l-.022-1.08z" fill="#6DA10C"></path></g></svg><svg viewBox="0 0 64 64" width="64" height="64" id="click-collect" x="405" y="443"><path fill="#B986EE" d="M59 41.6l-8-2.1V31c0-1.7-1.3-3-3-3H16c-1.7 0-3 1.3-3 3v28H5V20h.9c1.8 0 3.5-.8 4.7-2 1.2 1.2 2.9 2 4.7 2h1.2c1.8 0 3.5-.8 4.7-2 1.2 1.2 2.9 2 4.7 2h1.2c1.8 0 3.5-.8 4.7-2 1.2 1.2 2.9 2 4.7 2h1.2c1.8 0 3.5-.8 4.7-2 1.2 1.2 2.9 2 4.7 2h1.2c1.8 0 3.5-.8 4.7-2 1.2 1.2 2.9 2 4.7 2H59v21.6z"></path><path fill="#2AACE2" d="M33 30v29H15V32c0-1.1.9-2 2-2h16zm16 9l-7.2-1.9c-.6-.2-1.3-.2-1.9 0-2.1.5-3.3 2.6-2.8 4.7L41.6 59H33V30h14c1.1 0 2 .9 2 2v7z"></path><path fill="#1450A0" d="M2.2 5C1 5 0 6 0 7.2v6.3C0 16 2.1 18 4.7 18h1.2c2.6 0 4.7-2 4.7-4.6 0 2.5 2.1 4.6 4.7 4.6h1.2c2.6 0 4.7-2 4.7-4.6 0 2.5 2.1 4.6 4.7 4.6h1.2c2.6 0 4.7-2 4.7-4.6 0 2.5 2.1 4.6 4.7 4.6h1.2c2.6 0 4.7-2 4.7-4.6 0 2.5 2.1 4.6 4.7 4.6h1.2c2.6 0 4.7-2 4.7-4.6 0 2.5 2.1 4.6 4.7 4.6h1.2c2.6 0 4.7-2 4.7-4.6V7.2C64 6 63 5 61.8 5H2.2zM55.8 49.5l7.8 7.8c.6.6.6 1.5 0 2.1l-4.2 4.2c-.6.6-1.5.6-2.1 0l-7.8-7.8-1.9 5.1c-.4 1-1.4 1.5-2.4 1.1-.6-.2-1-.7-1.2-1.3l-5.1-19.4c-.3-1 .3-2 1.3-2.3.3-.1.6-.1.9 0l19.4 5.1c1 .3 1.6 1.3 1.3 2.3-.2.6-.6 1.1-1.2 1.3l-4.8 1.8z"></path></svg><svg viewBox="0 0 64 64" width="64" height="64" id="credit-card" x="469" y="507"><path fill="#2AACE2" d="M4 8h56c2.2 0 4 1.8 4 4v40c0 2.2-1.8 4-4 4H4c-2.2 0-4-1.8-4-4V12c0-2.2 1.8-4 4-4z"></path><path fill="#1450A0" d="M50 42.5h6c1.1 0 2 .9 2 2v1c0 1.1-.9 2-2 2h-6c-1.1 0-2-.9-2-2v-1c0-1.1.9-2 2-2zM36 42.5h6c1.1 0 2 .9 2 2v1c0 1.1-.9 2-2 2h-6c-1.1 0-2-.9-2-2v-1c0-1.1.9-2 2-2zM22 42.5h6c1.1 0 2 .9 2 2v1c0 1.1-.9 2-2 2h-6c-1.1 0-2-.9-2-2v-1c0-1.1.9-2 2-2zM8 42.5h6c1.1 0 2 .9 2 2v1c0 1.1-.9 2-2 2H8c-1.1 0-2-.9-2-2v-1c0-1.1.9-2 2-2z"></path><path fill="#EBEBEB" d="M0 19h64v10H0z"></path></svg><svg width="64" height="64" viewBox="0 0 64 64" id="delivery" x="533" y="571"><title>delivery</title><path fill="#2AACE2" d="M25.9 53.3l38-10.2-1.5-5.4-38.1 10.2L13.6 8.1l-1.5-5.4-10 2.7C.6 5.8-.3 7.3.1 8.8s1.9 2.4 3.4 2L8 9.6l10.7 39.8.2.7c3-.8 5.9.6 7 3.2"></path><path fill="#1450A0" d="M20.7 58.2c-1.4 0-2.5-1.1-2.6-2.5 0-1.1.7-2.2 1.8-2.5.2-.1.5-.1.7-.1 1.4 0 2.5 1.1 2.5 2.5.1 1.5-1 2.6-2.4 2.6m5.2-4.9c-1.2-2.9-4.6-4.3-7.5-3.1-2.9 1.2-4.3 4.6-3.1 7.5s4.6 4.3 7.5 3.1c2.1-.9 3.5-3 3.5-5.3.1-.7-.1-1.5-.4-2.2"></path><path fill="#FFF" d="M22.7 54.2c-.5-.6-1.2-1-2-1-.3 0-.5 0-.7.1-1.3.4-2.1 1.8-1.7 3.2.4 1.3 1.8 2.1 3.2 1.7 1.1-.3 1.8-1.3 1.8-2.4-.1-.6-.2-1.1-.6-1.6"></path><path fill="#F37023" d="M25.6 45.8l30.6-8.2-8.3-30.8-13 3.5 2 7.2-5.5 1.5-1.9-7.3L17.4 15z"></path><path fill="#FDDB00" d="M34.9 10.3l-5.4 1.4 5.4-1.4z"></path><path fill="#FED204" d="M36.9 17.5l-2-7.2-5.4 1.4 1.9 7.3z"></path></svg><svg width="64" height="64" viewBox="0 0 64 64" id="email" x="597" y="635"><title>CE0E6DFA-CF8A-4A06-9999-4B222BCE4F47</title><g fill="none" fill-rule="evenodd"><path d="M4 8h56a4 4 0 0 1 4 4v40a4 4 0 0 1-4 4H4a4 4 0 0 1-4-4V12a4 4 0 0 1 4-4z" fill="#BED731"></path><path d="M4 8h56.16a4 4 0 0 1 2.584 7.054l-28.08 23.76a4 4 0 0 1-5.167 0l-28.08-23.76A4 4 0 0 1 4 8z" fill="#2AACE2"></path></g></svg><svg width="64" height="64" viewBox="0 0 64 64" id="free-gift" x="661" y="699"><g fill="none" fill-rule="evenodd"><path fill="#FED204" d="M38.298 16H55a4 4 0 0 1 4 4v7h-2v32.765C57 62.104 55.21 64 53 64H11c-2.21 0-4-1.896-4-4.235V27H5v-7a4 4 0 0 1 4-4h16.695c-3.62-1.015-7.901-2.437-9.422-3.833-1.432-1.315-2.24-3.08-2.272-4.972-.032-1.89.715-3.68 2.102-5.038C17.522.766 19.427 0 21.468 0c1.95 0 3.795.709 5.195 1.993 2.008 1.845 4.229 8.274 5.333 11.8 1.106-3.526 3.326-9.955 5.337-11.8C38.735.709 40.579 0 42.528 0c2.043 0 3.948.766 5.37 2.157 1.386 1.357 2.133 3.148 2.101 5.038-.032 1.893-.84 3.657-2.274 4.972-1.521 1.396-5.804 2.818-9.427 3.833zm-2.85-2.437c3.624-.89 8.473-2.334 9.624-3.392a3.792 3.792 0 0 0 1.256-2.747 3.782 3.782 0 0 0-1.16-2.784 4.205 4.205 0 0 0-2.966-1.192 4.236 4.236 0 0 0-2.868 1.102c-1.151 1.058-2.832 5.605-3.886 9.013zM17.666 7.425a3.797 3.797 0 0 0 1.256 2.745c1.151 1.058 6 2.501 9.622 3.391-1.054-3.406-2.733-7.952-3.885-9.01a4.232 4.232 0 0 0-2.869-1.102c-1.127 0-2.18.424-2.962 1.192a3.789 3.789 0 0 0-1.162 2.784z"></path><path fill="#1450A0" d="M34.554 51.945a3.122 3.122 0 1 1-6.243 0 3.122 3.122 0 0 1 6.243 0zm-3.017-5.089a2.899 2.899 0 0 1-2.896-2.814l-.09-3.13c0-1.325 1.058-2.575 2.105-2.91 2.844-.912 5.6-2.779 4.445-4.833-1.155-2.055-3.741-1.52-6.506.487-1.296.94-3.098.701-4.058-.58-.96-1.28-.55-2.923.58-4.058 2.035-2.046 5.172-3.664 9.797-2.763 2.51.489 6.086 2.451 6.086 7.713 0 4.638-3.724 7.452-6.596 8.295l.032 1.61a2.899 2.899 0 0 1-2.9 2.983z"></path></g></svg><svg width="64" height="64" viewBox="0 0 64 64" id="free-gift-off" x="725" y="763"><g fill="none" fill-rule="evenodd"><path fill="#DDD" d="M38.298 16H55a4 4 0 0 1 4 4v7h-2v32.765C57 62.104 55.21 64 53 64H11c-2.21 0-4-1.896-4-4.235V27H5v-7a4 4 0 0 1 4-4h16.695c-3.62-1.015-7.901-2.437-9.422-3.833-1.432-1.315-2.24-3.08-2.272-4.972-.032-1.89.715-3.68 2.102-5.038C17.522.766 19.427 0 21.468 0c1.95 0 3.795.709 5.195 1.993 2.008 1.845 4.229 8.274 5.333 11.8 1.106-3.526 3.326-9.955 5.337-11.8C38.735.709 40.579 0 42.528 0c2.043 0 3.948.766 5.37 2.157 1.386 1.357 2.133 3.148 2.101 5.038-.032 1.893-.84 3.657-2.274 4.972-1.521 1.396-5.804 2.818-9.427 3.833zm-2.85-2.437c3.624-.89 8.473-2.334 9.624-3.392a3.792 3.792 0 0 0 1.256-2.747 3.782 3.782 0 0 0-1.16-2.784 4.205 4.205 0 0 0-2.966-1.192 4.236 4.236 0 0 0-2.868 1.102c-1.151 1.058-2.832 5.605-3.886 9.013zM17.666 7.425a3.797 3.797 0 0 0 1.256 2.745c1.151 1.058 6 2.501 9.622 3.391-1.054-3.406-2.733-7.952-3.885-9.01a4.232 4.232 0 0 0-2.869-1.102c-1.127 0-2.18.424-2.962 1.192a3.789 3.789 0 0 0-1.162 2.784z"></path><path fill="#FFF" d="M34.554 51.945a3.122 3.122 0 1 1-6.243 0 3.122 3.122 0 0 1 6.243 0zm-3.017-5.089a2.899 2.899 0 0 1-2.896-2.814l-.09-3.13c0-1.325 1.058-2.575 2.105-2.91 2.844-.912 5.6-2.779 4.445-4.833-1.155-2.055-3.741-1.52-6.506.487-1.296.94-3.098.701-4.058-.58-.96-1.28-.55-2.923.58-4.058 2.035-2.046 5.172-3.664 9.797-2.763 2.51.489 6.086 2.451 6.086 7.713 0 4.638-3.724 7.452-6.596 8.295l.032 1.61a2.899 2.899 0 0 1-2.9 2.983z"></path></g></svg><svg width="64" height="64" viewBox="0 0 64 64" id="girl" x="789" y="827"><title>girl</title><path fill="#EF5094" d="M55.1 63.5c1.3 0 1.9-1 1.2-2.1L40.9 34.7c-2.8 1.3-5.9 2-9 1.9-3.1 0-6.2-.6-9-1.9L7.5 61.4c-.7 1.2-.1 2.1 1.2 2.1h46.4z"></path><path fill="#F599B8" d="M13.7 17.4v.5c0 1.7.3 3.4.8 5 2.3 6.6 9.2 11.5 17.5 11.5S47.2 29.6 49.5 23c.5-1.6.8-3.4.8-5.1v-.5H13.7z"></path><path fill="#5F2E8F" d="M29 23.7c0 1.2-1 2.2-2.2 2.2s-2.2-1-2.2-2.2 1-2.2 2.2-2.2c1.2 0 2.2 1 2.2 2.2M40.9 23.7c0 1.2-1 2.2-2.2 2.2-1.2 0-2.2-1-2.2-2.2s1-2.2 2.2-2.2c1.2 0 2.2 1 2.2 2.2"></path><path fill="#5F2E8F" d="M62.4 25.2c-2-2.5-6-4.1-7.8-3.8.1-.3.1-.6.2-.9 0-1.8-1.5-3.2-3.2-3.2h-.2C50.9 8.2 42.4.5 32 .5S13.1 8.2 12.8 17.2h-.1c-1.8 0-3.2 1.5-3.2 3.2 0 .3.1.6.2.9-1.8-.3-6 1.3-7.9 3.8C-.5 28 .2 33 .7 33.5c.5.4 6.1.1 8.4-2.8 1.6-2.2 2.3-5 2-7.7.5.4 1.2.6 1.8.6.7 0 1.4-.2 1.9-.6-.5-1.6-.8-3.3-.8-5v-.7h36.5v.7c0 1.6-.3 3.3-.8 4.8.6.5 1.3.7 2 .8.6 0 1.2-.2 1.7-.5-.3 2.7.5 5.4 2 7.6 2.3 2.9 7.9 3.3 8.4 2.8s.9-5.4-1.4-8.3"></path></svg><svg viewBox="0 0 64 64" width="64" height="64" id="heart" x="853" y="891"><path fill="#de004d" d="M31.5 10.7C24.6 3.4 0 2.1 0 25c0 19.7 31.5 34.7 31.5 34.7S63 44.7 63 25C63 2.1 38.4 3.4 31.5 10.7z"></path></svg><svg viewBox="0 0 64 64" width="64" height="64" id="info" x="917" y="955"><path fill="#BED731" d="M29.4 5.9L.4 56.1c-1.2 2 .3 4.5 2.6 4.5h58c2.3 0 3.8-2.5 2.6-4.5l-29-50.2c-1.2-2-4-2-5.2 0z"></path><path fill="#FFF" d="M29.2 38.6c0-1.6 1.2-2.6 2.8-2.6s2.8 1 2.8 2.6V48c0 1.5-1.3 2.6-2.8 2.6s-3-1-3-2.6l.2-9.4zM29 31c0-1.6 1.4-3 3-3s3 1.3 3 3-1.4 3-3 3-3-1.3-3-3"></path></svg><svg viewBox="0 0 64 64" width="64" height="64" id="info-error" x="981" y="1019"><circle fill="#DE004D" cx="32" cy="32" r="32"></circle><path fill="#FFF" d="M29.2 20.6c0-1.6 1.2-2.6 2.8-2.6s2.8 1 2.8 2.6v14.7c0 1.5-1.3 2.6-2.8 2.6s-2.8-1-2.8-2.6V20.6zM29 43c0-1.6 1.4-3 3-3s3 1.3 3 3-1.4 3-3 3-3-1.3-3-3"></path></svg><svg viewBox="0 0 64 64" width="64" height="64" id="info-warning" x="1045" y="1083"><circle fill="#FFCC4D" cx="32" cy="32" r="32"></circle><path d="M29.2 32.2c0-1.6 1.2-2.6 2.8-2.6s2.8 1 2.8 2.6v9.4c0 1.5-1.3 2.6-2.8 2.6s-3-1-3-2.6l.2-9.4zM29 22.9c0-1.6 1.4-3 3-3s3 1.3 3 3-1.4 3-3 3-3-1.3-3-3"></path></svg><svg viewBox="0 0 63.92 64.11" width="63.92" height="64.11" id="mask" x="1109" y="1147"><title>mask</title><path d="M61.42 31.98l-12.4 8.6c-1 .8-2.5 1.7-2.6 5.6-.1 1.6-.6 13-.6 14.5s-.7 5.9-5.6 1.5c0 0-8.2-7.3-9.4-8.4a6.6 6.6 0 0 0-7.5-1.6l-12.9 5.2s-7.8 3.2-4.9-3.9c2.8-6.7 4.7-12.4 5.4-14.2a7.12 7.12 0 0 0-1.2-6.5c-.7-.9-6.9-9.2-8.2-11.2 0 0-5.1-6.1 3.4-5.7 0 0 14.5.3 14.7.4a5.49 5.49 0 0 0 4.9-2.9c2.4-3.8 9.4-12.7 7.9-10.8 1.2-1.6 4.1-5.4 5.9 1 0 0 2.6 8.4 3.9 12 .9 2.4 1.4 4.1 5.7 5.4l13.3 4.9c-.1 0 6 2 .2 6.1" fill="#1450a0"></path></svg><svg viewBox="0 0 48 64" width="48" height="64" id="page" x="1173" y="1212"><title>page</title><path d="M0 15.56L15.56 0H46a2 2 0 0 1 2 2v60a2 2 0 0 1-2 2H2a2 2 0 0 1-2-2z" fill="#ebebeb"></path><path d="M15.56 0v13.56a2 2 0 0 1-2 2H0z" fill="#dbdbdb"></path><path d="M9 26h30a1 1 0 0 0 1-1v-3a1 1 0 0 0-1-1H9a1 1 0 0 0-1 1v3a1 1 0 0 0 1 1zM9 35h18a1 1 0 0 0 1-1v-3a1 1 0 0 0-1-1H9a1 1 0 0 0-1 1v3a1 1 0 0 0 1 1z" fill="#b9b9b9"></path></svg><svg viewBox="0 0 62.42 57.8" width="62.42" height="57.8" id="pay" x="1221" y="1276"><title>pay</title><path d="M58.53 32.07L27 40.73a5.28 5.28 0 0 1-6.5-3.7l-6-21.67a5.31 5.31 0 0 1 3.7-6.51L49.78.19a5.29 5.29 0 0 1 6.5 3.7l5.95 21.68a5.29 5.29 0 0 1-3.7 6.5" fill="#5f2e8f"></path><path d="M48.3 42l-1.72-6.66-10.22 2.58 6.32-6.72a4.26 4.26 0 0 0 .49-5.36 4.35 4.35 0 0 0-4.66-1.7 4.23 4.23 0 0 0-1.43.66L24 34.16c-2.14 1.32-3.71 1.32-4.35-.13l-4.16-15.19-1.49.35a9.56 9.56 0 0 0-5 3.21L.39 33a1.72 1.72 0 0 0-.33 1.54L6 56.66a1.55 1.55 0 0 0 1.9 1.09l4.14-1.08 3-.78A26.74 26.74 0 0 0 28.3 47.8a3.87 3.87 0 0 0 4.37 1.87 3.82 3.82 0 0 0 2.54-2.19A3.87 3.87 0 0 0 39.36 49a3.77 3.77 0 0 0 2.85-3.34 3.86 3.86 0 0 0 3.3.66A3.77 3.77 0 0 0 48.3 42" fill="#f599b8"></path></svg><svg viewBox="0 0 19.3 78" width="19.3" height="78" id="pencil" x="1284" y="1334"><title>pencil</title><path d="M19.3 9.7H0V2.4A2.43 2.43 0 0 1 2.4 0h14.5a2.43 2.43 0 0 1 2.4 2.4z" fill="#ef5094"></path><path d="M3.9 71l5.8 7 5.8-7z" fill="#1450a0"></path><path d="M0 66.3l3.9 4.8h11.5l3.9-4.8z" fill="#ffefb7"></path><path fill="#fed204" d="M0 65.7h19.3V12.5H0v53.2z"></path></svg><svg viewBox="0 0 64 64" width="64" height="64" id="pencil-big" x="1304" y="1412"><path d="M17.7 56.3L15 48.5l-7.4-2.4-1.3-6.3-6.2-1.3v15.2l10.1 10.1h15.2l-1.2-6.2-6.5-1.3z" fill="#fed204"></path><path d="M.1 53.8v10.1h10.1C10.1 63.9.1 53.8.1 53.8z" fill="#1450a0"></path><path d="M0 38.6l6.3 1.3 1.3 6.3 7.4 2.4 2.7 7.8 6.4 1.3 1.2 6.2v.1l30.1-30.1L30.2 8.5 0 38.6z" fill="#e67700"></path><path d="M63 21.2L42.9 1c-1.4-1.4-3.6-1.4-5 0l-6.1 6.1L57 32.4l6.1-6.1c1.3-1.4 1.2-3.6-.1-5.1" fill="#ef5094"></path></svg><svg width="64" height="64" viewBox="0 0 64 64" id="phone" x="1368" y="1476"><title>5604BF93-340C-4E3B-95E7-3810C90424C3</title><g fill="none" fill-rule="evenodd"><path d="M50.461 19.308c0-4.923-4.922-4.923-18.461-4.923-13.538 0-18.461 0-18.461 4.923v1.28c0 1.23 0 2.461-2.462 2.461H2.462C0 23.05 0 21.82 0 20.587v-1.28C0 7 12.308 7 32 7c18.461 0 32 0 32 12.308v1.28c0 1.23 0 2.461-2.461 2.461h-8.616c-2.461 0-2.461-1.23-2.46-2.462v-1.28z" fill="#1450A0"></path><path d="M43.077 17.65c1.23 0 2.462 0 3.692 2.462 8.615 22.154 8.615 22.154 8.615 27.077v4.923c0 3.692-1.23 4.923-3.692 4.923H12.308c-2.461 0-3.692-1.231-3.692-4.923v-4.923c0-4.923 0-4.923 8.615-27.077 1.23-2.462 2.461-2.462 3.692-2.462h22.154zM32 39.804c6.154 0 11.077-3.692 11.077-8.616 0-4.923-4.923-8.615-11.077-8.615s-11.077 3.692-11.077 8.615c0 4.924 4.923 8.616 11.077 8.616z" fill="#B986EE"></path><path d="M32 26.266c-4.923 0-7.385 2.461-7.385 4.923 0 2.461 2.462 4.922 7.385 4.922s7.385-2.461 7.385-4.922c0-2.462-2.462-4.923-7.385-4.923" fill="#BED731"></path></g></svg><svg viewBox="0 0 63.92 64.11" width="63.92" height="64.11" id="pin" x="1432" y="1540"><title>mask</title><path d="M31.853.055c-28.104 0-35.402 40.085 0 64 35.945-24.595 28.103-64 0-64zm.107 13.452A10.792 10.803 0 0 1 42.752 24.31 10.792 10.803 0 0 1 31.96 35.112 10.792 10.803 0 0 1 21.169 24.31a10.792 10.803 0 0 1 10.79-10.803z" fill="#de004d"></path></svg><svg width="64" height="64" viewBox="0 0 64 64" id="present" x="1496" y="1605"><path fill="#33ade0" d="M57 28v31.8c0 2.3-1.8 4.2-4 4.2H11c-2.2 0-4-1.9-4-4.2V28h50z"></path><path fill="#bed742" d="M59 20v6H5v-6c0-2.2 1.8-4 4-4h46c2.2 0 4 1.8 4 4z"></path><path fill="#33ade0" d="M47.9 2.2C46.5.8 44.6 0 42.5 0c-1.9 0-3.8.7-5.2 2-2 1.8-4.2 8.3-5.3 11.8-1.1-3.5-3.3-10-5.3-11.8-1.4-1.3-3.2-2-5.2-2s-3.9.8-5.4 2.2c-1.4 1.4-2.1 3.1-2.1 5s.8 3.7 2.3 5c1.5 1.4 5.8 2.8 9.4 3.8h12.6c3.6-1 7.9-2.4 9.4-3.8 1.4-1.3 2.2-3.1 2.3-5 0-1.9-.7-3.7-2.1-5zm-28.8 7.9c-1-.7-1.4-1.6-1.4-2.7 0-1 .4-2 1.2-2.8.8-.8 1.8-1.2 3-1.2 1.1 0 2.1.4 2.9 1.1 1.2 1.1 2.8 5.6 3.9 9-3.6-.9-8.5-2.3-9.6-3.4zm26 .1c-1.2 1-6 2.5-9.7 3.4 1.1-3.4 2.7-8 3.9-9 .8-.7 1.8-1.1 2.9-1.1 1.1 0 2.2.4 3 1.2s1.2 1.7 1.2 2.8c0 1-.5 2-1.3 2.7z"></path><path fill="#fdd130" d="M40.3 45.9s-3.4 2.3-3.5 2.4c-.3.2-.7.5-.7 1.6 0 .5-.2 3.6-.2 4s-.2 1.6-1.6.4c0 0-2.3-2-2.7-2.3-.1-.1-.9-1-2.1-.4L26 52.9s-2.2.9-1.4-1.1c.8-1.9 1.3-3.5 1.5-4s.1-1.3-.3-1.8c-.2-.2-1.9-2.5-2.3-3.1 0 0-1.4-1.7.9-1.6l4.1.1c.1 0 .8.1 1.4-.8.7-1.1 2.6-3.5 2.2-3 .3-.4 1.1-1.5 1.7.3 0 0 .7 2.3 1.1 3.3.2.7.4 1.1 1.6 1.5l3.7 1.3c0 .2 1.7.7.1 1.9"></path></svg><svg width="64" height="64" viewBox="0 0 64 64" id="present-off" x="1560" y="1669"><path fill="#DDD" d="M57 28v31.8c0 2.3-1.8 4.2-4 4.2H11c-2.2 0-4-1.9-4-4.2V28h50z"></path><path fill="#BFBFBF" d="M59 20v6H5v-6c0-2.2 1.8-4 4-4h46c2.2 0 4 1.8 4 4z"></path><path fill="#DDD" d="M47.9 2.2C46.5.8 44.6 0 42.5 0c-1.9 0-3.8.7-5.2 2-2 1.8-4.2 8.3-5.3 11.8-1.1-3.5-3.3-10-5.3-11.8-1.4-1.3-3.2-2-5.2-2s-3.9.8-5.4 2.2c-1.4 1.4-2.1 3.1-2.1 5s.8 3.7 2.3 5c1.5 1.4 5.8 2.8 9.4 3.8h12.6c3.6-1 7.9-2.4 9.4-3.8 1.4-1.3 2.2-3.1 2.3-5 0-1.9-.7-3.7-2.1-5zm-28.8 7.9c-1-.7-1.4-1.6-1.4-2.7 0-1 .4-2 1.2-2.8.8-.8 1.8-1.2 3-1.2 1.1 0 2.1.4 2.9 1.1 1.2 1.1 2.8 5.6 3.9 9-3.6-.9-8.5-2.3-9.6-3.4zm26 .1c-1.2 1-6 2.5-9.7 3.4 1.1-3.4 2.7-8 3.9-9 .8-.7 1.8-1.1 2.9-1.1 1.1 0 2.2.4 3 1.2s1.2 1.7 1.2 2.8c0 1-.5 2-1.3 2.7z"></path><path fill="#FFF" d="M40.3 45.9s-3.4 2.3-3.5 2.4c-.3.2-.7.5-.7 1.6 0 .5-.2 3.6-.2 4s-.2 1.6-1.6.4c0 0-2.3-2-2.7-2.3-.1-.1-.9-1-2.1-.4L26 52.9s-2.2.9-1.4-1.1c.8-1.9 1.3-3.5 1.5-4s.1-1.3-.3-1.8c-.2-.2-1.9-2.5-2.3-3.1 0 0-1.4-1.7.9-1.6l4.1.1c.1 0 .8.1 1.4-.8.7-1.1 2.6-3.5 2.2-3 .3-.4 1.1-1.5 1.7.3 0 0 .7 2.3 1.1 3.3.2.7.4 1.1 1.6 1.5l3.7 1.3c0 .2 1.7.7.1 1.9"></path></svg><svg width="64" height="64" viewBox="0 0 64 64" id="present-purple" x="1624" y="1733"><path fill="#B986EE" d="M57 28v31.8c0 2.3-1.8 4.2-4 4.2H11c-2.2 0-4-1.9-4-4.2V28h50z"></path><path fill="#2AACE2" d="M59 20v6H5v-6c0-2.2 1.8-4 4-4h46c2.2 0 4 1.8 4 4z"></path><path fill="#1450A0" d="M47.9 2.2C46.5.8 44.6 0 42.5 0c-1.9 0-3.8.7-5.2 2-2 1.8-4.2 8.3-5.3 11.8-1.1-3.5-3.3-10-5.3-11.8-1.4-1.3-3.2-2-5.2-2s-3.9.8-5.4 2.2c-1.4 1.4-2.1 3.1-2.1 5s.8 3.7 2.3 5c1.5 1.4 5.8 2.8 9.4 3.8h12.6c3.6-1 7.9-2.4 9.4-3.8 1.4-1.3 2.2-3.1 2.3-5 0-1.9-.7-3.7-2.1-5zm-28.8 7.9c-1-.7-1.4-1.6-1.4-2.7 0-1 .4-2 1.2-2.8.8-.8 1.8-1.2 3-1.2 1.1 0 2.1.4 2.9 1.1 1.2 1.1 2.8 5.6 3.9 9-3.6-.9-8.5-2.3-9.6-3.4zm26 .1c-1.2 1-6 2.5-9.7 3.4 1.1-3.4 2.7-8 3.9-9 .8-.7 1.8-1.1 2.9-1.1 1.1 0 2.2.4 3 1.2s1.2 1.7 1.2 2.8c0 1-.5 2-1.3 2.7zM40.3 45.9s-3.4 2.3-3.5 2.4c-.3.2-.7.5-.7 1.6 0 .5-.2 3.6-.2 4s-.2 1.6-1.6.4c0 0-2.3-2-2.7-2.3-.1-.1-.9-1-2.1-.4L26 52.9s-2.2.9-1.4-1.1c.8-1.9 1.3-3.5 1.5-4s.1-1.3-.3-1.8c-.2-.2-1.9-2.5-2.3-3.1 0 0-1.4-1.7.9-1.6l4.1.1c.1 0 .8.1 1.4-.8.7-1.1 2.6-3.5 2.2-3 .3-.4 1.1-1.5 1.7.3 0 0 .7 2.3 1.1 3.3.2.7.4 1.1 1.6 1.5l3.7 1.3c0 .2 1.7.7.1 1.9"></path></svg><svg viewBox="0 0 64 64" width="64" height="64" id="printer" x="1688" y="1797"><path fill="#DDD" d="M14 40c0-.5.4-1.1 1.1-1.1H48c1.1 0 2 .9 2 2V62c0 1.1-.9 2-2 2H16c-1.1 0-2-.9-2-2V40z"></path><path fill="#B9B9B9" d="M18.9 60c-.5 0-.9-.4-.9-1.1v-1.1c0-.5.4-1.1.9-1.1h26.3c.5 0 .9.4.9 1.1v1.1c0 .5-.4 1.1-.9 1.1H18.9zM34.8 53.1c-.4 0-.8-.4-.8-1.1v-1.1c0-.5.4-1.1.8-1.1h10.5c.4 0 .8.4.8 1.1V52c0 .5-.4 1.1-.8 1.1H34.8zM34.8 46c-.4 0-.8-.4-.8-1.1V44c0-.5.4-1.1.8-1.1h10.5c.4 0 .8.4.8 1.1v1.1c0 .5-.4 1.1-.8 1.1H34.8V46z"></path><path fill="#DDD" d="M49.1 8c.5 0 1.1.4 1.1 1.1v8h-36v-16c0-.5.4-1.1 1.1-1.1h26c.5 0 1.1.4 1.1 1.1v4c0 1.6 1.3 3.1 3.1 3.1h3.7V8z"></path><path fill="#B9B9B9" d="M41.7.3l8 8c.4.4.4 1.1 0 1.5-.1.1-.4.3-.7.3h-6.9C40.9 10 40 9.1 40 8V1.1c0-.7.4-1.1 1.1-1.1.2 0 .4.1.6.3z"></path><path fill="#B986EE" d="M52 49.1V40c0-1.6-1.3-3.1-3.1-3.1H15.1c-1.8.2-3.1 1.5-3.1 3.1v9.1H4c-2.3 0-4-1.7-4-4v-22c0-2.3 1.7-4 4-4h56c2.3 0 4 1.7 4 4v22c0 2.3-1.7 4-4 4h-8z"></path><circle fill="#BED731" cx="10" cy="27.1" r="2"></circle><circle fill="#FED204" cx="16" cy="27.1" r="2"></circle></svg><svg width="64" height="64" viewBox="0 0 64 64" id="returns" x="1752" y="1861"><path fill="#45CAB9" d="M32.17 12.072c13.177.091 23.83 10.801 23.83 24 0 13.254-10.745 24-24 24s-24-10.746-24-24a3 3 0 0 1 6 0c0 9.94 8.059 18 18 18s18-8.06 18-18c0-9.885-7.966-17.908-17.828-18l1.95 1.95a3 3 0 1 1-4.243 4.242l-7.071-7.071a3 3 0 0 1 0-4.243l7.07-7.072a3 3 0 1 1 4.243 4.243l-1.95 1.95z"></path></svg><svg width="64" height="64" viewBox="0 0 64 64" id="secure" x="1816" y="1925"><path d="M31.303.046c0 25.167.015 46.478.046 63.93 0 .188.25.032.372 0C47.008 60.156 59.07 43.62 59.07 24.559c0-5.5-.773-11.024-2.256-15.837a.759.759 0 0 0-.488-.488L31.767.046A.67.67 0 0 0 31.535 0a.86.86 0 0 0-.232.046z" fill-rule="evenodd" fill="#2aace2"></path><path d="M31.767.046c0 25.167-.015 46.478-.046 63.93 0 .188-.25.032-.372 0C16.062 60.156 4 43.62 4 24.559c0-5.5.773-11.024 2.256-15.837a.759.759 0 0 1 .488-.488L31.303.046A.67.67 0 0 1 31.535 0a.86.86 0 0 1 .232.046z" fill="#1450a0" fill-rule="evenodd"></path></svg><svg viewBox="0 0 64 48" width="64" height="48" id="size-guide" x="1880" y="1989"><title>size-guide</title><path d="M24 0a24 24 0 0 1 24 24v20a4 4 0 0 1-4 4H24A24 24 0 0 1 0 24 24 24 0 0 1 24 0z" fill="#2aace2"></path><circle cx="24" cy="24" r="16" fill="#fff"></circle><circle cx="24" cy="24" r="12" fill="#fed204"></circle><path d="M64 44v4h-5v-4H48v-5h16z" fill="#1450a0"></path></svg><svg viewBox="0 0 64 64" width="64" height="64" id="store" x="1944" y="2037"><path fill="#2AACE2" d="M33 30v29H15V32c0-1.1.9-2 2-2h16zm0 0h14c1.1 0 2 .9 2 2v27H33V30z"></path><path fill="#1450A0" d="M2.2 5C1 5 0 6 0 7.2v6.3C0 16 2.1 18 4.7 18h1.2c2.6 0 4.7-2 4.7-4.6 0 2.5 2.1 4.6 4.7 4.6h1.2c2.6 0 4.7-2 4.7-4.6 0 2.5 2.1 4.6 4.7 4.6h1.2c2.6 0 4.7-2 4.7-4.6 0 2.5 2.1 4.6 4.7 4.6h1.2c2.6 0 4.7-2 4.7-4.6 0 2.5 2.1 4.6 4.7 4.6h1.2c2.6 0 4.7-2 4.7-4.6 0 2.5 2.1 4.6 4.7 4.6h1.2c2.6 0 4.7-2 4.7-4.6V7.2C64 6 63 5 61.8 5H2.2z"></path><path fill="#B986EE" d="M59 20v39h-8V31c0-1.7-1.3-3-3-3H16c-1.7 0-3 1.3-3 3v28H5V20h.9c1.8 0 3.5-.8 4.7-2 1.2 1.2 2.9 2 4.7 2h1.2c1.8 0 3.5-.8 4.7-2 1.2 1.2 2.9 2 4.7 2h1.2c1.8 0 3.5-.8 4.7-2 1.2 1.2 2.9 2 4.7 2h1.2c1.8 0 3.5-.8 4.7-2 1.2 1.2 2.9 2 4.7 2h1.2c1.8 0 3.5-.8 4.7-2 1.2 1.2 2.9 2 4.7 2H59z"></path></svg><svg viewBox="0 0 64 64" width="64" height="64" id="success" x="2008" y="2101"><circle fill="#BED731" cx="32" cy="32" r="32"></circle><path fill="#FFF" d="M21.2 29.6c-1.2-1.2-3.2-1.2-4.4 0-1.2 1.2-1.2 3.2 0 4.4l8.7 8.7c1.2 1.2 3.2 1.2 4.4 0L47 25.6c1.2-1.2 1.2-3.2 0-4.4-1.2-1.2-3.2-1.2-4.4 0L27.9 36.1l-6.7-6.5z"></path></svg><svg width="64" height="64" viewBox="0 0 64 64" id="surprise" x="2072" y="2165"><path fill="#5E2D91" d="M64 15.5C64 9 58.7 3.8 52.2 3.8c-4.3 0-8.1 2.3-10.2 5.8-3.1-1.3-6.5-2-10.1-2s-7 .7-10.1 2c-2-3.5-5.8-5.8-10.2-5.8C5.3 3.8 0 9 0 15.5c0 4.7 2.8 8.8 6.8 10.7-.7 2.4-1.1 5-1.1 7.7 0 14.5 11.8 26.3 26.3 26.3s26.3-11.8 26.3-26.3c0-2.7-.4-5.3-1.1-7.7 4-1.9 6.8-5.9 6.8-10.7z"></path><path fill="#FFF" d="M31.7 41.4c-1.8 0-3.2-1.4-3.2-3.2v-4.3c0-1.4.9-2.6 2.1-3 3.2-1.1 5-2.8 5-4.6 0-1.3-.9-2.5-2.2-3-1.4-.5-3 .2-4.4 2-1.1 1.4-3.1 1.6-4.5.5s-1.6-3.1-.5-4.5c3.2-4 7.5-5.6 11.6-4.1 3.8 1.3 6.5 5 6.5 9 0 2-.7 6.7-7.1 9.8v2.1c-.1 1.9-1.5 3.3-3.3 3.3z"></path><circle fill="#FFF" cx="31.5" cy="46.8" r="3.2"></circle></svg><svg viewBox="0 0 47.51 63.67" width="47.51" height="63.67" id="tag" x="2136" y="2229"><title>tag</title><path d="M31.67 4.29h-4v5.48a5.94 5.94 0 1 1-7.92 0V4.29h-4L0 20.12v39.6a4 4 0 0 0 3.95 4h39.6a4 4 0 0 0 4-4v-39.6z" fill="#de004d"></path><path d="M23.75 0a1.94 1.94 0 0 0-1.94 1.94v13.57a1.94 1.94 0 1 0 3.88 0V1.94A1.94 1.94 0 0 0 23.75 0" fill="#1450a0"></path></svg><svg viewBox="0 0 49.71 48.48" width="49.71" height="48.48" id="thumbs-down" x="2184" y="2293"><title>thumbs-down</title><path d="M13.32 5.93v20.81a1.54 1.54 0 0 1-1.54 1.54H1.54A1.54 1.54 0 0 1 0 26.74V5.93a1.54 1.54 0 0 1 1.54-1.54h10.24a1.54 1.54 0 0 1 1.54 1.54" fill="#2aace2"></path><path d="M14.89 26.87V6.09c0-.93.24-.77 1.19-1.12 4.85-1.83 9.7-3.69 14.86-4.44 5.4-.78 14.05-1.77 14.93 5.65.25 2.11 1.71 3.78 1.89 5.87a16.85 16.85 0 0 0 .63 4.57 10.26 10.26 0 0 1 .61 2.22 9.61 9.61 0 0 1-.29 2.52 2.64 2.64 0 0 0 .29 1.4 7.23 7.23 0 0 1 .41 4.89c-.93 3.18-3.61 4.1-6.59 4.25-1.36.06-2.73.06-4.09.11-.49 0-2.73-.12-3 .52-.16.36.44 1.15.6 1.47a14.67 14.67 0 0 1 1 2.3 14.25 14.25 0 0 1 .6 4.9c-.13 3.66-1.73 6.64-5.63 7.2-1.52.23-3.18.06-4-1.41a14.89 14.89 0 0 1-1.12-4.48 20.25 20.25 0 0 0-4.77-9.17 24.41 24.41 0 0 0-7.54-6.47" fill="#f599b8"></path></svg><svg viewBox="0 0 49.71 48.48" width="49.71" height="48.48" id="thumbs-up" x="2234" y="2342"><title>thumbs-up</title><path d="M13.32 42.56V21.74a1.54 1.54 0 0 0-1.54-1.54H1.54A1.54 1.54 0 0 0 0 21.74v20.82a1.54 1.54 0 0 0 1.54 1.54h10.24a1.54 1.54 0 0 0 1.54-1.54" fill="#2aace2"></path><path d="M14.89 21.62V42.4c0 .93.24.76 1.19 1.12 4.85 1.83 9.7 3.68 14.86 4.43 5.4.78 14.05 1.78 14.93-5.65.25-2.11 1.71-3.78 1.89-5.86a16.8 16.8 0 0 1 .63-4.57 10.18 10.18 0 0 0 .61-2.23 9.65 9.65 0 0 0-.29-2.52 2.59 2.59 0 0 1 .29-1.39 7.24 7.24 0 0 0 .41-4.89c-.93-3.18-3.61-4.11-6.59-4.25-1.36-.07-2.73-.07-4.09-.12-.49 0-2.73.12-3-.51-.16-.37.44-1.15.6-1.47a15.2 15.2 0 0 0 1-2.31 14.2 14.2 0 0 0 .6-4.89C37.8 3.62 36.2.65 32.3.08c-1.52-.22-3.18-.06-4 1.41A15 15 0 0 0 27.2 6a20.26 20.26 0 0 1-4.77 9.16 24.31 24.31 0 0 1-7.54 6.48" fill="#f599b8"></path></svg><svg viewBox="0 0 62.69 63.4" width="62.69" height="63.4" id="user" x="2284" y="2391"><title>user</title><path d="M47.54 31.37a.86.86 0 0 1 .07-.1c.21-.34.42-.68.61-1l.15-.27c.17-.32.32-.65.47-1a3.79 3.79 0 0 0 .18-.42c.13-.3.25-.6.36-.91s.13-.39.19-.58.18-.56.25-.85.12-.49.17-.75.12-.49.16-.74.1-.65.14-1 .05-.39.07-.59c0-.53.07-1.08.07-1.62v-1.08a22.47 22.47 0 0 1-18.65-15 14.5 14.5 0 0 0-6.28 3.76l-.18.19c-.24.24-.47.5-.69.76-.08.09-.15.19-.23.29-.21.25-.41.51-.6.77l-.24.36a17.91 17.91 0 0 0-1.43 2.58c-.11.25-.22.48-.31.73s-.16.42-.23.63-.18.53-.26.81-.12.41-.18.62-.14.59-.2.89l-.12.6c-.06.34-.1.68-.14 1l-.06.52c0 .52-.07 1-.07 1.57 0 .54 0 1.09.07 1.62 0 .2.05.39.08.59s.08.66.13 1 .1.5.16.74.11.51.17.76.16.56.25.83.12.4.19.59.23.61.36.9l.18.44c.15.32.31.64.47 1l.16.29c.19.34.38.68.59 1l.11.15c.23.36.47.7.73 1a14.33 14.33 0 0 0 11.31 5.77 14.33 14.33 0 0 0 11.31-5.77c.27-.35.52-.7.76-1.07" fill="#f599b8"></path><path d="M35.47 0C24.79 0 16.13 9.65 16.13 21.55a23.39 23.39 0 0 0 2.67 10.89h5.36c-.26-.34-.5-.68-.73-1l-.11-.15c-.21-.32-.4-.66-.59-1l-.16-.29c-.17-.32-.32-.63-.47-1-.06-.14-.12-.29-.19-.44s-.24-.59-.35-.9-.13-.39-.19-.59-.18-.55-.25-.83-.12-.51-.17-.76-.11-.49-.16-.74-.09-.65-.13-1-.06-.39-.08-.59c0-.53-.07-1.07-.07-1.62 0-.53 0-1.05.07-1.57l.06-.52c0-.34.08-.68.14-1l.12-.6c.06-.3.13-.59.2-.89s.11-.42.18-.63.17-.53.26-.8.14-.42.23-.63.2-.48.31-.73a17.91 17.91 0 0 1 1.43-2.58l.24-.36c.19-.27.39-.52.6-.77.08-.1.15-.2.23-.29.22-.26.45-.52.69-.76l.18-.19a13.84 13.84 0 0 1 1.29-1.14l.26-.25c.39-.29.79-.57 1.21-.83l.2-.13a14.17 14.17 0 0 1 3.29-1.44 22.46 22.46 0 0 0 18.68 15.05v1.08c0 .55 0 1.09-.07 1.62 0 .2 0 .39-.07.59s-.08.66-.14 1-.1.5-.16.75-.1.5-.17.74-.16.57-.25.85-.12.39-.19.58-.23.61-.36.91c-.05.14-.12.28-.18.42-.15.33-.31.66-.47 1l-.15.27c-.19.35-.39.69-.61 1l-.07.11c-.24.37-.49.72-.76 1.07h5.36a23.27 23.27 0 0 0 2.67-10.89C54.81 9.65 46.15 0 35.47 0" fill="#5f2e8f"></path><path d="M40.68 28.12a6.52 6.52 0 0 1-10.42 0 .724.724 0 0 0-1.18.84 8 8 0 0 0 12.78 0 .724.724 0 0 0-1.18-.84" fill="#5f2e8f"></path><path d="M62.57 57.2A30.42 30.42 0 0 0 46.5 37a16.79 16.79 0 0 1-11 4.2 17.19 17.19 0 0 1-13.3-6.55C11.12 37.79 2.57 46.43.2 57.22a5.09 5.09 0 0 0 5 6.22h52.4a5.1 5.1 0 0 0 5-6.2" fill="#2aace2"></path></svg><svg width="64" height="64" viewBox="0 0 64 64" id="warning" x="2347" y="2455"><path fill="#FFCC4D" d="M3.9 60C.6 60-.9 57.9.6 55.1L29.2 5.9c1.6-2.6 4.1-2.6 5.6 0L63.3 55c1.6 2.6.1 4.9-3.3 4.9.1.1-56.1.1-56.1.1z"></path><path fill="#231F20" d="M29.2 24.6c0-1.6 1.2-2.6 2.8-2.6 1.6 0 2.8 1 2.8 2.6v14.7c0 1.5-1.3 2.6-2.8 2.6s-2.8-1-2.8-2.6V24.6zM29 47c0-1.6 1.4-3 3-3s3 1.3 3 3-1.4 3-3 3-3-1.3-3-3"></path></svg><svg width="64" height="64" viewBox="0 0 64 64" id="warranty" x="2411" y="2519"><path d="M32 0a.86.86 0 0 0-.232.046L7.208 8.233a.759.759 0 0 0-.487.488c-1.484 4.813-2.256 10.336-2.256 15.837 0 19.062 12.062 35.597 27.349 39.419a.75.75 0 0 0 .372 0c15.287-3.822 27.349-20.358 27.349-39.42 0-5.5-.773-11.023-2.256-15.836a.759.759 0 0 0-.488-.488L32.232.046A.67.67 0 0 0 32 0" fill="#bed731" fill-rule="evenodd"></path><path d="M29.426 34.576h-8.965a2.46 2.46 0 1 1 0-4.921h9.193v-9.194a2.46 2.46 0 1 1 4.921 0v8.964h8.964a2.46 2.46 0 1 1 0 4.921h-9.193v9.193a2.46 2.46 0 1 1-4.921 0v-8.964z" fill="#fff"></path></svg><svg width="64" height="64" viewBox="0 0 64 64" id="warranty-off" x="2475" y="2583"><path d="M32 0a.86.86 0 0 0-.232.046L7.208 8.233a.759.759 0 0 0-.487.488c-1.484 4.813-2.256 10.336-2.256 15.837 0 19.062 12.062 35.597 27.349 39.419a.75.75 0 0 0 .372 0c15.287-3.822 27.349-20.358 27.349-39.42 0-5.5-.773-11.023-2.256-15.836a.759.759 0 0 0-.488-.488L32.232.046A.67.67 0 0 0 32 0" fill="#ddd" fill-rule="evenodd"></path><path d="M29.426 34.576h-8.965a2.46 2.46 0 1 1 0-4.921h9.193v-9.194a2.46 2.46 0 1 1 4.921 0v8.964h8.964a2.46 2.46 0 1 1 0 4.921h-9.193v9.193a2.46 2.46 0 1 1-4.921 0v-8.964z" fill="#fff"></path></svg></svg>