<?xml version="1.0" encoding="utf-8"?>
<svg width="64px" height="64px" viewBox="0 0 64 64" version="1.1" xmlns="http://www.w3.org/2000/svg" xmlns:xlink="http://www.w3.org/1999/xlink">
<path fill="#45CAB9" d="M64,19.6c0-5.9-4.9-10.7-10.9-10.7c-1.3,0-2.6,0.3-3.8,0.7C47.4,4,42.2,0,36,0c-3.9,0-7.4,1.6-10,4.1
	c-1.9-1.7-4.4-2.7-7.2-2.7c-6,0-10.9,4.8-10.9,10.7c0,1,0.2,1.9,0.4,2.7C3.7,15.2,0,19.5,0,24.9c0,4.6,2.7,8.4,6.3,9.7
	c-2.5,1.4-4.2,3.9-4.2,7c0,4.5,3.7,8.2,8.3,8.2c0.3,0,0.5-0.1,0.8-0.2c-0.1,0.4-0.2,0.9-0.2,1.3c0,7.2,6.3,13,14.2,13
	c5,0,9.4-2.4,11.9-6.1c1.5,1.9,3.9,3.2,6.7,3.2c4.6,0,8.3-3.4,8.3-7.5c0-0.4-0.2-0.8-0.3-1.2c5.9-1.4,10.3-6.9,10.3-13.6
	c0-3.9-1.5-7.3-3.9-9.9C61.6,27.2,64,23.7,64,19.6"/>
</svg>
