<?xml version="1.0" encoding="utf-8"?>
<svg width="64px" height="64px" viewBox="0 0 64 64" version="1.1" xmlns="http://www.w3.org/2000/svg" xmlns:xlink="http://www.w3.org/1999/xlink">
<path fill="#B986EE" d="M30.3,64c-3.5,0-28.8,0-30.3-29.3C-1.1,10.8,15.8-0.8,31.4,0C47.5,0.9,64.8,12.5,64,34.8
	c-0.2,5.2-1.5,6.9-3.4,6.9c-1.9,0-3.4-1.6-3.4-3.5C58.2,17.8,44.3,7,31.4,7C20.1,7,6.8,14.3,6.8,34.7c0,20.7,18,22.3,23.5,22.3h0
	c3.6,0,7.5-1.9,10.3-5.2c2.8-3.2,5.9-9,4.9-19.1c-0.8-8.5-6.6-12.6-11.8-13.6C29,18.3,23.1,19.8,20.6,25c-2.7,5.8-2.8,12-0.1,16.2
	c1.8,2.8,4.7,4.3,8.1,4c3.6-0.2,5.8-2,6.6-5.2c0.9-3.7-0.4-7.2-1.2-7.8c-1.7-0.7-3.2-0.7-3.7,0c-0.4,0.5-0.5,1.5,0.1,2.6
	c0.9,1.7,0.4,3.8-1.2,4.7c-1.6,1-3.7,0.4-4.6-1.3c-2-3.5-1.5-7.5,0.6-10.6c2.7-3.9,6.7-3.8,11.3-2c4.5,1.8,6.3,6.4,5.6,14.3
	c-0.7,7.1-5,11.9-13,12.1c-5.8,0.1-10.9-2.2-14.1-7.1c-4-6.2-5.6-13.6-0.3-23.1c3.9-7.1,11.7-11.2,20.4-9.6
	c9.5,1.8,16.3,9.5,17.3,19.7c1.2,12.6-1.6,16.9-5.5,23.3C43.5,60.7,35.8,64,30.3,64"/>
</svg>
