<?xml version="1.0" encoding="utf-8"?>
<svg width="64px" height="64px" viewBox="0 0 64 64" version="1.1" xmlns="http://www.w3.org/2000/svg" xmlns:xlink="http://www.w3.org/1999/xlink">
<path fill="#F599B8" d="M55.3,36.6l-0.9,1.8C55,37.9,55.8,37.6,55.3,36.6z M11.9,36.6l-0.5,1.4l0.2,0.1l1-0.7L11.9,36.6L11.9,36.6z
	 M10.3,45.6L10,45.9l1.4,1.4l0.3-0.3C11.8,46,10.6,46.2,10.3,45.6L10.3,45.6z M21.8,51.8l0.1-0.3c-0.6-0.1-1.1-0.2-1.7-0.2
	c-0.1,0-0.3,0.2-0.4,0.3c0.1,0.1,0.3,0.3,0.5,0.3C20.8,51.9,21.3,51.9,21.8,51.8L21.8,51.8z M14.5,13.9c-1.1,0.2-1.9,1.2-1.7,2.3
	L14.5,13.9z M7.4,45.8l0.3-0.1c-0.5-1,0.2-2.2-0.9-3.1l-0.2,0.1L7.4,45.8L7.4,45.8z M7.7,40.2c0.7-1.1,0.5-1.7-0.6-2.3L7.7,40.2z
	 M22.5,18.3l3.3-2.2C24.4,16.2,23.2,17,22.5,18.3z M9.8,33.3L9.6,36C10.9,34.5,10.9,35.1,9.8,33.3z M43.8,48.5
	c2,0.3,2.2,0.4,2.2-1.6L43.8,48.5z M21.9,24.9l3.3-2.3c-0.7,0.2-1.5,0.4-2.2,0.6C22,23.5,21.9,24.1,21.9,24.9L21.9,24.9z M13.5,48.3
	l4,0.7l0.1-0.3c-0.2-0.1-0.5-0.3-0.8-0.3c-0.8-0.3-1.7-0.5-2.5-0.8C13.8,47.3,13.6,47.5,13.5,48.3L13.5,48.3z M17.4,52l0.2-0.3
	c-0.2-0.2-0.4-0.6-0.6-0.6c-1.4-0.2-2.9-0.3-4.3-0.4l-0.1,0.2L17.4,52L17.4,52z M55.3,43.4L55,43.2c-0.5,0.2-1,0.5-1.5,0.7
	c-0.2,0.1-0.2,0.3-0.3,0.5c0,0.6,0,1.2,0,1.8l0.2,0.1L55.3,43.4L55.3,43.4z M58.8,40.8C57.7,41.9,57,43.4,57,45
	C58.2,43.9,58.9,42.4,58.8,40.8z M8.2,24c-1.2,2.1-1.7,4.5-1.5,6.8c0.7-0.8,1.2-1.5,0.9-2.4c-0.1-0.5-0.1-1.1,0-1.6
	C7.8,25.9,8,24.9,8.2,24L8.2,24z M55.2,48.8c-2.1,1-4.6,1.1-6.5,3.1C51.1,51.3,53.3,50.3,55.2,48.8z M40.9,17.7l0.2-0.4
	c-1.5-0.9-3-1.8-4.5-2.6c-0.3-0.2-0.8-0.1-1.2-0.1l-0.1,0.3L40.9,17.7L40.9,17.7z M14.3,21.2l4.8-4.2C17.1,18,14.5,18.3,14.3,21.2z
	 M26.8,5.8c1.2-0.3,2.4-0.6,3.6-0.8c1.2-0.2,2.5-0.4,3.7-0.5c1.2-0.1,2.5,0,3.7,0l0-0.2C34.1,3.4,30.2,4,26.8,5.8L26.8,5.8z
	 M54.1,17c-0.8-2.4-2.4-4.5-4.5-6.1c0.3,0.8,0.6,1.5,0.9,2.2c0.1,0.4,0.3,0.8,0.6,1.2C52.1,15.2,53.1,16.1,54.1,17L54.1,17z
	 M35.4,10.7c-3.1-1.1-6.5-1.4-9.8-1c1.1,0.2,2.2,0.2,3.2,0.4c1,0.2,2.1,0.4,3.1,0.7C33,11.1,34.3,11.1,35.4,10.7L35.4,10.7z
	 M48.2,48.4c1.7-0.1,2.9-1.6,2.8-3.2c0-0.1,0-0.1,0-0.2c-0.7,0.2-1.4,0.4-2.2,0.7c-0.2,0.1-0.4,0.3-0.5,0.6
	C48.2,47,48.2,47.7,48.2,48.4L48.2,48.4z M56.6,28.4l0.3,0.1c0.5-0.7,1.1-1.4,1.6-2.2c0.8-1.5,0.5-2.3-1.1-3.1L56.6,28.4L56.6,28.4z
	 M28.5,12.2L28.2,12l-0.7-0.1c-2.4-0.3-4.8-0.2-7.3,0.1c-1,0.2-1.9,0.8-2.4,1.6C21.3,12.6,24.9,12.1,28.5,12.2L28.5,12.2z
	 M37.3,51.5l0,0.2c1.9,0.6,3.8,0.8,5.8,0.7c0.5,0,0.9-0.6,1.5-1c-1.7-0.4-3-0.7-4.3-1c-0.1,0-0.3,0-0.4,0
	C39,50.8,38.2,51.2,37.3,51.5L37.3,51.5z M20.9,53.9c2.3,1.3,5,1.9,7.7,1.7c-1-0.8-1.9-1.5-2.8-2.2c-0.1-0.1-0.2-0.1-0.4-0.1
	C24,53.5,22.6,53.7,20.9,53.9L20.9,53.9z M48.7,21c-1-3.3-4-5.6-7.5-6V15c2.2,1.9,4.4,3.8,6.6,5.7C48.1,20.8,48.4,20.9,48.7,21
	L48.7,21z M54.3,27c0.5-1.3,0.5-2.7-0.2-3.9c-0.4-1.3-0.6-1.3-1.9-1c-0.5,0.1-0.7,0.3-0.5,0.8c0.3,0.9,0.4,1.9,0.6,2.8
	c0,0.3,0.2,0.5,0.4,0.6C53.2,26.5,53.7,26.8,54.3,27L54.3,27z M4.7,27.9c0.1-0.3,0.2-0.5,0.2-0.7c0.6-3.1,2.2-6,4.6-8.3
	c0.7-0.7,0.6-1.6,1-2.6C6.7,19.1,4.6,23.4,4.7,27.9L4.7,27.9z M2.6,27.1c-1.2,3.7-0.3,7.7,2.3,10.7C5,36.9,5.1,36,5.2,35.1
	c0-0.2,0-0.4-0.1-0.5C3.5,32.4,2.6,29.8,2.6,27.1L2.6,27.1z M61.4,33.9c1-2.2,0.7-4.8-0.8-6.8l-2.2,3L61.4,33.9L61.4,33.9z
	 M38.2,54.1l-4-1.3c-0.2-0.1-0.5-0.3-0.8-0.3c-1.6,0.2-3.2,0.3-4.9,0.5C31.3,55.2,35.1,55.6,38.2,54.1L38.2,54.1z M32,2.1
	c-6.3-0.3-12.3,2.6-15.9,7.6c1.3-0.2,2.5-0.8,3.6-1.6c0.9-0.7,1.8-1.5,2.7-2.1C25.2,4,28.5,2.7,32,2.1L32,2.1z M28.7,7.4l0.2,0.2
	l0.5,0c3.1,0.1,6.2,0.8,9,2c2.6,0.8,5.2,1.5,7.8,2.1l0.2-0.1c-0.3-0.5-0.6-1-0.8-1.5c-0.7-1.6-2.3-2.8-4.1-3
	C37.3,6.1,32.8,6.3,28.7,7.4L28.7,7.4z M12.3,52.8c0,0.2,0,0.4,0,0.6c0.1,2.9,1.7,5.6,4.4,7.1c2.3,1.3,5,1.8,7.7,1.5
	c4.3-0.4,8.5-1.7,12.2-3.9c0.2-0.2,0.5-0.3,0.7-0.5l-0.1-0.2c-1.4,0-2.7,0-4.1,0c-2.5,0.3-5,0.4-7.5,0.3c-2.4,0-4.6-0.8-6.3-2.4
	c-0.8-1-2-1.5-3.3-1.6C14.8,53.4,13.5,53.1,12.3,52.8L12.3,52.8z M30.3,0c4.1-0.1,8.2,1.1,11.6,3.3c2.2,1.5,4.3,3,6.7,4.3
	C53,9.9,56,14,56.9,18.7c0.1,0.7,0.6,1.3,1.3,1.5c1.7,0.5,3,2,3.1,3.7c0.1,0.4,0.2,0.8,0.5,1.1c2.1,2.5,2.7,5.9,1.8,8.9
	c-0.6,1.8-0.9,3.8-0.9,5.8c-0.1,3.4-1.5,6.6-4.1,9c-4.3,4.2-9.8,7.1-15.8,8.1c-0.7,0.2-1.4,0.5-2,0.9c-4.2,3-9,5-14.1,5.9
	c-3.4,0.7-6.9,0.3-10-1c-4.1-1.7-6.7-5.8-6.4-10.1c0-0.5-0.2-1.1-0.7-1.4c-3.3-2.3-5.2-6-4.9-9.9c0-0.4-0.1-0.7-0.3-1
	c-4-3.7-5.3-9.3-3.5-14.4C2.5,20,6.4,15.1,11.8,12c0.4-0.3,0.7-0.6,1-1c2.5-4.4,6.4-7.8,11.2-9.7C26,0.5,28.2,0,30.3,0L30.3,0z"/>
</svg>
