<?xml version="1.0" encoding="utf-8"?>
<svg width="64px" height="64px" viewBox="0 0 64 64" version="1.1" xmlns="http://www.w3.org/2000/svg" xmlns:xlink="http://www.w3.org/1999/xlink">
<path fill="#FED204" d="M41.5,8.4c5.2,1.5,13.5-4.6,16.9,0c3.8,5.1-4.7,11-4,13.6c0.9,3.4,8.5,3.9,9.5,9c0.6,2.8-1.4,4.5-6.9,6.1
	c-12.8,3.9,5.4,9.8,1.4,17.4c-1.7,3.1-7.8-1.6-10.5-0.5c-4.6,1.8-4.2,8.5-7.9,9.8c-4.6,1.6-6.9-5.7-11.4-6.3
	c-4.9-0.7-9.9,5.9-13.4,4.3c-3.5-1.6,2.5-9.2-2-12.4c-2.7-1.9-9.6,0-11.1-4.1s6.8-6.9,6.8-10.1C8.9,32,0,29.6,0,25.9
	c0-3.7,8-3.7,8.9-6.9c0.9-3.2-5.7-8.5-3.4-11.7c3.1-4.2,7.7,3.7,13.9,1.1S24.5,0,29.8,0C35.8,0,36.3,6.9,41.5,8.4z"/>
</svg>
