<?xml version="1.0" encoding="utf-8"?>
<svg width="64px" height="64px" viewBox="0 0 64 64" version="1.1" xmlns="http://www.w3.org/2000/svg" xmlns:xlink="http://www.w3.org/1999/xlink">
<polygon fill="#BED731" points="59.8,47 51.5,42.8 58.1,54.8 46.7,49.1 49.4,58 41.2,49.1 41.6,62.6 35.8,54.7 33.4,59.6 30.5,51.4 
	25.4,64 20.9,51.4 16.4,56.6 17.3,50.4 4.7,56.6 12.7,43.2 2.1,41.6 9.9,35.8 4.1,35.8 8.5,31.8 0,26.5 9.9,23.6 4.1,18.3 
	11.4,19.2 5.6,7 18.6,15.1 17.5,3.5 24.2,10.9 28.3,0 33.1,8.7 37,3.9 38.4,10.1 47.8,2.7 46.6,11.9 51.5,10.2 49.4,15.4 61.5,14 
	53.2,23.4 59,25.2 53,28 64,34.6 53,37.7 "/>
</svg>
